<svg width="119" height="80" viewBox="0 0 119 80" fill="none" xmlns="http://www.w3.org/2000/svg">
<path d="M107.75 40.2241C107.75 47.9533 102.598 55.1556 93.8316 60.4915C85.0877 65.8139 72.9283 69.1465 59.431 69.1465C45.9337 69.1465 33.7743 65.8139 25.0304 60.4915C16.2643 55.1556 11.1121 47.9533 11.1121 40.2241C11.1121 32.4949 16.2643 25.2926 25.0304 19.9567C33.7743 14.6343 45.9337 11.3017 59.431 11.3017C72.9283 11.3017 85.0877 14.6343 93.8316 19.9567C102.598 25.2926 107.75 32.4949 107.75 40.2241Z" fill="#FDC334" stroke="#100C0D" stroke-width="2.5"/>
<path d="M28.8276 17.8103C26.2414 17.2356 21.069 15.0517 21.069 10.9138" stroke="#100C0D" stroke-width="2.5"/>
<path d="M54.2585 11.7759C52.9654 10.1954 50.5516 5.82759 51.2413 1" stroke="#100C0D" stroke-width="2.5"/>
<path d="M94.7759 20.3965C96.069 20.3965 102.534 20.3965 98.6552 14.7931" stroke="#100C0D" stroke-width="2.5"/>
<path d="M43 67.6552L37 78.6552M29.5 63.1552L18.5 69.1552M17.5 54.1552L10 61.1552M11.5 44.1552H0M13 32.6552L5.5 26.6552M20 23.1552L10 16.6552M33.5 16.6552L34.5 6.15515M46 12.6552C46 11.8552 42.6667 5.65515 41 2.65515M60.5 10.6552L67 2.65515M71 12.6552L78 2.65515M83 14.6552V7.15515M101.5 25.6552L114 21.6552M107 35.6552L118 39.1552M107 45.1552C107.8 45.1552 112.667 45.1552 115 45.1552M102.5 53.1552L110 62.1552M95 59.6552L100 67.6552M85.5 64.6552L92 72.1552M75.5 67.6552L73 77.6552M57 69.1552L58 78.6552" stroke="#100C0D" stroke-width="2.5"/>
<circle cx="61" cy="21.1552" r="16.75" fill="white" stroke="#100C0D" stroke-width="2.5"/>
<rect x="60.75" y="14.9052" width="1.5" height="12.5" rx="0.75" fill="#100C0D" stroke="#100C0D" stroke-width="1.5"/>
</svg>
