<svg width="119" height="81" viewBox="0 0 119 81" fill="none" xmlns="http://www.w3.org/2000/svg">
<path d="M109.25 39.7241C109.25 47.4533 104.098 54.6556 95.3316 59.9915C86.5877 65.3139 74.4283 68.6465 60.931 68.6465C47.4337 68.6465 35.2743 65.3139 26.5304 59.9915C17.7643 54.6556 12.6121 47.4533 12.6121 39.7241C12.6121 31.9949 17.7643 24.7926 26.5304 19.4567C35.2743 14.1343 47.4337 10.8017 60.931 10.8017C74.4283 10.8017 86.5877 14.1343 95.3316 19.4567C104.098 24.7926 109.25 31.9949 109.25 39.7241Z" fill="#FDC334" stroke="#100C0D" stroke-width="2.5"/>
<path d="M30.3276 17.3103C27.7414 16.7356 24.931 13.5862 21 11" stroke="#100C0D" stroke-width="2.5"/>
<path d="M55.7585 11.2759C54.4654 9.6954 50.8103 5.82759 51.5 1" stroke="#100C0D" stroke-width="2.5"/>
<path d="M96.2759 19.8965C97.569 19.8965 96 12.5 101.5 13" stroke="#100C0D" stroke-width="2.5"/>
<path d="M44.5 67.1552V67.1552C43.201 70.3019 42.9456 73.7823 43.7712 77.0849L44.5 80M31 62.6552V62.6552C26.3604 64.1057 22.8499 67.9255 21.7954 72.6709L21.5 74M19 53.6552L5.5 56.5M13 43.6552L1 42M14.5 32.1552L5.5 31M21.5 22.6552V22.6552C18.4931 19.5549 13.8773 18.6474 9.92051 20.3785L8.5 21M35 16.1552L34 6.5M47.5 12.1552C47.5 11.3552 40 7.5 42 4.5M70 14.1552L66.5 1.5M72.5 12.1552L77 3M84.5 14.1552L86.5 6.5M103 25.1552V25.1552C106.319 23.2514 110.464 23.571 113.451 25.961L116 28M108.5 35.1552L118 40.5M108.5 44.6552C109.3 44.6552 114 49 118 46M104 52.6552L109.5 62.6552M96.5 59.1552V59.1552C96.5 62.5927 98.8335 65.5916 102.166 66.4365L105 67.1552M87 64.1552L84.5 75M77 67.1552V67.1552C77.546 69.8003 75.7845 72.3693 73.1203 72.8133L69 73.5M58.5 68.6552V68.6552C59.0513 71.3261 57.3233 73.9353 54.6491 74.4702L52 75" stroke="#100C0D" stroke-width="2.5"/>
<circle cx="62.5" cy="21" r="16.75" fill="white" stroke="#100C0D" stroke-width="2.5"/>
<rect x="62.25" y="14.4052" width="1.5" height="12.5" rx="0.75" fill="#100C0D" stroke="#100C0D" stroke-width="1.5"/>
</svg>
