<svg width="149" height="182" viewBox="0 0 149 182" fill="none" xmlns="http://www.w3.org/2000/svg">
<path d="M78.5 113.5C81.5 131 76.5 160.5 55.5 175" stroke="#100C0D" stroke-width="10" stroke-linecap="round"/>
<path d="M83.5001 120.5C83.5001 120.5 112.5 113.5 121 132C129.5 150.5 121 167 121 167" stroke="#100C0D" stroke-width="10" stroke-linecap="round"/>
<path d="M137.499 22.9839C137.499 35.6775 127.209 45.9677 114.515 45.9677C101.821 45.9677 91.5312 35.6775 91.5312 22.9839C91.5312 10.2902 101.821 0 114.515 0C127.209 0 137.499 10.2902 137.499 22.9839Z" fill="white"/>
<path fill-rule="evenodd" clip-rule="evenodd" d="M114.515 39.9194C123.868 39.9194 131.451 32.3371 131.451 22.9839C131.451 13.6307 123.868 6.04839 114.515 6.04839C105.162 6.04839 97.5796 13.6307 97.5796 22.9839C97.5796 32.3371 105.162 39.9194 114.515 39.9194ZM114.515 45.9677C127.209 45.9677 137.499 35.6775 137.499 22.9839C137.499 10.2902 127.209 0 114.515 0C101.821 0 91.5312 10.2902 91.5312 22.9839C91.5312 35.6775 101.821 45.9677 114.515 45.9677Z" fill="#100C0D"/>
<path d="M131.613 22.3065C131.613 29.6554 125.655 35.6129 118.306 35.6129C110.958 35.6129 105 29.6554 105 22.3065C105 14.9575 110.958 9 118.306 9C125.655 9 131.613 14.9575 131.613 22.3065Z" fill="#100C0D"/>
<path d="M141.36 178.171C140.589 180.021 138.465 180.895 136.615 180.124L105.35 167.096C103.5 166.325 102.625 164.2 103.396 162.35C104.167 160.5 106.292 159.625 108.142 160.396L139.407 173.425C141.257 174.196 142.131 176.321 141.36 178.171Z" fill="#100C0D"/>
<path d="M41 176.629C41 174.625 42.6248 173 44.629 173H76.0806C78.0849 173 79.7097 174.625 79.7097 176.629C79.7097 178.633 78.0849 180.258 76.0806 180.258H60.3548H44.629C42.6248 180.258 41 178.633 41 176.629Z" fill="#100C0D"/>
<path fill-rule="evenodd" clip-rule="evenodd" d="M142.263 13.9042C144.199 13.192 146.081 15.0741 145.369 17.0101L99.5267 141.623C98.3072 144.938 94.0617 145.871 91.564 143.374L63.999 115.808L24.5928 155.533C23.6491 156.485 22.1119 156.488 21.1644 155.54L3.73281 138.109C2.7853 137.161 2.7884 135.624 3.73974 134.68L43.4659 95.2739L15.9008 67.7077C13.4032 65.21 14.3367 60.9646 17.6517 59.7451L142.263 13.9042Z" fill="white"/>
<path fill-rule="evenodd" clip-rule="evenodd" d="M141.219 11.066C145.575 9.46353 149.81 13.6982 148.207 18.0542L102.365 142.667C100.383 148.054 93.4842 149.571 89.4255 145.512L64.0076 120.093L26.7398 157.663C24.6165 159.804 21.1579 159.811 19.026 157.679L1.59438 140.247C-0.537536 138.115 -0.530547 134.657 1.60996 132.533L39.1805 95.2652L13.7623 69.8461C9.70368 65.7874 11.2207 58.8886 16.6076 56.9069L141.219 11.066ZM142.079 17.1943L18.6958 62.5834C17.4527 63.0407 17.1026 64.6327 18.0392 65.5693L47.7514 95.2826L6.30065 136.4L22.8734 152.973L63.9904 111.522L93.7025 141.235C94.6391 142.172 96.2312 141.822 96.6885 140.579L142.079 17.1943Z" fill="#100C0D"/>
<path d="M96.37 37.5C96.37 50.1936 86.0797 60.4839 73.3861 60.4839C60.6925 60.4839 50.4022 50.1936 50.4022 37.5C50.4022 24.8063 60.6925 14.5161 73.3861 14.5161C86.0797 14.5161 96.37 24.8063 96.37 37.5Z" fill="white"/>
<path fill-rule="evenodd" clip-rule="evenodd" d="M73.3861 54.4355C82.7393 54.4355 90.3216 46.8532 90.3216 37.5C90.3216 28.1468 82.7393 20.5645 73.3861 20.5645C64.0329 20.5645 56.4506 28.1468 56.4506 37.5C56.4506 46.8532 64.0329 54.4355 73.3861 54.4355ZM73.3861 60.4839C86.0797 60.4839 96.37 50.1936 96.37 37.5C96.37 24.8063 86.0797 14.5161 73.3861 14.5161C60.6925 14.5161 50.4022 24.8063 50.4022 37.5C50.4022 50.1936 60.6925 60.4839 73.3861 60.4839Z" fill="#100C0D"/>
<path d="M91.6129 38.3065C91.6129 45.6554 85.6554 51.6129 78.3065 51.6129C70.9575 51.6129 65 45.6554 65 38.3065C65 30.9575 70.9575 25 78.3065 25C85.6554 25 91.6129 30.9575 91.6129 38.3065Z" fill="#100C0D"/>
<path fill-rule="evenodd" clip-rule="evenodd" d="M106.219 39.1059C107.336 37.8645 109.248 37.7638 110.49 38.8812C114.034 42.071 123.672 47.0807 133.727 42.0531C135.221 41.3062 137.038 41.9117 137.785 43.4056C138.532 44.8995 137.926 46.716 136.432 47.463C123.262 54.0483 110.964 47.4451 106.444 43.3769C105.202 42.2596 105.102 40.3474 106.219 39.1059Z" fill="#100C0D"/>
</svg>
