<svg width="124" height="117" viewBox="0 0 124 117" fill="none" xmlns="http://www.w3.org/2000/svg">
<path d="M5.81997 105.986H7.97597L7.77997 107.078H5.62397L4.39197 114.008C4.24264 114.829 3.96264 115.408 3.55197 115.744C3.15064 116.08 2.66064 116.248 2.08197 116.248C1.77397 116.248 1.49397 116.206 1.24197 116.122C0.980635 116.038 0.751969 115.921 0.555969 115.772L1.05997 114.736C1.19064 114.857 1.34464 114.955 1.52197 115.03C1.6993 115.114 1.89064 115.156 2.09597 115.156C2.34797 115.156 2.5673 115.067 2.75397 114.89C2.94064 114.713 3.06664 114.428 3.13197 114.036L4.36397 107.078H3.24397L3.43997 105.986H4.55997L4.76997 104.866C4.92864 104.007 5.23197 103.396 5.67997 103.032C6.1373 102.659 6.7113 102.472 7.40197 102.472C7.78464 102.472 8.1393 102.523 8.46597 102.626C8.79264 102.719 9.08664 102.836 9.34797 102.976L8.85797 104.04C8.6433 103.928 8.4193 103.825 8.18597 103.732C7.96197 103.639 7.69597 103.592 7.38797 103.592C7.04264 103.592 6.74864 103.695 6.50597 103.9C6.2633 104.096 6.10464 104.404 6.02997 104.824L5.81997 105.986ZM9.34295 104.474C9.08162 104.474 8.88095 104.399 8.74095 104.25C8.61029 104.091 8.54495 103.909 8.54495 103.704C8.54495 103.405 8.63829 103.167 8.82495 102.99C9.01162 102.803 9.24495 102.71 9.52495 102.71C9.78629 102.71 9.98229 102.789 10.113 102.948C10.253 103.097 10.323 103.275 10.323 103.48C10.323 103.769 10.2296 104.007 10.043 104.194C9.85629 104.381 9.62295 104.474 9.34295 104.474ZM8.40495 113H7.14495L8.41895 105.72H9.67895L8.40495 113ZM15.243 107.19C15.0097 107.041 14.7577 106.919 14.487 106.826C14.2163 106.723 13.9177 106.672 13.591 106.672C13.0777 106.672 12.625 106.807 12.233 107.078C11.8503 107.349 11.5517 107.717 11.337 108.184C11.1223 108.641 11.015 109.159 11.015 109.738C11.015 110.447 11.1923 111.012 11.547 111.432C11.911 111.843 12.3963 112.048 13.003 112.048C13.3577 112.048 13.6703 112.006 13.941 111.922C14.2117 111.838 14.459 111.74 14.683 111.628L14.837 112.734C14.6037 112.837 14.319 112.935 13.983 113.028C13.6563 113.121 13.2597 113.168 12.793 113.168C12.1863 113.168 11.6497 113.033 11.183 112.762C10.7257 112.491 10.3663 112.113 10.105 111.628C9.85298 111.133 9.72698 110.559 9.72698 109.906C9.72698 109.122 9.88565 108.403 10.203 107.75C10.5297 107.087 10.987 106.555 11.575 106.154C12.1723 105.753 12.877 105.552 13.689 105.552C14.1277 105.552 14.515 105.608 14.851 105.72C15.1963 105.823 15.4997 105.953 15.761 106.112L15.243 107.19ZM20.8924 107.848C20.8924 107.493 20.7851 107.209 20.5704 106.994C20.3651 106.77 20.0944 106.658 19.7584 106.658C19.4318 106.658 19.0724 106.775 18.6804 107.008C18.2978 107.241 17.9478 107.605 17.6304 108.1C17.3131 108.595 17.0844 109.234 16.9444 110.018L16.4264 113H15.1664L16.9864 102.64H18.2464L17.4344 107.246C17.7238 106.733 18.1018 106.322 18.5684 106.014C19.0444 105.706 19.5438 105.552 20.0664 105.552C20.7104 105.552 21.2191 105.748 21.5924 106.14C21.9751 106.523 22.1664 106.994 22.1664 107.554C22.1664 107.787 22.1384 108.081 22.0824 108.436L21.2844 113H20.0244L20.7944 108.646C20.8411 108.422 20.8691 108.259 20.8784 108.156C20.8878 108.044 20.8924 107.941 20.8924 107.848ZM24.6086 104.474C24.3472 104.474 24.1466 104.399 24.0066 104.25C23.8759 104.091 23.8106 103.909 23.8106 103.704C23.8106 103.405 23.9039 103.167 24.0906 102.99C24.2772 102.803 24.5106 102.71 24.7906 102.71C25.0519 102.71 25.2479 102.789 25.3786 102.948C25.5186 103.097 25.5886 103.275 25.5886 103.48C25.5886 103.769 25.4952 104.007 25.3086 104.194C25.1219 104.381 24.8886 104.474 24.6086 104.474ZM23.6706 113H22.4106L23.6846 105.72H24.9446L23.6706 113ZM28.1286 113.168C27.5126 113.168 26.9666 113.037 26.4906 112.776C26.0239 112.505 25.6553 112.123 25.3846 111.628C25.1233 111.124 24.9926 110.531 24.9926 109.85C24.9926 109.075 25.1513 108.361 25.4686 107.708C25.7953 107.055 26.2526 106.532 26.8406 106.14C27.4379 105.748 28.1333 105.552 28.9266 105.552C29.4679 105.552 29.9253 105.655 30.2986 105.86C30.6813 106.065 30.9753 106.331 31.1806 106.658C31.3859 106.985 31.4886 107.335 31.4886 107.708C31.4886 108.221 31.3673 108.646 31.1246 108.982C30.8819 109.318 30.5693 109.579 30.1866 109.766C29.8039 109.943 29.3886 110.069 28.9406 110.144C28.5019 110.219 28.0819 110.256 27.6806 110.256C27.4286 110.256 27.1766 110.247 26.9246 110.228C26.6819 110.2 26.4673 110.172 26.2806 110.144C26.3553 110.76 26.5746 111.231 26.9386 111.558C27.3026 111.885 27.7693 112.048 28.3386 112.048C28.8053 112.048 29.2206 111.987 29.5846 111.866C29.9486 111.745 30.2566 111.623 30.5086 111.502L30.6206 112.622C30.3406 112.753 29.9859 112.879 29.5566 113C29.1273 113.112 28.6513 113.168 28.1286 113.168ZM28.8286 106.616C28.3899 106.616 27.9933 106.728 27.6386 106.952C27.2839 107.167 26.9899 107.465 26.7566 107.848C26.5326 108.221 26.3833 108.651 26.3086 109.136C26.5233 109.173 26.7379 109.206 26.9526 109.234C27.1766 109.253 27.4193 109.262 27.6806 109.262C28.4646 109.262 29.0853 109.155 29.5426 108.94C29.9999 108.716 30.2286 108.338 30.2286 107.806C30.2286 107.479 30.0979 107.199 29.8366 106.966C29.5846 106.733 29.2486 106.616 28.8286 106.616ZM32.3727 107.764C32.382 107.717 32.3867 107.666 32.3867 107.61C32.396 107.545 32.4007 107.479 32.4007 107.414C32.4007 107.153 32.326 106.971 32.1767 106.868C32.0274 106.756 31.8314 106.7 31.5887 106.7L32.0227 105.72C32.5174 105.72 32.8954 105.841 33.1567 106.084C33.4274 106.317 33.5627 106.667 33.5627 107.134V107.414C33.8334 106.751 34.1787 106.275 34.5987 105.986C35.028 105.697 35.5134 105.552 36.0547 105.552C36.2694 105.552 36.4514 105.571 36.6007 105.608C36.7594 105.636 36.89 105.673 36.9927 105.72L36.4327 106.952C36.3207 106.905 36.204 106.873 36.0827 106.854C35.9614 106.835 35.8214 106.826 35.6627 106.826C35.3267 106.826 34.9907 106.947 34.6547 107.19C34.328 107.423 34.0294 107.815 33.7587 108.366C33.4974 108.917 33.2827 109.673 33.1147 110.634L32.7087 113H31.4487L32.3727 107.764ZM39.1098 105.888L40.2998 105.58L41.7418 111.6L45.2278 105.58L46.2498 106.182L42.1618 113H40.8598L39.1098 105.888ZM48.6068 113.168C47.9162 113.168 47.3188 113.028 46.8148 112.748C46.3108 112.468 45.9188 112.081 45.6388 111.586C45.3682 111.082 45.2328 110.513 45.2328 109.878C45.2328 109.066 45.3962 108.333 45.7228 107.68C46.0588 107.027 46.5255 106.509 47.1228 106.126C47.7202 105.743 48.4248 105.552 49.2368 105.552C49.9275 105.552 50.5248 105.692 51.0288 105.972C51.5328 106.252 51.9202 106.639 52.1908 107.134C52.4708 107.629 52.6108 108.198 52.6108 108.842C52.6108 109.645 52.4475 110.377 52.1208 111.04C51.7942 111.693 51.3275 112.211 50.7208 112.594C50.1235 112.977 49.4188 113.168 48.6068 113.168ZM48.6488 112.048C49.2088 112.048 49.6848 111.913 50.0768 111.642C50.4782 111.362 50.7862 110.989 51.0008 110.522C51.2155 110.055 51.3228 109.533 51.3228 108.954C51.3228 108.525 51.2388 108.142 51.0708 107.806C50.9028 107.461 50.6602 107.185 50.3428 106.98C50.0255 106.775 49.6428 106.672 49.1948 106.672C48.6442 106.672 48.1682 106.812 47.7668 107.092C47.3655 107.363 47.0575 107.731 46.8428 108.198C46.6282 108.665 46.5208 109.187 46.5208 109.766C46.5208 110.186 46.6048 110.569 46.7728 110.914C46.9408 111.259 47.1835 111.535 47.5008 111.74C47.8182 111.945 48.2008 112.048 48.6488 112.048ZM54.167 110.48C54.1484 110.601 54.1344 110.713 54.125 110.816C54.1157 110.909 54.111 110.993 54.111 111.068C54.111 111.385 54.2044 111.633 54.391 111.81C54.587 111.987 54.8437 112.076 55.161 112.076C55.3197 112.076 55.4784 112.057 55.637 112.02C55.7957 111.983 55.9404 111.931 56.071 111.866L56.197 112.888C56.029 112.972 55.833 113.037 55.609 113.084C55.385 113.14 55.1424 113.168 54.881 113.168C54.321 113.168 53.8404 113.009 53.439 112.692C53.047 112.365 52.851 111.875 52.851 111.222C52.851 110.979 52.8697 110.741 52.907 110.508L54.279 102.64H55.539L54.167 110.48ZM58.2961 113.168C57.9227 113.168 57.5774 113.084 57.2601 112.916C56.9521 112.748 56.7047 112.515 56.5181 112.216C56.3314 111.908 56.2381 111.544 56.2381 111.124C56.2381 111.003 56.2427 110.881 56.2521 110.76C56.2614 110.629 56.2754 110.494 56.2941 110.354L57.0921 105.72H58.3521L57.5401 110.326C57.5307 110.419 57.5214 110.503 57.5121 110.578C57.5027 110.643 57.4981 110.718 57.4981 110.802C57.4981 111.222 57.6194 111.535 57.8621 111.74C58.1047 111.945 58.3894 112.048 58.7161 112.048C59.0707 112.048 59.4161 111.941 59.7521 111.726C60.0974 111.502 60.4007 111.185 60.6621 110.774C60.9234 110.363 61.1054 109.869 61.2081 109.29L61.8381 105.72H63.0981L62.1741 111.026C62.1647 111.073 62.1554 111.129 62.1461 111.194C62.1461 111.25 62.1461 111.311 62.1461 111.376C62.1461 111.637 62.2207 111.824 62.3701 111.936C62.5194 112.039 62.7154 112.09 62.9581 112.09L62.5241 113.07C62.0201 113.07 61.6327 112.949 61.3621 112.706C61.1007 112.454 60.9701 112.067 60.9701 111.544V111.418C60.2887 112.585 59.3974 113.168 58.2961 113.168ZM72.3475 106.658C72.0395 106.658 71.7035 106.775 71.3395 107.008C70.9755 107.241 70.6442 107.605 70.3455 108.1C70.0468 108.585 69.8275 109.215 69.6875 109.99L69.1555 113H67.8955L68.6935 108.646C68.7402 108.422 68.7682 108.259 68.7775 108.156C68.7868 108.044 68.7915 107.941 68.7915 107.848C68.7915 107.484 68.6842 107.195 68.4695 106.98C68.2642 106.765 67.9935 106.658 67.6575 106.658C67.3308 106.658 66.9855 106.779 66.6215 107.022C66.2575 107.265 65.9262 107.643 65.6275 108.156C65.3288 108.66 65.1095 109.309 64.9695 110.102L64.4655 113H63.2055L64.4795 105.72H65.6975L65.3895 107.4C65.6695 106.84 66.0475 106.392 66.5235 106.056C67.0088 105.72 67.5082 105.552 68.0215 105.552C68.6002 105.552 69.0668 105.729 69.4215 106.084C69.7762 106.429 69.9768 106.868 70.0235 107.4C70.3408 106.821 70.7282 106.369 71.1855 106.042C71.6522 105.715 72.1562 105.552 72.6975 105.552C73.3228 105.552 73.8175 105.748 74.1815 106.14C74.5548 106.523 74.7415 106.994 74.7415 107.554C74.7415 107.787 74.7135 108.081 74.6575 108.436L73.8455 113H72.5855L73.3835 108.646C73.4302 108.422 73.4582 108.259 73.4675 108.156C73.4768 108.044 73.4815 107.941 73.4815 107.848C73.4815 107.484 73.3742 107.195 73.1595 106.98C72.9542 106.765 72.6835 106.658 72.3475 106.658ZM77.1867 104.474C76.9254 104.474 76.7247 104.399 76.5847 104.25C76.454 104.091 76.3887 103.909 76.3887 103.704C76.3887 103.405 76.482 103.167 76.6687 102.99C76.8554 102.803 77.0887 102.71 77.3687 102.71C77.63 102.71 77.826 102.789 77.9567 102.948C78.0967 103.097 78.1667 103.275 78.1667 103.48C78.1667 103.769 78.0734 104.007 77.8867 104.194C77.7 104.381 77.4667 104.474 77.1867 104.474ZM76.2487 113H74.9887L76.2627 105.72H77.5227L76.2487 113ZM82.1487 106.658C81.8221 106.658 81.4674 106.779 81.0847 107.022C80.7021 107.265 80.3474 107.643 80.0207 108.156C79.7034 108.66 79.4747 109.309 79.3347 110.102L78.8307 113H77.5707L78.8447 105.72H80.0627L79.7547 107.4C80.0441 106.84 80.4314 106.392 80.9167 106.056C81.4114 105.72 81.9294 105.552 82.4707 105.552C83.1054 105.552 83.6141 105.748 83.9967 106.14C84.3794 106.523 84.5707 106.994 84.5707 107.554C84.5707 107.787 84.5427 108.081 84.4867 108.436L83.6887 113H82.4287L83.1987 108.646C83.2454 108.422 83.2734 108.259 83.2827 108.156C83.2921 108.044 83.2967 107.941 83.2967 107.848C83.2967 107.484 83.1894 107.195 82.9747 106.98C82.7694 106.765 82.4941 106.658 82.1487 106.658ZM87.9509 113.168C87.3349 113.168 86.7889 113.037 86.3129 112.776C85.8462 112.505 85.4775 112.123 85.2069 111.628C84.9455 111.124 84.8149 110.531 84.8149 109.85C84.8149 109.075 84.9735 108.361 85.2909 107.708C85.6175 107.055 86.0749 106.532 86.6629 106.14C87.2602 105.748 87.9555 105.552 88.7489 105.552C89.2902 105.552 89.7475 105.655 90.1209 105.86C90.5035 106.065 90.7975 106.331 91.0029 106.658C91.2082 106.985 91.3109 107.335 91.3109 107.708C91.3109 108.221 91.1895 108.646 90.9469 108.982C90.7042 109.318 90.3915 109.579 90.0089 109.766C89.6262 109.943 89.2109 110.069 88.7629 110.144C88.3242 110.219 87.9042 110.256 87.5029 110.256C87.2509 110.256 86.9989 110.247 86.7469 110.228C86.5042 110.2 86.2895 110.172 86.1029 110.144C86.1775 110.76 86.3969 111.231 86.7609 111.558C87.1249 111.885 87.5915 112.048 88.1609 112.048C88.6275 112.048 89.0429 111.987 89.4069 111.866C89.7709 111.745 90.0789 111.623 90.3309 111.502L90.4429 112.622C90.1629 112.753 89.8082 112.879 89.3789 113C88.9495 113.112 88.4735 113.168 87.9509 113.168ZM88.6509 106.616C88.2122 106.616 87.8155 106.728 87.4609 106.952C87.1062 107.167 86.8122 107.465 86.5789 107.848C86.3549 108.221 86.2055 108.651 86.1309 109.136C86.3455 109.173 86.5602 109.206 86.7749 109.234C86.9989 109.253 87.2415 109.262 87.5029 109.262C88.2869 109.262 88.9075 109.155 89.3649 108.94C89.8222 108.716 90.0509 108.338 90.0509 107.806C90.0509 107.479 89.9202 107.199 89.6589 106.966C89.4069 106.733 89.0709 106.616 88.6509 106.616ZM93.259 113.168C92.8856 113.168 92.5403 113.084 92.223 112.916C91.915 112.748 91.6676 112.515 91.481 112.216C91.2943 111.908 91.201 111.544 91.201 111.124C91.201 111.003 91.2056 110.881 91.215 110.76C91.2243 110.629 91.2383 110.494 91.257 110.354L92.055 105.72H93.315L92.503 110.326C92.4936 110.419 92.4843 110.503 92.475 110.578C92.4656 110.643 92.461 110.718 92.461 110.802C92.461 111.222 92.5823 111.535 92.825 111.74C93.0676 111.945 93.3523 112.048 93.679 112.048C94.0336 112.048 94.379 111.941 94.715 111.726C95.0603 111.502 95.3636 111.185 95.625 110.774C95.8863 110.363 96.0683 109.869 96.171 109.29L96.801 105.72H98.061L97.137 111.026C97.1276 111.073 97.1183 111.129 97.109 111.194C97.109 111.25 97.109 111.311 97.109 111.376C97.109 111.637 97.1836 111.824 97.333 111.936C97.4823 112.039 97.6783 112.09 97.921 112.09L97.487 113.07C96.983 113.07 96.5956 112.949 96.325 112.706C96.0636 112.454 95.933 112.067 95.933 111.544V111.418C95.2516 112.585 94.3603 113.168 93.259 113.168ZM100.394 109.234L98.2664 106.378L99.3584 105.566L101.206 108.45L103.754 105.65L104.622 106.462L101.836 109.304L104.076 112.356L103.026 113.126L101.038 110.102L98.2244 113.084L97.3984 112.286L100.394 109.234Z" fill="black"/>
<path d="M23 63.6923V61.3846C23 59.5485 23.7294 57.7876 25.0277 56.4893C26.3261 55.1909 28.087 54.4615 29.9231 54.4615H76.0769C77.913 54.4615 79.6739 55.1909 80.9723 56.4893C82.2706 57.7876 83 59.5485 83 61.3846V63.6923M56.2615 43.8769L49.7385 37.3538C49.3099 36.9248 48.801 36.5844 48.2409 36.3521C47.6807 36.1198 47.0803 36.0001 46.4738 36H29.9231C28.087 36 26.3261 36.7294 25.0277 38.0277C23.7294 39.3261 23 41.087 23 42.9231V79.8462C23 81.6823 23.7294 83.4432 25.0277 84.7415C26.3261 86.0398 28.087 86.7692 29.9231 86.7692H76.0769C77.913 86.7692 79.6739 86.0398 80.9723 84.7415C82.2706 83.4432 83 81.6823 83 79.8462V52.1538C83 50.3177 82.2706 48.5568 80.9723 47.2585C79.6739 45.9602 77.913 45.2308 76.0769 45.2308H59.5262C58.3025 45.2297 57.1263 44.7427 56.2615 43.8769Z" stroke="black" stroke-width="4" stroke-linecap="round" stroke-linejoin="round"/>
<path d="M88.4176 22.8672C88.8835 21.1286 89.5069 19.8324 90.2877 18.9788C91.085 18.1157 91.8893 17.7929 92.7006 18.0103C93.5249 18.2311 94.0374 18.8171 94.2381 19.7681C94.4551 20.7097 94.3686 21.9081 93.9787 23.3634L92.2338 22.6889C92.6203 21.2464 92.5882 20.4648 92.1374 20.344C91.751 20.2405 91.2645 21.2834 90.6779 23.4729L90.5278 24.0331C91.4079 24.1999 92.1184 24.3558 92.6594 24.5007L92.178 26.2974C91.2893 26.0592 90.5852 25.9051 90.0657 25.8349C89.5377 27.8054 89.0219 30.0138 88.5182 32.4601L86.3201 31.6227C86.6933 29.8178 87.1608 27.7897 87.7226 25.5384C87.3739 25.5002 87.13 25.4831 86.9909 25.4872L87.0511 23.6399C87.1902 23.6357 87.5698 23.6615 88.1899 23.7172L88.4176 22.8672ZM99.0532 25.2201L98.1967 28.2621C97.4272 31.1341 96.9127 33.2601 96.6534 34.64L94.7927 33.9343C94.899 33.383 94.9619 32.8133 94.9815 32.2249C93.9936 33.0783 93.1391 33.4084 92.4179 33.2152C91.7095 33.0254 91.2084 32.6288 90.9145 32.0255C90.6207 31.4223 90.5893 30.6892 90.8205 29.8263C91.2692 28.152 91.9264 26.1885 92.7923 23.9359L94.9763 24.7489C94.1544 26.889 93.5484 28.6868 93.1585 30.1421C92.9825 30.799 93.1005 31.1826 93.5127 31.293C93.7058 31.3448 94.0084 31.1429 94.4204 30.6873C94.8452 30.2352 95.2414 29.6581 95.609 28.956C95.672 28.6692 95.7553 28.3326 95.8588 27.9462C95.9623 27.5598 96.2974 26.3866 96.864 24.4265L99.0532 25.2201ZM103.993 21.3053C102.927 24.5119 102.044 27.4224 101.343 30.0369C100.642 32.6513 100.183 34.4952 99.9643 35.5685L97.7417 34.7452C98.0491 33.392 98.5323 31.4854 99.1915 29.0255C99.854 26.5528 100.717 23.7195 101.78 20.5258L103.993 21.3053ZM107.593 22.2698C106.527 25.4764 105.643 28.3869 104.943 31.0014C104.242 33.6158 103.783 35.4597 103.564 36.533L101.341 35.7097C101.649 34.3565 102.132 32.4499 102.791 29.9901C103.454 27.5173 104.316 24.684 105.379 21.4903L107.593 22.2698Z" fill="black"/>
<rect x="86" y="0.397095" width="2" height="12" rx="1" transform="rotate(-11.4516 86 0.397095)" fill="#100C0D"/>
<rect x="107.418" y="2" width="2" height="12" rx="1" transform="rotate(26.8377 107.418 2)" fill="#100C0D"/>
<rect x="122.649" y="15" width="2" height="12" rx="1" transform="rotate(62.5589 122.649 15)" fill="#100C0D"/>
</svg>
