<svg width="82" height="97" viewBox="0 0 82 97" fill="none" xmlns="http://www.w3.org/2000/svg">
<path d="M79.875 39.5V31.2969C79.875 28.4997 78.7638 25.817 76.7859 23.8391C74.808 21.8612 72.1253 20.75 69.3281 20.75H64.6406C63.7082 20.75 62.814 20.3796 62.1547 19.7203C61.4954 19.061 61.125 18.1668 61.125 17.2344V12.5469C61.125 9.74967 60.0138 7.06703 58.0359 5.08911C56.058 3.11119 53.3753 2 50.5781 2H44.7188M51.75 2H36.5156C34.575 2 33 3.575 33 5.51562V59.4219C33 61.3625 34.575 62.9375 36.5156 62.9375H76.3594C78.3 62.9375 79.875 61.3625 79.875 59.4219V30.125C79.875 22.6658 76.9118 15.5121 71.6374 10.2376C66.3629 4.96316 59.2092 2 51.75 2Z" fill="white"/>
<path d="M79.875 39.5V31.2969C79.875 28.4997 78.7638 25.817 76.7859 23.8391C74.808 21.8612 72.1253 20.75 69.3281 20.75H64.6406C63.7082 20.75 62.814 20.3796 62.1547 19.7203C61.4954 19.061 61.125 18.1668 61.125 17.2344V12.5469C61.125 9.74967 60.0138 7.06703 58.0359 5.08911C56.058 3.11119 53.3753 2 50.5781 2H44.7188M51.75 2H36.5156C34.575 2 33 3.575 33 5.51562V59.4219C33 61.3625 34.575 62.9375 36.5156 62.9375H76.3594C78.3 62.9375 79.875 61.3625 79.875 59.4219V30.125C79.875 22.6658 76.9118 15.5121 71.6374 10.2376C66.3629 4.96316 59.2092 2 51.75 2Z" stroke="black" stroke-width="4" stroke-linecap="round" stroke-linejoin="round"/>
<path d="M59.182 42.182C58.7641 42.5999 58.2681 42.9313 57.7221 43.1575C57.1761 43.3836 56.591 43.5 56 43.5C55.409 43.5 54.8239 43.3836 54.2779 43.1575C53.7319 42.9313 53.2359 42.5999 52.818 42.182M65 39C65 40.1819 64.7672 41.3522 64.3149 42.4442C63.8626 43.5361 63.1997 44.5282 62.364 45.364C61.5282 46.1997 60.5361 46.8626 59.4442 47.3149C58.3522 47.7672 57.1819 48 56 48C54.8181 48 53.6478 47.7672 52.5558 47.3149C51.4639 46.8626 50.4718 46.1997 49.636 45.364C48.8003 44.5282 48.1374 43.5361 47.6851 42.4442C47.2328 41.3522 47 40.1819 47 39C47 36.6131 47.9482 34.3239 49.636 32.636C51.3239 30.9482 53.6131 30 56 30C58.3869 30 60.6761 30.9482 62.364 32.636C64.0518 34.3239 65 36.6131 65 39ZM53.75 36.75C53.75 37.164 53.582 37.5 53.375 37.5C53.168 37.5 53 37.164 53 36.75C53 36.336 53.168 36 53.375 36C53.582 36 53.75 36.336 53.75 36.75ZM53.375 36.75H53.383V36.765H53.375V36.75ZM59 36.75C59 37.164 58.832 37.5 58.625 37.5C58.418 37.5 58.25 37.164 58.25 36.75C58.25 36.336 58.418 36 58.625 36C58.832 36 59 36.336 59 36.75ZM58.625 36.75H58.633V36.765H58.625V36.75Z" fill="white"/>
<path d="M59.182 42.182C58.7641 42.5999 58.2681 42.9313 57.7221 43.1575C57.1761 43.3836 56.591 43.5 56 43.5C55.409 43.5 54.8239 43.3836 54.2779 43.1575C53.7319 42.9313 53.2359 42.5999 52.818 42.182M65 39C65 40.1819 64.7672 41.3522 64.3149 42.4442C63.8626 43.5361 63.1997 44.5282 62.364 45.364C61.5282 46.1997 60.5361 46.8626 59.4442 47.3149C58.3522 47.7672 57.1819 48 56 48C54.8181 48 53.6478 47.7672 52.5558 47.3149C51.4639 46.8626 50.4718 46.1997 49.636 45.364C48.8003 44.5282 48.1374 43.5361 47.6851 42.4442C47.2328 41.3522 47 40.1819 47 39C47 36.6131 47.9482 34.3239 49.636 32.636C51.3239 30.9482 53.6131 30 56 30C58.3869 30 60.6761 30.9482 62.364 32.636C64.0518 34.3239 65 36.6131 65 39ZM53.75 36.75C53.75 37.164 53.582 37.5 53.375 37.5C53.168 37.5 53 37.164 53 36.75C53 36.336 53.168 36 53.375 36C53.582 36 53.75 36.336 53.75 36.75ZM53.375 36.75H53.383V36.765H53.375V36.75ZM59 36.75C59 37.164 58.832 37.5 58.625 37.5C58.418 37.5 58.25 37.164 58.25 36.75C58.25 36.336 58.418 36 58.625 36C58.832 36 59 36.336 59 36.75ZM58.625 36.75H58.633V36.765H58.625V36.75Z" stroke="black" stroke-width="2.5" stroke-linecap="round" stroke-linejoin="round"/>
<path d="M48.875 46.5V38.2969C48.875 35.4997 47.7638 32.817 45.7859 30.8391C43.808 28.8612 41.1253 27.75 38.3281 27.75H33.6406C32.7082 27.75 31.814 27.3796 31.1547 26.7203C30.4954 26.061 30.125 25.1668 30.125 24.2344V19.5469C30.125 16.7497 29.0138 14.067 27.0359 12.0891C25.058 10.1112 22.3753 9 19.5781 9H13.7188M20.75 9H5.51562C3.575 9 2 10.575 2 12.5156V66.4219C2 68.3625 3.575 69.9375 5.51562 69.9375H45.3594C47.3 69.9375 48.875 68.3625 48.875 66.4219V37.125C48.875 29.6658 45.9118 22.5121 40.6374 17.2376C35.3629 11.9632 28.2092 9 20.75 9Z" fill="white"/>
<path d="M48.875 46.5V38.2969C48.875 35.4997 47.7638 32.817 45.7859 30.8391C43.808 28.8612 41.1253 27.75 38.3281 27.75H33.6406C32.7082 27.75 31.814 27.3796 31.1547 26.7203C30.4954 26.061 30.125 25.1668 30.125 24.2344V19.5469C30.125 16.7497 29.0138 14.067 27.0359 12.0891C25.058 10.1112 22.3753 9 19.5781 9H13.7188M20.75 9H5.51562C3.575 9 2 10.575 2 12.5156V66.4219C2 68.3625 3.575 69.9375 5.51562 69.9375H45.3594C47.3 69.9375 48.875 68.3625 48.875 66.4219V37.125C48.875 29.6658 45.9118 22.5121 40.6374 17.2376C35.3629 11.9632 28.2092 9 20.75 9Z" stroke="black" stroke-width="4" stroke-linecap="round" stroke-linejoin="round"/>
<path d="M28.182 49.182C27.7641 49.5999 27.2681 49.9313 26.7221 50.1575C26.1761 50.3836 25.591 50.5 25 50.5C24.409 50.5 23.8239 50.3836 23.2779 50.1575C22.7319 49.9313 22.2359 49.5999 21.818 49.182M34 46C34 47.1819 33.7672 48.3522 33.3149 49.4442C32.8626 50.5361 32.1997 51.5282 31.364 52.364C30.5282 53.1997 29.5361 53.8626 28.4442 54.3149C27.3522 54.7672 26.1819 55 25 55C23.8181 55 22.6478 54.7672 21.5558 54.3149C20.4639 53.8626 19.4718 53.1997 18.636 52.364C17.8003 51.5282 17.1374 50.5361 16.6851 49.4442C16.2328 48.3522 16 47.1819 16 46C16 43.6131 16.9482 41.3239 18.636 39.636C20.3239 37.9482 22.6131 37 25 37C27.3869 37 29.6761 37.9482 31.364 39.636C33.0518 41.3239 34 43.6131 34 46ZM22.75 43.75C22.75 44.164 22.582 44.5 22.375 44.5C22.168 44.5 22 44.164 22 43.75C22 43.336 22.168 43 22.375 43C22.582 43 22.75 43.336 22.75 43.75ZM22.375 43.75H22.383V43.765H22.375V43.75ZM28 43.75C28 44.164 27.832 44.5 27.625 44.5C27.418 44.5 27.25 44.164 27.25 43.75C27.25 43.336 27.418 43 27.625 43C27.832 43 28 43.336 28 43.75ZM27.625 43.75H27.633V43.765H27.625V43.75Z" fill="white"/>
<path d="M28.182 49.182C27.7641 49.5999 27.2681 49.9313 26.7221 50.1575C26.1761 50.3836 25.591 50.5 25 50.5C24.409 50.5 23.8239 50.3836 23.2779 50.1575C22.7319 49.9313 22.2359 49.5999 21.818 49.182M34 46C34 47.1819 33.7672 48.3522 33.3149 49.4442C32.8626 50.5361 32.1997 51.5282 31.364 52.364C30.5282 53.1997 29.5361 53.8626 28.4442 54.3149C27.3522 54.7672 26.1819 55 25 55C23.8181 55 22.6478 54.7672 21.5558 54.3149C20.4639 53.8626 19.4718 53.1997 18.636 52.364C17.8003 51.5282 17.1374 50.5361 16.6851 49.4442C16.2328 48.3522 16 47.1819 16 46C16 43.6131 16.9482 41.3239 18.636 39.636C20.3239 37.9482 22.6131 37 25 37C27.3869 37 29.6761 37.9482 31.364 39.636C33.0518 41.3239 34 43.6131 34 46ZM22.75 43.75C22.75 44.164 22.582 44.5 22.375 44.5C22.168 44.5 22 44.164 22 43.75C22 43.336 22.168 43 22.375 43C22.582 43 22.75 43.336 22.75 43.75ZM22.375 43.75H22.383V43.765H22.375V43.75ZM28 43.75C28 44.164 27.832 44.5 27.625 44.5C27.418 44.5 27.25 44.164 27.25 43.75C27.25 43.336 27.418 43 27.625 43C27.832 43 28 43.336 28 43.75ZM27.625 43.75H27.633V43.765H27.625V43.75Z" stroke="black" stroke-width="2.5" stroke-linecap="round" stroke-linejoin="round"/>
<path d="M1.358 85.72C2.32867 85.72 2.814 86.14 2.814 86.98V87.274C3.08467 86.77 3.43467 86.3593 3.864 86.042C4.29333 85.7153 4.79267 85.552 5.362 85.552C5.866 85.552 6.30467 85.6827 6.678 85.944C7.05133 86.196 7.336 86.5507 7.532 87.008C7.73733 87.456 7.84 87.9787 7.84 88.576C7.84 89.2667 7.73733 89.8967 7.532 90.466C7.336 91.026 7.06533 91.5113 6.72 91.922C6.37467 92.3233 5.98733 92.6313 5.558 92.846C5.12867 93.0607 4.68533 93.168 4.228 93.168C3.78 93.168 3.36 93.056 2.968 92.832C2.58533 92.608 2.28667 92.3327 2.072 92.006L1.358 96.08H0.098L1.554 87.75C1.582 87.5913 1.596 87.4607 1.596 87.358C1.596 86.9193 1.36733 86.7 0.91 86.7L1.358 85.72ZM4.116 92.048C4.55467 92.048 4.956 91.908 5.32 91.628C5.69333 91.3387 5.992 90.942 6.216 90.438C6.44 89.934 6.552 89.3553 6.552 88.702C6.552 88.0673 6.40733 87.568 6.118 87.204C5.82867 86.8307 5.45067 86.644 4.984 86.644C4.61067 86.644 4.25133 86.7607 3.906 86.994C3.57 87.2273 3.28067 87.554 3.038 87.974C2.79533 88.394 2.62267 88.8887 2.52 89.458L2.268 90.872C2.47333 91.2453 2.73933 91.5347 3.066 91.74C3.39267 91.9453 3.74267 92.048 4.116 92.048ZM13.6659 87.848C13.6659 87.4933 13.5585 87.2087 13.3439 86.994C13.1385 86.77 12.8679 86.658 12.5319 86.658C12.2052 86.658 11.8459 86.7747 11.4539 87.008C11.0712 87.2413 10.7212 87.6053 10.4039 88.1C10.0865 88.5947 9.85788 89.234 9.71788 90.018L9.19988 93H7.93988L9.75988 82.64H11.0199L10.2079 87.246C10.4972 86.7327 10.8752 86.322 11.3419 86.014C11.8179 85.706 12.3172 85.552 12.8399 85.552C13.4839 85.552 13.9925 85.748 14.3659 86.14C14.7485 86.5227 14.9399 86.994 14.9399 87.554C14.9399 87.7873 14.9119 88.0813 14.8559 88.436L14.0579 93H12.7979L13.5679 88.646C13.6145 88.422 13.6425 88.2587 13.6519 88.156C13.6612 88.044 13.6659 87.9413 13.6659 87.848ZM18.558 93.168C17.8673 93.168 17.27 93.028 16.766 92.748C16.262 92.468 15.87 92.0807 15.59 91.586C15.3193 91.082 15.184 90.5127 15.184 89.878C15.184 89.066 15.3473 88.3333 15.674 87.68C16.01 87.0267 16.4767 86.5087 17.074 86.126C17.6713 85.7433 18.376 85.552 19.188 85.552C19.8787 85.552 20.476 85.692 20.98 85.972C21.484 86.252 21.8713 86.6393 22.142 87.134C22.422 87.6287 22.562 88.198 22.562 88.842C22.562 89.6447 22.3987 90.3773 22.072 91.04C21.7453 91.6933 21.2787 92.2113 20.672 92.594C20.0747 92.9767 19.37 93.168 18.558 93.168ZM18.6 92.048C19.16 92.048 19.636 91.9127 20.028 91.642C20.4293 91.362 20.7373 90.9887 20.952 90.522C21.1667 90.0553 21.274 89.5327 21.274 88.954C21.274 88.5247 21.19 88.142 21.022 87.806C20.854 87.4607 20.6113 87.1853 20.294 86.98C19.9767 86.7747 19.594 86.672 19.146 86.672C18.5953 86.672 18.1193 86.812 17.718 87.092C17.3167 87.3627 17.0087 87.7313 16.794 88.198C16.5793 88.6647 16.472 89.1873 16.472 89.766C16.472 90.186 16.556 90.5687 16.724 90.914C16.892 91.2593 17.1347 91.5347 17.452 91.74C17.7693 91.9453 18.152 92.048 18.6 92.048ZM22.8442 85.986H24.1322L24.8042 83.69H25.7702L25.3642 85.986H27.3802L27.1982 87.078H25.1682L24.5802 90.48C24.5616 90.5827 24.5476 90.6807 24.5382 90.774C24.5289 90.858 24.5242 90.9373 24.5242 91.012C24.5242 91.3387 24.6222 91.5953 24.8182 91.782C25.0142 91.9593 25.2709 92.048 25.5882 92.048C25.8589 92.048 26.0876 92.0107 26.2742 91.936C26.4609 91.852 26.6289 91.768 26.7782 91.684L26.9322 92.776C26.7549 92.8787 26.5309 92.9673 26.2602 93.042C25.9989 93.126 25.7049 93.168 25.3782 93.168C25.0329 93.168 24.6969 93.098 24.3702 92.958C24.0529 92.818 23.7916 92.5987 23.5862 92.3C23.3809 91.992 23.2782 91.5953 23.2782 91.11C23.2782 90.9047 23.2969 90.676 23.3342 90.424L23.9082 87.078H22.6622L22.8442 85.986ZM30.2983 93.168C29.6076 93.168 29.0103 93.028 28.5063 92.748C28.0023 92.468 27.6103 92.0807 27.3302 91.586C27.0596 91.082 26.9243 90.5127 26.9243 89.878C26.9243 89.066 27.0876 88.3333 27.4143 87.68C27.7503 87.0267 28.2169 86.5087 28.8143 86.126C29.4116 85.7433 30.1163 85.552 30.9283 85.552C31.6189 85.552 32.2163 85.692 32.7203 85.972C33.2243 86.252 33.6116 86.6393 33.8823 87.134C34.1623 87.6287 34.3023 88.198 34.3023 88.842C34.3023 89.6447 34.1389 90.3773 33.8123 91.04C33.4856 91.6933 33.0189 92.2113 32.4123 92.594C31.8149 92.9767 31.1103 93.168 30.2983 93.168ZM30.3403 92.048C30.9003 92.048 31.3763 91.9127 31.7683 91.642C32.1696 91.362 32.4776 90.9887 32.6923 90.522C32.9069 90.0553 33.0143 89.5327 33.0143 88.954C33.0143 88.5247 32.9303 88.142 32.7623 87.806C32.5943 87.4607 32.3516 87.1853 32.0343 86.98C31.7169 86.7747 31.3343 86.672 30.8863 86.672C30.3356 86.672 29.8596 86.812 29.4583 87.092C29.0569 87.3627 28.7489 87.7313 28.5343 88.198C28.3196 88.6647 28.2123 89.1873 28.2123 89.766C28.2123 90.186 28.2963 90.5687 28.4642 90.914C28.6323 91.2593 28.8749 91.5347 29.1923 91.74C29.5096 91.9453 29.8923 92.048 30.3403 92.048ZM39.4285 87.302C39.1578 87.1153 38.8545 86.952 38.5185 86.812C38.1918 86.672 37.8185 86.602 37.3985 86.602C36.9598 86.602 36.6191 86.6767 36.3765 86.826C36.1338 86.9753 36.0125 87.1713 36.0125 87.414C36.0125 87.554 36.0498 87.6893 36.1245 87.82C36.2085 87.9413 36.3531 88.072 36.5585 88.212C36.7731 88.352 37.0718 88.52 37.4545 88.716C38.0891 89.0333 38.5605 89.3647 38.8685 89.71C39.1765 90.046 39.3305 90.4613 39.3305 90.956C39.3305 91.4507 39.1998 91.8613 38.9385 92.188C38.6771 92.5147 38.3271 92.762 37.8885 92.93C37.4498 93.0887 36.9551 93.168 36.4045 93.168C35.8351 93.168 35.3311 93.098 34.8925 92.958C34.4631 92.8087 34.0898 92.6173 33.7725 92.384L34.4865 91.348C34.7385 91.5533 35.0371 91.726 35.3825 91.866C35.7278 92.006 36.1058 92.076 36.5165 92.076C36.9831 92.076 37.3518 91.9873 37.6225 91.81C37.8931 91.6327 38.0285 91.4133 38.0285 91.152C38.0285 90.9093 37.9258 90.6853 37.7205 90.48C37.5245 90.2747 37.1371 90.0273 36.5585 89.738C36.0918 89.5047 35.7278 89.2807 35.4665 89.066C35.2051 88.842 35.0231 88.604 34.9205 88.352C34.8178 88.1 34.7665 87.8107 34.7665 87.484C34.7665 87.1107 34.8785 86.7793 35.1025 86.49C35.3265 86.2007 35.6391 85.972 36.0405 85.804C36.4418 85.636 36.9038 85.552 37.4265 85.552C37.9491 85.552 38.4158 85.622 38.8265 85.762C39.2465 85.8927 39.6151 86.0513 39.9325 86.238L39.4285 87.302ZM49.4984 93.07C48.9944 93.07 48.6071 92.9487 48.3364 92.706C48.0751 92.454 47.9444 92.062 47.9444 91.53C47.6738 91.978 47.3331 92.3653 46.9224 92.692C46.5118 93.0093 46.0358 93.168 45.4944 93.168C45.0278 93.168 44.5891 93.0467 44.1784 92.804C43.7678 92.552 43.4364 92.202 43.1844 91.754C42.9418 91.2967 42.8204 90.7553 42.8204 90.13C42.8204 89.4113 42.9278 88.772 43.1424 88.212C43.3571 87.6427 43.6418 87.162 43.9964 86.77C44.3604 86.378 44.7571 86.0793 45.1864 85.874C45.6251 85.6593 46.0684 85.552 46.5164 85.552C47.0111 85.552 47.4358 85.6733 47.7904 85.916C48.1544 86.1587 48.4344 86.4573 48.6304 86.812L49.3724 82.64H50.6324L49.1484 91.026C49.1391 91.0727 49.1298 91.1287 49.1204 91.194C49.1204 91.25 49.1204 91.3107 49.1204 91.376C49.1204 91.6373 49.1951 91.824 49.3444 91.936C49.4938 92.0387 49.6898 92.09 49.9324 92.09L49.4984 93.07ZM45.8304 92.048C46.1851 92.048 46.5211 91.936 46.8384 91.712C47.1651 91.488 47.4451 91.1753 47.6784 90.774C47.9211 90.3633 48.0891 89.8827 48.1824 89.332L48.4344 87.89C48.2478 87.498 47.9958 87.1947 47.6784 86.98C47.3611 86.756 47.0111 86.644 46.6284 86.644C46.1991 86.644 45.7884 86.7793 45.3964 87.05C45.0138 87.3113 44.7011 87.6893 44.4584 88.184C44.2251 88.6693 44.1084 89.2573 44.1084 89.948C44.1084 90.4053 44.1878 90.7927 44.3464 91.11C44.5144 91.418 44.7291 91.6513 44.9904 91.81C45.2611 91.9687 45.5411 92.048 45.8304 92.048ZM53.56 93.168C52.8693 93.168 52.272 93.028 51.768 92.748C51.264 92.468 50.872 92.0807 50.592 91.586C50.3213 91.082 50.186 90.5127 50.186 89.878C50.186 89.066 50.3493 88.3333 50.676 87.68C51.012 87.0267 51.4786 86.5087 52.076 86.126C52.6733 85.7433 53.378 85.552 54.19 85.552C54.8806 85.552 55.478 85.692 55.982 85.972C56.486 86.252 56.8733 86.6393 57.144 87.134C57.424 87.6287 57.564 88.198 57.564 88.842C57.564 89.6447 57.4006 90.3773 57.074 91.04C56.7473 91.6933 56.2806 92.2113 55.674 92.594C55.0766 92.9767 54.372 93.168 53.56 93.168ZM53.602 92.048C54.162 92.048 54.638 91.9127 55.03 91.642C55.4313 91.362 55.7393 90.9887 55.954 90.522C56.1686 90.0553 56.276 89.5327 56.276 88.954C56.276 88.5247 56.192 88.142 56.024 87.806C55.856 87.4607 55.6133 87.1853 55.296 86.98C54.9786 86.7747 54.596 86.672 54.148 86.672C53.5973 86.672 53.1213 86.812 52.72 87.092C52.3186 87.3627 52.0106 87.7313 51.796 88.198C51.5813 88.6647 51.474 89.1873 51.474 89.766C51.474 90.186 51.558 90.5687 51.726 90.914C51.894 91.2593 52.1366 91.5347 52.454 91.74C52.7713 91.9453 53.154 92.048 53.602 92.048ZM59.7922 93.168C59.4188 93.168 59.0735 93.084 58.7562 92.916C58.4482 92.748 58.2008 92.5147 58.0142 92.216C57.8275 91.908 57.7342 91.544 57.7342 91.124C57.7342 91.0027 57.7388 90.8813 57.7482 90.76C57.7575 90.6293 57.7715 90.494 57.7902 90.354L58.5882 85.72H59.8482L59.0362 90.326C59.0268 90.4193 59.0175 90.5033 59.0082 90.578C58.9988 90.6433 58.9942 90.718 58.9942 90.802C58.9942 91.222 59.1155 91.5347 59.3582 91.74C59.6008 91.9453 59.8855 92.048 60.2122 92.048C60.5668 92.048 60.9122 91.9407 61.2482 91.726C61.5935 91.502 61.8968 91.1847 62.1582 90.774C62.4195 90.3633 62.6015 89.8687 62.7042 89.29L63.3342 85.72H64.5942L63.6702 91.026C63.6608 91.0727 63.6515 91.1287 63.6422 91.194C63.6422 91.25 63.6422 91.3107 63.6422 91.376C63.6422 91.6373 63.7168 91.824 63.8662 91.936C64.0155 92.0387 64.2115 92.09 64.4542 92.09L64.0202 93.07C63.5162 93.07 63.1288 92.9487 62.8582 92.706C62.5968 92.454 62.4662 92.0667 62.4662 91.544V91.418C61.7848 92.5847 60.8935 93.168 59.7922 93.168ZM71.7576 88.24C71.7576 88.94 71.6363 89.5887 71.3936 90.186C71.1509 90.7833 70.8056 91.306 70.3576 91.754C69.9189 92.202 69.3963 92.552 68.7896 92.804C68.1829 93.0467 67.5203 93.168 66.8016 93.168C66.3723 93.168 65.9756 93.126 65.6116 93.042C65.2476 92.9673 64.9443 92.8693 64.7016 92.748L66.4796 82.64H67.7396L66.9416 87.19C67.2123 86.6953 67.5576 86.2987 67.9776 86C68.4069 85.7013 68.8876 85.552 69.4196 85.552C69.8676 85.552 70.2643 85.664 70.6096 85.888C70.9643 86.112 71.2443 86.4293 71.4496 86.84C71.6549 87.2413 71.7576 87.708 71.7576 88.24ZM69.0976 86.644C68.7616 86.644 68.4163 86.7607 68.0616 86.994C67.7069 87.2273 67.3803 87.6193 67.0816 88.17C66.7829 88.7113 66.5496 89.4487 66.3816 90.382L66.1016 91.936C66.2509 91.9733 66.4049 92.0013 66.5636 92.02C66.7316 92.0387 66.9089 92.048 67.0956 92.048C67.7396 92.048 68.3136 91.8893 68.8176 91.572C69.3309 91.2453 69.7323 90.8067 70.0216 90.256C70.3203 89.7053 70.4696 89.0893 70.4696 88.408C70.4696 87.8667 70.3436 87.4373 70.0916 87.12C69.8396 86.8027 69.5083 86.644 69.0976 86.644ZM73.253 90.48C73.2343 90.6013 73.2203 90.7133 73.211 90.816C73.2017 90.9093 73.197 90.9933 73.197 91.068C73.197 91.3853 73.2903 91.6327 73.477 91.81C73.673 91.9873 73.9297 92.076 74.247 92.076C74.4057 92.076 74.5643 92.0573 74.723 92.02C74.8817 91.9827 75.0263 91.9313 75.157 91.866L75.283 92.888C75.115 92.972 74.919 93.0373 74.695 93.084C74.471 93.14 74.2283 93.168 73.967 93.168C73.407 93.168 72.9263 93.0093 72.525 92.692C72.133 92.3653 71.937 91.8753 71.937 91.222C71.937 90.9793 71.9557 90.7413 71.993 90.508L73.365 82.64H74.625L73.253 90.48ZM78.0329 93.168C77.4169 93.168 76.8709 93.0373 76.3949 92.776C75.9282 92.5053 75.5596 92.1227 75.2889 91.628C75.0276 91.124 74.8969 90.5313 74.8969 89.85C74.8969 89.0753 75.0556 88.3613 75.3729 87.708C75.6996 87.0547 76.1569 86.532 76.7449 86.14C77.3422 85.748 78.0376 85.552 78.8309 85.552C79.3722 85.552 79.8296 85.6547 80.2029 85.86C80.5856 86.0653 80.8796 86.3313 81.0849 86.658C81.2902 86.9847 81.3929 87.3347 81.3929 87.708C81.3929 88.2213 81.2716 88.646 81.0289 88.982C80.7862 89.318 80.4736 89.5793 80.0909 89.766C79.7082 89.9433 79.2929 90.0693 78.8449 90.144C78.4062 90.2187 77.9862 90.256 77.5849 90.256C77.3329 90.256 77.0809 90.2467 76.8289 90.228C76.5862 90.2 76.3716 90.172 76.1849 90.144C76.2596 90.76 76.4789 91.2313 76.8429 91.558C77.2069 91.8847 77.6736 92.048 78.2429 92.048C78.7096 92.048 79.1249 91.9873 79.4889 91.866C79.8529 91.7447 80.1609 91.6233 80.4129 91.502L80.5249 92.622C80.2449 92.7527 79.8902 92.8787 79.4609 93C79.0316 93.112 78.5556 93.168 78.0329 93.168ZM78.7329 86.616C78.2942 86.616 77.8976 86.728 77.5429 86.952C77.1882 87.1667 76.8942 87.4653 76.6609 87.848C76.4369 88.2213 76.2876 88.6507 76.2129 89.136C76.4276 89.1733 76.6422 89.206 76.8569 89.234C77.0809 89.2527 77.3236 89.262 77.5849 89.262C78.3689 89.262 78.9896 89.1547 79.4469 88.94C79.9042 88.716 80.1329 88.338 80.1329 87.806C80.1329 87.4793 80.0022 87.1993 79.7409 86.966C79.4889 86.7327 79.1529 86.616 78.7329 86.616Z" fill="black"/>
</svg>
