<svg width="103" height="117" viewBox="0 0 103 117" fill="none" xmlns="http://www.w3.org/2000/svg">
<path d="M7.07232 110.48C7.05365 110.601 7.03965 110.713 7.03032 110.816C7.02099 110.909 7.01632 110.993 7.01632 111.068C7.01632 111.385 7.10965 111.633 7.29632 111.81C7.49232 111.987 7.74899 112.076 8.06632 112.076C8.22499 112.076 8.38365 112.057 8.54232 112.02C8.70099 111.983 8.84565 111.931 8.97632 111.866L9.10232 112.888C8.93432 112.972 8.73832 113.037 8.51432 113.084C8.29032 113.14 8.04765 113.168 7.78632 113.168C7.22632 113.168 6.74565 113.009 6.34432 112.692C5.95232 112.365 5.75632 111.875 5.75632 111.222C5.75632 110.979 5.77499 110.741 5.81232 110.508L7.18432 102.64H8.44432L7.07232 110.48ZM8.71624 110.13C8.71624 109.225 8.91224 108.431 9.30424 107.75C9.70558 107.059 10.2562 106.523 10.9562 106.14C11.6562 105.748 12.4542 105.552 13.3502 105.552C13.9009 105.552 14.3816 105.608 14.7922 105.72C15.2122 105.832 15.5576 105.944 15.8282 106.056L14.9462 111.026C14.9369 111.073 14.9276 111.129 14.9182 111.194C14.9182 111.25 14.9182 111.311 14.9182 111.376C14.9182 111.637 14.9929 111.824 15.1422 111.936C15.2916 112.039 15.4876 112.09 15.7302 112.09L15.2962 113.07C14.7922 113.07 14.4049 112.949 14.1342 112.706C13.8729 112.454 13.7422 112.067 13.7422 111.544C13.4809 111.992 13.1496 112.375 12.7482 112.692C12.3562 113.009 11.8942 113.168 11.3622 113.168C10.9049 113.168 10.4756 113.047 10.0742 112.804C9.67291 112.552 9.34624 112.202 9.09424 111.754C8.84224 111.297 8.71624 110.755 8.71624 110.13ZM14.4422 106.798C14.2649 106.742 14.0782 106.7 13.8822 106.672C13.6956 106.635 13.4669 106.616 13.1962 106.616C12.5522 106.616 11.9922 106.761 11.5162 107.05C11.0402 107.339 10.6669 107.741 10.3962 108.254C10.1349 108.758 10.0042 109.332 10.0042 109.976C10.0042 110.424 10.0836 110.802 10.2422 111.11C10.4102 111.418 10.6249 111.651 10.8862 111.81C11.1476 111.969 11.4182 112.048 11.6982 112.048C12.0809 112.048 12.4309 111.917 12.7482 111.656C13.0656 111.395 13.3362 111.031 13.5602 110.564C13.7936 110.097 13.9616 109.565 14.0642 108.968L14.4422 106.798ZM17.1354 107.764C17.1447 107.717 17.1494 107.666 17.1494 107.61C17.1587 107.545 17.1634 107.479 17.1634 107.414C17.1634 107.153 17.0887 106.971 16.9394 106.868C16.7901 106.756 16.5941 106.7 16.3514 106.7L16.7854 105.72C17.2801 105.72 17.6581 105.841 17.9194 106.084C18.1901 106.317 18.3254 106.667 18.3254 107.134V107.414C18.5961 106.751 18.9414 106.275 19.3614 105.986C19.7907 105.697 20.2761 105.552 20.8174 105.552C21.0321 105.552 21.2141 105.571 21.3634 105.608C21.5221 105.636 21.6527 105.673 21.7554 105.72L21.1954 106.952C21.0834 106.905 20.9667 106.873 20.8454 106.854C20.7241 106.835 20.5841 106.826 20.4254 106.826C20.0894 106.826 19.7534 106.947 19.4174 107.19C19.0907 107.423 18.7921 107.815 18.5214 108.366C18.2601 108.917 18.0454 109.673 17.8774 110.634L17.4714 113H16.2114L17.1354 107.764ZM25.1585 105.552C25.7092 105.552 26.1945 105.608 26.6145 105.72C27.0345 105.832 27.3798 105.944 27.6505 106.056L26.4325 113.084C26.3205 113.728 26.1478 114.255 25.9145 114.666C25.6905 115.077 25.4245 115.394 25.1165 115.618C24.8178 115.851 24.5005 116.015 24.1645 116.108C23.8285 116.201 23.4972 116.248 23.1705 116.248C22.5358 116.248 21.9945 116.117 21.5465 115.856C21.1078 115.595 20.7485 115.291 20.4685 114.946L21.4485 114.218C21.9058 114.843 22.5078 115.156 23.2545 115.156C23.7212 115.156 24.1318 114.983 24.4865 114.638C24.8412 114.293 25.0932 113.705 25.2425 112.874L25.4805 111.502C25.2192 111.922 24.8925 112.277 24.5005 112.566C24.1178 112.855 23.6838 113 23.1985 113C22.7505 113 22.3212 112.888 21.9105 112.664C21.5092 112.44 21.1778 112.113 20.9165 111.684C20.6645 111.255 20.5385 110.727 20.5385 110.102C20.5385 109.197 20.7392 108.403 21.1405 107.722C21.5418 107.041 22.0925 106.509 22.7925 106.126C23.4925 105.743 24.2812 105.552 25.1585 105.552ZM21.8265 109.962C21.8265 110.382 21.9058 110.737 22.0645 111.026C22.2325 111.306 22.4472 111.521 22.7085 111.67C22.9698 111.81 23.2452 111.88 23.5345 111.88C23.8892 111.88 24.2252 111.754 24.5425 111.502C24.8598 111.25 25.1352 110.895 25.3685 110.438C25.6112 109.981 25.7885 109.444 25.9005 108.828L26.2645 106.798C26.0872 106.742 25.9005 106.7 25.7045 106.672C25.5085 106.635 25.2798 106.616 25.0185 106.616C24.3932 106.616 23.8378 106.765 23.3525 107.064C22.8765 107.353 22.5032 107.75 22.2325 108.254C21.9618 108.758 21.8265 109.327 21.8265 109.962ZM30.7546 113.168C30.1386 113.168 29.5926 113.037 29.1166 112.776C28.6499 112.505 28.2813 112.123 28.0106 111.628C27.7493 111.124 27.6186 110.531 27.6186 109.85C27.6186 109.075 27.7773 108.361 28.0946 107.708C28.4213 107.055 28.8786 106.532 29.4666 106.14C30.0639 105.748 30.7593 105.552 31.5526 105.552C32.0939 105.552 32.5513 105.655 32.9246 105.86C33.3073 106.065 33.6013 106.331 33.8066 106.658C34.0119 106.985 34.1146 107.335 34.1146 107.708C34.1146 108.221 33.9933 108.646 33.7506 108.982C33.5079 109.318 33.1953 109.579 32.8126 109.766C32.4299 109.943 32.0146 110.069 31.5666 110.144C31.1279 110.219 30.7079 110.256 30.3066 110.256C30.0546 110.256 29.8026 110.247 29.5506 110.228C29.3079 110.2 29.0933 110.172 28.9066 110.144C28.9813 110.76 29.2006 111.231 29.5646 111.558C29.9286 111.885 30.3953 112.048 30.9646 112.048C31.4313 112.048 31.8466 111.987 32.2106 111.866C32.5746 111.745 32.8826 111.623 33.1346 111.502L33.2466 112.622C32.9666 112.753 32.6119 112.879 32.1826 113C31.7533 113.112 31.2773 113.168 30.7546 113.168ZM31.4546 106.616C31.0159 106.616 30.6193 106.728 30.2646 106.952C29.9099 107.167 29.6159 107.465 29.3826 107.848C29.1586 108.221 29.0093 108.651 28.9346 109.136C29.1493 109.173 29.3639 109.206 29.5786 109.234C29.8026 109.253 30.0453 109.262 30.3066 109.262C31.0906 109.262 31.7113 109.155 32.1686 108.94C32.6259 108.716 32.8546 108.338 32.8546 107.806C32.8546 107.479 32.7239 107.199 32.4626 106.966C32.2106 106.733 31.8746 106.616 31.4546 106.616ZM39.9459 105.986H42.1019L41.9059 107.078H39.7499L38.5179 114.008C38.3686 114.829 38.0886 115.408 37.6779 115.744C37.2766 116.08 36.7866 116.248 36.2079 116.248C35.8999 116.248 35.6199 116.206 35.3679 116.122C35.1066 116.038 34.8779 115.921 34.6819 115.772L35.1859 114.736C35.3166 114.857 35.4706 114.955 35.6479 115.03C35.8253 115.114 36.0166 115.156 36.2219 115.156C36.4739 115.156 36.6933 115.067 36.8799 114.89C37.0666 114.713 37.1926 114.428 37.2579 114.036L38.4899 107.078H37.3699L37.5659 105.986H38.6859L38.8959 104.866C39.0546 104.007 39.3579 103.396 39.8059 103.032C40.2633 102.659 40.8373 102.472 41.5279 102.472C41.9106 102.472 42.2653 102.523 42.5919 102.626C42.9186 102.719 43.2126 102.836 43.4739 102.976L42.9839 104.04C42.7693 103.928 42.5453 103.825 42.3119 103.732C42.0879 103.639 41.8219 103.592 41.5139 103.592C41.1686 103.592 40.8746 103.695 40.6319 103.9C40.3893 104.096 40.2306 104.404 40.1559 104.824L39.9459 105.986ZM43.4689 104.474C43.2076 104.474 43.0069 104.399 42.8669 104.25C42.7363 104.091 42.6709 103.909 42.6709 103.704C42.6709 103.405 42.7643 103.167 42.9509 102.99C43.1376 102.803 43.3709 102.71 43.6509 102.71C43.9123 102.71 44.1083 102.789 44.2389 102.948C44.3789 103.097 44.4489 103.275 44.4489 103.48C44.4489 103.769 44.3556 104.007 44.1689 104.194C43.9823 104.381 43.7489 104.474 43.4689 104.474ZM42.5309 113H41.2709L42.5449 105.72H43.8049L42.5309 113ZM45.379 110.48C45.3603 110.601 45.3463 110.713 45.337 110.816C45.3276 110.909 45.323 110.993 45.323 111.068C45.323 111.385 45.4163 111.633 45.603 111.81C45.799 111.987 46.0556 112.076 46.373 112.076C46.5316 112.076 46.6903 112.057 46.849 112.02C47.0076 111.983 47.1523 111.931 47.283 111.866L47.409 112.888C47.241 112.972 47.045 113.037 46.821 113.084C46.597 113.14 46.3543 113.168 46.093 113.168C45.533 113.168 45.0523 113.009 44.651 112.692C44.259 112.365 44.063 111.875 44.063 111.222C44.063 110.979 44.0816 110.741 44.119 110.508L45.491 102.64H46.751L45.379 110.48ZM50.1589 113.168C49.5429 113.168 48.9969 113.037 48.5209 112.776C48.0542 112.505 47.6855 112.123 47.4149 111.628C47.1535 111.124 47.0229 110.531 47.0229 109.85C47.0229 109.075 47.1815 108.361 47.4989 107.708C47.8255 107.055 48.2829 106.532 48.8709 106.14C49.4682 105.748 50.1635 105.552 50.9569 105.552C51.4982 105.552 51.9555 105.655 52.3289 105.86C52.7115 106.065 53.0055 106.331 53.2109 106.658C53.4162 106.985 53.5189 107.335 53.5189 107.708C53.5189 108.221 53.3976 108.646 53.1549 108.982C52.9122 109.318 52.5995 109.579 52.2169 109.766C51.8342 109.943 51.4189 110.069 50.9709 110.144C50.5322 110.219 50.1122 110.256 49.7109 110.256C49.4589 110.256 49.2069 110.247 48.9549 110.228C48.7122 110.2 48.4975 110.172 48.3109 110.144C48.3855 110.76 48.6049 111.231 48.9689 111.558C49.3329 111.885 49.7995 112.048 50.3689 112.048C50.8355 112.048 51.2509 111.987 51.6149 111.866C51.9789 111.745 52.2869 111.623 52.5389 111.502L52.6509 112.622C52.3709 112.753 52.0162 112.879 51.5869 113C51.1575 113.112 50.6815 113.168 50.1589 113.168ZM50.8589 106.616C50.4202 106.616 50.0235 106.728 49.6689 106.952C49.3142 107.167 49.0202 107.465 48.7869 107.848C48.5629 108.221 48.4135 108.651 48.3389 109.136C48.5535 109.173 48.7682 109.206 48.9829 109.234C49.2069 109.253 49.4495 109.262 49.7109 109.262C50.4949 109.262 51.1155 109.155 51.5729 108.94C52.0302 108.716 52.2589 108.338 52.2589 107.806C52.2589 107.479 52.1282 107.199 51.8669 106.966C51.6149 106.733 51.2789 106.616 50.8589 106.616ZM58.365 107.302C58.0943 107.115 57.791 106.952 57.455 106.812C57.1283 106.672 56.755 106.602 56.335 106.602C55.8963 106.602 55.5556 106.677 55.313 106.826C55.0703 106.975 54.949 107.171 54.949 107.414C54.949 107.554 54.9863 107.689 55.061 107.82C55.145 107.941 55.2896 108.072 55.495 108.212C55.7096 108.352 56.0083 108.52 56.391 108.716C57.0256 109.033 57.497 109.365 57.805 109.71C58.113 110.046 58.267 110.461 58.267 110.956C58.267 111.451 58.1363 111.861 57.875 112.188C57.6136 112.515 57.2636 112.762 56.825 112.93C56.3863 113.089 55.8916 113.168 55.341 113.168C54.7716 113.168 54.2676 113.098 53.829 112.958C53.3996 112.809 53.0263 112.617 52.709 112.384L53.423 111.348C53.675 111.553 53.9736 111.726 54.319 111.866C54.6643 112.006 55.0423 112.076 55.453 112.076C55.9196 112.076 56.2883 111.987 56.559 111.81C56.8296 111.633 56.965 111.413 56.965 111.152C56.965 110.909 56.8623 110.685 56.657 110.48C56.461 110.275 56.0736 110.027 55.495 109.738C55.0283 109.505 54.6643 109.281 54.403 109.066C54.1416 108.842 53.9596 108.604 53.857 108.352C53.7543 108.1 53.703 107.811 53.703 107.484C53.703 107.111 53.815 106.779 54.039 106.49C54.263 106.201 54.5756 105.972 54.977 105.804C55.3783 105.636 55.8403 105.552 56.363 105.552C56.8856 105.552 57.3523 105.622 57.763 105.762C58.183 105.893 58.5516 106.051 58.869 106.238L58.365 107.302Z" fill="black"/>
<path d="M2 63.6923V61.3846C2 59.5485 2.72939 57.7876 4.02772 56.4893C5.32605 55.1909 7.08696 54.4615 8.92308 54.4615H55.0769C56.913 54.4615 58.6739 55.1909 59.9723 56.4893C61.2706 57.7876 62 59.5485 62 61.3846V63.6923M35.2615 43.8769L28.7385 37.3538C28.3099 36.9248 27.801 36.5844 27.2409 36.3521C26.6807 36.1198 26.0803 36.0001 25.4738 36H8.92308C7.08696 36 5.32605 36.7294 4.02772 38.0277C2.72939 39.3261 2 41.087 2 42.9231V79.8462C2 81.6823 2.72939 83.4432 4.02772 84.7415C5.32605 86.0398 7.08696 86.7692 8.92308 86.7692H55.0769C56.913 86.7692 58.6739 86.0398 59.9723 84.7415C61.2706 83.4432 62 81.6823 62 79.8462V52.1538C62 50.3177 61.2706 48.5568 59.9723 47.2585C58.6739 45.9602 56.913 45.2308 55.0769 45.2308H38.5262C37.3025 45.2297 36.1263 44.7427 35.2615 43.8769Z" stroke="black" stroke-width="4" stroke-linecap="round" stroke-linejoin="round"/>
<path d="M67.4176 22.8672C67.8835 21.1286 68.5069 19.8324 69.2877 18.9788C70.085 18.1157 70.8893 17.7929 71.7006 18.0103C72.5249 18.2311 73.0374 18.8171 73.2381 19.7681C73.4551 20.7097 73.3686 21.9081 72.9787 23.3634L71.2338 22.6889C71.6203 21.2464 71.5882 20.4648 71.1374 20.344C70.751 20.2405 70.2645 21.2834 69.6779 23.4729L69.5278 24.0331C70.4079 24.1999 71.1184 24.3558 71.6594 24.5007L71.178 26.2974C70.2893 26.0592 69.5852 25.9051 69.0657 25.8349C68.5377 27.8054 68.0219 30.0138 67.5182 32.4601L65.3201 31.6227C65.6933 29.8178 66.1608 27.7897 66.7226 25.5384C66.3739 25.5002 66.13 25.4831 65.9909 25.4872L66.0511 23.6399C66.1902 23.6357 66.5698 23.6615 67.1899 23.7172L67.4176 22.8672ZM78.0532 25.2201L77.1967 28.2621C76.4272 31.1341 75.9127 33.2601 75.6534 34.64L73.7927 33.9343C73.899 33.383 73.9619 32.8133 73.9815 32.2249C72.9936 33.0783 72.1391 33.4084 71.4179 33.2152C70.7095 33.0254 70.2084 32.6288 69.9145 32.0255C69.6207 31.4223 69.5893 30.6892 69.8205 29.8263C70.2692 28.152 70.9264 26.1885 71.7923 23.9359L73.9763 24.7489C73.1544 26.889 72.5484 28.6868 72.1585 30.1421C71.9825 30.799 72.1005 31.1826 72.5127 31.293C72.7058 31.3448 73.0084 31.1429 73.4204 30.6873C73.8452 30.2352 74.2414 29.6581 74.609 28.956C74.672 28.6692 74.7553 28.3326 74.8588 27.9462C74.9623 27.5598 75.2974 26.3866 75.864 24.4265L78.0532 25.2201ZM82.9932 21.3053C81.927 24.5119 81.0436 27.4224 80.343 30.0369C79.6425 32.6513 79.1829 34.4952 78.9643 35.5685L76.7417 34.7452C77.0491 33.392 77.5323 31.4854 78.1915 29.0255C78.854 26.5528 79.7167 23.7195 80.7795 20.5258L82.9932 21.3053ZM86.5928 22.2698C85.5265 25.4764 84.6431 28.3869 83.9426 31.0014C83.2421 33.6158 82.7825 35.4597 82.5639 36.533L80.3413 35.7097C80.6487 34.3565 81.1319 32.4499 81.791 29.9901C82.4536 27.5173 83.3163 24.684 84.3791 21.4903L86.5928 22.2698Z" fill="black"/>
<rect x="65" y="0.397095" width="2" height="12" rx="1" transform="rotate(-11.4516 65 0.397095)" fill="#100C0D"/>
<rect x="86.418" y="2" width="2" height="12" rx="1" transform="rotate(26.8377 86.418 2)" fill="#100C0D"/>
<rect x="101.649" y="15" width="2" height="12" rx="1" transform="rotate(62.5589 101.649 15)" fill="#100C0D"/>
</svg>
