<svg width="95" height="75" viewBox="0 0 95 75" fill="none" xmlns="http://www.w3.org/2000/svg">
<path d="M18.66 64.658C18.352 64.658 18.016 64.7747 17.652 65.008C17.288 65.2413 16.9567 65.6053 16.658 66.1C16.3593 66.5853 16.14 67.2153 16 67.99L15.468 71H14.208L15.006 66.646C15.0527 66.422 15.0807 66.2587 15.09 66.156C15.0993 66.044 15.104 65.9413 15.104 65.848C15.104 65.484 14.9967 65.1947 14.782 64.98C14.5767 64.7653 14.306 64.658 13.97 64.658C13.6433 64.658 13.298 64.7793 12.934 65.022C12.57 65.2647 12.2387 65.6427 11.94 66.156C11.6413 66.66 11.422 67.3087 11.282 68.102L10.778 71H9.518L10.792 63.72H12.01L11.702 65.4C11.982 64.84 12.36 64.392 12.836 64.056C13.3213 63.72 13.8207 63.552 14.334 63.552C14.9127 63.552 15.3793 63.7293 15.734 64.084C16.0887 64.4293 16.2893 64.868 16.336 65.4C16.6533 64.8213 17.0407 64.3687 17.498 64.042C17.9647 63.7153 18.4687 63.552 19.01 63.552C19.6353 63.552 20.13 63.748 20.494 64.14C20.8673 64.5227 21.054 64.994 21.054 65.554C21.054 65.7873 21.026 66.0813 20.97 66.436L20.158 71H18.898L19.696 66.646C19.7427 66.422 19.7707 66.2587 19.78 66.156C19.7893 66.044 19.794 65.9413 19.794 65.848C19.794 65.484 19.6867 65.1947 19.472 64.98C19.2667 64.7653 18.996 64.658 18.66 64.658ZM21.3012 68.13C21.3012 67.2247 21.4972 66.4313 21.8892 65.75C22.2905 65.0593 22.8412 64.5227 23.5412 64.14C24.2412 63.748 25.0392 63.552 25.9352 63.552C26.4859 63.552 26.9665 63.608 27.3772 63.72C27.7972 63.832 28.1425 63.944 28.4132 64.056L27.5312 69.026C27.5219 69.0727 27.5125 69.1287 27.5032 69.194C27.5032 69.25 27.5032 69.3107 27.5032 69.376C27.5032 69.6373 27.5779 69.824 27.7272 69.936C27.8765 70.0387 28.0725 70.09 28.3152 70.09L27.8812 71.07C27.3772 71.07 26.9899 70.9487 26.7192 70.706C26.4579 70.454 26.3272 70.0667 26.3272 69.544C26.0659 69.992 25.7345 70.3747 25.3332 70.692C24.9412 71.0093 24.4792 71.168 23.9472 71.168C23.4899 71.168 23.0605 71.0467 22.6592 70.804C22.2579 70.552 21.9312 70.202 21.6792 69.754C21.4272 69.2967 21.3012 68.7553 21.3012 68.13ZM27.0272 64.798C26.8499 64.742 26.6632 64.7 26.4672 64.672C26.2805 64.6347 26.0519 64.616 25.7812 64.616C25.1372 64.616 24.5772 64.7607 24.1012 65.05C23.6252 65.3393 23.2519 65.7407 22.9812 66.254C22.7199 66.758 22.5892 67.332 22.5892 67.976C22.5892 68.424 22.6685 68.802 22.8272 69.11C22.9952 69.418 23.2099 69.6513 23.4712 69.81C23.7325 69.9687 24.0032 70.048 24.2832 70.048C24.6659 70.048 25.0159 69.9173 25.3332 69.656C25.6505 69.3947 25.9212 69.0307 26.1452 68.564C26.3785 68.0973 26.5465 67.5653 26.6492 66.968L27.0272 64.798ZM30.7844 62.474C30.523 62.474 30.3224 62.3993 30.1824 62.25C30.0517 62.0913 29.9864 61.9093 29.9864 61.704C29.9864 61.4053 30.0797 61.1673 30.2664 60.99C30.453 60.8033 30.6864 60.71 30.9664 60.71C31.2277 60.71 31.4237 60.7893 31.5544 60.948C31.6944 61.0973 31.7644 61.2747 31.7644 61.48C31.7644 61.7693 31.671 62.0073 31.4844 62.194C31.2977 62.3807 31.0644 62.474 30.7844 62.474ZM29.8464 71H28.5864L29.8604 63.72H31.1204L29.8464 71ZM32.6944 68.48C32.6757 68.6013 32.6617 68.7133 32.6524 68.816C32.6431 68.9093 32.6384 68.9933 32.6384 69.068C32.6384 69.3853 32.7317 69.6327 32.9184 69.81C33.1144 69.9873 33.3711 70.076 33.6884 70.076C33.8471 70.076 34.0057 70.0573 34.1644 70.02C34.3231 69.9827 34.4677 69.9313 34.5984 69.866L34.7244 70.888C34.5564 70.972 34.3604 71.0373 34.1364 71.084C33.9124 71.14 33.6697 71.168 33.4084 71.168C32.8484 71.168 32.3677 71.0093 31.9664 70.692C31.5744 70.3653 31.3784 69.8753 31.3784 69.222C31.3784 68.9793 31.3971 68.7413 31.4344 68.508L32.8064 60.64H34.0664L32.6944 68.48ZM39.8581 65.302C39.5875 65.1153 39.2841 64.952 38.9481 64.812C38.6215 64.672 38.2481 64.602 37.8281 64.602C37.3895 64.602 37.0488 64.6767 36.8061 64.826C36.5635 64.9753 36.4421 65.1713 36.4421 65.414C36.4421 65.554 36.4795 65.6893 36.5541 65.82C36.6381 65.9413 36.7828 66.072 36.9881 66.212C37.2028 66.352 37.5015 66.52 37.8841 66.716C38.5188 67.0333 38.9901 67.3647 39.2981 67.71C39.6061 68.046 39.7601 68.4613 39.7601 68.956C39.7601 69.4507 39.6295 69.8613 39.3681 70.188C39.1068 70.5147 38.7568 70.762 38.3181 70.93C37.8795 71.0887 37.3848 71.168 36.8341 71.168C36.2648 71.168 35.7608 71.098 35.3221 70.958C34.8928 70.8087 34.5195 70.6173 34.2021 70.384L34.9161 69.348C35.1681 69.5533 35.4668 69.726 35.8121 69.866C36.1575 70.006 36.5355 70.076 36.9461 70.076C37.4128 70.076 37.7815 69.9873 38.0521 69.81C38.3228 69.6327 38.4581 69.4133 38.4581 69.152C38.4581 68.9093 38.3555 68.6853 38.1501 68.48C37.9541 68.2747 37.5668 68.0273 36.9881 67.738C36.5215 67.5047 36.1575 67.2807 35.8961 67.066C35.6348 66.842 35.4528 66.604 35.3501 66.352C35.2475 66.1 35.1961 65.8107 35.1961 65.484C35.1961 65.1107 35.3081 64.7793 35.5321 64.49C35.7561 64.2007 36.0688 63.972 36.4701 63.804C36.8715 63.636 37.3335 63.552 37.8561 63.552C38.3788 63.552 38.8455 63.622 39.2561 63.762C39.6761 63.8927 40.0448 64.0513 40.3621 64.238L39.8581 65.302ZM46.5541 71.168C45.8634 71.168 45.2661 71.028 44.7621 70.748C44.2581 70.468 43.8661 70.0807 43.5861 69.586C43.3154 69.082 43.1801 68.5127 43.1801 67.878C43.1801 67.066 43.3434 66.3333 43.6701 65.68C44.0061 65.0267 44.4728 64.5087 45.0701 64.126C45.6674 63.7433 46.3721 63.552 47.1841 63.552C47.8748 63.552 48.4721 63.692 48.9761 63.972C49.4801 64.252 49.8674 64.6393 50.1381 65.134C50.4181 65.6287 50.5581 66.198 50.5581 66.842C50.5581 67.6447 50.3948 68.3773 50.0681 69.04C49.7414 69.6933 49.2748 70.2113 48.6681 70.594C48.0708 70.9767 47.3661 71.168 46.5541 71.168ZM46.5961 70.048C47.1561 70.048 47.6321 69.9127 48.0241 69.642C48.4254 69.362 48.7334 68.9887 48.9481 68.522C49.1628 68.0553 49.2701 67.5327 49.2701 66.954C49.2701 66.5247 49.1861 66.142 49.0181 65.806C48.8501 65.4607 48.6074 65.1853 48.2901 64.98C47.9728 64.7747 47.5901 64.672 47.1421 64.672C46.5914 64.672 46.1154 64.812 45.7141 65.092C45.3128 65.3627 45.0048 65.7313 44.7901 66.198C44.5754 66.6647 44.4681 67.1873 44.4681 67.766C44.4681 68.186 44.5521 68.5687 44.7201 68.914C44.8881 69.2593 45.1308 69.5347 45.4481 69.74C45.7654 69.9453 46.1481 70.048 46.5961 70.048ZM57.6443 66.24C57.6443 66.94 57.523 67.5887 57.2803 68.186C57.0376 68.7833 56.6923 69.306 56.2443 69.754C55.8056 70.202 55.283 70.552 54.6763 70.804C54.0696 71.0467 53.407 71.168 52.6883 71.168C52.259 71.168 51.8623 71.126 51.4983 71.042C51.1343 70.9673 50.831 70.8693 50.5883 70.748L52.3663 60.64H53.6263L52.8283 65.19C53.099 64.6953 53.4443 64.2987 53.8643 64C54.2936 63.7013 54.7743 63.552 55.3063 63.552C55.7543 63.552 56.151 63.664 56.4963 63.888C56.851 64.112 57.131 64.4293 57.3363 64.84C57.5416 65.2413 57.6443 65.708 57.6443 66.24ZM54.9843 64.644C54.6483 64.644 54.303 64.7607 53.9483 64.994C53.5936 65.2273 53.267 65.6193 52.9683 66.17C52.6696 66.7113 52.4363 67.4487 52.2683 68.382L51.9883 69.936C52.1376 69.9733 52.2916 70.0013 52.4503 70.02C52.6183 70.0387 52.7956 70.048 52.9823 70.048C53.6263 70.048 54.2003 69.8893 54.7043 69.572C55.2176 69.2453 55.619 68.8067 55.9083 68.256C56.207 67.7053 56.3563 67.0893 56.3563 66.408C56.3563 65.8667 56.2303 65.4373 55.9783 65.12C55.7263 64.8027 55.395 64.644 54.9843 64.644ZM62.7097 65.302C62.439 65.1153 62.1357 64.952 61.7997 64.812C61.473 64.672 61.0997 64.602 60.6797 64.602C60.241 64.602 59.9004 64.6767 59.6577 64.826C59.415 64.9753 59.2937 65.1713 59.2937 65.414C59.2937 65.554 59.331 65.6893 59.4057 65.82C59.4897 65.9413 59.6344 66.072 59.8397 66.212C60.0544 66.352 60.353 66.52 60.7357 66.716C61.3704 67.0333 61.8417 67.3647 62.1497 67.71C62.4577 68.046 62.6117 68.4613 62.6117 68.956C62.6117 69.4507 62.481 69.8613 62.2197 70.188C61.9584 70.5147 61.6084 70.762 61.1697 70.93C60.731 71.0887 60.2364 71.168 59.6857 71.168C59.1164 71.168 58.6124 71.098 58.1737 70.958C57.7444 70.8087 57.371 70.6173 57.0537 70.384L57.7677 69.348C58.0197 69.5533 58.3184 69.726 58.6637 69.866C59.009 70.006 59.387 70.076 59.7977 70.076C60.2644 70.076 60.633 69.9873 60.9037 69.81C61.1744 69.6327 61.3097 69.4133 61.3097 69.152C61.3097 68.9093 61.207 68.6853 61.0017 68.48C60.8057 68.2747 60.4184 68.0273 59.8397 67.738C59.373 67.5047 59.009 67.2807 58.7477 67.066C58.4864 66.842 58.3044 66.604 58.2017 66.352C58.099 66.1 58.0477 65.8107 58.0477 65.484C58.0477 65.1107 58.1597 64.7793 58.3837 64.49C58.6077 64.2007 58.9204 63.972 59.3217 63.804C59.723 63.636 60.185 63.552 60.7077 63.552C61.2304 63.552 61.697 63.622 62.1077 63.762C62.5277 63.8927 62.8964 64.0513 63.2137 64.238L62.7097 65.302ZM65.9704 71.168C65.3544 71.168 64.8084 71.0373 64.3324 70.776C63.8657 70.5053 63.4971 70.1227 63.2264 69.628C62.9651 69.124 62.8344 68.5313 62.8344 67.85C62.8344 67.0753 62.9931 66.3613 63.3104 65.708C63.6371 65.0547 64.0944 64.532 64.6824 64.14C65.2797 63.748 65.9751 63.552 66.7684 63.552C67.3097 63.552 67.7671 63.6547 68.1404 63.86C68.5231 64.0653 68.8171 64.3313 69.0224 64.658C69.2277 64.9847 69.3304 65.3347 69.3304 65.708C69.3304 66.2213 69.2091 66.646 68.9664 66.982C68.7237 67.318 68.4111 67.5793 68.0284 67.766C67.6457 67.9433 67.2304 68.0693 66.7824 68.144C66.3437 68.2187 65.9237 68.256 65.5224 68.256C65.2704 68.256 65.0184 68.2467 64.7664 68.228C64.5237 68.2 64.3091 68.172 64.1224 68.144C64.1971 68.76 64.4164 69.2313 64.7804 69.558C65.1444 69.8847 65.6111 70.048 66.1804 70.048C66.6471 70.048 67.0624 69.9873 67.4264 69.866C67.7904 69.7447 68.0984 69.6233 68.3504 69.502L68.4624 70.622C68.1824 70.7527 67.8277 70.8787 67.3984 71C66.9691 71.112 66.4931 71.168 65.9704 71.168ZM66.6704 64.616C66.2317 64.616 65.8351 64.728 65.4804 64.952C65.1257 65.1667 64.8317 65.4653 64.5984 65.848C64.3744 66.2213 64.2251 66.6507 64.1504 67.136C64.3651 67.1733 64.5797 67.206 64.7944 67.234C65.0184 67.2527 65.2611 67.262 65.5224 67.262C66.3064 67.262 66.9271 67.1547 67.3844 66.94C67.8417 66.716 68.0704 66.338 68.0704 65.806C68.0704 65.4793 67.9397 65.1993 67.6784 64.966C67.4264 64.7327 67.0904 64.616 66.6704 64.616ZM70.6065 68.48C70.5878 68.6013 70.5738 68.7133 70.5645 68.816C70.5552 68.9093 70.5505 68.9933 70.5505 69.068C70.5505 69.3853 70.6438 69.6327 70.8305 69.81C71.0265 69.9873 71.2832 70.076 71.6005 70.076C71.7592 70.076 71.9178 70.0573 72.0765 70.02C72.2352 69.9827 72.3798 69.9313 72.5105 69.866L72.6365 70.888C72.4685 70.972 72.2725 71.0373 72.0485 71.084C71.8245 71.14 71.5818 71.168 71.3205 71.168C70.7605 71.168 70.2798 71.0093 69.8785 70.692C69.4865 70.3653 69.2905 69.8753 69.2905 69.222C69.2905 68.9793 69.3092 68.7413 69.3465 68.508L70.7185 60.64H71.9785L70.6065 68.48ZM75.3864 71.168C74.7704 71.168 74.2244 71.0373 73.7484 70.776C73.2818 70.5053 72.9131 70.1227 72.6424 69.628C72.3811 69.124 72.2504 68.5313 72.2504 67.85C72.2504 67.0753 72.4091 66.3613 72.7264 65.708C73.0531 65.0547 73.5104 64.532 74.0984 64.14C74.6958 63.748 75.3911 63.552 76.1844 63.552C76.7258 63.552 77.1831 63.6547 77.5564 63.86C77.9391 64.0653 78.2331 64.3313 78.4384 64.658C78.6438 64.9847 78.7464 65.3347 78.7464 65.708C78.7464 66.2213 78.6251 66.646 78.3824 66.982C78.1398 67.318 77.8271 67.5793 77.4444 67.766C77.0618 67.9433 76.6464 68.0693 76.1984 68.144C75.7598 68.2187 75.3398 68.256 74.9384 68.256C74.6864 68.256 74.4344 68.2467 74.1824 68.228C73.9398 68.2 73.7251 68.172 73.5384 68.144C73.6131 68.76 73.8324 69.2313 74.1964 69.558C74.5604 69.8847 75.0271 70.048 75.5964 70.048C76.0631 70.048 76.4784 69.9873 76.8424 69.866C77.2064 69.7447 77.5144 69.6233 77.7664 69.502L77.8784 70.622C77.5984 70.7527 77.2438 70.8787 76.8144 71C76.3851 71.112 75.9091 71.168 75.3864 71.168ZM76.0864 64.616C75.6478 64.616 75.2511 64.728 74.8964 64.952C74.5418 65.1667 74.2478 65.4653 74.0144 65.848C73.7904 66.2213 73.6411 66.6507 73.5664 67.136C73.7811 67.1733 73.9958 67.206 74.2104 67.234C74.4344 67.2527 74.6771 67.262 74.9384 67.262C75.7224 67.262 76.3431 67.1547 76.8004 66.94C77.2578 66.716 77.4864 66.338 77.4864 65.806C77.4864 65.4793 77.3558 65.1993 77.0944 64.966C76.8424 64.7327 76.5064 64.616 76.0864 64.616ZM77.5564 62.95L74.8544 61.424L75.5824 60.36L78.0604 62.18L77.5564 62.95ZM78.7485 63.986H80.0365L80.7085 61.69H81.6745L81.2685 63.986H83.2845L83.1025 65.078H81.0725L80.4845 68.48C80.4658 68.5827 80.4518 68.6807 80.4425 68.774C80.4332 68.858 80.4285 68.9373 80.4285 69.012C80.4285 69.3387 80.5265 69.5953 80.7225 69.782C80.9185 69.9593 81.1752 70.048 81.4925 70.048C81.7632 70.048 81.9918 70.0107 82.1785 69.936C82.3652 69.852 82.5332 69.768 82.6825 69.684L82.8365 70.776C82.6592 70.8787 82.4352 70.9673 82.1645 71.042C81.9032 71.126 81.6092 71.168 81.2825 71.168C80.9372 71.168 80.6012 71.098 80.2745 70.958C79.9572 70.818 79.6958 70.5987 79.4905 70.3C79.2852 69.992 79.1825 69.5953 79.1825 69.11C79.1825 68.9047 79.2012 68.676 79.2385 68.424L79.8125 65.078H78.5665L78.7485 63.986ZM85.9645 71.168C85.3485 71.168 84.8025 71.0373 84.3265 70.776C83.8599 70.5053 83.4912 70.1227 83.2205 69.628C82.9592 69.124 82.8285 68.5313 82.8285 67.85C82.8285 67.0753 82.9872 66.3613 83.3045 65.708C83.6312 65.0547 84.0885 64.532 84.6765 64.14C85.2739 63.748 85.9692 63.552 86.7625 63.552C87.3039 63.552 87.7612 63.6547 88.1345 63.86C88.5172 64.0653 88.8112 64.3313 89.0165 64.658C89.2219 64.9847 89.3245 65.3347 89.3245 65.708C89.3245 66.2213 89.2032 66.646 88.9605 66.982C88.7179 67.318 88.4052 67.5793 88.0225 67.766C87.6399 67.9433 87.2245 68.0693 86.7765 68.144C86.3379 68.2187 85.9179 68.256 85.5165 68.256C85.2645 68.256 85.0125 68.2467 84.7605 68.228C84.5179 68.2 84.3032 68.172 84.1165 68.144C84.1912 68.76 84.4105 69.2313 84.7745 69.558C85.1385 69.8847 85.6052 70.048 86.1745 70.048C86.6412 70.048 87.0565 69.9873 87.4205 69.866C87.7845 69.7447 88.0925 69.6233 88.3445 69.502L88.4565 70.622C88.1765 70.7527 87.8219 70.8787 87.3925 71C86.9632 71.112 86.4872 71.168 85.9645 71.168ZM86.6645 64.616C86.2259 64.616 85.8292 64.728 85.4745 64.952C85.1199 65.1667 84.8259 65.4653 84.5925 65.848C84.3685 66.2213 84.2192 66.6507 84.1445 67.136C84.3592 67.1733 84.5739 67.206 84.7885 67.234C85.0125 67.2527 85.2552 67.262 85.5165 67.262C86.3005 67.262 86.9212 67.1547 87.3785 66.94C87.8359 66.716 88.0645 66.338 88.0645 65.806C88.0645 65.4793 87.9339 65.1993 87.6725 64.966C87.4205 64.7327 87.0845 64.616 86.6645 64.616ZM94.1706 65.302C93.9 65.1153 93.5966 64.952 93.2606 64.812C92.934 64.672 92.5606 64.602 92.1406 64.602C91.702 64.602 91.3613 64.6767 91.1186 64.826C90.876 64.9753 90.7546 65.1713 90.7546 65.414C90.7546 65.554 90.792 65.6893 90.8666 65.82C90.9506 65.9413 91.0953 66.072 91.3006 66.212C91.5153 66.352 91.814 66.52 92.1966 66.716C92.8313 67.0333 93.3026 67.3647 93.6106 67.71C93.9186 68.046 94.0726 68.4613 94.0726 68.956C94.0726 69.4507 93.942 69.8613 93.6806 70.188C93.4193 70.5147 93.0693 70.762 92.6306 70.93C92.192 71.0887 91.6973 71.168 91.1466 71.168C90.5773 71.168 90.0733 71.098 89.6346 70.958C89.2053 70.8087 88.832 70.6173 88.5146 70.384L89.2286 69.348C89.4806 69.5533 89.7793 69.726 90.1246 69.866C90.47 70.006 90.848 70.076 91.2586 70.076C91.7253 70.076 92.094 69.9873 92.3646 69.81C92.6353 69.6327 92.7706 69.4133 92.7706 69.152C92.7706 68.9093 92.668 68.6853 92.4626 68.48C92.2666 68.2747 91.8793 68.0273 91.3006 67.738C90.834 67.5047 90.47 67.2807 90.2086 67.066C89.9473 66.842 89.7653 66.604 89.6626 66.352C89.56 66.1 89.5086 65.8107 89.5086 65.484C89.5086 65.1107 89.6206 64.7793 89.8446 64.49C90.0686 64.2007 90.3813 63.972 90.7826 63.804C91.184 63.636 91.646 63.552 92.1686 63.552C92.6913 63.552 93.158 63.622 93.5686 63.762C93.9886 63.8927 94.3573 64.0513 94.6746 64.238L94.1706 65.302Z" fill="black"/>
<path d="M80 8.92308V41.2308C80 43.0669 79.2706 44.8278 77.9723 46.1261C76.8342 47.2642 75.3846 48.1538 72.3077 48.1538M80 8.92308C80 7.08696 79.2706 5.32605 77.9723 4.02772M80 8.92308V9.67077M20 8.92308V41.2308C20 43.0669 20.7294 44.8278 22.0277 46.1261C23.1648 47.2632 24.6154 48.1538 27.6923 48.1538M20 8.92308C20 7.08696 20.7294 5.32605 22.0277 4.02772M20 8.92308V9.67385M77.9723 4.02772C76.6739 2.72939 74.913 2 73.0769 2H32.3077H26.9231C25.087 2 23.3261 2.72939 22.0277 4.02772M77.9723 4.02772L50 20.4615L22.0277 4.02772M27.6923 48.1538C27.9173 48.176 26.695 48.1538 26.9231 48.1538H73.0769C73.3035 48.1538 72.0841 48.1758 72.3077 48.1538M27.6923 48.1538V17.3846L46.3692 29.7662C47.4609 30.4386 48.7179 30.7946 50 30.7946C51.2821 30.7946 52.5391 30.4386 53.6308 29.7662L72.3077 17.3846V48.1538" stroke="black" stroke-width="4" stroke-linecap="round" stroke-linejoin="round"/>
<path d="M76 32.125C75.5 36.125 70.375 36.2917 67.875 35.875C68.875 40.375 65.7917 43.1667 64.125 44C68.625 45.5 68.5 50.0417 67.875 52.125C72.875 51.125 75.375 54.2083 76 55.875C77.5 51.375 82.0417 51.5 84.125 52.125C81.625 47.625 85.5833 44.8333 87.875 44C83.875 43 83.7083 38.1667 84.125 35.875C78.125 37.875 76.2083 34.2083 76 32.125Z" fill="white" stroke="black" stroke-width="2.5" stroke-linecap="round" stroke-linejoin="round"/>
<path d="M76 31.5V44V56.5" stroke="black" stroke-width="2.5" stroke-linecap="round"/>
<path d="M84.8389 35.1612L76 44L67.1612 52.8389" stroke="black" stroke-width="2.5" stroke-linecap="round"/>
<path d="M84.8389 52.8388L76 44L67.1612 35.1611" stroke="black" stroke-width="2.5" stroke-linecap="round"/>
<path d="M88.5 44L76 44L63.5 44" stroke="black" stroke-width="2.5" stroke-linecap="round"/>
<path d="M19 49L9.21212 39.5M19 49H4M19 49V34M19 49H24.5M2 49H4M7.66667 38L9.21212 39.5M19 32V34M9.21212 39.5C9.47475 41.3333 8.8 45.8 4 49M9.21212 39.5C12.4747 39.1667 19 37.6 19 34" stroke="black" stroke-width="2.5" stroke-linecap="round" stroke-linejoin="round"/>
</svg>
