<svg width="882" height="97" viewBox="0 0 882 97" fill="none" xmlns="http://www.w3.org/2000/svg">
<path d="M13.8027 38.7012L21.4231 46.2496" stroke="#100C0D" stroke-width="1.4378" stroke-linecap="round"/>
<path d="M12.0063 40.3546C12.0063 40.3546 13.8036 41.0735 12.0064 43.8772C10.2091 46.6809 7.47727 44.8118 7.47727 44.8118" stroke="#100C0D" stroke-width="1.4378" stroke-linecap="round"/>
<path d="M19.7694 26.3339C19.7694 28.159 18.2899 29.6385 16.4648 29.6385C14.6397 29.6385 13.1602 28.159 13.1602 26.3339C13.1602 24.5088 14.6397 23.0293 16.4648 23.0293C18.2899 23.0293 19.7694 24.5088 19.7694 26.3339Z" fill="white"/>
<path fill-rule="evenodd" clip-rule="evenodd" d="M16.4648 28.7689C17.8096 28.7689 18.8998 27.6787 18.8998 26.3339C18.8998 24.9891 17.8096 23.8989 16.4648 23.8989C15.12 23.8989 14.0298 24.9891 14.0298 26.3339C14.0298 27.6787 15.12 28.7689 16.4648 28.7689ZM16.4648 29.6385C18.2899 29.6385 19.7694 28.159 19.7694 26.3339C19.7694 24.5088 18.2899 23.0293 16.4648 23.0293C14.6397 23.0293 13.1602 24.5088 13.1602 26.3339C13.1602 28.159 14.6397 29.6385 16.4648 29.6385Z" fill="#100C0D"/>
<path d="M18.9241 26.2364C18.9241 27.2931 18.0675 28.1496 17.0109 28.1496C15.9542 28.1496 15.0977 27.2931 15.0977 26.2364C15.0977 25.1798 15.9542 24.3232 17.0109 24.3232C18.0675 24.3232 18.9241 25.1798 18.9241 26.2364Z" fill="#100C0D"/>
<path d="M7.86724 42.6612C8.12825 42.7833 8.24083 43.0939 8.11869 43.3549L6.05463 47.7658C5.9325 48.0269 5.62189 48.1394 5.36088 48.0173C5.09987 47.8952 4.9873 47.5846 5.10943 47.3236L7.1735 42.9126C7.29563 42.6516 7.60623 42.539 7.86724 42.6612Z" fill="#100C0D"/>
<path d="M19.9674 47.4928C19.8182 47.2463 19.8971 46.9255 20.1437 46.7763L24.0127 44.4353C24.2593 44.2862 24.5801 44.3651 24.7293 44.6117C24.8785 44.8582 24.7995 45.179 24.553 45.3282L20.6839 47.6691C20.4374 47.8183 20.1165 47.7394 19.9674 47.4928Z" fill="#100C0D"/>
<path fill-rule="evenodd" clip-rule="evenodd" d="M20.4553 25.029C20.7337 24.9266 21.0043 25.1972 20.9019 25.4755L14.3107 43.3924C14.1353 43.869 13.5249 44.0032 13.1658 43.6441L9.20251 39.6807L3.53668 45.3924C3.401 45.5292 3.17998 45.5297 3.04375 45.3934L0.537431 42.8871C0.401197 42.7509 0.401644 42.5299 0.538427 42.3942L6.25026 36.7283L2.28694 32.7648C1.92783 32.4057 2.06206 31.7953 2.5387 31.62L20.4553 25.029Z" fill="white"/>
<path fill-rule="evenodd" clip-rule="evenodd" d="M20.3045 24.6206C20.9308 24.3902 21.5396 24.9991 21.3092 25.6254L14.718 43.5422C14.4331 44.3167 13.4412 44.5349 12.8576 43.9513L9.20302 40.2966L3.84466 45.6984C3.53937 46.0061 3.04208 46.0071 2.73556 45.7006L0.22924 43.1943C-0.0772869 42.8878 -0.0762822 42.3905 0.23148 42.0852L5.63337 36.7268L1.97875 33.072C1.3952 32.4885 1.61331 31.4966 2.38785 31.2116L20.3045 24.6206ZM20.4281 25.5017L2.68809 32.0278C2.50935 32.0935 2.45902 32.3224 2.59368 32.4571L6.8657 36.7293L0.905908 42.6411L3.28874 45.0239L9.20055 39.0642L13.4726 43.3364C13.6072 43.471 13.8361 43.4207 13.9019 43.242L20.4281 25.5017Z" fill="#100C0D"/>
<path d="M13.8553 28.4213C13.8553 30.2464 12.3758 31.7259 10.5507 31.7259C8.72562 31.7259 7.24609 30.2464 7.24609 28.4213C7.24609 26.5962 8.72562 25.1167 10.5507 25.1167C12.3758 25.1167 13.8553 26.5962 13.8553 28.4213Z" fill="white"/>
<path fill-rule="evenodd" clip-rule="evenodd" d="M10.5507 30.8563C11.8955 30.8563 12.9857 29.7661 12.9857 28.4213C12.9857 27.0765 11.8955 25.9863 10.5507 25.9863C9.20591 25.9863 8.11573 27.0765 8.11573 28.4213C8.11573 29.7661 9.20591 30.8563 10.5507 30.8563ZM10.5507 31.7259C12.3758 31.7259 13.8553 30.2464 13.8553 28.4213C13.8553 26.5962 12.3758 25.1167 10.5507 25.1167C8.72562 25.1167 7.24609 26.5962 7.24609 28.4213C7.24609 30.2464 8.72562 31.7259 10.5507 31.7259Z" fill="#100C0D"/>
<path d="M13.1721 28.5372C13.1721 29.5939 12.3155 30.4504 11.2589 30.4504C10.2023 30.4504 9.3457 29.5939 9.3457 28.5372C9.3457 27.4806 10.2023 26.624 11.2589 26.624C12.3155 26.624 13.1721 27.4806 13.1721 28.5372Z" fill="#100C0D"/>
<path fill-rule="evenodd" clip-rule="evenodd" d="M15.2718 28.6518C15.4324 28.4733 15.7074 28.4588 15.8859 28.6194C16.3955 29.0781 17.7812 29.7984 19.2269 29.0755C19.4417 28.9681 19.7029 29.0552 19.8103 29.27C19.9177 29.4848 19.8306 29.7459 19.6158 29.8533C17.7222 30.8002 15.954 29.8508 15.3041 29.2658C15.1256 29.1052 15.1111 28.8303 15.2718 28.6518Z" fill="#100C0D"/>
<rect x="45" y="32.0293" width="10" height="2" rx="1" fill="#100C0D"/>
<rect x="119" y="32.0293" width="10" height="2" rx="1" fill="#100C0D"/>
<rect x="193" y="32.0293" width="10" height="2" rx="1" fill="#100C0D"/>
<rect x="267" y="32.0293" width="10" height="2" rx="1" fill="#100C0D"/>
<rect x="397" y="32.0293" width="10" height="2" rx="1" fill="#100C0D"/>
<rect x="471" y="32.0293" width="10" height="2" rx="1" fill="#100C0D"/>
<rect x="545" y="32.0293" width="10" height="2" rx="1" fill="#100C0D"/>
<rect x="619" y="32.0293" width="10" height="2" rx="1" fill="#100C0D"/>
<path d="M342.113 29.0075L342.485 29.1942L342.113 29.0075L341.232 30.7595L340.529 30.2933C339.98 29.9288 339.266 30.4196 339.41 31.0632C339.444 31.2177 339.528 31.3568 339.648 31.4597L340.976 32.597C341.358 32.9241 341.947 32.7893 342.149 32.3287L343.151 30.0392L344.161 30.2022L344.154 30.2261C343.998 30.7433 344.424 31.2503 344.961 31.1854L347.095 30.9272C347.801 30.8418 348.001 29.913 347.393 29.5441L345.711 28.5232C345.297 28.2716 344.756 28.4745 344.609 28.9366L344.568 29.0681L342.984 28.623C342.639 28.526 342.274 28.6872 342.113 29.0075ZM343.177 29.9802C343.177 29.9802 343.177 29.9802 343.177 29.9803L343.177 29.9802Z" fill="#EE4266" stroke="#100C0D" stroke-width="0.831765"/>
<circle cx="2.01944" cy="2.01944" r="2.01944" transform="matrix(-0.958659 0.284557 0.284557 0.958659 332.773 9.0293)" fill="white" stroke="#100C0D" stroke-width="0.831765"/>
<path d="M333.151 17.9213C333.852 17.1084 334.611 16.885 335.201 16.672C335.292 16.6393 335.362 16.5673 335.395 16.4767L336.413 13.6791C336.526 13.3689 336.973 13.3946 337.049 13.7157L337.697 16.4342C337.725 16.5489 337.811 16.6388 337.921 16.6826C338.34 16.8497 338.64 17.1132 338.838 17.3556C338.935 17.4735 339.092 17.5319 339.236 17.4844L342.438 16.433C342.742 16.3332 342.998 16.6777 342.814 16.9397L340.349 20.4664C340.31 20.5223 340.289 20.5878 340.289 20.656C340.28 21.9875 340.111 25.0445 340.009 26.7045C339.998 26.8829 340.13 27.0383 340.308 27.0563L341.874 27.2151C342.199 27.248 342.287 27.6802 342.001 27.8376L339.821 29.0372C339.686 29.1119 339.62 29.2702 339.662 29.4192L340.984 34.0981C341.017 34.2175 341.115 34.3082 341.236 34.3334L343.695 34.8439C344.004 34.9081 344.058 35.3266 343.776 35.4674L342.096 36.3042C341.858 36.4229 341.705 36.8937 341.728 37.1589C341.763 37.559 341.738 38.0809 341.704 38.4589C341.695 38.5628 341.733 38.6655 341.809 38.737L343.579 40.4012C343.815 40.623 343.627 41.0168 343.306 40.9734L340.452 40.5871C340.349 40.5732 340.247 40.6102 340.16 40.6663C339.672 40.9797 338.538 41.1522 337.862 41.1209C337.784 41.1172 337.706 41.1371 337.642 41.1817L335 43.0134C334.75 43.1865 334.418 42.9619 334.486 42.6658L335.158 39.725C335.181 39.6266 335.157 39.5233 335.095 39.4442L333.814 37.828C333.74 37.7349 333.623 37.6882 333.505 37.7053L330.683 38.1179C330.398 38.1594 330.199 37.8455 330.357 37.6056L332.059 35.0229C332.114 34.9387 332.128 34.8339 332.097 34.7379L331.356 32.4349C331.32 32.3213 331.225 32.236 331.108 32.2113L329.012 31.7683C328.696 31.7014 328.651 31.2682 328.948 31.1382L330.734 30.3535C330.862 30.2973 330.941 30.1671 330.933 30.0276L330.798 27.9201C330.487 25.8719 331.187 22.3454 331.609 20.6978C331.633 20.605 331.616 20.5067 331.563 20.4272L329.579 17.48C329.398 17.2116 329.668 16.8693 329.971 16.9825L332.765 18.0265C332.902 18.0778 333.055 18.0323 333.151 17.9213Z" fill="#EE4266" stroke="#100C0D" stroke-width="0.831765"/>
<path d="M339.421 12.8664C339.322 13.9081 339.329 16.0622 338.148 16.8477" stroke="#100C0D" stroke-width="0.831765"/>
<path d="M331.97 13.3498C332.068 14.3915 332.808 16.5613 333.989 17.3468" stroke="#100C0D" stroke-width="0.831765"/>
<circle cx="339.93" cy="11.5399" r="2.01944" transform="rotate(16.5324 339.93 11.5399)" fill="white" stroke="#100C0D" stroke-width="0.831765"/>
<rect x="330.994" y="10.6929" width="0.665412" height="1.99624" rx="0.332706" fill="#100C0D"/>
<rect x="339.645" y="10.6929" width="0.665412" height="1.99624" rx="0.332706" fill="#100C0D"/>
<rect x="348.861" y="4.0293" width="2" height="5" rx="1" transform="rotate(21.8508 348.861 4.0293)" fill="#100C0D"/>
<rect x="339.131" width="2" height="5" rx="1" transform="rotate(5.38736 339.131 0)" fill="#100C0D"/>
<rect x="328.387" y="1.40039" width="2" height="5" rx="1" transform="rotate(-20.5626 328.387 1.40039)" fill="#100C0D"/>
<rect x="320.004" y="8.54004" width="2" height="5" rx="1" transform="rotate(-55.4576 320.004 8.54004)" fill="#100C0D"/>
<rect x="316" y="19.0132" width="2" height="5" rx="1" transform="rotate(-79.6927 316 19.0132)" fill="#100C0D"/>
<rect x="318.121" y="38.6221" width="2" height="5" rx="1" transform="rotate(-96.8933 318.121 38.6221)" fill="#100C0D"/>
<rect x="351.58" y="13.7446" width="2" height="5" rx="1" transform="rotate(-125.457 351.58 13.7446)" fill="#100C0D"/>
<rect x="353.367" y="20.7993" width="2" height="5" rx="1" transform="rotate(-111.596 353.367 20.7993)" fill="#100C0D"/>
<rect x="353.156" y="28.3945" width="2" height="5" rx="1" transform="rotate(-101.303 353.156 28.3945)" fill="#100C0D"/>
<rect x="353.006" y="35.833" width="2" height="5" rx="1" transform="rotate(-74.7109 353.006 35.833)" fill="#100C0D"/>
<rect x="315.068" y="29.3677" width="2" height="5" rx="1" transform="rotate(-93.908 315.068 29.3677)" fill="#100C0D"/>
<path d="M623 32.0297C622.448 32.0297 622 32.4774 622 33.0297C622 33.582 622.448 34.0297 623 34.0297L623 32.0297ZM850.309 88.3068C849.91 88.6885 849.896 89.3215 850.277 89.7206L856.498 96.2244C856.88 96.6235 857.513 96.6376 857.912 96.2558C858.311 95.8741 858.325 95.2411 857.944 94.842L852.414 89.0608L858.195 83.5311C858.594 83.1493 858.608 82.5163 858.226 82.1172C857.845 81.7181 857.212 81.704 856.813 82.0858L850.309 88.3068ZM851 33.0294L851.029 32.0299L851 33.0294ZM627.332 34.0259C627.884 34.0249 628.331 33.5765 628.33 33.0242C628.329 32.4719 627.881 32.025 627.329 32.0259L627.332 34.0259ZM675.621 31.7759C675.068 31.7795 674.624 32.2301 674.627 32.7824C674.631 33.3347 675.081 33.7794 675.634 33.7758L675.621 31.7759ZM684.337 33.7188C684.889 33.7152 685.334 33.2645 685.33 32.7123C685.327 32.16 684.876 31.7152 684.324 31.7188L684.337 33.7188ZM732.647 31.4356C732.095 31.4382 731.649 31.888 731.652 32.4403C731.654 32.9926 732.104 33.4382 732.657 33.4356L732.647 31.4356ZM741.353 33.3974C741.906 33.3952 742.352 32.9457 742.349 32.3934C742.347 31.8411 741.898 31.3952 741.345 31.3975L741.353 33.3974ZM789.671 31.3253C789.119 31.3243 788.67 31.7711 788.669 32.3234C788.668 32.8757 789.115 33.3243 789.668 33.3253L789.671 31.3253ZM798.355 33.3489C798.907 33.3508 799.356 32.9047 799.358 32.3525C799.36 31.8002 798.914 31.3509 798.362 31.3489L798.355 33.3489ZM846.709 31.9136C846.156 31.8999 845.698 32.3364 845.684 32.8885C845.67 33.4406 846.107 33.8993 846.659 33.913L846.709 31.9136ZM854.308 34.3278C854.854 34.4104 855.364 34.0347 855.447 33.4887C855.529 32.9426 855.154 32.4329 854.608 32.3503L854.308 34.3278ZM880.836 58.9431C880.731 58.4009 880.206 58.0464 879.664 58.1513C879.122 58.2562 878.767 58.7808 878.872 59.323L880.836 58.9431ZM879.4 65.9978C879.379 66.5496 879.809 67.0145 880.361 67.0361C880.912 67.0576 881.377 66.6278 881.399 66.0759L879.4 65.9978ZM854.534 89.9884C855.086 89.9625 855.512 89.4943 855.486 88.9426C855.46 88.3909 854.992 87.9647 854.44 87.9906L854.534 89.9884ZM623 34.0297C624.384 34.0297 625.829 34.0284 627.332 34.0259L627.329 32.0259C625.826 32.0284 624.382 32.0297 623 32.0297L623 34.0297ZM675.634 33.7758C678.489 33.7571 681.392 33.7381 684.337 33.7188L684.324 31.7188C681.379 31.7381 678.476 31.7572 675.621 31.7759L675.634 33.7758ZM732.657 33.4356C735.553 33.422 738.453 33.4092 741.353 33.3974L741.345 31.3975C738.445 31.4092 735.544 31.422 732.647 31.4356L732.657 33.4356ZM789.668 33.3253C792.6 33.3308 795.498 33.3386 798.355 33.3489L798.362 31.3489C795.504 31.3386 792.605 31.3308 789.671 31.3253L789.668 33.3253ZM846.659 33.913C848.139 33.9496 849.577 33.9883 850.971 34.029L851.029 32.0299C849.633 31.9891 848.192 31.9503 846.709 31.9136L846.659 33.913ZM850.971 34.029C852.111 34.0623 853.224 34.1636 854.308 34.3278L854.608 32.3503C853.443 32.174 852.25 32.0655 851.029 32.0299L850.971 34.029ZM878.872 59.323C879.305 61.5571 879.486 63.8024 879.4 65.9978L881.399 66.0759C881.491 63.7181 881.296 61.319 880.836 58.9431L878.872 59.323ZM854.44 87.9906C853.342 88.0421 852.203 88.0559 851.022 88.0297L850.978 90.0292C852.203 90.0564 853.388 90.0422 854.534 89.9884L854.44 87.9906Z" fill="#100C0D"/>
</svg>
