<svg width="61" height="25" viewBox="0 0 61 25" fill="none" xmlns="http://www.w3.org/2000/svg">
<path d="M0.5 25V20L6.79688 5.6875H1.10938V0.625H12.5938V5.4375L6.1875 19.9375H12.3281V25H0.5ZM13.0938 25V0.625H18.4062V25H13.0938ZM19.5938 25V0.625H26.5469C28.0677 0.625 29.2969 0.958333 30.2344 1.625C31.1823 2.29167 31.875 3.22396 32.3125 4.42188C32.75 5.60938 32.9688 7.00521 32.9688 8.60938C32.9688 10.151 32.7812 11.5104 32.4062 12.6875C32.0312 13.8646 31.401 14.7865 30.5156 15.4531C29.6406 16.1198 28.4427 16.4531 26.9219 16.4531H25V25H19.5938ZM25 11.5156H25.3125C26.3333 11.5156 26.9583 11.2448 27.1875 10.7031C27.4167 10.1615 27.5312 9.43229 27.5312 8.51562C27.5312 7.67188 27.4167 6.98438 27.1875 6.45312C26.9688 5.91146 26.4427 5.64062 25.6094 5.64062H25V11.5156ZM33.7188 25V0.625H40.6719C42.1927 0.625 43.4219 0.958333 44.3594 1.625C45.3073 2.29167 46 3.22396 46.4375 4.42188C46.875 5.60938 47.0938 7.00521 47.0938 8.60938C47.0938 10.151 46.9062 11.5104 46.5312 12.6875C46.1562 13.8646 45.526 14.7865 44.6406 15.4531C43.7656 16.1198 42.5677 16.4531 41.0469 16.4531H39.125V25H33.7188ZM39.125 11.5156H39.4375C40.4583 11.5156 41.0833 11.2448 41.3125 10.7031C41.5417 10.1615 41.6562 9.43229 41.6562 8.51562C41.6562 7.67188 41.5417 6.98438 41.3125 6.45312C41.0938 5.91146 40.5677 5.64062 39.7344 5.64062H39.125V11.5156ZM51.1719 25V15.9531L46.7812 0.625H52.2344L53.7656 9.95312L55.2969 0.625H60.7344L56.3594 15.9531V25H51.1719Z" fill="#100C0D"/>
</svg>
