<svg width="100" height="112" viewBox="0 0 100 112" fill="none" xmlns="http://www.w3.org/2000/svg">
<path d="M98.75 62.069C98.75 69.7982 93.5978 77.0004 84.8316 82.3363C76.0877 87.6587 63.9283 90.9914 50.431 90.9914C36.9337 90.9914 24.7743 87.6587 16.0304 82.3363C7.2643 77.0004 2.11206 69.7982 2.11206 62.069C2.11206 54.3398 7.2643 47.1375 16.0304 41.8016C24.7743 36.4792 36.9337 33.1465 50.431 33.1465C63.9283 33.1465 76.0877 36.4792 84.8316 41.8016C93.5978 47.1375 98.75 54.3398 98.75 62.069Z" fill="#0DAEBE" stroke="#100C0D" stroke-width="2.5"/>
<path d="M19.8276 39.6552C17.2414 39.0805 12.069 36.8966 12.069 32.7586" stroke="#100C0D" stroke-width="2.5"/>
<circle cx="11.2069" cy="23.2759" r="9.9569" fill="white" stroke="#100C0D" stroke-width="2.5"/>
<circle cx="90.5172" cy="28.4483" r="8.23276" fill="white" stroke="#100C0D" stroke-width="2.5"/>
<circle cx="41.3793" cy="12.069" r="10.819" fill="white" stroke="#100C0D" stroke-width="2.5"/>
<path d="M45.2585 33.6207C43.9654 32.0402 41.5516 27.6724 42.2412 22.8448" stroke="#100C0D" stroke-width="2.5"/>
<path d="M85.7759 42.2414C87.069 42.2414 93.5345 42.2414 89.6552 36.6379" stroke="#100C0D" stroke-width="2.5"/>
<path d="M22.8451 86.2069C20.5462 87.7874 16.121 93.7069 16.8106 104.741M16.8106 104.741C15.3738 104.454 11.6379 105.603 12.5001 108.621M16.8106 104.741C18.2473 104.454 21.9828 106.034 21.5518 109.052M16.8106 104.741V108.621" stroke="#100C0D" stroke-width="2.5"/>
<path d="M42.2413 90.5172C40.1598 92.0082 36.1527 97.5927 36.7772 108.003M36.7772 108.003C35.4762 107.732 31.978 108.791 32.7586 111.638M36.7772 108.003C38.0782 107.732 41.3384 108.36 40.9482 111.207M36.7772 108.003V110.776" stroke="#100C0D" stroke-width="2.5"/>
<path d="M57.7585 90.5172C59.8401 92.0082 63.5554 94.7625 62.931 105.172M62.931 105.172C64.232 104.901 68.4535 106.205 67.6728 109.052M62.931 105.172C61.63 104.901 58.2306 105.774 58.6208 108.621M62.931 105.172L62.9309 108.19" stroke="#100C0D" stroke-width="2.5"/>
<path d="M80.1723 85.3448C82.4712 86.9253 86.8965 92.8448 86.2068 103.879M86.2068 103.879C87.6436 103.592 92.2411 103.017 92.2414 107.759M86.2068 103.879C84.7701 103.592 80.6031 103.879 79.31 107.759M86.2068 103.879L85.7759 108.19" stroke="#100C0D" stroke-width="2.5"/>
<rect x="10.8448" y="19.4655" width="1" height="7" rx="0.5" fill="#100C0D" stroke="#100C0D"/>
<rect x="40.1552" y="8.25862" width="1" height="7" rx="0.5" fill="#100C0D" stroke="#100C0D"/>
<rect x="91.0172" y="24.6379" width="1" height="7" rx="0.5" fill="#100C0D" stroke="#100C0D"/>
</svg>
