<svg width="100" height="114" viewBox="0 0 100 114" fill="none" xmlns="http://www.w3.org/2000/svg">
<path d="M98.75 62.069C98.75 69.7982 93.5978 77.0004 84.8316 82.3363C76.0877 87.6587 63.9283 90.9914 50.431 90.9914C36.9337 90.9914 24.7743 87.6587 16.0304 82.3363C7.2643 77.0004 2.11206 69.7982 2.11206 62.069C2.11206 54.3398 7.2643 47.1375 16.0304 41.8016C24.7743 36.4792 36.9337 33.1465 50.431 33.1465C63.9283 33.1465 76.0877 36.4792 84.8316 41.8016C93.5978 47.1375 98.75 54.3398 98.75 62.069Z" fill="#0DAEBE" stroke="#100C0D" stroke-width="2.5"/>
<path d="M19.8276 39.6552C17.2414 39.0805 12.069 36.8966 12.069 32.7586" stroke="#100C0D" stroke-width="2.5"/>
<circle cx="11.2069" cy="23.2759" r="9.9569" fill="white" stroke="#100C0D" stroke-width="2.5"/>
<circle cx="90.5172" cy="28.4483" r="8.23276" fill="white" stroke="#100C0D" stroke-width="2.5"/>
<circle cx="41.3793" cy="12.069" r="10.819" fill="white" stroke="#100C0D" stroke-width="2.5"/>
<path d="M45.2585 33.6207C43.9654 32.0402 41.5516 27.6724 42.2412 22.8448" stroke="#100C0D" stroke-width="2.5"/>
<path d="M85.7759 42.2414C87.069 42.2414 93.5345 42.2414 89.6552 36.6379" stroke="#100C0D" stroke-width="2.5"/>
<path d="M22.8451 86.2069C20.5462 87.7874 8.62086 91.5862 9.31051 102.621M9.31051 102.621C7.87368 102.333 4.13784 103.483 5.00001 106.5M9.31051 102.621C10.7472 102.333 14.4827 103.914 14.0517 106.931M9.31051 102.621V106.5" stroke="#100C0D" stroke-width="2.5"/>
<path d="M42.2413 90.5172C40.1598 92.0082 48.3755 98.8169 49 109.227M49 109.227C47.699 108.956 44.2007 110.016 44.9814 112.862M49 109.227C50.3009 108.956 53.5612 109.585 53.171 112.431M49 109.227V112" stroke="#100C0D" stroke-width="2.5"/>
<path d="M57.7585 90.5172C59.8401 92.0082 53.6411 94.2108 53.0167 104.621M53.0167 104.621C54.3177 104.35 58.5392 105.654 57.7585 108.5M53.0167 104.621C51.7157 104.35 48.3163 105.223 48.7065 108.069M53.0167 104.621L53.0167 107.638" stroke="#100C0D" stroke-width="2.5"/>
<path d="M80.1723 85.3448C82.4712 86.9253 92.6897 93.4655 92 104.5M92 104.5C93.4368 104.213 98.0343 103.638 98.0346 108.379M92 104.5C90.5633 104.213 86.3963 104.5 85.1032 108.379M92 104.5L91.5691 108.81" stroke="#100C0D" stroke-width="2.5"/>
<rect x="10.8448" y="19.4655" width="1" height="7" rx="0.5" fill="#100C0D" stroke="#100C0D"/>
<rect x="40.1552" y="8.25862" width="1" height="7" rx="0.5" fill="#100C0D" stroke="#100C0D"/>
<rect x="91.0172" y="24.6379" width="1" height="7" rx="0.5" fill="#100C0D" stroke="#100C0D"/>
</svg>
