<svg width="435" height="221" viewBox="0 0 435 221" fill="none" xmlns="http://www.w3.org/2000/svg">
<rect width="435" height="50" fill="#FFCCD1"/>
<path d="M32.16 33V16.2H42.24V18.168H34.44V23.28H41.16V25.2H34.44V31.032H42.24V33H32.16ZM45.7473 33V20.52H47.8353V23.232C48.0433 22.704 48.3233 22.216 48.6753 21.768C49.0273 21.304 49.4673 20.936 49.9953 20.664C50.5233 20.376 51.1393 20.232 51.8433 20.232C52.0833 20.232 52.3233 20.248 52.5633 20.28C52.8033 20.296 53.0033 20.328 53.1633 20.376L52.5153 22.608C52.2113 22.48 51.8513 22.416 51.4353 22.416C50.8433 22.416 50.2753 22.584 49.7313 22.92C49.2033 23.256 48.7633 23.776 48.4113 24.48C48.0753 25.184 47.9073 26.08 47.9073 27.168V33H45.7473ZM55.8481 33V20.52H57.9361V23.232C58.1441 22.704 58.4241 22.216 58.7761 21.768C59.1281 21.304 59.5681 20.936 60.0961 20.664C60.6241 20.376 61.2401 20.232 61.9441 20.232C62.1841 20.232 62.4241 20.248 62.6641 20.28C62.9041 20.296 63.1041 20.328 63.2641 20.376L62.6161 22.608C62.3121 22.48 61.9521 22.416 61.5361 22.416C60.9441 22.416 60.3761 22.584 59.8321 22.92C59.3041 23.256 58.8641 23.776 58.5121 24.48C58.1761 25.184 58.0081 26.08 58.0081 27.168V33H55.8481ZM70.4783 33.288C69.2943 33.288 68.2303 33.016 67.2863 32.472C66.3423 31.912 65.5983 31.144 65.0543 30.168C64.5263 29.176 64.2623 28.04 64.2623 26.76C64.2623 25.416 64.5343 24.256 65.0783 23.28C65.6223 22.304 66.3663 21.552 67.3103 21.024C68.2543 20.496 69.3103 20.232 70.4783 20.232C71.6463 20.232 72.6943 20.496 73.6223 21.024C74.5663 21.552 75.3103 22.304 75.8543 23.28C76.4143 24.24 76.6943 25.384 76.6943 26.712C76.6943 28.04 76.4223 29.2 75.8783 30.192C75.3343 31.168 74.5903 31.928 73.6463 32.472C72.7183 33.016 71.6623 33.288 70.4783 33.288ZM70.4783 31.368C71.7423 31.368 72.7263 30.944 73.4303 30.096C74.1343 29.232 74.4863 28.12 74.4863 26.76C74.4863 25.928 74.3103 25.168 73.9583 24.48C73.6063 23.776 73.1263 23.216 72.5183 22.8C71.9263 22.368 71.2463 22.152 70.4783 22.152C69.2143 22.152 68.2303 22.568 67.5263 23.4C66.8223 24.232 66.4703 25.336 66.4703 26.712C66.4703 27.544 66.6463 28.32 66.9983 29.04C67.3503 29.744 67.8223 30.312 68.4143 30.744C69.0223 31.16 69.7103 31.368 70.4783 31.368ZM80.0809 33V20.52H82.1689V23.232C82.3769 22.704 82.6569 22.216 83.0089 21.768C83.3609 21.304 83.8009 20.936 84.3289 20.664C84.8569 20.376 85.4729 20.232 86.1769 20.232C86.4169 20.232 86.6569 20.248 86.8969 20.28C87.1369 20.296 87.3369 20.328 87.4969 20.376L86.8489 22.608C86.5449 22.48 86.1849 22.416 85.7689 22.416C85.1769 22.416 84.6089 22.584 84.0649 22.92C83.5369 23.256 83.0969 23.776 82.7449 24.48C82.4089 25.184 82.2409 26.08 82.2409 27.168V33H80.0809Z" fill="#100C0D"/>
<rect x="369" width="66" height="50" fill="#EE4266"/>
<path d="M411.05 17L392.56 35.4897" stroke="black" stroke-width="3" stroke-linecap="round"/>
<path d="M410.489 35.4897L392 17" stroke="black" stroke-width="3" stroke-linecap="round"/>
<rect y="50" width="435" height="171" fill="white"/>
<path d="M41.06 97V91.68L36.2 83.78L37.8 82.82L42.08 89.92L46.28 82.9L47.78 83.78L42.96 91.68V97H41.06ZM52.6441 97.24C51.6574 97.24 50.7707 97.0133 49.9841 96.56C49.1974 96.0933 48.5774 95.4533 48.1241 94.64C47.6841 93.8133 47.4641 92.8667 47.4641 91.8C47.4641 90.68 47.6907 89.7133 48.1441 88.9C48.5974 88.0867 49.2174 87.46 50.0041 87.02C50.7907 86.58 51.6707 86.36 52.6441 86.36C53.6174 86.36 54.4907 86.58 55.2641 87.02C56.0507 87.46 56.6707 88.0867 57.1241 88.9C57.5907 89.7 57.8241 90.6533 57.8241 91.76C57.8241 92.8667 57.5974 93.8333 57.1441 94.66C56.6907 95.4733 56.0707 96.1067 55.2841 96.56C54.5107 97.0133 53.6307 97.24 52.6441 97.24ZM52.6441 95.64C53.6974 95.64 54.5174 95.2867 55.1041 94.58C55.6907 93.86 55.9841 92.9333 55.9841 91.8C55.9841 91.1067 55.8374 90.4733 55.5441 89.9C55.2507 89.3133 54.8507 88.8467 54.3441 88.5C53.8507 88.14 53.2841 87.96 52.6441 87.96C51.5907 87.96 50.7707 88.3067 50.1841 89C49.5974 89.6933 49.3041 90.6133 49.3041 91.76C49.3041 92.4533 49.4507 93.1 49.7441 93.7C50.0374 94.2867 50.4307 94.76 50.9241 95.12C51.4307 95.4667 52.0041 95.64 52.6441 95.64ZM63.6172 97.24C63.0172 97.24 62.4505 97.1133 61.9172 96.86C61.3839 96.6067 60.9505 96.2 60.6172 95.64C60.2839 95.0667 60.1172 94.3067 60.1172 93.36V86.6H61.9172V93.12C61.9172 93.9333 62.0905 94.56 62.4372 95C62.7839 95.4267 63.2905 95.64 63.9572 95.64C64.5039 95.64 65.0305 95.5333 65.5372 95.32C66.0572 95.0933 66.5172 94.7933 66.9172 94.42V86.6H68.7172V94.3C68.7172 94.8733 68.8372 95.2533 69.0772 95.44C69.3305 95.6133 69.6039 95.7 69.8972 95.7L69.5172 97.1C68.2772 97.1 67.5105 96.6067 67.2172 95.62C66.7505 96.1 66.2105 96.4933 65.5972 96.8C64.9839 97.0933 64.3239 97.24 63.6172 97.24ZM72.2875 97V86.6H74.0275V88.86C74.2008 88.42 74.4342 88.0133 74.7275 87.64C75.0208 87.2533 75.3875 86.9467 75.8275 86.72C76.2675 86.48 76.7808 86.36 77.3675 86.36C77.5675 86.36 77.7675 86.3733 77.9675 86.4C78.1675 86.4133 78.3342 86.44 78.4675 86.48L77.9275 88.34C77.6742 88.2333 77.3742 88.18 77.0275 88.18C76.5342 88.18 76.0608 88.32 75.6075 88.6C75.1675 88.88 74.8008 89.3133 74.5075 89.9C74.2275 90.4867 74.0875 91.2333 74.0875 92.14V97H72.2875ZM90.4719 97.24C89.4852 97.24 88.6185 97.0133 87.8719 96.56C87.1385 96.0933 86.5719 95.4533 86.1719 94.64C85.7719 93.8133 85.5719 92.8667 85.5719 91.8C85.5719 90.8 85.7719 89.8867 86.1719 89.06C86.5852 88.2333 87.1719 87.58 87.9319 87.1C88.6919 86.6067 89.5852 86.36 90.6119 86.36C91.1985 86.36 91.7119 86.4133 92.1519 86.52C92.6052 86.6267 93.0385 86.78 93.4519 86.98L92.9119 88.5C92.5385 88.3133 92.1785 88.18 91.8319 88.1C91.4985 88.0067 91.1252 87.96 90.7119 87.96C89.7785 87.96 88.9919 88.3 88.3519 88.98C87.7252 89.6467 87.4119 90.5733 87.4119 91.76C87.4119 92.48 87.5452 93.1333 87.8119 93.72C88.0785 94.3067 88.4452 94.7733 88.9119 95.12C89.3919 95.4667 89.9519 95.64 90.5919 95.64C91.0985 95.64 91.5319 95.5867 91.8919 95.48C92.2519 95.36 92.6385 95.1933 93.0519 94.98L93.6119 96.5C93.1985 96.7267 92.7319 96.9067 92.2119 97.04C91.7052 97.1733 91.1252 97.24 90.4719 97.24ZM98.6702 97.24C98.0568 97.24 97.5035 97.1267 97.0102 96.9C96.5168 96.66 96.1235 96.28 95.8302 95.76C95.5502 95.24 95.4102 94.5667 95.4102 93.74V82.2H97.2102V93.56C97.2102 94.28 97.3568 94.8133 97.6502 95.16C97.9568 95.5067 98.3768 95.68 98.9102 95.68C99.1635 95.68 99.4102 95.6533 99.6502 95.6C99.9035 95.5333 100.117 95.46 100.29 95.38L100.73 96.84C100.49 96.9467 100.19 97.04 99.8302 97.12C99.4835 97.2 99.0968 97.24 98.6702 97.24ZM106.511 97.24C105.525 97.24 104.638 97.0133 103.851 96.56C103.065 96.0933 102.445 95.4533 101.991 94.64C101.551 93.8133 101.331 92.8667 101.331 91.8C101.331 90.68 101.558 89.7133 102.011 88.9C102.465 88.0867 103.085 87.46 103.871 87.02C104.658 86.58 105.538 86.36 106.511 86.36C107.485 86.36 108.358 86.58 109.131 87.02C109.918 87.46 110.538 88.0867 110.991 88.9C111.458 89.7 111.691 90.6533 111.691 91.76C111.691 92.8667 111.465 93.8333 111.011 94.66C110.558 95.4733 109.938 96.1067 109.151 96.56C108.378 97.0133 107.498 97.24 106.511 97.24ZM106.511 95.64C107.565 95.64 108.385 95.2867 108.971 94.58C109.558 93.86 109.851 92.9333 109.851 91.8C109.851 91.1067 109.705 90.4733 109.411 89.9C109.118 89.3133 108.718 88.8467 108.211 88.5C107.718 88.14 107.151 87.96 106.511 87.96C105.458 87.96 104.638 88.3067 104.051 89C103.465 89.6933 103.171 90.6133 103.171 91.76C103.171 92.4533 103.318 93.1 103.611 93.7C103.905 94.2867 104.298 94.76 104.791 95.12C105.298 95.4667 105.871 95.64 106.511 95.64ZM117.484 97.24C116.884 97.24 116.318 97.1133 115.784 96.86C115.251 96.6067 114.818 96.2 114.484 95.64C114.151 95.0667 113.984 94.3067 113.984 93.36V86.6H115.784V93.12C115.784 93.9333 115.958 94.56 116.304 95C116.651 95.4267 117.158 95.64 117.824 95.64C118.371 95.64 118.898 95.5333 119.404 95.32C119.924 95.0933 120.384 94.7933 120.784 94.42V86.6H122.584V94.3C122.584 94.8733 122.704 95.2533 122.944 95.44C123.198 95.6133 123.471 95.7 123.764 95.7L123.384 97.1C122.144 97.1 121.378 96.6067 121.084 95.62C120.618 96.1 120.078 96.4933 119.464 96.8C118.851 97.0933 118.191 97.24 117.484 97.24ZM129.899 97.24C129.046 97.24 128.266 97.02 127.559 96.58C126.853 96.14 126.293 95.52 125.879 94.72C125.466 93.9067 125.259 92.9533 125.259 91.86C125.259 90.8067 125.466 89.8667 125.879 89.04C126.306 88.2133 126.866 87.56 127.559 87.08C128.266 86.6 129.039 86.36 129.879 86.36C130.573 86.36 131.166 86.5 131.659 86.78C132.166 87.06 132.559 87.3467 132.839 87.64V82.2H134.639V94.48C134.639 94.9867 134.759 95.32 134.999 95.48C135.253 95.6267 135.526 95.7 135.819 95.7L135.439 97.1C134.173 97.1 133.399 96.5933 133.119 95.58C132.826 95.9933 132.413 96.3733 131.879 96.72C131.359 97.0667 130.699 97.24 129.899 97.24ZM130.299 95.64C130.793 95.64 131.259 95.5267 131.699 95.3C132.153 95.06 132.533 94.7533 132.839 94.38V89.22C132.586 88.9 132.233 88.6067 131.779 88.34C131.326 88.06 130.826 87.92 130.279 87.92C129.639 87.92 129.079 88.0933 128.599 88.44C128.119 88.7867 127.746 89.2533 127.479 89.84C127.226 90.4133 127.099 91.0667 127.099 91.8C127.099 92.5333 127.239 93.1933 127.519 93.78C127.799 94.3533 128.179 94.8067 128.659 95.14C129.153 95.4733 129.699 95.64 130.299 95.64ZM147.021 97.24C146.234 97.24 145.521 97.14 144.881 96.94C144.254 96.74 143.734 96.48 143.321 96.16L144.081 94.66C144.428 94.9533 144.861 95.2 145.381 95.4C145.914 95.5867 146.481 95.68 147.081 95.68C147.828 95.68 148.388 95.56 148.761 95.32C149.148 95.0667 149.341 94.7467 149.341 94.36C149.341 94.08 149.268 93.8333 149.121 93.62C148.988 93.4067 148.734 93.2 148.361 93C147.988 92.7867 147.448 92.56 146.741 92.32C145.768 91.9867 145.034 91.5933 144.541 91.14C144.061 90.6733 143.821 90.0333 143.821 89.22C143.821 88.42 144.168 87.7467 144.861 87.2C145.568 86.64 146.541 86.36 147.781 86.36C148.448 86.36 149.041 86.4333 149.561 86.58C150.081 86.7133 150.548 86.8867 150.961 87.1L150.461 88.58C150.101 88.3667 149.688 88.1933 149.221 88.06C148.768 87.9267 148.261 87.86 147.701 87.86C147.008 87.86 146.481 88 146.121 88.28C145.761 88.56 145.581 88.8667 145.581 89.2C145.581 89.52 145.721 89.7933 146.001 90.02C146.281 90.2467 146.828 90.4933 147.641 90.76C148.961 91.2 149.881 91.6867 150.401 92.22C150.921 92.7533 151.181 93.42 151.181 94.22C151.181 95.1533 150.801 95.8933 150.041 96.44C149.294 96.9733 148.288 97.24 147.021 97.24ZM157.217 97.24C156.217 97.24 155.423 96.9133 154.837 96.26C154.263 95.5933 153.977 94.6467 153.977 93.42V88.54H152.177V86.98H154.017L154.397 83.7H155.777V86.98H158.657V88.54H155.777V93.56C155.777 94.3333 155.937 94.8733 156.257 95.18C156.59 95.4867 156.983 95.64 157.437 95.64C157.77 95.64 158.083 95.5867 158.377 95.48C158.683 95.3733 158.963 95.2467 159.217 95.1L159.717 96.54C159.45 96.7 159.09 96.8533 158.637 97C158.183 97.16 157.71 97.24 157.217 97.24ZM165.515 97.24C164.528 97.24 163.642 97.0133 162.855 96.56C162.068 96.0933 161.448 95.4533 160.995 94.64C160.555 93.8133 160.335 92.8667 160.335 91.8C160.335 90.68 160.562 89.7133 161.015 88.9C161.468 88.0867 162.088 87.46 162.875 87.02C163.662 86.58 164.542 86.36 165.515 86.36C166.488 86.36 167.362 86.58 168.135 87.02C168.922 87.46 169.542 88.0867 169.995 88.9C170.462 89.7 170.695 90.6533 170.695 91.76C170.695 92.8667 170.468 93.8333 170.015 94.66C169.562 95.4733 168.942 96.1067 168.155 96.56C167.382 97.0133 166.502 97.24 165.515 97.24ZM165.515 95.64C166.568 95.64 167.388 95.2867 167.975 94.58C168.562 93.86 168.855 92.9333 168.855 91.8C168.855 91.1067 168.708 90.4733 168.415 89.9C168.122 89.3133 167.722 88.8467 167.215 88.5C166.722 88.14 166.155 87.96 165.515 87.96C164.462 87.96 163.642 88.3067 163.055 89C162.468 89.6933 162.175 90.6133 162.175 91.76C162.175 92.4533 162.322 93.1 162.615 93.7C162.908 94.2867 163.302 94.76 163.795 95.12C164.302 95.4667 164.875 95.64 165.515 95.64ZM173.088 97V86.6H174.828V88.86C175.002 88.42 175.235 88.0133 175.528 87.64C175.822 87.2533 176.188 86.9467 176.628 86.72C177.068 86.48 177.582 86.36 178.168 86.36C178.368 86.36 178.568 86.3733 178.768 86.4C178.968 86.4133 179.135 86.44 179.268 86.48L178.728 88.34C178.475 88.2333 178.175 88.18 177.828 88.18C177.335 88.18 176.862 88.32 176.408 88.6C175.968 88.88 175.602 89.3133 175.308 89.9C175.028 90.4867 174.888 91.2333 174.888 92.14V97H173.088ZM184.451 97.24C183.584 97.24 182.798 97.02 182.091 96.58C181.384 96.14 180.818 95.52 180.391 94.72C179.978 93.9067 179.771 92.9533 179.771 91.86C179.771 90.82 179.978 89.8867 180.391 89.06C180.818 88.2333 181.398 87.58 182.131 87.1C182.878 86.6067 183.731 86.36 184.691 86.36C185.291 86.36 185.831 86.4667 186.311 86.68C186.804 86.88 187.231 87.1333 187.591 87.44V86.6H189.231V94.48C189.231 94.9867 189.351 95.32 189.591 95.48C189.844 95.6267 190.118 95.7 190.411 95.7L190.031 97.1C188.751 97.1 187.978 96.58 187.711 95.54C187.404 95.9667 186.984 96.36 186.451 96.72C185.931 97.0667 185.264 97.24 184.451 97.24ZM184.851 95.64C185.358 95.64 185.838 95.52 186.291 95.28C186.744 95.0267 187.124 94.7133 187.431 94.34V88.76C187.071 88.5067 186.671 88.3067 186.231 88.16C185.804 88 185.351 87.92 184.871 87.92C184.231 87.92 183.664 88.0867 183.171 88.42C182.691 88.74 182.311 89.1933 182.031 89.78C181.751 90.3533 181.611 91.0267 181.611 91.8C181.611 92.5467 181.751 93.2133 182.031 93.8C182.311 94.3733 182.698 94.8267 183.191 95.16C183.684 95.48 184.238 95.64 184.851 95.64ZM196.44 101.64C195.826 101.64 195.226 101.567 194.64 101.42C194.066 101.273 193.553 101.053 193.1 100.76L193.76 99.2C194.08 99.4533 194.453 99.66 194.88 99.82C195.306 99.9933 195.826 100.08 196.44 100.08C197.386 100.08 198.126 99.8267 198.66 99.32C199.206 98.8267 199.48 98.0333 199.48 96.94V95.66C199.213 95.98 198.826 96.2867 198.32 96.58C197.826 96.86 197.233 97 196.54 97C195.753 97 195.006 96.8 194.3 96.4C193.593 95.9867 193.02 95.3867 192.58 94.6C192.14 93.8133 191.92 92.8667 191.92 91.76C191.92 90.72 192.133 89.7933 192.56 88.98C193 88.1667 193.586 87.5267 194.32 87.06C195.053 86.5933 195.86 86.36 196.74 86.36C197.326 86.36 197.86 86.46 198.34 86.66C198.82 86.86 199.233 87.1067 199.58 87.4V86.6H201.22V96.76C201.22 97.9067 201.02 98.84 200.62 99.56C200.22 100.28 199.66 100.807 198.94 101.14C198.233 101.473 197.4 101.64 196.44 101.64ZM196.94 95.4C197.473 95.4 197.953 95.28 198.38 95.04C198.806 94.8 199.153 94.52 199.42 94.2V88.76C199.126 88.5467 198.773 88.3533 198.36 88.18C197.946 88.0067 197.466 87.92 196.92 87.92C196.373 87.92 195.86 88.0667 195.38 88.36C194.9 88.6533 194.506 89.08 194.2 89.64C193.906 90.1867 193.76 90.86 193.76 91.66C193.76 92.42 193.906 93.08 194.2 93.64C194.506 94.2 194.9 94.6333 195.38 94.94C195.86 95.2467 196.38 95.4 196.94 95.4ZM208.479 97.24C206.985 97.24 205.799 96.7667 204.919 95.82C204.052 94.86 203.619 93.52 203.619 91.8C203.619 90.76 203.812 89.8333 204.199 89.02C204.599 88.1933 205.152 87.5467 205.859 87.08C206.565 86.6 207.385 86.36 208.319 86.36C209.319 86.36 210.145 86.58 210.799 87.02C211.465 87.4467 211.965 88.0267 212.299 88.76C212.632 89.4933 212.799 90.3 212.799 91.18C212.799 91.6467 212.779 92.1 212.739 92.54H205.459C205.579 93.5133 205.919 94.2733 206.479 94.82C207.039 95.3667 207.779 95.64 208.699 95.64C209.299 95.64 209.839 95.58 210.319 95.46C210.799 95.3267 211.259 95.16 211.699 94.96L212.119 96.5C211.639 96.7133 211.099 96.8867 210.499 97.02C209.899 97.1667 209.225 97.24 208.479 97.24ZM205.439 91.08H211.139C211.139 90.0667 210.885 89.2867 210.379 88.74C209.872 88.1933 209.172 87.92 208.279 87.92C207.505 87.92 206.865 88.1933 206.359 88.74C205.852 89.2733 205.545 90.0533 205.439 91.08ZM221.194 97V86.6H222.994V97H221.194ZM222.094 84.82C221.747 84.82 221.447 84.6933 221.194 84.44C220.954 84.1867 220.834 83.8933 220.834 83.56C220.834 83.1733 220.947 82.8667 221.174 82.64C221.4 82.4133 221.707 82.3 222.094 82.3C222.44 82.3 222.734 82.4267 222.974 82.68C223.227 82.92 223.354 83.2133 223.354 83.56C223.354 83.9333 223.24 84.24 223.014 84.48C222.787 84.7067 222.48 84.82 222.094 84.82ZM228.994 97.24C228.207 97.24 227.494 97.14 226.854 96.94C226.227 96.74 225.707 96.48 225.294 96.16L226.054 94.66C226.4 94.9533 226.834 95.2 227.354 95.4C227.887 95.5867 228.454 95.68 229.054 95.68C229.8 95.68 230.36 95.56 230.734 95.32C231.12 95.0667 231.314 94.7467 231.314 94.36C231.314 94.08 231.24 93.8333 231.094 93.62C230.96 93.4067 230.707 93.2 230.334 93C229.96 92.7867 229.42 92.56 228.714 92.32C227.74 91.9867 227.007 91.5933 226.514 91.14C226.034 90.6733 225.794 90.0333 225.794 89.22C225.794 88.42 226.14 87.7467 226.834 87.2C227.54 86.64 228.514 86.36 229.754 86.36C230.42 86.36 231.014 86.4333 231.534 86.58C232.054 86.7133 232.52 86.8867 232.934 87.1L232.434 88.58C232.074 88.3667 231.66 88.1933 231.194 88.06C230.74 87.9267 230.234 87.86 229.674 87.86C228.98 87.86 228.454 88 228.094 88.28C227.734 88.56 227.554 88.8667 227.554 89.2C227.554 89.52 227.694 89.7933 227.974 90.02C228.254 90.2467 228.8 90.4933 229.614 90.76C230.934 91.2 231.854 91.6867 232.374 92.22C232.894 92.7533 233.154 93.42 233.154 94.22C233.154 95.1533 232.774 95.8933 232.014 96.44C231.267 96.9733 230.26 97.24 228.994 97.24ZM241.745 97V88.54H240.145V86.98H241.745V85.76C241.745 84.5867 242.072 83.66 242.725 82.98C243.379 82.3 244.232 81.96 245.285 81.96C245.832 81.96 246.312 82.0267 246.725 82.16C247.139 82.28 247.532 82.4333 247.905 82.62L247.365 84.14C247.085 83.9933 246.785 83.86 246.465 83.74C246.145 83.62 245.792 83.56 245.405 83.56C244.845 83.56 244.392 83.74 244.045 84.1C243.712 84.4467 243.545 84.96 243.545 85.64V86.98H246.625V88.54H243.545V97H241.745ZM251.898 97.24C251.298 97.24 250.732 97.1133 250.198 96.86C249.665 96.6067 249.232 96.2 248.898 95.64C248.565 95.0667 248.398 94.3067 248.398 93.36V86.6H250.198V93.12C250.198 93.9333 250.372 94.56 250.718 95C251.065 95.4267 251.572 95.64 252.238 95.64C252.785 95.64 253.312 95.5333 253.818 95.32C254.338 95.0933 254.798 94.7933 255.198 94.42V86.6H256.998V94.3C256.998 94.8733 257.118 95.2533 257.358 95.44C257.612 95.6133 257.885 95.7 258.178 95.7L257.798 97.1C256.558 97.1 255.792 96.6067 255.498 95.62C255.032 96.1 254.492 96.4933 253.878 96.8C253.265 97.0933 252.605 97.24 251.898 97.24ZM263.729 97.24C263.115 97.24 262.562 97.1267 262.069 96.9C261.575 96.66 261.182 96.28 260.889 95.76C260.609 95.24 260.469 94.5667 260.469 93.74V82.2H262.269V93.56C262.269 94.28 262.415 94.8133 262.709 95.16C263.015 95.5067 263.435 95.68 263.969 95.68C264.222 95.68 264.469 95.6533 264.709 95.6C264.962 95.5333 265.175 95.46 265.349 95.38L265.789 96.84C265.549 96.9467 265.249 97.04 264.889 97.12C264.542 97.2 264.155 97.24 263.729 97.24ZM270.448 97.24C269.834 97.24 269.281 97.1267 268.788 96.9C268.294 96.66 267.901 96.28 267.608 95.76C267.328 95.24 267.188 94.5667 267.188 93.74V82.2H268.988V93.56C268.988 94.28 269.134 94.8133 269.428 95.16C269.734 95.5067 270.154 95.68 270.688 95.68C270.941 95.68 271.188 95.6533 271.428 95.6C271.681 95.5333 271.894 95.46 272.068 95.38L272.508 96.84C272.268 96.9467 271.968 97.04 271.608 97.12C271.261 97.2 270.874 97.24 270.448 97.24ZM275.602 97.24C275.242 97.24 274.928 97.1067 274.662 96.84C274.395 96.5733 274.262 96.26 274.262 95.9C274.262 95.4867 274.382 95.16 274.622 94.92C274.862 94.68 275.188 94.56 275.602 94.56C275.948 94.56 276.255 94.6933 276.522 94.96C276.802 95.2267 276.942 95.54 276.942 95.9C276.942 96.3 276.815 96.6267 276.562 96.88C276.308 97.12 275.988 97.24 275.602 97.24ZM291.774 97.24C290.56 97.24 289.487 96.9533 288.554 96.38C287.62 95.7933 286.894 94.9667 286.374 93.9C285.854 92.82 285.594 91.54 285.594 90.06C285.594 88.6333 285.854 87.3733 286.374 86.28C286.907 85.1733 287.654 84.3133 288.614 83.7C289.587 83.0733 290.72 82.76 292.014 82.76C292.68 82.76 293.287 82.8267 293.834 82.96C294.38 83.08 294.894 83.2533 295.374 83.48L294.794 85.08C294.38 84.88 293.954 84.72 293.514 84.6C293.087 84.48 292.58 84.42 291.994 84.42C291.14 84.42 290.374 84.64 289.694 85.08C289.027 85.52 288.5 86.1533 288.114 86.98C287.727 87.8067 287.534 88.8067 287.534 89.98C287.534 91.1 287.72 92.08 288.094 92.92C288.48 93.76 289.007 94.4133 289.674 94.88C290.354 95.3467 291.127 95.58 291.994 95.58C292.647 95.58 293.214 95.5 293.694 95.34C294.174 95.18 294.64 94.9733 295.094 94.72L295.674 96.3C295.18 96.5667 294.614 96.7933 293.974 96.98C293.347 97.1533 292.614 97.24 291.774 97.24ZM301.443 97.24C300.577 97.24 299.79 97.02 299.083 96.58C298.377 96.14 297.81 95.52 297.383 94.72C296.97 93.9067 296.763 92.9533 296.763 91.86C296.763 90.82 296.97 89.8867 297.383 89.06C297.81 88.2333 298.39 87.58 299.123 87.1C299.87 86.6067 300.723 86.36 301.683 86.36C302.283 86.36 302.823 86.4667 303.303 86.68C303.797 86.88 304.223 87.1333 304.583 87.44V86.6H306.223V94.48C306.223 94.9867 306.343 95.32 306.583 95.48C306.837 95.6267 307.11 95.7 307.403 95.7L307.023 97.1C305.743 97.1 304.97 96.58 304.703 95.54C304.397 95.9667 303.977 96.36 303.443 96.72C302.923 97.0667 302.257 97.24 301.443 97.24ZM301.843 95.64C302.35 95.64 302.83 95.52 303.283 95.28C303.737 95.0267 304.117 94.7133 304.423 94.34V88.76C304.063 88.5067 303.663 88.3067 303.223 88.16C302.797 88 302.343 87.92 301.863 87.92C301.223 87.92 300.657 88.0867 300.163 88.42C299.683 88.74 299.303 89.1933 299.023 89.78C298.743 90.3533 298.603 91.0267 298.603 91.8C298.603 92.5467 298.743 93.2133 299.023 93.8C299.303 94.3733 299.69 94.8267 300.183 95.16C300.677 95.48 301.23 95.64 301.843 95.64ZM309.807 97V86.6H311.547V88.34C311.92 87.78 312.394 87.3133 312.967 86.94C313.554 86.5533 314.247 86.36 315.047 86.36C316.22 86.36 317.094 86.7133 317.667 87.42C318.254 88.1267 318.547 89.06 318.547 90.22V97H316.747V90.42C316.747 89.6733 316.567 89.0733 316.207 88.62C315.86 88.1667 315.374 87.94 314.747 87.94C314.134 87.94 313.554 88.16 313.007 88.6C312.46 89.0267 311.994 89.5333 311.607 90.12V97H309.807ZM321.643 97V86.6H323.383V88.34C323.756 87.78 324.23 87.3133 324.803 86.94C325.39 86.5533 326.083 86.36 326.883 86.36C328.056 86.36 328.93 86.7133 329.503 87.42C330.09 88.1267 330.383 89.06 330.383 90.22V97H328.583V90.42C328.583 89.6733 328.403 89.0733 328.043 88.62C327.696 88.1667 327.21 87.94 326.583 87.94C325.97 87.94 325.39 88.16 324.843 88.6C324.296 89.0267 323.83 89.5333 323.443 90.12V97H321.643ZM337.859 97.24C336.872 97.24 335.986 97.0133 335.199 96.56C334.412 96.0933 333.792 95.4533 333.339 94.64C332.899 93.8133 332.679 92.8667 332.679 91.8C332.679 90.68 332.906 89.7133 333.359 88.9C333.812 88.0867 334.432 87.46 335.219 87.02C336.006 86.58 336.886 86.36 337.859 86.36C338.832 86.36 339.706 86.58 340.479 87.02C341.266 87.46 341.886 88.0867 342.339 88.9C342.806 89.7 343.039 90.6533 343.039 91.76C343.039 92.8667 342.812 93.8333 342.359 94.66C341.906 95.4733 341.286 96.1067 340.499 96.56C339.726 97.0133 338.846 97.24 337.859 97.24ZM337.859 95.64C338.912 95.64 339.732 95.2867 340.319 94.58C340.906 93.86 341.199 92.9333 341.199 91.8C341.199 91.1067 341.052 90.4733 340.759 89.9C340.466 89.3133 340.066 88.8467 339.559 88.5C339.066 88.14 338.499 87.96 337.859 87.96C336.806 87.96 335.986 88.3067 335.399 89C334.812 89.6933 334.519 90.6133 334.519 91.76C334.519 92.4533 334.666 93.1 334.959 93.7C335.252 94.2867 335.646 94.76 336.139 95.12C336.646 95.4667 337.219 95.64 337.859 95.64ZM349.072 97.24C348.072 97.24 347.279 96.9133 346.692 96.26C346.119 95.5933 345.832 94.6467 345.832 93.42V88.54H344.032V86.98H345.872L346.252 83.7H347.632V86.98H350.512V88.54H347.632V93.56C347.632 94.3333 347.792 94.8733 348.112 95.18C348.445 95.4867 348.839 95.64 349.292 95.64C349.625 95.64 349.939 95.5867 350.232 95.48C350.539 95.3733 350.819 95.2467 351.072 95.1L351.572 96.54C351.305 96.7 350.945 96.8533 350.492 97C350.039 97.16 349.565 97.24 349.072 97.24ZM40.4 122.24C39.6133 122.24 38.9 122.14 38.26 121.94C37.6333 121.74 37.1133 121.48 36.7 121.16L37.46 119.66C37.8067 119.953 38.24 120.2 38.76 120.4C39.2933 120.587 39.86 120.68 40.46 120.68C41.2067 120.68 41.7667 120.56 42.14 120.32C42.5267 120.067 42.72 119.747 42.72 119.36C42.72 119.08 42.6467 118.833 42.5 118.62C42.3667 118.407 42.1133 118.2 41.74 118C41.3667 117.787 40.8267 117.56 40.12 117.32C39.1467 116.987 38.4133 116.593 37.92 116.14C37.44 115.673 37.2 115.033 37.2 114.22C37.2 113.42 37.5467 112.747 38.24 112.2C38.9467 111.64 39.92 111.36 41.16 111.36C41.8267 111.36 42.42 111.433 42.94 111.58C43.46 111.713 43.9267 111.887 44.34 112.1L43.84 113.58C43.48 113.367 43.0667 113.193 42.6 113.06C42.1467 112.927 41.64 112.86 41.08 112.86C40.3867 112.86 39.86 113 39.5 113.28C39.14 113.56 38.96 113.867 38.96 114.2C38.96 114.52 39.1 114.793 39.38 115.02C39.66 115.247 40.2067 115.493 41.02 115.76C42.34 116.2 43.26 116.687 43.78 117.22C44.3 117.753 44.56 118.42 44.56 119.22C44.56 120.153 44.18 120.893 43.42 121.44C42.6733 121.973 41.6667 122.24 40.4 122.24ZM51.1155 122.24C49.6221 122.24 48.4355 121.767 47.5555 120.82C46.6888 119.86 46.2555 118.52 46.2555 116.8C46.2555 115.76 46.4488 114.833 46.8355 114.02C47.2355 113.193 47.7888 112.547 48.4955 112.08C49.2021 111.6 50.0221 111.36 50.9555 111.36C51.9555 111.36 52.7821 111.58 53.4355 112.02C54.1021 112.447 54.6021 113.027 54.9355 113.76C55.2688 114.493 55.4355 115.3 55.4355 116.18C55.4355 116.647 55.4155 117.1 55.3755 117.54H48.0955C48.2155 118.513 48.5555 119.273 49.1155 119.82C49.6755 120.367 50.4155 120.64 51.3355 120.64C51.9355 120.64 52.4755 120.58 52.9555 120.46C53.4355 120.327 53.8955 120.16 54.3355 119.96L54.7555 121.5C54.2755 121.713 53.7355 121.887 53.1355 122.02C52.5355 122.167 51.8621 122.24 51.1155 122.24ZM48.0755 116.08H53.7755C53.7755 115.067 53.5221 114.287 53.0155 113.74C52.5088 113.193 51.8088 112.92 50.9155 112.92C50.1421 112.92 49.5021 113.193 48.9955 113.74C48.4888 114.273 48.1821 115.053 48.0755 116.08ZM57.8344 122V111.6H59.5744V113.34C59.9477 112.78 60.421 112.313 60.9944 111.94C61.581 111.553 62.2744 111.36 63.0744 111.36C64.2477 111.36 65.121 111.713 65.6944 112.42C66.281 113.127 66.5744 114.06 66.5744 115.22V122H64.7744V115.42C64.7744 114.673 64.5944 114.073 64.2344 113.62C63.8877 113.167 63.401 112.94 62.7744 112.94C62.161 112.94 61.581 113.16 61.0344 113.6C60.4877 114.027 60.021 114.533 59.6344 115.12V122H57.8344ZM73.6103 122.24C72.757 122.24 71.977 122.02 71.2703 121.58C70.5636 121.14 70.0036 120.52 69.5903 119.72C69.177 118.907 68.9703 117.953 68.9703 116.86C68.9703 115.807 69.177 114.867 69.5903 114.04C70.017 113.213 70.577 112.56 71.2703 112.08C71.977 111.6 72.7503 111.36 73.5903 111.36C74.2836 111.36 74.877 111.5 75.3703 111.78C75.877 112.06 76.2703 112.347 76.5503 112.64V107.2H78.3503V119.48C78.3503 119.987 78.4703 120.32 78.7103 120.48C78.9636 120.627 79.237 120.7 79.5303 120.7L79.1503 122.1C77.8836 122.1 77.1103 121.593 76.8303 120.58C76.537 120.993 76.1236 121.373 75.5903 121.72C75.0703 122.067 74.4103 122.24 73.6103 122.24ZM74.0103 120.64C74.5036 120.64 74.9703 120.527 75.4103 120.3C75.8636 120.06 76.2436 119.753 76.5503 119.38V114.22C76.297 113.9 75.9436 113.607 75.4903 113.34C75.037 113.06 74.537 112.92 73.9903 112.92C73.3503 112.92 72.7903 113.093 72.3103 113.44C71.8303 113.787 71.457 114.253 71.1903 114.84C70.937 115.413 70.8103 116.067 70.8103 116.8C70.8103 117.533 70.9503 118.193 71.2303 118.78C71.5103 119.353 71.8903 119.807 72.3703 120.14C72.8636 120.473 73.4103 120.64 74.0103 120.64ZM92.312 122.24C91.3254 122.24 90.4387 122.013 89.652 121.56C88.8654 121.093 88.2454 120.453 87.792 119.64C87.352 118.813 87.132 117.867 87.132 116.8C87.132 115.68 87.3587 114.713 87.812 113.9C88.2654 113.087 88.8854 112.46 89.672 112.02C90.4587 111.58 91.3387 111.36 92.312 111.36C93.2854 111.36 94.1587 111.58 94.932 112.02C95.7187 112.46 96.3387 113.087 96.792 113.9C97.2587 114.7 97.492 115.653 97.492 116.76C97.492 117.867 97.2654 118.833 96.812 119.66C96.3587 120.473 95.7387 121.107 94.952 121.56C94.1787 122.013 93.2987 122.24 92.312 122.24ZM92.312 120.64C93.3654 120.64 94.1854 120.287 94.772 119.58C95.3587 118.86 95.652 117.933 95.652 116.8C95.652 116.107 95.5054 115.473 95.212 114.9C94.9187 114.313 94.5187 113.847 94.012 113.5C93.5187 113.14 92.952 112.96 92.312 112.96C91.2587 112.96 90.4387 113.307 89.852 114C89.2654 114.693 88.972 115.613 88.972 116.76C88.972 117.453 89.1187 118.1 89.412 118.7C89.7054 119.287 90.0987 119.76 90.592 120.12C91.0987 120.467 91.672 120.64 92.312 120.64ZM99.8852 122V111.6H101.625V113.86C101.798 113.42 102.032 113.013 102.325 112.64C102.618 112.253 102.985 111.947 103.425 111.72C103.865 111.48 104.378 111.36 104.965 111.36C105.165 111.36 105.365 111.373 105.565 111.4C105.765 111.413 105.932 111.44 106.065 111.48L105.525 113.34C105.272 113.233 104.972 113.18 104.625 113.18C104.132 113.18 103.658 113.32 103.205 113.6C102.765 113.88 102.398 114.313 102.105 114.9C101.825 115.487 101.685 116.233 101.685 117.14V122H99.8852ZM113.87 122V111.6H115.61V113.86C115.783 113.42 116.016 113.013 116.31 112.64C116.603 112.253 116.97 111.947 117.41 111.72C117.85 111.48 118.363 111.36 118.95 111.36C119.15 111.36 119.35 111.373 119.55 111.4C119.75 111.413 119.916 111.44 120.05 111.48L119.51 113.34C119.256 113.233 118.956 113.18 118.61 113.18C118.116 113.18 117.643 113.32 117.19 113.6C116.75 113.88 116.383 114.313 116.09 114.9C115.81 115.487 115.67 116.233 115.67 117.14V122H113.87ZM125.412 122.24C123.919 122.24 122.732 121.767 121.852 120.82C120.986 119.86 120.552 118.52 120.552 116.8C120.552 115.76 120.746 114.833 121.132 114.02C121.532 113.193 122.086 112.547 122.792 112.08C123.499 111.6 124.319 111.36 125.252 111.36C126.252 111.36 127.079 111.58 127.732 112.02C128.399 112.447 128.899 113.027 129.232 113.76C129.566 114.493 129.732 115.3 129.732 116.18C129.732 116.647 129.712 117.1 129.672 117.54H122.392C122.512 118.513 122.852 119.273 123.412 119.82C123.972 120.367 124.712 120.64 125.632 120.64C126.232 120.64 126.772 120.58 127.252 120.46C127.732 120.327 128.192 120.16 128.632 119.96L129.052 121.5C128.572 121.713 128.032 121.887 127.432 122.02C126.832 122.167 126.159 122.24 125.412 122.24ZM122.372 116.08H128.072C128.072 115.067 127.819 114.287 127.312 113.74C126.806 113.193 126.106 112.92 125.212 112.92C124.439 112.92 123.799 113.193 123.292 113.74C122.786 114.273 122.479 115.053 122.372 116.08ZM136.331 122.24C135.345 122.24 134.478 122.013 133.731 121.56C132.998 121.093 132.431 120.453 132.031 119.64C131.631 118.813 131.431 117.867 131.431 116.8C131.431 115.8 131.631 114.887 132.031 114.06C132.445 113.233 133.031 112.58 133.791 112.1C134.551 111.607 135.445 111.36 136.471 111.36C137.058 111.36 137.571 111.413 138.011 111.52C138.465 111.627 138.898 111.78 139.311 111.98L138.771 113.5C138.398 113.313 138.038 113.18 137.691 113.1C137.358 113.007 136.985 112.96 136.571 112.96C135.638 112.96 134.851 113.3 134.211 113.98C133.585 114.647 133.271 115.573 133.271 116.76C133.271 117.48 133.405 118.133 133.671 118.72C133.938 119.307 134.305 119.773 134.771 120.12C135.251 120.467 135.811 120.64 136.451 120.64C136.958 120.64 137.391 120.587 137.751 120.48C138.111 120.36 138.498 120.193 138.911 119.98L139.471 121.5C139.058 121.727 138.591 121.907 138.071 122.04C137.565 122.173 136.985 122.24 136.331 122.24ZM145.53 122.24C144.036 122.24 142.85 121.767 141.97 120.82C141.103 119.86 140.67 118.52 140.67 116.8C140.67 115.76 140.863 114.833 141.25 114.02C141.65 113.193 142.203 112.547 142.91 112.08C143.616 111.6 144.436 111.36 145.37 111.36C146.37 111.36 147.196 111.58 147.85 112.02C148.516 112.447 149.016 113.027 149.35 113.76C149.683 114.493 149.85 115.3 149.85 116.18C149.85 116.647 149.83 117.1 149.79 117.54H142.51C142.63 118.513 142.97 119.273 143.53 119.82C144.09 120.367 144.83 120.64 145.75 120.64C146.35 120.64 146.89 120.58 147.37 120.46C147.85 120.327 148.31 120.16 148.75 119.96L149.17 121.5C148.69 121.713 148.15 121.887 147.55 122.02C146.95 122.167 146.276 122.24 145.53 122.24ZM142.49 116.08H148.19C148.19 115.067 147.936 114.287 147.43 113.74C146.923 113.193 146.223 112.92 145.33 112.92C144.556 112.92 143.916 113.193 143.41 113.74C142.903 114.273 142.596 115.053 142.49 116.08ZM152.248 122V111.6H154.048V122H152.248ZM153.148 109.82C152.802 109.82 152.502 109.693 152.248 109.44C152.008 109.187 151.888 108.893 151.888 108.56C151.888 108.173 152.002 107.867 152.228 107.64C152.455 107.413 152.762 107.3 153.148 107.3C153.495 107.3 153.788 107.427 154.028 107.68C154.282 107.92 154.408 108.213 154.408 108.56C154.408 108.933 154.295 109.24 154.068 109.48C153.842 109.707 153.535 109.82 153.148 109.82ZM160.028 122L155.848 112.08L157.488 111.4L161.028 119.96L164.568 111.4L166.108 112.08L161.908 122H160.028ZM171.682 122.24C170.189 122.24 169.002 121.767 168.122 120.82C167.255 119.86 166.822 118.52 166.822 116.8C166.822 115.76 167.015 114.833 167.402 114.02C167.802 113.193 168.355 112.547 169.062 112.08C169.769 111.6 170.589 111.36 171.522 111.36C172.522 111.36 173.349 111.58 174.002 112.02C174.669 112.447 175.169 113.027 175.502 113.76C175.835 114.493 176.002 115.3 176.002 116.18C176.002 116.647 175.982 117.1 175.942 117.54H168.662C168.782 118.513 169.122 119.273 169.682 119.82C170.242 120.367 170.982 120.64 171.902 120.64C172.502 120.64 173.042 120.58 173.522 120.46C174.002 120.327 174.462 120.16 174.902 119.96L175.322 121.5C174.842 121.713 174.302 121.887 173.702 122.02C173.102 122.167 172.429 122.24 171.682 122.24ZM168.642 116.08H174.342C174.342 115.067 174.089 114.287 173.582 113.74C173.075 113.193 172.375 112.92 171.482 112.92C170.709 112.92 170.069 113.193 169.562 113.74C169.055 114.273 168.749 115.053 168.642 116.08ZM188.557 122.24C187.064 122.24 185.877 121.767 184.997 120.82C184.13 119.86 183.697 118.52 183.697 116.8C183.697 115.76 183.89 114.833 184.277 114.02C184.677 113.193 185.23 112.547 185.937 112.08C186.644 111.6 187.464 111.36 188.397 111.36C189.397 111.36 190.224 111.58 190.877 112.02C191.544 112.447 192.044 113.027 192.377 113.76C192.71 114.493 192.877 115.3 192.877 116.18C192.877 116.647 192.857 117.1 192.817 117.54H185.537C185.657 118.513 185.997 119.273 186.557 119.82C187.117 120.367 187.857 120.64 188.777 120.64C189.377 120.64 189.917 120.58 190.397 120.46C190.877 120.327 191.337 120.16 191.777 119.96L192.197 121.5C191.717 121.713 191.177 121.887 190.577 122.02C189.977 122.167 189.304 122.24 188.557 122.24ZM185.517 116.08H191.217C191.217 115.067 190.964 114.287 190.457 113.74C189.95 113.193 189.25 112.92 188.357 112.92C187.584 112.92 186.944 113.193 186.437 113.74C185.93 114.273 185.624 115.053 185.517 116.08ZM195.276 122V111.6H197.016V113.34C197.389 112.78 197.862 112.313 198.436 111.94C199.009 111.553 199.662 111.36 200.396 111.36C201.222 111.36 201.896 111.56 202.416 111.96C202.949 112.36 203.322 112.893 203.536 113.56C203.949 112.947 204.436 112.427 204.996 112C205.569 111.573 206.276 111.36 207.116 111.36C208.249 111.36 209.089 111.72 209.636 112.44C210.196 113.147 210.476 114.073 210.476 115.22V122H208.676V115.36C208.676 114.64 208.509 114.06 208.176 113.62C207.842 113.167 207.382 112.94 206.796 112.94C206.196 112.94 205.636 113.167 205.116 113.62C204.609 114.06 204.162 114.58 203.776 115.18V122H201.976V115.36C201.976 114.64 201.809 114.06 201.476 113.62C201.142 113.167 200.682 112.94 200.096 112.94C199.509 112.94 198.956 113.16 198.436 113.6C197.916 114.027 197.462 114.533 197.076 115.12V122H195.276ZM217.557 122.24C216.69 122.24 215.903 122.02 215.197 121.58C214.49 121.14 213.923 120.52 213.497 119.72C213.083 118.907 212.877 117.953 212.877 116.86C212.877 115.82 213.083 114.887 213.497 114.06C213.923 113.233 214.503 112.58 215.237 112.1C215.983 111.607 216.837 111.36 217.797 111.36C218.397 111.36 218.937 111.467 219.417 111.68C219.91 111.88 220.337 112.133 220.697 112.44V111.6H222.337V119.48C222.337 119.987 222.457 120.32 222.697 120.48C222.95 120.627 223.223 120.7 223.517 120.7L223.137 122.1C221.857 122.1 221.083 121.58 220.817 120.54C220.51 120.967 220.09 121.36 219.557 121.72C219.037 122.067 218.37 122.24 217.557 122.24ZM217.957 120.64C218.463 120.64 218.943 120.52 219.397 120.28C219.85 120.027 220.23 119.713 220.537 119.34V113.76C220.177 113.507 219.777 113.307 219.337 113.16C218.91 113 218.457 112.92 217.977 112.92C217.337 112.92 216.77 113.087 216.277 113.42C215.797 113.74 215.417 114.193 215.137 114.78C214.857 115.353 214.717 116.027 214.717 116.8C214.717 117.547 214.857 118.213 215.137 118.8C215.417 119.373 215.803 119.827 216.297 120.16C216.79 120.48 217.343 120.64 217.957 120.64ZM225.92 122V111.6H227.72V122H225.92ZM226.82 109.82C226.474 109.82 226.174 109.693 225.92 109.44C225.68 109.187 225.56 108.893 225.56 108.56C225.56 108.173 225.674 107.867 225.9 107.64C226.127 107.413 226.434 107.3 226.82 107.3C227.167 107.3 227.46 107.427 227.7 107.68C227.954 107.92 228.08 108.213 228.08 108.56C228.08 108.933 227.967 109.24 227.74 109.48C227.514 109.707 227.207 109.82 226.82 109.82ZM234.08 122.24C233.467 122.24 232.914 122.127 232.42 121.9C231.927 121.66 231.534 121.28 231.24 120.76C230.96 120.24 230.82 119.567 230.82 118.74V107.2H232.62V118.56C232.62 119.28 232.767 119.813 233.06 120.16C233.367 120.507 233.787 120.68 234.32 120.68C234.574 120.68 234.82 120.653 235.06 120.6C235.314 120.533 235.527 120.46 235.7 120.38L236.14 121.84C235.9 121.947 235.6 122.04 235.24 122.12C234.894 122.2 234.507 122.24 234.08 122.24ZM240.634 122.24C239.848 122.24 239.134 122.14 238.494 121.94C237.868 121.74 237.348 121.48 236.934 121.16L237.694 119.66C238.041 119.953 238.474 120.2 238.994 120.4C239.528 120.587 240.094 120.68 240.694 120.68C241.441 120.68 242.001 120.56 242.374 120.32C242.761 120.067 242.954 119.747 242.954 119.36C242.954 119.08 242.881 118.833 242.734 118.62C242.601 118.407 242.348 118.2 241.974 118C241.601 117.787 241.061 117.56 240.354 117.32C239.381 116.987 238.648 116.593 238.154 116.14C237.674 115.673 237.434 115.033 237.434 114.22C237.434 113.42 237.781 112.747 238.474 112.2C239.181 111.64 240.154 111.36 241.394 111.36C242.061 111.36 242.654 111.433 243.174 111.58C243.694 111.713 244.161 111.887 244.574 112.1L244.074 113.58C243.714 113.367 243.301 113.193 242.834 113.06C242.381 112.927 241.874 112.86 241.314 112.86C240.621 112.86 240.094 113 239.734 113.28C239.374 113.56 239.194 113.867 239.194 114.2C239.194 114.52 239.334 114.793 239.614 115.02C239.894 115.247 240.441 115.493 241.254 115.76C242.574 116.2 243.494 116.687 244.014 117.22C244.534 117.753 244.794 118.42 244.794 119.22C244.794 120.153 244.414 120.893 243.654 121.44C242.908 121.973 241.901 122.24 240.634 122.24ZM248.59 122.24C248.23 122.24 247.917 122.107 247.65 121.84C247.383 121.573 247.25 121.26 247.25 120.9C247.25 120.487 247.37 120.16 247.61 119.92C247.85 119.68 248.177 119.56 248.59 119.56C248.937 119.56 249.243 119.693 249.51 119.96C249.79 120.227 249.93 120.54 249.93 120.9C249.93 121.3 249.803 121.627 249.55 121.88C249.297 122.12 248.977 122.24 248.59 122.24Z" fill="black"/>
<rect x="320.25" y="137.25" width="79.5" height="55.5" rx="3.75" stroke="#100C0D" stroke-width="2.5"/>
<path d="M353.12 173.288C351.872 173.288 350.76 173.064 349.784 172.616C348.808 172.152 347.976 171.528 347.288 170.744C346.616 169.944 346.096 169.016 345.728 167.96C345.376 166.904 345.2 165.776 345.2 164.576C345.2 162.928 345.512 161.456 346.136 160.16C346.776 158.848 347.688 157.816 348.872 157.064C350.056 156.296 351.472 155.912 353.12 155.912C354.352 155.912 355.456 156.136 356.432 156.584C357.424 157.032 358.264 157.656 358.952 158.456C359.64 159.256 360.16 160.176 360.512 161.216C360.88 162.256 361.064 163.376 361.064 164.576C361.064 165.776 360.88 166.904 360.512 167.96C360.16 169.016 359.64 169.944 358.952 170.744C358.264 171.528 357.432 172.152 356.456 172.616C355.48 173.064 354.368 173.288 353.12 173.288ZM353.12 171.32C354.352 171.32 355.384 171.024 356.216 170.432C357.048 169.84 357.672 169.04 358.088 168.032C358.52 167.008 358.736 165.856 358.736 164.576C358.736 163.712 358.608 162.88 358.352 162.08C358.096 161.28 357.728 160.568 357.248 159.944C356.768 159.304 356.176 158.8 355.472 158.432C354.784 158.064 354 157.88 353.12 157.88C351.952 157.88 350.944 158.176 350.096 158.768C349.264 159.36 348.624 160.16 348.176 161.168C347.744 162.176 347.528 163.312 347.528 164.576C347.528 165.44 347.648 166.28 347.888 167.096C348.144 167.896 348.512 168.616 348.992 169.256C349.472 169.896 350.056 170.4 350.744 170.768C351.448 171.136 352.24 171.32 353.12 171.32ZM373.858 173.288L365.698 165.272V173H363.418V156.2H365.698V163.856L372.85 156.128L374.386 157.544L367.834 164.36L375.442 171.656L373.858 173.288Z" fill="#100C0D"/>
</svg>
