<svg width="64" height="55" viewBox="0 0 64 55" fill="none" xmlns="http://www.w3.org/2000/svg">
<path d="M2 27.3846V29.6923V45.8462C2 47.6823 2.72939 49.4432 4.02772 50.7415C5.32605 52.0398 7.08696 52.7692 8.92308 52.7692H55.0769C56.913 52.7692 58.674 52.0398 59.9723 50.7415C61.2706 49.4432 62 47.6823 62 45.8462V29.6923V27.3846C62 25.5485 61.2706 23.7876 59.9723 22.4893C58.674 21.1909 56.913 20.4615 55.0769 20.4615H8.92308C7.08696 20.4615 5.32605 21.1909 4.02772 22.4893C2.72939 23.7876 2 25.5485 2 27.3846Z" fill="#FFE097"/>
<path d="M2 27.3846C2 25.5485 2.72939 23.7876 4.02772 22.4893C5.32605 21.1909 7.08696 20.4615 8.92308 20.4615H55.0769C56.913 20.4615 58.674 21.1909 59.9723 22.4893C61.2706 23.7876 62 25.5485 62 27.3846V18.1538C62 16.3177 61.2706 14.5568 59.9723 13.2585C58.674 11.9602 56.913 11.2308 55.0769 11.2308H38.5262C37.3025 11.2297 36.1263 10.7427 35.2615 9.87692L28.7385 3.35385C28.3099 2.92478 27.801 2.58436 27.2409 2.35206C26.6807 2.11976 26.0803 2.00013 25.4738 2H8.92308C7.08696 2 5.32605 2.72939 4.02772 4.02772C2.72939 5.32605 2 7.08696 2 8.92308V27.3846Z" fill="#FDC334"/>
<path d="M2 27.3846V29.6923V45.8462M2 27.3846C2 25.5485 2.72939 23.7876 4.02772 22.4893C5.32605 21.1909 7.08696 20.4615 8.92308 20.4615H55.0769C56.913 20.4615 58.6739 21.1909 59.9723 22.4893C61.2706 23.7876 62 25.5485 62 27.3846M2 27.3846V8.92308M62 27.3846V29.6923V45.8462M62 27.3846V18.1538M2 8.92308C2 7.08696 2.72939 5.32605 4.02772 4.02772C5.32605 2.72939 7.08696 2 8.92308 2H25.4738C26.0803 2.00013 26.6807 2.11976 27.2409 2.35206C27.801 2.58436 28.3099 2.92478 28.7385 3.35385L35.2615 9.87692C36.1263 10.7427 37.3025 11.2297 38.5262 11.2308H55.0769C56.913 11.2308 58.6739 11.9602 59.9723 13.2585C61.2706 14.5568 62 16.3177 62 18.1538M2 8.92308V45.8462M2 45.8462C2 47.6823 2.72939 49.4432 4.02772 50.7415C5.32605 52.0398 7.08696 52.7692 8.92308 52.7692H55.0769C56.913 52.7692 58.6739 52.0398 59.9723 50.7415C61.2706 49.4432 62 47.6823 62 45.8462M62 45.8462V18.1538" stroke="black" stroke-width="4" stroke-linecap="round" stroke-linejoin="round"/>
</svg>
