<svg width="414" height="348" viewBox="0 0 414 348" fill="none" xmlns="http://www.w3.org/2000/svg">
<rect width="829" height="40.2312" fill="#ACD3FF"/>
<path d="M34.896 28.4036C33.6 28.4036 32.448 28.0676 31.44 27.3956C30.432 26.7236 29.64 25.7716 29.064 24.5396C28.488 23.2916 28.2 21.8276 28.2 20.1476C28.2 18.3556 28.504 16.7796 29.112 15.4196C29.72 14.0436 30.592 12.9716 31.728 12.2036C32.88 11.4196 34.264 11.0276 35.88 11.0276C36.92 11.0276 37.848 11.1556 38.664 11.4116C39.48 11.6676 40.248 11.9956 40.968 12.3956L40.128 14.2916C39.456 13.9236 38.768 13.6196 38.064 13.3796C37.376 13.1396 36.608 13.0196 35.76 13.0196C34.752 13.0196 33.856 13.2916 33.072 13.8356C32.288 14.3636 31.664 15.1476 31.2 16.1876C30.752 17.2276 30.528 18.4996 30.528 20.0036C30.528 21.3476 30.736 22.4996 31.152 23.4596C31.568 24.4036 32.144 25.1316 32.88 25.6436C33.616 26.1556 34.464 26.4116 35.424 26.4116C36.32 26.4116 37.112 26.2276 37.8 25.8596C38.504 25.4756 39.056 25.0836 39.456 24.6836V21.0116H35.976V19.2116H41.616V28.1156H39.6V26.4356C39.04 26.9316 38.36 27.3876 37.56 27.8036C36.76 28.2036 35.872 28.4036 34.896 28.4036ZM50.3827 28.4036C49.3427 28.4036 48.3987 28.1396 47.5507 27.6116C46.7027 27.0836 46.0227 26.3396 45.5107 25.3796C45.0147 24.4036 44.7667 23.2596 44.7667 21.9476C44.7667 20.6996 45.0147 19.5796 45.5107 18.5876C46.0227 17.5956 46.7187 16.8116 47.5987 16.2356C48.4947 15.6436 49.5187 15.3476 50.6707 15.3476C51.3907 15.3476 52.0387 15.4756 52.6147 15.7316C53.2067 15.9716 53.7187 16.2756 54.1507 16.6436V15.6356H56.1187V25.0916C56.1187 25.6996 56.2627 26.0996 56.5507 26.2916C56.8547 26.4676 57.1827 26.5556 57.5347 26.5556L57.0787 28.2356C55.5427 28.2356 54.6147 27.6116 54.2947 26.3636C53.9267 26.8756 53.4227 27.3476 52.7827 27.7796C52.1587 28.1956 51.3587 28.4036 50.3827 28.4036ZM50.8627 26.4836C51.4707 26.4836 52.0467 26.3396 52.5907 26.0516C53.1347 25.7476 53.5907 25.3716 53.9587 24.9236V18.2276C53.5267 17.9236 53.0467 17.6836 52.5187 17.5076C52.0067 17.3156 51.4627 17.2196 50.8867 17.2196C50.1187 17.2196 49.4387 17.4196 48.8467 17.8196C48.2707 18.2036 47.8147 18.7476 47.4787 19.4516C47.1427 20.1396 46.9747 20.9476 46.9747 21.8756C46.9747 22.7716 47.1427 23.5716 47.4787 24.2756C47.8147 24.9636 48.2787 25.5076 48.8707 25.9076C49.4627 26.2916 50.1267 26.4836 50.8627 26.4836ZM60.934 28.1156V15.6356H63.022V17.7236C63.47 17.0516 64.038 16.4916 64.726 16.0436C65.414 15.5796 66.198 15.3476 67.078 15.3476C68.07 15.3476 68.878 15.5876 69.502 16.0676C70.142 16.5476 70.59 17.1876 70.846 17.9876C71.342 17.2516 71.926 16.6276 72.598 16.1156C73.286 15.6036 74.134 15.3476 75.142 15.3476C76.502 15.3476 77.51 15.7796 78.166 16.6436C78.838 17.4916 79.174 18.6036 79.174 19.9796V28.1156H77.014V20.1476C77.014 19.2836 76.814 18.5876 76.414 18.0596C76.014 17.5156 75.462 17.2436 74.758 17.2436C74.038 17.2436 73.366 17.5156 72.742 18.0596C72.134 18.5876 71.598 19.2116 71.134 19.9316V28.1156H68.974V20.1476C68.974 19.2836 68.774 18.5876 68.374 18.0596C67.974 17.5156 67.422 17.2436 66.718 17.2436C66.014 17.2436 65.35 17.5076 64.726 18.0356C64.102 18.5476 63.558 19.1556 63.094 19.8596V28.1156H60.934ZM88.4018 28.4036C86.6098 28.4036 85.1858 27.8356 84.1298 26.6996C83.0898 25.5476 82.5698 23.9396 82.5698 21.8756C82.5698 20.6276 82.8018 19.5156 83.2658 18.5396C83.7458 17.5476 84.4098 16.7716 85.2578 16.2116C86.1058 15.6356 87.0898 15.3476 88.2098 15.3476C89.4098 15.3476 90.4018 15.6116 91.1858 16.1396C91.9858 16.6516 92.5858 17.3476 92.9858 18.2276C93.3858 19.1076 93.5858 20.0756 93.5858 21.1316C93.5858 21.6916 93.5618 22.2356 93.5138 22.7636H84.7778C84.9218 23.9316 85.3298 24.8436 86.0018 25.4996C86.6738 26.1556 87.5618 26.4836 88.6658 26.4836C89.3858 26.4836 90.0338 26.4116 90.6098 26.2676C91.1858 26.1076 91.7378 25.9076 92.2658 25.6676L92.7698 27.5156C92.1938 27.7716 91.5458 27.9796 90.8258 28.1396C90.1058 28.3156 89.2978 28.4036 88.4018 28.4036ZM84.7538 21.0116H91.5938C91.5938 19.7956 91.2898 18.8596 90.6818 18.2036C90.0738 17.5476 89.2338 17.2196 88.1618 17.2196C87.2338 17.2196 86.4658 17.5476 85.8578 18.2036C85.2498 18.8436 84.8818 19.7796 84.7538 21.0116ZM111.385 28.4036C109.929 28.4036 108.641 28.0596 107.521 27.3716C106.401 26.6676 105.529 25.6756 104.905 24.3956C104.281 23.0996 103.969 21.5636 103.969 19.7876C103.969 18.0756 104.281 16.5636 104.905 15.2516C105.545 13.9236 106.441 12.8916 107.593 12.1556C108.761 11.4036 110.121 11.0276 111.673 11.0276C112.473 11.0276 113.201 11.1076 113.857 11.2676C114.513 11.4116 115.129 11.6196 115.705 11.8916L115.009 13.8116C114.513 13.5716 114.001 13.3796 113.473 13.2356C112.961 13.0916 112.353 13.0196 111.649 13.0196C110.625 13.0196 109.705 13.2836 108.889 13.8116C108.089 14.3396 107.457 15.0996 106.993 16.0916C106.529 17.0836 106.297 18.2836 106.297 19.6916C106.297 21.0356 106.521 22.2116 106.969 23.2196C107.433 24.2276 108.065 25.0116 108.865 25.5716C109.681 26.1316 110.609 26.4116 111.649 26.4116C112.433 26.4116 113.113 26.3156 113.689 26.1236C114.265 25.9316 114.825 25.6836 115.369 25.3796L116.065 27.2756C115.473 27.5956 114.793 27.8676 114.025 28.0916C113.273 28.2996 112.393 28.4036 111.385 28.4036ZM123.984 28.4036C122.8 28.4036 121.736 28.1316 120.792 27.5876C119.848 27.0276 119.104 26.2596 118.56 25.2836C118.032 24.2916 117.768 23.1556 117.768 21.8756C117.768 20.5316 118.04 19.3716 118.584 18.3956C119.128 17.4196 119.872 16.6676 120.816 16.1396C121.76 15.6116 122.816 15.3476 123.984 15.3476C125.152 15.3476 126.2 15.6116 127.128 16.1396C128.072 16.6676 128.816 17.4196 129.36 18.3956C129.92 19.3556 130.2 20.4996 130.2 21.8276C130.2 23.1556 129.928 24.3156 129.384 25.3076C128.84 26.2836 128.096 27.0436 127.152 27.5876C126.224 28.1316 125.168 28.4036 123.984 28.4036ZM123.984 26.4836C125.248 26.4836 126.232 26.0596 126.936 25.2116C127.64 24.3476 127.992 23.2356 127.992 21.8756C127.992 21.0436 127.816 20.2836 127.464 19.5956C127.112 18.8916 126.632 18.3316 126.024 17.9156C125.432 17.4836 124.752 17.2676 123.984 17.2676C122.72 17.2676 121.736 17.6836 121.032 18.5156C120.328 19.3476 119.976 20.4516 119.976 21.8276C119.976 22.6596 120.152 23.4356 120.504 24.1556C120.856 24.8596 121.328 25.4276 121.92 25.8596C122.528 26.2756 123.216 26.4836 123.984 26.4836ZM133.586 28.1156V15.6356H135.674V17.7236C136.122 17.0516 136.69 16.4916 137.378 16.0436C138.082 15.5796 138.914 15.3476 139.874 15.3476C141.282 15.3476 142.33 15.7716 143.018 16.6196C143.722 17.4676 144.074 18.5876 144.074 19.9796V28.1156H141.914V20.2196C141.914 19.3236 141.698 18.6036 141.266 18.0596C140.85 17.5156 140.266 17.2436 139.514 17.2436C138.778 17.2436 138.082 17.5076 137.426 18.0356C136.77 18.5476 136.21 19.1556 135.746 19.8596V28.1156H133.586ZM152.672 28.4036C151.472 28.4036 150.52 28.0116 149.816 27.2276C149.128 26.4276 148.784 25.2916 148.784 23.8196V17.9636H146.624V16.0916H148.832L149.288 12.1556H150.944V16.0916H154.4V17.9636H150.944V23.9876C150.944 24.9156 151.136 25.5636 151.52 25.9316C151.92 26.2996 152.392 26.4836 152.936 26.4836C153.336 26.4836 153.712 26.4196 154.064 26.2916C154.432 26.1636 154.768 26.0116 155.072 25.8356L155.672 27.5636C155.352 27.7556 154.92 27.9396 154.376 28.1156C153.832 28.3076 153.264 28.4036 152.672 28.4036ZM158.358 28.1156V15.6356H160.446V18.3476C160.654 17.8196 160.934 17.3316 161.286 16.8836C161.638 16.4196 162.078 16.0516 162.606 15.7796C163.134 15.4916 163.75 15.3476 164.454 15.3476C164.694 15.3476 164.934 15.3636 165.174 15.3956C165.414 15.4116 165.614 15.4436 165.774 15.4916L165.126 17.7236C164.822 17.5956 164.462 17.5316 164.046 17.5316C163.454 17.5316 162.886 17.6996 162.342 18.0356C161.814 18.3716 161.374 18.8916 161.022 19.5956C160.686 20.2996 160.518 21.1956 160.518 22.2836V28.1156H158.358ZM172.988 28.4036C171.804 28.4036 170.74 28.1316 169.796 27.5876C168.852 27.0276 168.108 26.2596 167.564 25.2836C167.036 24.2916 166.772 23.1556 166.772 21.8756C166.772 20.5316 167.044 19.3716 167.588 18.3956C168.132 17.4196 168.876 16.6676 169.82 16.1396C170.764 15.6116 171.82 15.3476 172.988 15.3476C174.156 15.3476 175.204 15.6116 176.132 16.1396C177.076 16.6676 177.82 17.4196 178.364 18.3956C178.924 19.3556 179.204 20.4996 179.204 21.8276C179.204 23.1556 178.932 24.3156 178.388 25.3076C177.844 26.2836 177.1 27.0436 176.156 27.5876C175.228 28.1316 174.172 28.4036 172.988 28.4036ZM172.988 26.4836C174.252 26.4836 175.236 26.0596 175.94 25.2116C176.644 24.3476 176.996 23.2356 176.996 21.8756C176.996 21.0436 176.82 20.2836 176.468 19.5956C176.116 18.8916 175.636 18.3316 175.028 17.9156C174.436 17.4836 173.756 17.2676 172.988 17.2676C171.724 17.2676 170.74 17.6836 170.036 18.5156C169.332 19.3476 168.98 20.4516 168.98 21.8276C168.98 22.6596 169.156 23.4356 169.508 24.1556C169.86 24.8596 170.332 25.4276 170.924 25.8596C171.532 26.2756 172.22 26.4836 172.988 26.4836ZM186.383 28.4036C185.647 28.4036 184.983 28.2676 184.391 27.9956C183.799 27.7076 183.327 27.2516 182.975 26.6276C182.639 26.0036 182.471 25.1956 182.471 24.2036V10.3556H184.631V23.9876C184.631 24.8516 184.807 25.4916 185.159 25.9076C185.527 26.3236 186.031 26.5316 186.671 26.5316C186.975 26.5316 187.271 26.4996 187.559 26.4356C187.863 26.3556 188.119 26.2676 188.327 26.1716L188.855 27.9236C188.567 28.0516 188.207 28.1636 187.775 28.2596C187.359 28.3556 186.895 28.4036 186.383 28.4036ZM194.763 28.4036C193.819 28.4036 192.963 28.2836 192.195 28.0436C191.443 27.8036 190.819 27.4916 190.323 27.1076L191.235 25.3076C191.651 25.6596 192.171 25.9556 192.795 26.1956C193.435 26.4196 194.115 26.5316 194.835 26.5316C195.731 26.5316 196.403 26.3876 196.851 26.0996C197.315 25.7956 197.547 25.4116 197.547 24.9476C197.547 24.6116 197.459 24.3156 197.283 24.0596C197.123 23.8036 196.819 23.5556 196.371 23.3156C195.923 23.0596 195.275 22.7876 194.427 22.4996C193.259 22.0996 192.379 21.6276 191.787 21.0836C191.211 20.5236 190.923 19.7556 190.923 18.7796C190.923 17.8196 191.339 17.0116 192.171 16.3556C193.019 15.6836 194.187 15.3476 195.675 15.3476C196.475 15.3476 197.187 15.4356 197.811 15.6116C198.435 15.7716 198.995 15.9796 199.491 16.2356L198.891 18.0116C198.459 17.7556 197.963 17.5476 197.403 17.3876C196.859 17.2276 196.251 17.1476 195.579 17.1476C194.747 17.1476 194.115 17.3156 193.683 17.6516C193.251 17.9876 193.035 18.3556 193.035 18.7556C193.035 19.1396 193.203 19.4676 193.539 19.7396C193.875 20.0116 194.531 20.3076 195.507 20.6276C197.091 21.1556 198.195 21.7396 198.819 22.3796C199.443 23.0196 199.755 23.8196 199.755 24.7796C199.755 25.8996 199.299 26.7876 198.387 27.4436C197.491 28.0836 196.283 28.4036 194.763 28.4036Z" fill="#100C0D"/>
<rect x="763" width="66" height="50" fill="#EE4266"/>
<rect x="697" width="66" height="50" fill="#FFD23F"/>
<rect x="631" width="66" height="50" fill="#16C099"/>
<rect x="715.5" y="14.5" width="28" height="22" stroke="black" stroke-width="3"/>
<path d="M805.05 17L786.56 35.4897" stroke="black" stroke-width="3" stroke-linecap="round"/>
<path d="M804.489 35.4897L786 17" stroke="black" stroke-width="3" stroke-linecap="round"/>
<path d="M649 26H679" stroke="black" stroke-width="3" stroke-linecap="round"/>
<rect y="40.2054" width="829" height="655.795" fill="white"/>
<path d="M687.696 131.288C686.96 131.288 686.264 131.16 685.608 130.904C684.968 130.648 684.432 130.312 684 129.896L685.104 128.144C685.424 128.48 685.808 128.76 686.256 128.984C686.704 129.208 687.16 129.32 687.624 129.32C688.392 129.32 689 129.048 689.448 128.504C689.896 127.944 690.12 127.008 690.12 125.696V114.2H692.4V125.456C692.4 127.488 691.968 128.968 691.104 129.896C690.24 130.824 689.104 131.288 687.696 131.288ZM700.827 131.288C700.107 131.288 699.427 131.136 698.787 130.832C698.147 130.528 697.627 130.04 697.227 129.368C696.827 128.68 696.627 127.768 696.627 126.632V118.52H698.787V126.344C698.787 127.32 698.995 128.072 699.411 128.6C699.827 129.112 700.435 129.368 701.235 129.368C701.891 129.368 702.523 129.24 703.131 128.984C703.755 128.712 704.307 128.352 704.787 127.904V118.52H706.947V127.76C706.947 128.448 707.091 128.904 707.379 129.128C707.683 129.336 708.011 129.44 708.363 129.44L707.907 131.12C706.419 131.12 705.499 130.528 705.147 129.344C704.587 129.92 703.939 130.392 703.203 130.76C702.467 131.112 701.675 131.288 700.827 131.288ZM711.747 131V118.52H713.835V120.608C714.283 119.936 714.851 119.376 715.539 118.928C716.227 118.464 717.011 118.232 717.891 118.232C718.883 118.232 719.691 118.472 720.315 118.952C720.955 119.432 721.403 120.072 721.659 120.872C722.155 120.136 722.739 119.512 723.411 119C724.099 118.488 724.947 118.232 725.955 118.232C727.315 118.232 728.323 118.664 728.979 119.528C729.651 120.376 729.987 121.488 729.987 122.864V131H727.827V123.032C727.827 122.168 727.627 121.472 727.227 120.944C726.827 120.4 726.275 120.128 725.571 120.128C724.851 120.128 724.179 120.4 723.555 120.944C722.947 121.472 722.411 122.096 721.947 122.816V131H719.787V123.032C719.787 122.168 719.587 121.472 719.187 120.944C718.787 120.4 718.235 120.128 717.531 120.128C716.827 120.128 716.163 120.392 715.539 120.92C714.915 121.432 714.371 122.04 713.907 122.744V131H711.747ZM734.678 136.28V121.712C734.678 121.168 734.542 120.784 734.27 120.56C734.014 120.32 733.678 120.2 733.262 120.2L733.718 118.52C735.19 118.52 736.11 119.104 736.478 120.272C736.638 120.032 736.894 119.752 737.246 119.432C737.614 119.112 738.062 118.832 738.59 118.592C739.134 118.352 739.75 118.232 740.438 118.232C741.398 118.232 742.294 118.488 743.126 119C743.974 119.496 744.654 120.224 745.166 121.184C745.678 122.128 745.934 123.28 745.934 124.64C745.934 125.968 745.678 127.136 745.166 128.144C744.654 129.136 743.982 129.912 743.15 130.472C742.334 131.016 741.446 131.288 740.486 131.288C739.75 131.288 739.062 131.144 738.422 130.856C737.782 130.552 737.254 130.208 736.838 129.824V136.28H734.678ZM740.054 129.368C741.142 129.368 742.022 128.944 742.694 128.096C743.382 127.232 743.726 126.104 743.726 124.712C743.726 123.752 743.55 122.928 743.198 122.24C742.862 121.552 742.406 121.024 741.83 120.656C741.27 120.288 740.646 120.104 739.958 120.104C739.27 120.104 738.646 120.28 738.086 120.632C737.542 120.968 737.126 121.336 736.838 121.736V127.88C737.254 128.312 737.734 128.672 738.278 128.96C738.822 129.232 739.414 129.368 740.054 129.368Z" fill="#100C0D"/>
<path d="M686.16 256V239.2H688.44V253.96H696.144V256H686.16ZM703.685 256.288C701.893 256.288 700.469 255.72 699.413 254.584C698.373 253.432 697.853 251.824 697.853 249.76C697.853 248.512 698.085 247.4 698.549 246.424C699.029 245.432 699.693 244.656 700.541 244.096C701.389 243.52 702.373 243.232 703.493 243.232C704.693 243.232 705.685 243.496 706.469 244.024C707.269 244.536 707.869 245.232 708.269 246.112C708.669 246.992 708.869 247.96 708.869 249.016C708.869 249.576 708.845 250.12 708.797 250.648H700.061C700.205 251.816 700.613 252.728 701.285 253.384C701.957 254.04 702.845 254.368 703.949 254.368C704.669 254.368 705.317 254.296 705.893 254.152C706.469 253.992 707.021 253.792 707.549 253.552L708.053 255.4C707.477 255.656 706.829 255.864 706.109 256.024C705.389 256.2 704.581 256.288 703.685 256.288ZM700.037 248.896H706.877C706.877 247.68 706.573 246.744 705.965 246.088C705.357 245.432 704.517 245.104 703.445 245.104C702.517 245.104 701.749 245.432 701.141 246.088C700.533 246.728 700.165 247.664 700.037 248.896ZM712.502 256V245.848H710.582V243.976H712.502V242.512C712.502 241.104 712.894 239.992 713.678 239.176C714.462 238.36 715.486 237.952 716.75 237.952C717.406 237.952 717.982 238.032 718.478 238.192C718.974 238.336 719.446 238.52 719.894 238.744L719.246 240.568C718.91 240.392 718.55 240.232 718.166 240.088C717.782 239.944 717.358 239.872 716.894 239.872C716.222 239.872 715.678 240.088 715.262 240.52C714.862 240.936 714.662 241.552 714.662 242.368V243.976H718.358V245.848H714.662V256H712.502ZM726.567 256.288C725.367 256.288 724.415 255.896 723.711 255.112C723.023 254.312 722.679 253.176 722.679 251.704V245.848H720.519V243.976H722.727L723.183 240.04H724.839V243.976H728.295V245.848H724.839V251.872C724.839 252.8 725.031 253.448 725.415 253.816C725.815 254.184 726.287 254.368 726.831 254.368C727.231 254.368 727.607 254.304 727.959 254.176C728.327 254.048 728.663 253.896 728.967 253.72L729.567 255.448C729.247 255.64 728.815 255.824 728.271 256C727.727 256.192 727.159 256.288 726.567 256.288Z" fill="#100C0D"/>
<path d="M692.616 381.288C691.16 381.288 689.872 380.944 688.752 380.256C687.632 379.552 686.76 378.56 686.136 377.28C685.512 375.984 685.2 374.448 685.2 372.672C685.2 370.96 685.512 369.448 686.136 368.136C686.776 366.808 687.672 365.776 688.824 365.04C689.992 364.288 691.352 363.912 692.904 363.912C693.704 363.912 694.432 363.992 695.088 364.152C695.744 364.296 696.36 364.504 696.936 364.776L696.24 366.696C695.744 366.456 695.232 366.264 694.704 366.12C694.192 365.976 693.584 365.904 692.88 365.904C691.856 365.904 690.936 366.168 690.12 366.696C689.32 367.224 688.688 367.984 688.224 368.976C687.76 369.968 687.528 371.168 687.528 372.576C687.528 373.92 687.752 375.096 688.2 376.104C688.664 377.112 689.296 377.896 690.096 378.456C690.912 379.016 691.84 379.296 692.88 379.296C693.664 379.296 694.344 379.2 694.92 379.008C695.496 378.816 696.056 378.568 696.6 378.264L697.296 380.16C696.704 380.48 696.024 380.752 695.256 380.976C694.504 381.184 693.624 381.288 692.616 381.288ZM700.685 381V368.52H702.773V371.232C702.981 370.704 703.261 370.216 703.613 369.768C703.965 369.304 704.405 368.936 704.933 368.664C705.461 368.376 706.077 368.232 706.781 368.232C707.021 368.232 707.261 368.248 707.501 368.28C707.741 368.296 707.941 368.328 708.101 368.376L707.453 370.608C707.149 370.48 706.789 370.416 706.373 370.416C705.781 370.416 705.213 370.584 704.669 370.92C704.141 371.256 703.701 371.776 703.349 372.48C703.013 373.184 702.845 374.08 702.845 375.168V381H700.685ZM715.315 381.288C714.131 381.288 713.067 381.016 712.123 380.472C711.179 379.912 710.435 379.144 709.891 378.168C709.363 377.176 709.099 376.04 709.099 374.76C709.099 373.416 709.371 372.256 709.915 371.28C710.459 370.304 711.203 369.552 712.147 369.024C713.091 368.496 714.147 368.232 715.315 368.232C716.483 368.232 717.531 368.496 718.459 369.024C719.403 369.552 720.147 370.304 720.691 371.28C721.251 372.24 721.531 373.384 721.531 374.712C721.531 376.04 721.259 377.2 720.715 378.192C720.171 379.168 719.427 379.928 718.483 380.472C717.555 381.016 716.499 381.288 715.315 381.288ZM715.315 379.368C716.579 379.368 717.563 378.944 718.267 378.096C718.971 377.232 719.323 376.12 719.323 374.76C719.323 373.928 719.147 373.168 718.795 372.48C718.443 371.776 717.963 371.216 717.355 370.8C716.763 370.368 716.083 370.152 715.315 370.152C714.051 370.152 713.067 370.568 712.363 371.4C711.659 372.232 711.307 373.336 711.307 374.712C711.307 375.544 711.483 376.32 711.835 377.04C712.187 377.744 712.659 378.312 713.251 378.744C713.859 379.16 714.547 379.368 715.315 379.368ZM728.998 381.288C728.278 381.288 727.598 381.136 726.958 380.832C726.318 380.528 725.798 380.04 725.398 379.368C724.998 378.68 724.798 377.768 724.798 376.632V368.52H726.958V376.344C726.958 377.32 727.166 378.072 727.582 378.6C727.998 379.112 728.606 379.368 729.406 379.368C730.062 379.368 730.694 379.24 731.302 378.984C731.926 378.712 732.478 378.352 732.958 377.904V368.52H735.118V377.76C735.118 378.448 735.262 378.904 735.55 379.128C735.854 379.336 736.182 379.44 736.534 379.44L736.078 381.12C734.59 381.12 733.67 380.528 733.318 379.344C732.758 379.92 732.11 380.392 731.374 380.76C730.638 381.112 729.846 381.288 728.998 381.288ZM744.722 381.288C743.538 381.288 742.498 381.016 741.602 380.472C740.722 379.912 740.042 379.144 739.562 378.168C739.082 377.176 738.842 376.04 738.842 374.76C738.842 373.56 739.082 372.464 739.562 371.472C740.058 370.48 740.762 369.696 741.674 369.12C742.586 368.528 743.658 368.232 744.89 368.232C745.594 368.232 746.21 368.296 746.738 368.424C747.282 368.552 747.802 368.736 748.298 368.976L747.65 370.8C747.202 370.576 746.77 370.416 746.354 370.32C745.954 370.208 745.506 370.152 745.01 370.152C743.89 370.152 742.946 370.56 742.178 371.376C741.426 372.176 741.05 373.288 741.05 374.712C741.05 375.576 741.21 376.36 741.53 377.064C741.85 377.768 742.29 378.328 742.85 378.744C743.426 379.16 744.098 379.368 744.866 379.368C745.474 379.368 745.994 379.304 746.426 379.176C746.858 379.032 747.322 378.832 747.818 378.576L748.49 380.4C747.994 380.672 747.434 380.888 746.81 381.048C746.202 381.208 745.506 381.288 744.722 381.288ZM751.518 381V363.24H753.678V370.512C754.126 369.856 754.694 369.312 755.382 368.88C756.07 368.448 756.878 368.232 757.806 368.232C759.214 368.232 760.262 368.656 760.95 369.504C761.654 370.352 762.006 371.472 762.006 372.864V381H759.846V373.104C759.846 372.208 759.638 371.488 759.222 370.944C758.806 370.4 758.222 370.128 757.47 370.128C756.734 370.128 756.03 370.392 755.358 370.92C754.702 371.432 754.142 372.04 753.678 372.744V381H751.518Z" fill="#100C0D"/>
<path d="M695.952 506.288L693.864 501.728C693.336 500.592 692.672 499.784 691.872 499.304C691.072 498.824 690.048 498.584 688.8 498.584H688.44V506H686.16V489.248C687.008 489.168 687.816 489.112 688.584 489.08C689.368 489.032 690.2 489.008 691.08 489.008C693.128 489.008 694.664 489.424 695.688 490.256C696.728 491.088 697.248 492.16 697.248 493.472C697.248 494.64 696.896 495.584 696.192 496.304C695.504 497.008 694.504 497.536 693.192 497.888C693.624 498.08 694.008 498.312 694.344 498.584C694.68 498.84 695 499.192 695.304 499.64C695.624 500.072 695.944 500.64 696.264 501.344L698.088 505.28L695.952 506.288ZM688.44 496.664H691.08C692.232 496.664 693.168 496.408 693.888 495.896C694.608 495.384 694.968 494.648 694.968 493.688C694.968 492.888 694.632 492.232 693.96 491.72C693.288 491.192 692.328 490.928 691.08 490.928C690.536 490.928 690.048 490.936 689.616 490.952C689.184 490.968 688.792 490.992 688.44 491.024V496.664ZM701.247 506V493.52H703.407V506H701.247ZM702.327 491.384C701.911 491.384 701.551 491.232 701.247 490.928C700.959 490.624 700.815 490.272 700.815 489.872C700.815 489.408 700.951 489.04 701.223 488.768C701.495 488.496 701.863 488.36 702.327 488.36C702.743 488.36 703.095 488.512 703.383 488.816C703.687 489.104 703.839 489.456 703.839 489.872C703.839 490.32 703.703 490.688 703.431 490.976C703.159 491.248 702.791 491.384 702.327 491.384ZM712.346 511.568C711.61 511.568 710.89 511.48 710.186 511.304C709.498 511.128 708.882 510.864 708.338 510.512L709.13 508.64C709.514 508.944 709.962 509.192 710.474 509.384C710.986 509.592 711.61 509.696 712.346 509.696C713.482 509.696 714.37 509.392 715.01 508.784C715.666 508.192 715.994 507.24 715.994 505.928V504.392C715.674 504.776 715.21 505.144 714.602 505.496C714.01 505.832 713.298 506 712.466 506C711.522 506 710.626 505.76 709.778 505.28C708.93 504.784 708.242 504.064 707.714 503.12C707.186 502.176 706.922 501.04 706.922 499.712C706.922 498.464 707.178 497.352 707.69 496.376C708.218 495.4 708.922 494.632 709.802 494.072C710.682 493.512 711.65 493.232 712.706 493.232C713.41 493.232 714.05 493.352 714.626 493.592C715.202 493.832 715.698 494.128 716.114 494.48V493.52H718.082V505.712C718.082 507.088 717.842 508.208 717.362 509.072C716.882 509.936 716.21 510.568 715.346 510.968C714.498 511.368 713.498 511.568 712.346 511.568ZM712.946 504.08C713.586 504.08 714.162 503.936 714.674 503.648C715.186 503.36 715.602 503.024 715.922 502.64V496.112C715.57 495.856 715.146 495.624 714.65 495.416C714.154 495.208 713.578 495.104 712.922 495.104C712.266 495.104 711.65 495.28 711.074 495.632C710.498 495.984 710.026 496.496 709.658 497.168C709.306 497.824 709.13 498.632 709.13 499.592C709.13 500.504 709.306 501.296 709.658 501.968C710.026 502.64 710.498 503.16 711.074 503.528C711.65 503.896 712.274 504.08 712.946 504.08ZM722.316 506V488.24H724.476V495.512C724.924 494.856 725.492 494.312 726.18 493.88C726.868 493.448 727.676 493.232 728.604 493.232C730.012 493.232 731.06 493.656 731.748 494.504C732.452 495.352 732.804 496.472 732.804 497.864V506H730.644V498.104C730.644 497.208 730.436 496.488 730.02 495.944C729.604 495.4 729.02 495.128 728.268 495.128C727.532 495.128 726.828 495.392 726.156 495.92C725.5 496.432 724.94 497.04 724.476 497.744V506H722.316ZM741.402 506.288C740.202 506.288 739.25 505.896 738.546 505.112C737.858 504.312 737.514 503.176 737.514 501.704V495.848H735.354V493.976H737.562L738.018 490.04H739.674V493.976H743.13V495.848H739.674V501.872C739.674 502.8 739.866 503.448 740.25 503.816C740.65 504.184 741.122 504.368 741.666 504.368C742.066 504.368 742.442 504.304 742.794 504.176C743.162 504.048 743.498 503.896 743.802 503.72L744.402 505.448C744.082 505.64 743.65 505.824 743.106 506C742.562 506.192 741.994 506.288 741.402 506.288Z" fill="#100C0D"/>
<path d="M697.704 629.24L695.832 624.44H688.056L686.184 629.192L684.24 628.4L690.816 612.2H693.312L699.792 628.4L697.704 629.24ZM688.776 622.52H695.088L691.944 614.456L688.776 622.52ZM706.834 629.288C705.634 629.288 704.682 628.896 703.978 628.112C703.29 627.312 702.946 626.176 702.946 624.704V618.848H700.786V616.976H702.994L703.45 613.04H705.106V616.976H708.562V618.848H705.106V624.872C705.106 625.8 705.298 626.448 705.682 626.816C706.082 627.184 706.554 627.368 707.098 627.368C707.498 627.368 707.874 627.304 708.226 627.176C708.594 627.048 708.93 626.896 709.234 626.72L709.834 628.448C709.514 628.64 709.082 628.824 708.538 629C707.994 629.192 707.426 629.288 706.834 629.288ZM716.888 629.288C715.688 629.288 714.736 628.896 714.032 628.112C713.344 627.312 713 626.176 713 624.704V618.848H710.84V616.976H713.048L713.504 613.04H715.16V616.976H718.616V618.848H715.16V624.872C715.16 625.8 715.352 626.448 715.736 626.816C716.136 627.184 716.608 627.368 717.152 627.368C717.552 627.368 717.928 627.304 718.28 627.176C718.648 627.048 718.984 626.896 719.288 626.72L719.888 628.448C719.568 628.64 719.136 628.824 718.592 629C718.048 629.192 717.48 629.288 716.888 629.288ZM726.881 629.288C725.841 629.288 724.897 629.024 724.049 628.496C723.201 627.968 722.521 627.224 722.009 626.264C721.513 625.288 721.265 624.144 721.265 622.832C721.265 621.584 721.513 620.464 722.009 619.472C722.521 618.48 723.217 617.696 724.097 617.12C724.993 616.528 726.017 616.232 727.169 616.232C727.889 616.232 728.537 616.36 729.113 616.616C729.705 616.856 730.217 617.16 730.649 617.528V616.52H732.617V625.976C732.617 626.584 732.761 626.984 733.049 627.176C733.353 627.352 733.681 627.44 734.033 627.44L733.577 629.12C732.041 629.12 731.113 628.496 730.793 627.248C730.425 627.76 729.921 628.232 729.281 628.664C728.657 629.08 727.857 629.288 726.881 629.288ZM727.361 627.368C727.969 627.368 728.545 627.224 729.089 626.936C729.633 626.632 730.089 626.256 730.457 625.808V619.112C730.025 618.808 729.545 618.568 729.017 618.392C728.505 618.2 727.961 618.104 727.385 618.104C726.617 618.104 725.937 618.304 725.345 618.704C724.769 619.088 724.313 619.632 723.977 620.336C723.641 621.024 723.473 621.832 723.473 622.76C723.473 623.656 723.641 624.456 723.977 625.16C724.313 625.848 724.777 626.392 725.369 626.792C725.961 627.176 726.625 627.368 727.361 627.368ZM742.238 629.288C741.054 629.288 740.014 629.016 739.118 628.472C738.238 627.912 737.558 627.144 737.078 626.168C736.598 625.176 736.358 624.04 736.358 622.76C736.358 621.56 736.598 620.464 737.078 619.472C737.574 618.48 738.278 617.696 739.19 617.12C740.102 616.528 741.174 616.232 742.406 616.232C743.11 616.232 743.726 616.296 744.254 616.424C744.798 616.552 745.318 616.736 745.814 616.976L745.166 618.8C744.718 618.576 744.286 618.416 743.87 618.32C743.47 618.208 743.022 618.152 742.526 618.152C741.406 618.152 740.462 618.56 739.694 619.376C738.942 620.176 738.566 621.288 738.566 622.712C738.566 623.576 738.726 624.36 739.046 625.064C739.366 625.768 739.806 626.328 740.366 626.744C740.942 627.16 741.614 627.368 742.382 627.368C742.99 627.368 743.51 627.304 743.942 627.176C744.374 627.032 744.838 626.832 745.334 626.576L746.006 628.4C745.51 628.672 744.95 628.888 744.326 629.048C743.718 629.208 743.022 629.288 742.238 629.288ZM757.649 629.24L751.193 622.592V629H749.033V611.24H751.193V621.392L756.833 616.28L758.081 617.648L753.257 621.92L759.137 627.8L757.649 629.24Z" fill="#100C0D"/>
<rect x="70" y="100" width="78" height="58" rx="5" fill="#EE4266"/>
<path d="M102.96 137V135.224L111.888 122.168H103.368V120.2H114.504V121.928L105.576 134.984H114.84V137H102.96Z" fill="#100C0D"/>
<rect x="70" y="225" width="78" height="58" rx="5" fill="#16C099"/>
<path d="M102.96 262V260.224L111.888 247.168H103.368V245.2H114.504V246.928L105.576 259.984H114.84V262H102.96Z" fill="#100C0D"/>
<rect x="70" y="337" width="78" height="58" rx="5" fill="#FFD23F"/>
<path d="M102.96 374V372.224L111.888 359.168H103.368V357.2H114.504V358.928L105.576 371.984H114.84V374H102.96Z" fill="#100C0D"/>
<rect x="70" y="462" width="78" height="58" rx="5" fill="#4292EE"/>
<path d="M102.96 499V497.224L111.888 484.168H103.368V482.2H114.504V483.928L105.576 496.984H114.84V499H102.96Z" fill="#100C0D"/>
<rect x="183" y="100" width="419" height="58" rx="5" fill="#EE4266"/>
<path d="M386.46 137V135.224L395.388 122.168H386.868V120.2H398.004V121.928L389.076 134.984H398.34V137H386.46Z" fill="#100C0D"/>
<rect x="63.25" y="95.25" width="75.5" height="55.5" rx="3.75" fill="white"/>
<rect x="63.25" y="95.25" width="75.5" height="55.5" rx="3.75" stroke="#100C0D" stroke-width="2.5"/>
<path d="M94.96 131V129.224L103.888 116.168H95.368V114.2H106.504V115.928L97.576 128.984H106.84V131H94.96Z" fill="#100C0D"/>
<rect x="63.25" y="220.25" width="75.5" height="55.5" rx="3.75" fill="white"/>
<rect x="63.25" y="220.25" width="75.5" height="55.5" rx="3.75" stroke="#100C0D" stroke-width="2.5"/>
<path d="M100.5 256.288C99.284 256.288 98.188 256.064 97.212 255.616C96.252 255.152 95.436 254.528 94.764 253.744C94.092 252.944 93.58 252.016 93.228 250.96C92.876 249.904 92.7 248.776 92.7 247.576C92.7 245.928 93.012 244.456 93.636 243.16C94.26 241.848 95.148 240.816 96.3 240.064C97.468 239.296 98.868 238.912 100.5 238.912C101.716 238.912 102.804 239.136 103.764 239.584C104.74 240.032 105.564 240.656 106.236 241.456C106.908 242.256 107.42 243.176 107.772 244.216C108.14 245.256 108.324 246.376 108.324 247.576C108.324 248.824 108.148 249.912 107.796 250.84C107.444 251.752 107.028 252.544 106.548 253.216L108.684 254.392L107.652 256.288L105.324 254.56C104.732 255.056 104.036 255.472 103.236 255.808C102.436 256.128 101.524 256.288 100.5 256.288ZM100.452 254.32C101.108 254.32 101.7 254.24 102.228 254.08C102.772 253.92 103.236 253.72 103.62 253.48L101.796 252.328L102.756 250.576L104.916 252.136C105.3 251.512 105.572 250.832 105.732 250.096C105.908 249.344 105.996 248.504 105.996 247.576C105.996 246.712 105.868 245.88 105.612 245.08C105.372 244.28 105.012 243.568 104.532 242.944C104.068 242.304 103.492 241.8 102.804 241.432C102.132 241.064 101.364 240.88 100.5 240.88C99.348 240.88 98.364 241.176 97.548 241.768C96.732 242.344 96.108 243.136 95.676 244.144C95.244 245.152 95.028 246.296 95.028 247.576C95.028 248.44 95.148 249.28 95.388 250.096C95.628 250.896 95.98 251.616 96.444 252.256C96.908 252.896 97.476 253.4 98.148 253.768C98.82 254.136 99.588 254.32 100.452 254.32Z" fill="#100C0D"/>
<rect x="63.25" y="330.25" width="75.5" height="55.5" rx="3.75" fill="white"/>
<rect x="63.25" y="330.25" width="75.5" height="55.5" rx="3.75" stroke="#100C0D" stroke-width="2.5"/>
<path d="M100.336 366.288C99.168 366.288 98.104 366.136 97.144 365.832C96.184 365.512 95.376 365.096 94.72 364.584L95.872 362.664C96.448 363.144 97.096 363.536 97.816 363.84C98.536 364.144 99.376 364.296 100.336 364.296C101.488 364.296 102.4 364.056 103.072 363.576C103.744 363.096 104.08 362.448 104.08 361.632C104.08 361.168 103.984 360.76 103.792 360.408C103.6 360.04 103.224 359.688 102.664 359.352C102.12 359 101.312 358.624 100.24 358.224C99.088 357.776 98.168 357.328 97.48 356.88C96.792 356.416 96.296 355.896 95.992 355.32C95.704 354.728 95.56 354.032 95.56 353.232C95.56 352.432 95.776 351.712 96.208 351.072C96.656 350.416 97.304 349.896 98.152 349.512C99.016 349.112 100.056 348.912 101.272 348.912C102.264 348.912 103.152 349.016 103.936 349.224C104.736 349.416 105.512 349.696 106.264 350.064L105.424 352.008C104.88 351.688 104.24 351.424 103.504 351.216C102.784 350.992 102.024 350.88 101.224 350.88C100.168 350.88 99.336 351.088 98.728 351.504C98.12 351.92 97.816 352.456 97.816 353.112C97.816 353.528 97.904 353.896 98.08 354.216C98.256 354.536 98.6 354.848 99.112 355.152C99.64 355.456 100.424 355.8 101.464 356.184C102.712 356.648 103.696 357.136 104.416 357.648C105.152 358.16 105.672 358.72 105.976 359.328C106.28 359.92 106.432 360.6 106.432 361.368C106.432 362.408 106.168 363.296 105.64 364.032C105.128 364.768 104.408 365.328 103.48 365.712C102.568 366.096 101.52 366.288 100.336 366.288Z" fill="#100C0D"/>
<rect x="63.25" y="455.25" width="75.5" height="55.5" rx="3.75" fill="white"/>
<rect x="63.25" y="455.25" width="75.5" height="55.5" rx="3.75" stroke="#100C0D" stroke-width="2.5"/>
<path d="M99.076 491.192C98.164 491.192 97.364 491.168 96.676 491.12C96.004 491.072 95.332 491.016 94.66 490.952V474.248C95.412 474.168 96.148 474.112 96.868 474.08C97.588 474.032 98.412 474.008 99.34 474.008C100.78 474.008 102.02 474.232 103.06 474.68C104.116 475.128 104.98 475.744 105.652 476.528C106.34 477.312 106.844 478.224 107.164 479.264C107.5 480.288 107.668 481.392 107.668 482.576C107.668 483.744 107.5 484.848 107.164 485.888C106.828 486.928 106.308 487.848 105.604 488.648C104.916 489.432 104.028 490.056 102.94 490.52C101.868 490.968 100.58 491.192 99.076 491.192ZM99.148 489.2C100.588 489.2 101.764 488.92 102.676 488.36C103.588 487.8 104.26 487.024 104.692 486.032C105.124 485.024 105.34 483.872 105.34 482.576C105.34 481.424 105.124 480.344 104.692 479.336C104.26 478.328 103.596 477.52 102.7 476.912C101.804 476.288 100.66 475.976 99.268 475.976C98.804 475.976 98.38 475.992 97.996 476.024C97.612 476.04 97.26 476.064 96.94 476.096V489.08C97.276 489.128 97.628 489.16 97.996 489.176C98.364 489.192 98.748 489.2 99.148 489.2Z" fill="#100C0D"/>
<rect x="177.25" y="95.25" width="414.5" height="55.5" rx="3.75" fill="white"/>
<rect x="177.25" y="95.25" width="414.5" height="55.5" rx="3.75" stroke="#100C0D" stroke-width="2.5"/>
<path d="M336.336 131.288C335.168 131.288 334.104 131.136 333.144 130.832C332.184 130.512 331.376 130.096 330.72 129.584L331.872 127.664C332.448 128.144 333.096 128.536 333.816 128.84C334.536 129.144 335.376 129.296 336.336 129.296C337.488 129.296 338.4 129.056 339.072 128.576C339.744 128.096 340.08 127.448 340.08 126.632C340.08 126.168 339.984 125.76 339.792 125.408C339.6 125.04 339.224 124.688 338.664 124.352C338.12 124 337.312 123.624 336.24 123.224C335.088 122.776 334.168 122.328 333.48 121.88C332.792 121.416 332.296 120.896 331.992 120.32C331.704 119.728 331.56 119.032 331.56 118.232C331.56 117.432 331.776 116.712 332.208 116.072C332.656 115.416 333.304 114.896 334.152 114.512C335.016 114.112 336.056 113.912 337.272 113.912C338.264 113.912 339.152 114.016 339.936 114.224C340.736 114.416 341.512 114.696 342.264 115.064L341.424 117.008C340.88 116.688 340.24 116.424 339.504 116.216C338.784 115.992 338.024 115.88 337.224 115.88C336.168 115.88 335.336 116.088 334.728 116.504C334.12 116.92 333.816 117.456 333.816 118.112C333.816 118.528 333.904 118.896 334.08 119.216C334.256 119.536 334.6 119.848 335.112 120.152C335.64 120.456 336.424 120.8 337.464 121.184C338.712 121.648 339.696 122.136 340.416 122.648C341.152 123.16 341.672 123.72 341.976 124.328C342.28 124.92 342.432 125.6 342.432 126.368C342.432 127.408 342.168 128.296 341.64 129.032C341.128 129.768 340.408 130.328 339.48 130.712C338.568 131.096 337.52 131.288 336.336 131.288ZM344.801 131V114.248C345.457 114.168 346.177 114.112 346.961 114.08C347.761 114.032 348.585 114.008 349.433 114.008C350.825 114.008 352.009 114.232 352.985 114.68C353.961 115.112 354.705 115.712 355.217 116.48C355.729 117.248 355.985 118.128 355.985 119.12C355.985 120.32 355.689 121.336 355.097 122.168C354.505 123 353.681 123.64 352.625 124.088C351.569 124.52 350.345 124.736 348.953 124.736C348.281 124.736 347.657 124.712 347.081 124.664V131H344.801ZM349.241 122.84C350.665 122.84 351.769 122.52 352.553 121.88C353.337 121.24 353.729 120.384 353.729 119.312C353.729 118.272 353.353 117.448 352.601 116.84C351.849 116.232 350.777 115.928 349.385 115.928C348.953 115.928 348.545 115.936 348.161 115.952C347.777 115.968 347.417 115.992 347.081 116.024V122.72C347.337 122.752 347.649 122.784 348.017 122.816C348.385 122.832 348.793 122.84 349.241 122.84ZM367.86 131.24L365.988 126.44H358.212L356.34 131.192L354.396 130.4L360.972 114.2H363.468L369.948 130.4L367.86 131.24ZM358.932 124.52H365.244L362.1 116.456L358.932 124.52ZM377.335 131.288C375.879 131.288 374.591 130.944 373.471 130.256C372.351 129.552 371.479 128.56 370.855 127.28C370.231 125.984 369.919 124.448 369.919 122.672C369.919 120.96 370.231 119.448 370.855 118.136C371.495 116.808 372.391 115.776 373.543 115.04C374.711 114.288 376.071 113.912 377.623 113.912C378.423 113.912 379.151 113.992 379.807 114.152C380.463 114.296 381.079 114.504 381.655 114.776L380.959 116.696C380.463 116.456 379.951 116.264 379.423 116.12C378.911 115.976 378.303 115.904 377.599 115.904C376.575 115.904 375.655 116.168 374.839 116.696C374.039 117.224 373.407 117.984 372.943 118.976C372.479 119.968 372.247 121.168 372.247 122.576C372.247 123.92 372.471 125.096 372.919 126.104C373.383 127.112 374.015 127.896 374.815 128.456C375.631 129.016 376.559 129.296 377.599 129.296C378.383 129.296 379.063 129.2 379.639 129.008C380.215 128.816 380.775 128.568 381.319 128.264L382.015 130.16C381.423 130.48 380.743 130.752 379.975 130.976C379.223 131.184 378.343 131.288 377.335 131.288ZM384.129 131V114.2H394.209V116.168H386.409V121.28H393.129V123.2H386.409V129.032H394.209V131H384.129ZM401.289 131.192C400.313 131.192 399.385 131.168 398.505 131.12C397.641 131.072 396.953 131.016 396.441 130.952V114.248C397.001 114.184 397.697 114.128 398.529 114.08C399.361 114.032 400.313 114.008 401.385 114.008C403.433 114.008 405.009 114.4 406.113 115.184C407.217 115.952 407.769 117 407.769 118.328C407.769 119.208 407.529 119.96 407.049 120.584C406.585 121.192 405.905 121.696 405.009 122.096C406.097 122.48 406.921 123.016 407.481 123.704C408.041 124.376 408.321 125.208 408.321 126.2C408.321 127.72 407.721 128.936 406.521 129.848C405.321 130.744 403.577 131.192 401.289 131.192ZM398.721 121.448H401.361C402.625 121.448 403.625 121.184 404.361 120.656C405.113 120.128 405.489 119.448 405.489 118.616C405.489 117.72 405.121 117.04 404.385 116.576C403.649 116.096 402.641 115.856 401.361 115.856C400.833 115.856 400.353 115.872 399.921 115.904C399.489 115.92 399.089 115.944 398.721 115.976V121.448ZM401.457 129.296C402.881 129.296 403.993 129.04 404.793 128.528C405.593 128.016 405.993 127.272 405.993 126.296C405.993 125.336 405.601 124.584 404.817 124.04C404.033 123.496 402.913 123.224 401.457 123.224H398.721V129.152C399.569 129.248 400.481 129.296 401.457 129.296ZM422.102 131.24L420.23 126.44H412.454L410.582 131.192L408.638 130.4L415.214 114.2H417.71L424.19 130.4L422.102 131.24ZM413.174 124.52H419.486L416.342 116.456L413.174 124.52ZM435.382 131.288L433.294 126.728C432.766 125.592 432.102 124.784 431.302 124.304C430.502 123.824 429.478 123.584 428.23 123.584H427.87V131H425.59V114.248C426.438 114.168 427.246 114.112 428.014 114.08C428.798 114.032 429.63 114.008 430.51 114.008C432.558 114.008 434.094 114.424 435.118 115.256C436.158 116.088 436.678 117.16 436.678 118.472C436.678 119.64 436.326 120.584 435.622 121.304C434.934 122.008 433.934 122.536 432.622 122.888C433.054 123.08 433.438 123.312 433.774 123.584C434.11 123.84 434.43 124.192 434.734 124.64C435.054 125.072 435.374 125.64 435.694 126.344L437.518 130.28L435.382 131.288ZM427.87 121.664H430.51C431.662 121.664 432.598 121.408 433.318 120.896C434.038 120.384 434.398 119.648 434.398 118.688C434.398 117.888 434.062 117.232 433.39 116.72C432.718 116.192 431.758 115.928 430.51 115.928C429.966 115.928 429.478 115.936 429.046 115.952C428.614 115.968 428.222 115.992 427.87 116.024V121.664Z" fill="#100C0D"/>
<rect x="112.713" y="580.396" width="18.425" height="18.425" rx="9.2125" fill="white" stroke="black" stroke-width="2.79167"/>
<rect x="115.784" y="583.467" width="12.2833" height="12.2833" rx="6.14167" fill="black"/>
<path fill-rule="evenodd" clip-rule="evenodd" d="M134.732 585.418C135.626 585.089 136.494 585.957 136.166 586.851L115.007 644.367C114.444 645.897 112.485 646.328 111.332 645.175L98.609 632.452L80.4208 650.787C79.9853 651.226 79.2758 651.228 78.8385 650.79L70.7928 642.745C70.3555 642.307 70.3569 641.598 70.796 641.162L89.1318 622.974L76.409 610.251C75.2562 609.098 75.6871 607.138 77.2172 606.576L134.732 585.418Z" fill="white" stroke="black" stroke-width="2.79167"/>
<rect x="93.7288" y="587.096" width="18.425" height="18.425" rx="9.2125" fill="white" stroke="black" stroke-width="2.79167"/>
<rect x="96.7998" y="590.167" width="12.2833" height="12.2833" rx="6.14167" fill="black"/>
<path d="M119.134 597.983C120.995 599.658 126.057 602.338 131.417 599.658" stroke="black" stroke-width="2.79167" stroke-linecap="round"/>
</svg>
