<svg width="326" height="203" viewBox="0 0 326 203" fill="none" xmlns="http://www.w3.org/2000/svg">
<rect width="326" height="50" fill="#DAEBFF"/>
<path d="M31.8 31.5V17.5H33.7V31.5H31.8ZM37.1078 31.5V21.1H38.8478V22.84C39.2211 22.28 39.6945 21.8133 40.2678 21.44C40.8545 21.0533 41.5478 20.86 42.3478 20.86C43.5211 20.86 44.3945 21.2133 44.9678 21.92C45.5545 22.6267 45.8478 23.56 45.8478 24.72V31.5H44.0478V24.92C44.0478 24.1733 43.8678 23.5733 43.5078 23.12C43.1611 22.6667 42.6745 22.44 42.0478 22.44C41.4345 22.44 40.8545 22.66 40.3078 23.1C39.7611 23.5267 39.2945 24.0333 38.9078 24.62V31.5H37.1078ZM49.1438 31.5V23.04H47.5438V21.48H49.1438V20.26C49.1438 19.0867 49.4704 18.16 50.1238 17.48C50.7771 16.8 51.6304 16.46 52.6838 16.46C53.2304 16.46 53.7104 16.5267 54.1238 16.66C54.5371 16.78 54.9304 16.9333 55.3038 17.12L54.7638 18.64C54.4838 18.4933 54.1838 18.36 53.8638 18.24C53.5438 18.12 53.1904 18.06 52.8038 18.06C52.2438 18.06 51.7904 18.24 51.4438 18.6C51.1104 18.9467 50.9438 19.46 50.9438 20.14V21.48H54.0238V23.04H50.9438V31.5H49.1438ZM59.9839 31.74C58.9972 31.74 58.1106 31.5133 57.3239 31.06C56.5372 30.5933 55.9172 29.9533 55.4639 29.14C55.0239 28.3133 54.8039 27.3667 54.8039 26.3C54.8039 25.18 55.0306 24.2133 55.4839 23.4C55.9372 22.5867 56.5572 21.96 57.3439 21.52C58.1306 21.08 59.0106 20.86 59.9839 20.86C60.9572 20.86 61.8306 21.08 62.6039 21.52C63.3906 21.96 64.0106 22.5867 64.4639 23.4C64.9306 24.2 65.1639 25.1533 65.1639 26.26C65.1639 27.3667 64.9372 28.3333 64.4839 29.16C64.0306 29.9733 63.4106 30.6067 62.6239 31.06C61.8506 31.5133 60.9706 31.74 59.9839 31.74ZM59.9839 30.14C61.0372 30.14 61.8572 29.7867 62.4439 29.08C63.0306 28.36 63.3239 27.4333 63.3239 26.3C63.3239 25.6067 63.1772 24.9733 62.8839 24.4C62.5906 23.8133 62.1906 23.3467 61.6839 23C61.1906 22.64 60.6239 22.46 59.9839 22.46C58.9306 22.46 58.1106 22.8067 57.5239 23.5C56.9372 24.1933 56.6439 25.1133 56.6439 26.26C56.6439 26.9533 56.7906 27.6 57.0839 28.2C57.3772 28.7867 57.7706 29.26 58.2639 29.62C58.7706 29.9667 59.3439 30.14 59.9839 30.14ZM67.557 31.5V21.1H69.297V23.36C69.4704 22.92 69.7037 22.5133 69.997 22.14C70.2904 21.7533 70.657 21.4467 71.097 21.22C71.537 20.98 72.0504 20.86 72.637 20.86C72.837 20.86 73.037 20.8733 73.237 20.9C73.437 20.9133 73.6037 20.94 73.737 20.98L73.197 22.84C72.9437 22.7333 72.6437 22.68 72.297 22.68C71.8037 22.68 71.3304 22.82 70.877 23.1C70.437 23.38 70.0704 23.8133 69.777 24.4C69.497 24.9867 69.357 25.7333 69.357 26.64V31.5H67.557ZM75.5453 31.5V21.1H77.2853V22.84C77.6586 22.28 78.132 21.8133 78.7053 21.44C79.2786 21.0533 79.932 20.86 80.6653 20.86C81.492 20.86 82.1653 21.06 82.6853 21.46C83.2186 21.86 83.592 22.3933 83.8053 23.06C84.2186 22.4467 84.7053 21.9267 85.2653 21.5C85.8386 21.0733 86.5453 20.86 87.3853 20.86C88.5186 20.86 89.3586 21.22 89.9053 21.94C90.4653 22.6467 90.7453 23.5733 90.7453 24.72V31.5H88.9453V24.86C88.9453 24.14 88.7786 23.56 88.4453 23.12C88.112 22.6667 87.652 22.44 87.0653 22.44C86.4653 22.44 85.9053 22.6667 85.3853 23.12C84.8786 23.56 84.432 24.08 84.0453 24.68V31.5H82.2453V24.86C82.2453 24.14 82.0786 23.56 81.7453 23.12C81.412 22.6667 80.952 22.44 80.3653 22.44C79.7786 22.44 79.2253 22.66 78.7053 23.1C78.1853 23.5267 77.732 24.0333 77.3453 24.62V31.5H75.5453ZM97.8261 31.74C96.9594 31.74 96.1728 31.52 95.4661 31.08C94.7594 30.64 94.1928 30.02 93.7661 29.22C93.3528 28.4067 93.1461 27.4533 93.1461 26.36C93.1461 25.32 93.3528 24.3867 93.7661 23.56C94.1928 22.7333 94.7728 22.08 95.5061 21.6C96.2528 21.1067 97.1061 20.86 98.0661 20.86C98.6661 20.86 99.2061 20.9667 99.6861 21.18C100.179 21.38 100.606 21.6333 100.966 21.94V21.1H102.606V28.98C102.606 29.4867 102.726 29.82 102.966 29.98C103.219 30.1267 103.493 30.2 103.786 30.2L103.406 31.6C102.126 31.6 101.353 31.08 101.086 30.04C100.779 30.4667 100.359 30.86 99.8261 31.22C99.3061 31.5667 98.6394 31.74 97.8261 31.74ZM98.2261 30.14C98.7328 30.14 99.2128 30.02 99.6661 29.78C100.119 29.5267 100.499 29.2133 100.806 28.84V23.26C100.446 23.0067 100.046 22.8067 99.6061 22.66C99.1794 22.5 98.7261 22.42 98.2461 22.42C97.6061 22.42 97.0394 22.5867 96.5461 22.92C96.0661 23.24 95.6861 23.6933 95.4061 24.28C95.1261 24.8533 94.9861 25.5267 94.9861 26.3C94.9861 27.0467 95.1261 27.7133 95.4061 28.3C95.6861 28.8733 96.0728 29.3267 96.5661 29.66C97.0594 29.98 97.6128 30.14 98.2261 30.14ZM109.83 31.74C108.83 31.74 108.037 31.4133 107.45 30.76C106.877 30.0933 106.59 29.1467 106.59 27.92V23.04H104.79V21.48H106.63L107.01 18.2H108.39V21.48H111.27V23.04H108.39V28.06C108.39 28.8333 108.55 29.3733 108.87 29.68C109.203 29.9867 109.597 30.14 110.05 30.14C110.383 30.14 110.697 30.0867 110.99 29.98C111.297 29.8733 111.577 29.7467 111.83 29.6L112.33 31.04C112.063 31.2 111.703 31.3533 111.25 31.5C110.797 31.66 110.323 31.74 109.83 31.74ZM114.139 31.5V21.1H115.939V31.5H114.139ZM115.039 19.32C114.692 19.32 114.392 19.1933 114.139 18.94C113.899 18.6867 113.779 18.3933 113.779 18.06C113.779 17.6733 113.892 17.3667 114.119 17.14C114.346 16.9133 114.652 16.8 115.039 16.8C115.386 16.8 115.679 16.9267 115.919 17.18C116.172 17.42 116.299 17.7133 116.299 18.06C116.299 18.4333 116.186 18.74 115.959 18.98C115.732 19.2067 115.426 19.32 115.039 19.32ZM123.519 31.74C122.532 31.74 121.646 31.5133 120.859 31.06C120.072 30.5933 119.452 29.9533 118.999 29.14C118.559 28.3133 118.339 27.3667 118.339 26.3C118.339 25.18 118.566 24.2133 119.019 23.4C119.472 22.5867 120.092 21.96 120.879 21.52C121.666 21.08 122.546 20.86 123.519 20.86C124.492 20.86 125.366 21.08 126.139 21.52C126.926 21.96 127.546 22.5867 127.999 23.4C128.466 24.2 128.699 25.1533 128.699 26.26C128.699 27.3667 128.472 28.3333 128.019 29.16C127.566 29.9733 126.946 30.6067 126.159 31.06C125.386 31.5133 124.506 31.74 123.519 31.74ZM123.519 30.14C124.572 30.14 125.392 29.7867 125.979 29.08C126.566 28.36 126.859 27.4333 126.859 26.3C126.859 25.6067 126.712 24.9733 126.419 24.4C126.126 23.8133 125.726 23.3467 125.219 23C124.726 22.64 124.159 22.46 123.519 22.46C122.466 22.46 121.646 22.8067 121.059 23.5C120.472 24.1933 120.179 25.1133 120.179 26.26C120.179 26.9533 120.326 27.6 120.619 28.2C120.912 28.7867 121.306 29.26 121.799 29.62C122.306 29.9667 122.879 30.14 123.519 30.14ZM131.092 31.5V21.1H132.832V22.84C133.206 22.28 133.679 21.8133 134.252 21.44C134.839 21.0533 135.532 20.86 136.332 20.86C137.506 20.86 138.379 21.2133 138.952 21.92C139.539 22.6267 139.832 23.56 139.832 24.72V31.5H138.032V24.92C138.032 24.1733 137.852 23.5733 137.492 23.12C137.146 22.6667 136.659 22.44 136.032 22.44C135.419 22.44 134.839 22.66 134.292 23.1C133.746 23.5267 133.279 24.0333 132.892 24.62V31.5H131.092Z" fill="black"/>
<rect x="260" width="66" height="50" fill="#4292EE"/>
<path d="M302.05 17L283.56 35.4897" stroke="black" stroke-width="3" stroke-linecap="round"/>
<path d="M301.489 35.4897L283 17" stroke="black" stroke-width="3" stroke-linecap="round"/>
<rect y="50" width="326" height="153" fill="white"/>
<path d="M54.9252 100V94.68L50.0652 86.78L51.6652 85.82L55.9452 92.92L60.1452 85.9L61.6452 86.78L56.8252 94.68V100H54.9252ZM66.5093 100.24C65.5226 100.24 64.636 100.013 63.8493 99.56C63.0626 99.0933 62.4426 98.4533 61.9893 97.64C61.5493 96.8133 61.3293 95.8667 61.3293 94.8C61.3293 93.68 61.556 92.7133 62.0093 91.9C62.4626 91.0867 63.0826 90.46 63.8693 90.02C64.656 89.58 65.536 89.36 66.5093 89.36C67.4826 89.36 68.356 89.58 69.1293 90.02C69.916 90.46 70.536 91.0867 70.9893 91.9C71.456 92.7 71.6893 93.6533 71.6893 94.76C71.6893 95.8667 71.4626 96.8333 71.0093 97.66C70.556 98.4733 69.936 99.1067 69.1493 99.56C68.376 100.013 67.496 100.24 66.5093 100.24ZM66.5093 98.64C67.5626 98.64 68.3826 98.2867 68.9693 97.58C69.556 96.86 69.8493 95.9333 69.8493 94.8C69.8493 94.1067 69.7026 93.4733 69.4093 92.9C69.116 92.3133 68.716 91.8467 68.2093 91.5C67.716 91.14 67.1493 90.96 66.5093 90.96C65.456 90.96 64.636 91.3067 64.0493 92C63.4626 92.6933 63.1693 93.6133 63.1693 94.76C63.1693 95.4533 63.316 96.1 63.6093 96.7C63.9026 97.2867 64.296 97.76 64.7893 98.12C65.296 98.4667 65.8693 98.64 66.5093 98.64ZM77.4824 100.24C76.8824 100.24 76.3158 100.113 75.7824 99.86C75.2491 99.6067 74.8158 99.2 74.4824 98.64C74.1491 98.0667 73.9824 97.3067 73.9824 96.36V89.6H75.7824V96.12C75.7824 96.9333 75.9558 97.56 76.3024 98C76.6491 98.4267 77.1558 98.64 77.8224 98.64C78.3691 98.64 78.8958 98.5333 79.4024 98.32C79.9224 98.0933 80.3824 97.7933 80.7824 97.42V89.6H82.5824V97.3C82.5824 97.8733 82.7024 98.2533 82.9424 98.44C83.1958 98.6133 83.4691 98.7 83.7624 98.7L83.3824 100.1C82.1424 100.1 81.3758 99.6067 81.0824 98.62C80.6158 99.1 80.0758 99.4933 79.4624 99.8C78.8491 100.093 78.1891 100.24 77.4824 100.24ZM86.1527 100V89.6H87.8927V91.86C88.0661 91.42 88.2994 91.0133 88.5927 90.64C88.8861 90.2533 89.2527 89.9467 89.6927 89.72C90.1327 89.48 90.6461 89.36 91.2327 89.36C91.4327 89.36 91.6327 89.3733 91.8327 89.4C92.0327 89.4133 92.1994 89.44 92.3327 89.48L91.7927 91.34C91.5394 91.2333 91.2394 91.18 90.8927 91.18C90.3994 91.18 89.9261 91.32 89.4727 91.6C89.0327 91.88 88.6661 92.3133 88.3727 92.9C88.0927 93.4867 87.9527 94.2333 87.9527 95.14V100H86.1527ZM102.937 100.24C102.15 100.24 101.437 100.14 100.797 99.94C100.17 99.74 99.6504 99.48 99.2371 99.16L99.9971 97.66C100.344 97.9533 100.777 98.2 101.297 98.4C101.83 98.5867 102.397 98.68 102.997 98.68C103.744 98.68 104.304 98.56 104.677 98.32C105.064 98.0667 105.257 97.7467 105.257 97.36C105.257 97.08 105.184 96.8333 105.037 96.62C104.904 96.4067 104.65 96.2 104.277 96C103.904 95.7867 103.364 95.56 102.657 95.32C101.684 94.9867 100.95 94.5933 100.457 94.14C99.9771 93.6733 99.7371 93.0333 99.7371 92.22C99.7371 91.42 100.084 90.7467 100.777 90.2C101.484 89.64 102.457 89.36 103.697 89.36C104.364 89.36 104.957 89.4333 105.477 89.58C105.997 89.7133 106.464 89.8867 106.877 90.1L106.377 91.58C106.017 91.3667 105.604 91.1933 105.137 91.06C104.684 90.9267 104.177 90.86 103.617 90.86C102.924 90.86 102.397 91 102.037 91.28C101.677 91.56 101.497 91.8667 101.497 92.2C101.497 92.52 101.637 92.7933 101.917 93.02C102.197 93.2467 102.744 93.4933 103.557 93.76C104.877 94.2 105.797 94.6867 106.317 95.22C106.837 95.7533 107.097 96.42 107.097 97.22C107.097 98.1533 106.717 98.8933 105.957 99.44C105.21 99.9733 104.204 100.24 102.937 100.24ZM113.133 100.24C112.133 100.24 111.339 99.9133 110.753 99.26C110.179 98.5933 109.893 97.6467 109.893 96.42V91.54H108.093V89.98H109.933L110.313 86.7H111.693V89.98H114.573V91.54H111.693V96.56C111.693 97.3333 111.853 97.8733 112.173 98.18C112.506 98.4867 112.899 98.64 113.353 98.64C113.686 98.64 113.999 98.5867 114.293 98.48C114.599 98.3733 114.879 98.2467 115.133 98.1L115.633 99.54C115.366 99.7 115.006 99.8533 114.553 100C114.099 100.16 113.626 100.24 113.133 100.24ZM121.431 100.24C120.445 100.24 119.558 100.013 118.771 99.56C117.985 99.0933 117.365 98.4533 116.911 97.64C116.471 96.8133 116.251 95.8667 116.251 94.8C116.251 93.68 116.478 92.7133 116.931 91.9C117.385 91.0867 118.005 90.46 118.791 90.02C119.578 89.58 120.458 89.36 121.431 89.36C122.405 89.36 123.278 89.58 124.051 90.02C124.838 90.46 125.458 91.0867 125.911 91.9C126.378 92.7 126.611 93.6533 126.611 94.76C126.611 95.8667 126.385 96.8333 125.931 97.66C125.478 98.4733 124.858 99.1067 124.071 99.56C123.298 100.013 122.418 100.24 121.431 100.24ZM121.431 98.64C122.485 98.64 123.305 98.2867 123.891 97.58C124.478 96.86 124.771 95.9333 124.771 94.8C124.771 94.1067 124.625 93.4733 124.331 92.9C124.038 92.3133 123.638 91.8467 123.131 91.5C122.638 91.14 122.071 90.96 121.431 90.96C120.378 90.96 119.558 91.3067 118.971 92C118.385 92.6933 118.091 93.6133 118.091 94.76C118.091 95.4533 118.238 96.1 118.531 96.7C118.825 97.2867 119.218 97.76 119.711 98.12C120.218 98.4667 120.791 98.64 121.431 98.64ZM129.004 100V89.6H130.744V91.86C130.918 91.42 131.151 91.0133 131.444 90.64C131.738 90.2533 132.104 89.9467 132.544 89.72C132.984 89.48 133.498 89.36 134.084 89.36C134.284 89.36 134.484 89.3733 134.684 89.4C134.884 89.4133 135.051 89.44 135.184 89.48L134.644 91.34C134.391 91.2333 134.091 91.18 133.744 91.18C133.251 91.18 132.778 91.32 132.324 91.6C131.884 91.88 131.518 92.3133 131.224 92.9C130.944 93.4867 130.804 94.2333 130.804 95.14V100H129.004ZM140.367 100.24C139.5 100.24 138.714 100.02 138.007 99.58C137.3 99.14 136.734 98.52 136.307 97.72C135.894 96.9067 135.687 95.9533 135.687 94.86C135.687 93.82 135.894 92.8867 136.307 92.06C136.734 91.2333 137.314 90.58 138.047 90.1C138.794 89.6067 139.647 89.36 140.607 89.36C141.207 89.36 141.747 89.4667 142.227 89.68C142.72 89.88 143.147 90.1333 143.507 90.44V89.6H145.147V97.48C145.147 97.9867 145.267 98.32 145.507 98.48C145.76 98.6267 146.034 98.7 146.327 98.7L145.947 100.1C144.667 100.1 143.894 99.58 143.627 98.54C143.32 98.9667 142.9 99.36 142.367 99.72C141.847 100.067 141.18 100.24 140.367 100.24ZM140.767 98.64C141.274 98.64 141.754 98.52 142.207 98.28C142.66 98.0267 143.04 97.7133 143.347 97.34V91.76C142.987 91.5067 142.587 91.3067 142.147 91.16C141.72 91 141.267 90.92 140.787 90.92C140.147 90.92 139.58 91.0867 139.087 91.42C138.607 91.74 138.227 92.1933 137.947 92.78C137.667 93.3533 137.527 94.0267 137.527 94.8C137.527 95.5467 137.667 96.2133 137.947 96.8C138.227 97.3733 138.614 97.8267 139.107 98.16C139.6 98.48 140.154 98.64 140.767 98.64ZM152.356 104.64C151.742 104.64 151.142 104.567 150.556 104.42C149.982 104.273 149.469 104.053 149.016 103.76L149.676 102.2C149.996 102.453 150.369 102.66 150.796 102.82C151.222 102.993 151.742 103.08 152.356 103.08C153.302 103.08 154.042 102.827 154.576 102.32C155.122 101.827 155.396 101.033 155.396 99.94V98.66C155.129 98.98 154.742 99.2867 154.236 99.58C153.742 99.86 153.149 100 152.456 100C151.669 100 150.922 99.8 150.216 99.4C149.509 98.9867 148.936 98.3867 148.496 97.6C148.056 96.8133 147.836 95.8667 147.836 94.76C147.836 93.72 148.049 92.7933 148.476 91.98C148.916 91.1667 149.502 90.5267 150.236 90.06C150.969 89.5933 151.776 89.36 152.656 89.36C153.242 89.36 153.776 89.46 154.256 89.66C154.736 89.86 155.149 90.1067 155.496 90.4V89.6H157.136V99.76C157.136 100.907 156.936 101.84 156.536 102.56C156.136 103.28 155.576 103.807 154.856 104.14C154.149 104.473 153.316 104.64 152.356 104.64ZM152.856 98.4C153.389 98.4 153.869 98.28 154.296 98.04C154.722 97.8 155.069 97.52 155.336 97.2V91.76C155.042 91.5467 154.689 91.3533 154.276 91.18C153.862 91.0067 153.382 90.92 152.836 90.92C152.289 90.92 151.776 91.0667 151.296 91.36C150.816 91.6533 150.422 92.08 150.116 92.64C149.822 93.1867 149.676 93.86 149.676 94.66C149.676 95.42 149.822 96.08 150.116 96.64C150.422 97.2 150.816 97.6333 151.296 97.94C151.776 98.2467 152.296 98.4 152.856 98.4ZM164.395 100.24C162.901 100.24 161.715 99.7667 160.835 98.82C159.968 97.86 159.535 96.52 159.535 94.8C159.535 93.76 159.728 92.8333 160.115 92.02C160.515 91.1933 161.068 90.5467 161.775 90.08C162.481 89.6 163.301 89.36 164.235 89.36C165.235 89.36 166.061 89.58 166.715 90.02C167.381 90.4467 167.881 91.0267 168.215 91.76C168.548 92.4933 168.715 93.3 168.715 94.18C168.715 94.6467 168.695 95.1 168.655 95.54H161.375C161.495 96.5133 161.835 97.2733 162.395 97.82C162.955 98.3667 163.695 98.64 164.615 98.64C165.215 98.64 165.755 98.58 166.235 98.46C166.715 98.3267 167.175 98.16 167.615 97.96L168.035 99.5C167.555 99.7133 167.015 99.8867 166.415 100.02C165.815 100.167 165.141 100.24 164.395 100.24ZM161.355 94.08H167.055C167.055 93.0667 166.801 92.2867 166.295 91.74C165.788 91.1933 165.088 90.92 164.195 90.92C163.421 90.92 162.781 91.1933 162.275 91.74C161.768 92.2733 161.461 93.0533 161.355 94.08ZM177.11 100V89.6H178.91V100H177.11ZM178.01 87.82C177.663 87.82 177.363 87.6933 177.11 87.44C176.87 87.1867 176.75 86.8933 176.75 86.56C176.75 86.1733 176.863 85.8667 177.09 85.64C177.316 85.4133 177.623 85.3 178.01 85.3C178.356 85.3 178.65 85.4267 178.89 85.68C179.143 85.92 179.27 86.2133 179.27 86.56C179.27 86.9333 179.156 87.24 178.93 87.48C178.703 87.7067 178.396 87.82 178.01 87.82ZM184.91 100.24C184.123 100.24 183.41 100.14 182.77 99.94C182.143 99.74 181.623 99.48 181.21 99.16L181.97 97.66C182.316 97.9533 182.75 98.2 183.27 98.4C183.803 98.5867 184.37 98.68 184.97 98.68C185.716 98.68 186.276 98.56 186.65 98.32C187.036 98.0667 187.23 97.7467 187.23 97.36C187.23 97.08 187.156 96.8333 187.01 96.62C186.876 96.4067 186.623 96.2 186.25 96C185.876 95.7867 185.336 95.56 184.63 95.32C183.656 94.9867 182.923 94.5933 182.43 94.14C181.95 93.6733 181.71 93.0333 181.71 92.22C181.71 91.42 182.056 90.7467 182.75 90.2C183.456 89.64 184.43 89.36 185.67 89.36C186.336 89.36 186.93 89.4333 187.45 89.58C187.97 89.7133 188.436 89.8867 188.85 90.1L188.35 91.58C187.99 91.3667 187.576 91.1933 187.11 91.06C186.656 90.9267 186.15 90.86 185.59 90.86C184.896 90.86 184.37 91 184.01 91.28C183.65 91.56 183.47 91.8667 183.47 92.2C183.47 92.52 183.61 92.7933 183.89 93.02C184.17 93.2467 184.716 93.4933 185.53 93.76C186.85 94.2 187.77 94.6867 188.29 95.22C188.81 95.7533 189.07 96.42 189.07 97.22C189.07 98.1533 188.69 98.8933 187.93 99.44C187.183 99.9733 186.176 100.24 184.91 100.24ZM201.441 100.24C200.575 100.24 199.788 100.02 199.081 99.58C198.375 99.14 197.808 98.52 197.381 97.72C196.968 96.9067 196.761 95.9533 196.761 94.86C196.761 93.82 196.968 92.8867 197.381 92.06C197.808 91.2333 198.388 90.58 199.121 90.1C199.868 89.6067 200.721 89.36 201.681 89.36C202.281 89.36 202.821 89.4667 203.301 89.68C203.795 89.88 204.221 90.1333 204.581 90.44V89.6H206.221V97.48C206.221 97.9867 206.341 98.32 206.581 98.48C206.835 98.6267 207.108 98.7 207.401 98.7L207.021 100.1C205.741 100.1 204.968 99.58 204.701 98.54C204.395 98.9667 203.975 99.36 203.441 99.72C202.921 100.067 202.255 100.24 201.441 100.24ZM201.841 98.64C202.348 98.64 202.828 98.52 203.281 98.28C203.735 98.0267 204.115 97.7133 204.421 97.34V91.76C204.061 91.5067 203.661 91.3067 203.221 91.16C202.795 91 202.341 90.92 201.861 90.92C201.221 90.92 200.655 91.0867 200.161 91.42C199.681 91.74 199.301 92.1933 199.021 92.78C198.741 93.3533 198.601 94.0267 198.601 94.8C198.601 95.5467 198.741 96.2133 199.021 96.8C199.301 97.3733 199.688 97.8267 200.181 98.16C200.675 98.48 201.228 98.64 201.841 98.64ZM213.445 100.24C212.445 100.24 211.652 99.9133 211.065 99.26C210.492 98.5933 210.205 97.6467 210.205 96.42V91.54H208.405V89.98H210.245L210.625 86.7H212.005V89.98H214.885V91.54H212.005V96.56C212.005 97.3333 212.165 97.8733 212.485 98.18C212.818 98.4867 213.212 98.64 213.665 98.64C213.998 98.64 214.312 98.5867 214.605 98.48C214.912 98.3733 215.192 98.2467 215.445 98.1L215.945 99.54C215.678 99.7 215.318 99.8533 214.865 100C214.412 100.16 213.938 100.24 213.445 100.24ZM225.03 100V98.4H227.89V88.3L225.21 90.32L224.23 88.98L228.37 86H229.69V98.4H232.07V100H225.03ZM240.123 100.24C238.563 100.24 237.376 99.6067 236.563 98.34C235.749 97.06 235.343 95.2733 235.343 92.98C235.343 90.6733 235.756 88.8933 236.583 87.64C237.423 86.3867 238.616 85.76 240.163 85.76C241.723 85.76 242.909 86.3933 243.723 87.66C244.536 88.9267 244.943 90.7133 244.943 93.02C244.943 95.3267 244.523 97.1067 243.683 98.36C242.856 99.6133 241.669 100.24 240.123 100.24ZM240.143 98.6C240.743 98.6 241.256 98.4267 241.683 98.08C242.123 97.72 242.456 97.1333 242.683 96.32C242.923 95.5067 243.043 94.4133 243.043 93.04C243.043 91.2 242.783 89.8 242.263 88.84C241.756 87.88 241.049 87.4 240.143 87.4C239.543 87.4 239.023 87.58 238.583 87.94C238.156 88.2867 237.823 88.8667 237.583 89.68C237.356 90.48 237.243 91.5733 237.243 92.96C237.243 94.8 237.496 96.2 238.003 97.16C238.523 98.12 239.236 98.6 240.143 98.6ZM249.015 100V98.4H251.875V88.3L249.195 90.32L248.215 88.98L252.355 86H253.675V98.4H256.055V100H249.015ZM263.307 100.8L262.107 100.04L270.847 85.2L272.047 85.96L263.307 100.8ZM262.287 94.6C261.18 94.6 260.334 94.2133 259.747 93.44C259.174 92.6667 258.887 91.5867 258.887 90.2C258.887 88.8133 259.18 87.7467 259.767 87C260.367 86.24 261.214 85.86 262.307 85.86C263.414 85.86 264.26 86.24 264.847 87C265.434 87.7467 265.727 88.8133 265.727 90.2C265.727 91.5733 265.427 92.6533 264.827 93.44C264.24 94.2133 263.394 94.6 262.287 94.6ZM262.307 93.26C262.867 93.26 263.3 93.0333 263.607 92.58C263.914 92.1267 264.067 91.3333 264.067 90.2C264.067 89.2133 263.914 88.4667 263.607 87.96C263.3 87.44 262.86 87.18 262.287 87.18C261.754 87.18 261.327 87.4067 261.007 87.86C260.7 88.3 260.547 89.08 260.547 90.2C260.547 91.2 260.7 91.96 261.007 92.48C261.314 93 261.747 93.26 262.307 93.26ZM271.927 100.12C270.82 100.12 269.974 99.7333 269.387 98.96C268.814 98.1867 268.527 97.1067 268.527 95.72C268.527 94.3333 268.82 93.2667 269.407 92.52C270.007 91.76 270.854 91.38 271.947 91.38C273.054 91.38 273.9 91.76 274.487 92.52C275.074 93.2667 275.367 94.3333 275.367 95.72C275.367 97.0933 275.067 98.1733 274.467 98.96C273.88 99.7333 273.034 100.12 271.927 100.12ZM271.947 98.78C272.507 98.78 272.94 98.5533 273.247 98.1C273.554 97.6467 273.707 96.8533 273.707 95.72C273.707 94.7333 273.554 93.9867 273.247 93.48C272.94 92.96 272.5 92.7 271.927 92.7C271.394 92.7 270.967 92.9267 270.647 93.38C270.34 93.82 270.187 94.6 270.187 95.72C270.187 96.72 270.34 97.48 270.647 98C270.954 98.52 271.387 98.78 271.947 98.78Z" fill="black"/>
<rect x="123.25" y="128.25" width="79.5" height="55.5" rx="3.75" stroke="#100C0D" stroke-width="2.5"/>
<path d="M156.12 164.288C154.872 164.288 153.76 164.064 152.784 163.616C151.808 163.152 150.976 162.528 150.288 161.744C149.616 160.944 149.096 160.016 148.728 158.96C148.376 157.904 148.2 156.776 148.2 155.576C148.2 153.928 148.512 152.456 149.136 151.16C149.776 149.848 150.688 148.816 151.872 148.064C153.056 147.296 154.472 146.912 156.12 146.912C157.352 146.912 158.456 147.136 159.432 147.584C160.424 148.032 161.264 148.656 161.952 149.456C162.64 150.256 163.16 151.176 163.512 152.216C163.88 153.256 164.064 154.376 164.064 155.576C164.064 156.776 163.88 157.904 163.512 158.96C163.16 160.016 162.64 160.944 161.952 161.744C161.264 162.528 160.432 163.152 159.456 163.616C158.48 164.064 157.368 164.288 156.12 164.288ZM156.12 162.32C157.352 162.32 158.384 162.024 159.216 161.432C160.048 160.84 160.672 160.04 161.088 159.032C161.52 158.008 161.736 156.856 161.736 155.576C161.736 154.712 161.608 153.88 161.352 153.08C161.096 152.28 160.728 151.568 160.248 150.944C159.768 150.304 159.176 149.8 158.472 149.432C157.784 149.064 157 148.88 156.12 148.88C154.952 148.88 153.944 149.176 153.096 149.768C152.264 150.36 151.624 151.16 151.176 152.168C150.744 153.176 150.528 154.312 150.528 155.576C150.528 156.44 150.648 157.28 150.888 158.096C151.144 158.896 151.512 159.616 151.992 160.256C152.472 160.896 153.056 161.4 153.744 161.768C154.448 162.136 155.24 162.32 156.12 162.32ZM176.858 164.288L168.698 156.272V164H166.418V147.2H168.698V154.856L175.85 147.128L177.386 148.544L170.834 155.36L178.442 162.656L176.858 164.288Z" fill="#100C0D"/>
</svg>
