<svg width="38" height="38" viewBox="0 0 38 38" fill="none" xmlns="http://www.w3.org/2000/svg">
<path d="M26.7231 19C26.7231 23.2652 23.2654 26.7228 19.0002 26.7228C14.735 26.7228 11.2773 23.2652 11.2773 19C11.2773 14.7347 14.735 11.2771 19.0002 11.2771C23.2654 11.2771 26.7231 14.7347 26.7231 19Z" fill="#0EAD69" stroke="black" stroke-width="3" stroke-miterlimit="10"/>
<path d="M19 5.07619C19.8495 5.07619 20.5381 4.38756 20.5381 3.5381C20.5381 2.68863 19.8495 2 19 2C18.1505 2 17.4619 2.68863 17.4619 3.5381C17.4619 4.38756 18.1505 5.07619 19 5.07619Z" stroke="black" stroke-width="3" stroke-miterlimit="10"/>
<path d="M19 36C19.8495 36 20.5381 35.3114 20.5381 34.4619C20.5381 33.6125 19.8495 32.9238 19 32.9238C18.1505 32.9238 17.4619 33.6125 17.4619 34.4619C17.4619 35.3114 18.1505 36 19 36Z" stroke="black" stroke-width="3" stroke-miterlimit="10"/>
<path d="M3.5381 20.5381C4.38756 20.5381 5.07619 19.8495 5.07619 19C5.07619 18.1505 4.38756 17.4619 3.5381 17.4619C2.68863 17.4619 2 18.1505 2 19C2 19.8495 2.68863 20.5381 3.5381 20.5381Z" stroke="black" stroke-width="3" stroke-miterlimit="10"/>
<path d="M34.4619 20.5381C35.3114 20.5381 36 19.8495 36 19C36 18.1505 35.3114 17.4619 34.4619 17.4619C33.6125 17.4619 32.9238 18.1505 32.9238 19C32.9238 19.8495 33.6125 20.5381 34.4619 20.5381Z" stroke="black" stroke-width="3" stroke-miterlimit="10"/>
<path d="M8.0713 9.60951C8.92076 9.60951 9.60939 8.92089 9.60939 8.07142C9.60939 7.22195 8.92076 6.53333 8.0713 6.53333C7.22183 6.53333 6.5332 7.22195 6.5332 8.07142C6.5332 8.92089 7.22183 9.60951 8.0713 9.60951Z" stroke="black" stroke-width="3" stroke-miterlimit="10"/>
<path d="M29.9287 31.4667C30.7782 31.4667 31.4668 30.7781 31.4668 29.9286C31.4668 29.0791 30.7782 28.3905 29.9287 28.3905C29.0793 28.3905 28.3906 29.0791 28.3906 29.9286C28.3906 30.7781 29.0793 31.4667 29.9287 31.4667Z" stroke="black" stroke-width="3" stroke-miterlimit="10"/>
<path d="M8.0713 31.4667C8.92076 31.4667 9.60939 30.7781 9.60939 29.9286C9.60939 29.0791 8.92076 28.3905 8.0713 28.3905C7.22183 28.3905 6.5332 29.0791 6.5332 29.9286C6.5332 30.7781 7.22183 31.4667 8.0713 31.4667Z" stroke="black" stroke-width="3" stroke-miterlimit="10"/>
<path d="M29.9287 9.60951C30.7782 9.60951 31.4668 8.92089 31.4668 8.07142C31.4668 7.22195 30.7782 6.53333 29.9287 6.53333C29.0793 6.53333 28.3906 7.22195 28.3906 8.07142C28.3906 8.92089 29.0793 9.60951 29.9287 9.60951Z" stroke="black" stroke-width="3" stroke-miterlimit="10"/>
<path d="M19 5.09241V11.2772" stroke="black" stroke-width="3" stroke-miterlimit="10"/>
<path d="M19 26.7229V32.9077" stroke="black" stroke-width="3" stroke-miterlimit="10"/>
<path d="M5.09277 19H11.2775" stroke="black" stroke-width="3" stroke-miterlimit="10"/>
<path d="M26.7227 19H32.9074" stroke="black" stroke-width="3" stroke-miterlimit="10"/>
<path d="M9.17285 9.17236L13.5443 13.5438" stroke="black" stroke-width="3" stroke-miterlimit="10"/>
<path d="M24.4561 24.4562L28.8275 28.8276" stroke="black" stroke-width="3" stroke-miterlimit="10"/>
<path d="M9.17285 28.8276L13.5443 24.4562" stroke="black" stroke-width="3" stroke-miterlimit="10"/>
<path d="M24.4561 13.5438L28.8275 9.17236" stroke="black" stroke-width="3" stroke-miterlimit="10"/>
</svg>
