<svg width="25" height="25" viewBox="0 0 25 25" fill="none" xmlns="http://www.w3.org/2000/svg">
<path fill-rule="evenodd" clip-rule="evenodd" d="M21.9691 1.7471C22.7694 1.45272 23.5473 2.23064 23.2529 3.03086L16.5761 21.1802C16.3241 21.8654 15.4467 22.0583 14.9305 21.5421L11.531 18.1424C11.1393 17.7508 10.504 17.752 10.1139 18.1453L5.01335 23.2872C4.62329 23.6804 3.98792 23.6817 3.59628 23.29L1.70997 21.4037C1.31833 21.0121 1.31961 20.3767 1.71283 19.9867L6.85483 14.886C7.24804 14.496 7.24933 13.8606 6.8577 13.469L3.4581 10.0693C2.94192 9.55307 3.13486 8.67568 3.81996 8.42365L21.9691 1.7471Z" fill="white" stroke="black" stroke-width="2"/>
</svg>
