<svg width="35" height="25" viewBox="0 0 35 25" fill="none" xmlns="http://www.w3.org/2000/svg">
<mask id="path-1-inside-1_306_191" fill="white">
<rect width="35" height="25" rx="1.72414"/>
</mask>
<rect width="35" height="25" rx="1.72414" fill="white" stroke="#100C0D" stroke-width="5" mask="url(#path-1-inside-1_306_191)"/>
<path d="M2 2L7.19707 7.62568C7.38549 7.82964 7.72635 7.71956 7.75989 7.44392V7.44392C7.79825 7.12868 8.21892 7.04894 8.36998 7.32828L9.59575 9.59491C9.77186 9.92056 10.2244 9.95818 10.4519 9.66608V9.66608C10.6396 9.42499 10.9952 9.40043 11.2143 9.61343L13.8898 12.2143M33.5 2L29.4399 7.48251C29.2457 7.74475 28.8338 7.66152 28.7566 7.34445V7.34445C28.6751 7.00945 28.2281 6.94237 28.0518 7.23868L26.6243 9.63844C26.4392 9.94963 25.999 9.97718 25.7765 9.69149V9.69149C25.5817 9.44136 25.2092 9.42531 24.9936 9.65778L22.6229 12.2143M13.8898 12.2143L17.6268 15.6542C18.0132 16.0099 18.609 16.006 18.9908 15.6454L22.6229 12.2143M13.8898 12.2143L2 23.5M22.6229 12.2143L33.5 22.5" stroke="#100C0D" stroke-width="2.5" stroke-linecap="round"/>
</svg>
