<svg width="565" height="253" viewBox="0 0 565 253" fill="none" xmlns="http://www.w3.org/2000/svg">
<rect width="565" height="50" fill="#FFEFC8"/>
<path d="M34.92 33L30.36 16.752L32.616 16.032L36.408 30.576L39.984 17.952H42.84L46.392 30.576L50.16 16.104L52.272 16.752L47.736 33H44.904L41.352 20.376L37.752 33H34.92ZM59.1249 33.288C58.0849 33.288 57.1409 33.024 56.2929 32.496C55.4449 31.968 54.7649 31.224 54.2529 30.264C53.7569 29.288 53.5089 28.144 53.5089 26.832C53.5089 25.584 53.7569 24.464 54.2529 23.472C54.7649 22.48 55.4609 21.696 56.3409 21.12C57.2369 20.528 58.2609 20.232 59.4129 20.232C60.1329 20.232 60.7809 20.36 61.3569 20.616C61.9489 20.856 62.4609 21.16 62.8929 21.528V20.52H64.8609V29.976C64.8609 30.584 65.0049 30.984 65.2929 31.176C65.5969 31.352 65.9249 31.44 66.2769 31.44L65.8209 33.12C64.2849 33.12 63.3569 32.496 63.0369 31.248C62.6689 31.76 62.1649 32.232 61.5249 32.664C60.9009 33.08 60.1009 33.288 59.1249 33.288ZM59.6049 31.368C60.2129 31.368 60.7889 31.224 61.3329 30.936C61.8769 30.632 62.3329 30.256 62.7009 29.808V23.112C62.2689 22.808 61.7889 22.568 61.2609 22.392C60.7489 22.2 60.2049 22.104 59.6289 22.104C58.8609 22.104 58.1809 22.304 57.5889 22.704C57.0129 23.088 56.5569 23.632 56.2209 24.336C55.8849 25.024 55.7169 25.832 55.7169 26.76C55.7169 27.656 55.8849 28.456 56.2209 29.16C56.5569 29.848 57.0209 30.392 57.6129 30.792C58.2049 31.176 58.8689 31.368 59.6049 31.368ZM69.6762 33V20.52H71.7642V23.232C71.9722 22.704 72.2522 22.216 72.6042 21.768C72.9562 21.304 73.3962 20.936 73.9242 20.664C74.4522 20.376 75.0682 20.232 75.7722 20.232C76.0122 20.232 76.2522 20.248 76.4922 20.28C76.7322 20.296 76.9322 20.328 77.0922 20.376L76.4442 22.608C76.1402 22.48 75.7802 22.416 75.3642 22.416C74.7722 22.416 74.2042 22.584 73.6602 22.92C73.1322 23.256 72.6922 23.776 72.3402 24.48C72.0042 25.184 71.8362 26.08 71.8362 27.168V33H69.6762ZM79.777 33V20.52H81.865V22.608C82.313 21.936 82.881 21.376 83.569 20.928C84.273 20.464 85.105 20.232 86.065 20.232C87.473 20.232 88.521 20.656 89.209 21.504C89.913 22.352 90.265 23.472 90.265 24.864V33H88.105V25.104C88.105 24.208 87.889 23.488 87.457 22.944C87.041 22.4 86.457 22.128 85.705 22.128C84.969 22.128 84.273 22.392 83.617 22.92C82.961 23.432 82.401 24.04 81.937 24.744V33H79.777ZM94.495 33V20.52H96.655V33H94.495ZM95.575 18.384C95.159 18.384 94.799 18.232 94.495 17.928C94.207 17.624 94.063 17.272 94.063 16.872C94.063 16.408 94.199 16.04 94.471 15.768C94.743 15.496 95.111 15.36 95.575 15.36C95.991 15.36 96.343 15.512 96.631 15.816C96.935 16.104 97.087 16.456 97.087 16.872C97.087 17.32 96.951 17.688 96.679 17.976C96.407 18.248 96.039 18.384 95.575 18.384ZM101.01 33V20.52H103.098V22.608C103.546 21.936 104.114 21.376 104.802 20.928C105.506 20.464 106.338 20.232 107.298 20.232C108.706 20.232 109.754 20.656 110.442 21.504C111.146 22.352 111.498 23.472 111.498 24.864V33H109.338V25.104C109.338 24.208 109.122 23.488 108.69 22.944C108.274 22.4 107.69 22.128 106.938 22.128C106.202 22.128 105.506 22.392 104.85 22.92C104.194 23.432 103.634 24.04 103.17 24.744V33H101.01ZM120.312 38.568C119.576 38.568 118.856 38.48 118.152 38.304C117.464 38.128 116.848 37.864 116.304 37.512L117.096 35.64C117.48 35.944 117.928 36.192 118.44 36.384C118.952 36.592 119.576 36.696 120.312 36.696C121.448 36.696 122.336 36.392 122.976 35.784C123.632 35.192 123.96 34.24 123.96 32.928V31.392C123.64 31.776 123.176 32.144 122.568 32.496C121.976 32.832 121.264 33 120.432 33C119.488 33 118.592 32.76 117.744 32.28C116.896 31.784 116.208 31.064 115.68 30.12C115.152 29.176 114.888 28.04 114.888 26.712C114.888 25.464 115.144 24.352 115.656 23.376C116.184 22.4 116.888 21.632 117.768 21.072C118.648 20.512 119.616 20.232 120.672 20.232C121.376 20.232 122.016 20.352 122.592 20.592C123.168 20.832 123.664 21.128 124.08 21.48V20.52H126.048V32.712C126.048 34.088 125.808 35.208 125.328 36.072C124.848 36.936 124.176 37.568 123.312 37.968C122.464 38.368 121.464 38.568 120.312 38.568ZM120.912 31.08C121.552 31.08 122.128 30.936 122.64 30.648C123.152 30.36 123.568 30.024 123.888 29.64V23.112C123.536 22.856 123.112 22.624 122.616 22.416C122.12 22.208 121.544 22.104 120.888 22.104C120.232 22.104 119.616 22.28 119.04 22.632C118.464 22.984 117.992 23.496 117.624 24.168C117.272 24.824 117.096 25.632 117.096 26.592C117.096 27.504 117.272 28.296 117.624 28.968C117.992 29.64 118.464 30.16 119.04 30.528C119.616 30.896 120.24 31.08 120.912 31.08ZM131.218 28.032L130.906 21.48V15.504H133.306V21.48L132.994 28.032H131.218ZM132.13 33.288C131.698 33.288 131.322 33.128 131.002 32.808C130.682 32.488 130.522 32.112 130.522 31.68C130.522 31.184 130.666 30.792 130.954 30.504C131.242 30.216 131.634 30.072 132.13 30.072C132.546 30.072 132.914 30.232 133.234 30.552C133.57 30.872 133.738 31.248 133.738 31.68C133.738 32.16 133.586 32.552 133.282 32.856C132.978 33.144 132.594 33.288 132.13 33.288Z" fill="#100C0D"/>
<rect x="499" width="66" height="50" fill="#FDC334"/>
<path d="M541.05 17L522.56 35.4897" stroke="black" stroke-width="3" stroke-linecap="round"/>
<path d="M540.489 35.4897L522 17" stroke="black" stroke-width="3" stroke-linecap="round"/>
<rect y="50" width="565" height="203" fill="white"/>
<path d="M52.06 97V91.68L47.2 83.78L48.8 82.82L53.08 89.92L57.28 82.9L58.78 83.78L53.96 91.68V97H52.06ZM63.6441 97.24C62.6574 97.24 61.7707 97.0133 60.9841 96.56C60.1974 96.0933 59.5774 95.4533 59.1241 94.64C58.6841 93.8133 58.4641 92.8667 58.4641 91.8C58.4641 90.68 58.6907 89.7133 59.1441 88.9C59.5974 88.0867 60.2174 87.46 61.0041 87.02C61.7907 86.58 62.6707 86.36 63.6441 86.36C64.6174 86.36 65.4907 86.58 66.2641 87.02C67.0507 87.46 67.6707 88.0867 68.1241 88.9C68.5907 89.7 68.8241 90.6533 68.8241 91.76C68.8241 92.8667 68.5974 93.8333 68.1441 94.66C67.6907 95.4733 67.0707 96.1067 66.2841 96.56C65.5107 97.0133 64.6307 97.24 63.6441 97.24ZM63.6441 95.64C64.6974 95.64 65.5174 95.2867 66.1041 94.58C66.6907 93.86 66.9841 92.9333 66.9841 91.8C66.9841 91.1067 66.8374 90.4733 66.5441 89.9C66.2507 89.3133 65.8507 88.8467 65.3441 88.5C64.8507 88.14 64.2841 87.96 63.6441 87.96C62.5907 87.96 61.7707 88.3067 61.1841 89C60.5974 89.6933 60.3041 90.6133 60.3041 91.76C60.3041 92.4533 60.4507 93.1 60.7441 93.7C61.0374 94.2867 61.4307 94.76 61.9241 95.12C62.4307 95.4667 63.0041 95.64 63.6441 95.64ZM74.6172 97.24C74.0172 97.24 73.4505 97.1133 72.9172 96.86C72.3839 96.6067 71.9505 96.2 71.6172 95.64C71.2839 95.0667 71.1172 94.3067 71.1172 93.36V86.6H72.9172V93.12C72.9172 93.9333 73.0905 94.56 73.4372 95C73.7839 95.4267 74.2905 95.64 74.9572 95.64C75.5039 95.64 76.0305 95.5333 76.5372 95.32C77.0572 95.0933 77.5172 94.7933 77.9172 94.42V86.6H79.7172V94.3C79.7172 94.8733 79.8372 95.2533 80.0772 95.44C80.3305 95.6133 80.6039 95.7 80.8972 95.7L80.5172 97.1C79.2772 97.1 78.5105 96.6067 78.2172 95.62C77.7505 96.1 77.2105 96.4933 76.5972 96.8C75.9839 97.0933 75.3239 97.24 74.6172 97.24ZM83.2875 97V86.6H85.0275V88.86C85.2008 88.42 85.4342 88.0133 85.7275 87.64C86.0208 87.2533 86.3875 86.9467 86.8275 86.72C87.2675 86.48 87.7808 86.36 88.3675 86.36C88.5675 86.36 88.7675 86.3733 88.9675 86.4C89.1675 86.4133 89.3342 86.44 89.4675 86.48L88.9275 88.34C88.6742 88.2333 88.3742 88.18 88.0275 88.18C87.5342 88.18 87.0608 88.32 86.6075 88.6C86.1675 88.88 85.8008 89.3133 85.5075 89.9C85.2275 90.4867 85.0875 91.2333 85.0875 92.14V97H83.2875ZM101.472 97.24C100.485 97.24 99.6185 97.0133 98.8719 96.56C98.1385 96.0933 97.5719 95.4533 97.1719 94.64C96.7719 93.8133 96.5719 92.8667 96.5719 91.8C96.5719 90.8 96.7719 89.8867 97.1719 89.06C97.5852 88.2333 98.1719 87.58 98.9319 87.1C99.6919 86.6067 100.585 86.36 101.612 86.36C102.199 86.36 102.712 86.4133 103.152 86.52C103.605 86.6267 104.039 86.78 104.452 86.98L103.912 88.5C103.539 88.3133 103.179 88.18 102.832 88.1C102.499 88.0067 102.125 87.96 101.712 87.96C100.779 87.96 99.9919 88.3 99.3519 88.98C98.7252 89.6467 98.4119 90.5733 98.4119 91.76C98.4119 92.48 98.5452 93.1333 98.8119 93.72C99.0785 94.3067 99.4452 94.7733 99.9119 95.12C100.392 95.4667 100.952 95.64 101.592 95.64C102.099 95.64 102.532 95.5867 102.892 95.48C103.252 95.36 103.639 95.1933 104.052 94.98L104.612 96.5C104.199 96.7267 103.732 96.9067 103.212 97.04C102.705 97.1733 102.125 97.24 101.472 97.24ZM109.67 97.24C109.057 97.24 108.503 97.1267 108.01 96.9C107.517 96.66 107.123 96.28 106.83 95.76C106.55 95.24 106.41 94.5667 106.41 93.74V82.2H108.21V93.56C108.21 94.28 108.357 94.8133 108.65 95.16C108.957 95.5067 109.377 95.68 109.91 95.68C110.163 95.68 110.41 95.6533 110.65 95.6C110.903 95.5333 111.117 95.46 111.29 95.38L111.73 96.84C111.49 96.9467 111.19 97.04 110.83 97.12C110.483 97.2 110.097 97.24 109.67 97.24ZM117.511 97.24C116.525 97.24 115.638 97.0133 114.851 96.56C114.065 96.0933 113.445 95.4533 112.991 94.64C112.551 93.8133 112.331 92.8667 112.331 91.8C112.331 90.68 112.558 89.7133 113.011 88.9C113.465 88.0867 114.085 87.46 114.871 87.02C115.658 86.58 116.538 86.36 117.511 86.36C118.485 86.36 119.358 86.58 120.131 87.02C120.918 87.46 121.538 88.0867 121.991 88.9C122.458 89.7 122.691 90.6533 122.691 91.76C122.691 92.8667 122.465 93.8333 122.011 94.66C121.558 95.4733 120.938 96.1067 120.151 96.56C119.378 97.0133 118.498 97.24 117.511 97.24ZM117.511 95.64C118.565 95.64 119.385 95.2867 119.971 94.58C120.558 93.86 120.851 92.9333 120.851 91.8C120.851 91.1067 120.705 90.4733 120.411 89.9C120.118 89.3133 119.718 88.8467 119.211 88.5C118.718 88.14 118.151 87.96 117.511 87.96C116.458 87.96 115.638 88.3067 115.051 89C114.465 89.6933 114.171 90.6133 114.171 91.76C114.171 92.4533 114.318 93.1 114.611 93.7C114.905 94.2867 115.298 94.76 115.791 95.12C116.298 95.4667 116.871 95.64 117.511 95.64ZM128.484 97.24C127.884 97.24 127.318 97.1133 126.784 96.86C126.251 96.6067 125.818 96.2 125.484 95.64C125.151 95.0667 124.984 94.3067 124.984 93.36V86.6H126.784V93.12C126.784 93.9333 126.958 94.56 127.304 95C127.651 95.4267 128.158 95.64 128.824 95.64C129.371 95.64 129.898 95.5333 130.404 95.32C130.924 95.0933 131.384 94.7933 131.784 94.42V86.6H133.584V94.3C133.584 94.8733 133.704 95.2533 133.944 95.44C134.198 95.6133 134.471 95.7 134.764 95.7L134.384 97.1C133.144 97.1 132.378 96.6067 132.084 95.62C131.618 96.1 131.078 96.4933 130.464 96.8C129.851 97.0933 129.191 97.24 128.484 97.24ZM140.899 97.24C140.046 97.24 139.266 97.02 138.559 96.58C137.853 96.14 137.293 95.52 136.879 94.72C136.466 93.9067 136.259 92.9533 136.259 91.86C136.259 90.8067 136.466 89.8667 136.879 89.04C137.306 88.2133 137.866 87.56 138.559 87.08C139.266 86.6 140.039 86.36 140.879 86.36C141.573 86.36 142.166 86.5 142.659 86.78C143.166 87.06 143.559 87.3467 143.839 87.64V82.2H145.639V94.48C145.639 94.9867 145.759 95.32 145.999 95.48C146.253 95.6267 146.526 95.7 146.819 95.7L146.439 97.1C145.173 97.1 144.399 96.5933 144.119 95.58C143.826 95.9933 143.413 96.3733 142.879 96.72C142.359 97.0667 141.699 97.24 140.899 97.24ZM141.299 95.64C141.793 95.64 142.259 95.5267 142.699 95.3C143.153 95.06 143.533 94.7533 143.839 94.38V89.22C143.586 88.9 143.233 88.6067 142.779 88.34C142.326 88.06 141.826 87.92 141.279 87.92C140.639 87.92 140.079 88.0933 139.599 88.44C139.119 88.7867 138.746 89.2533 138.479 89.84C138.226 90.4133 138.099 91.0667 138.099 91.8C138.099 92.5333 138.239 93.1933 138.519 93.78C138.799 94.3533 139.179 94.8067 139.659 95.14C140.153 95.4733 140.699 95.64 141.299 95.64ZM158.021 97.24C157.234 97.24 156.521 97.14 155.881 96.94C155.254 96.74 154.734 96.48 154.321 96.16L155.081 94.66C155.428 94.9533 155.861 95.2 156.381 95.4C156.914 95.5867 157.481 95.68 158.081 95.68C158.828 95.68 159.388 95.56 159.761 95.32C160.148 95.0667 160.341 94.7467 160.341 94.36C160.341 94.08 160.268 93.8333 160.121 93.62C159.988 93.4067 159.734 93.2 159.361 93C158.988 92.7867 158.448 92.56 157.741 92.32C156.768 91.9867 156.034 91.5933 155.541 91.14C155.061 90.6733 154.821 90.0333 154.821 89.22C154.821 88.42 155.168 87.7467 155.861 87.2C156.568 86.64 157.541 86.36 158.781 86.36C159.448 86.36 160.041 86.4333 160.561 86.58C161.081 86.7133 161.548 86.8867 161.961 87.1L161.461 88.58C161.101 88.3667 160.688 88.1933 160.221 88.06C159.768 87.9267 159.261 87.86 158.701 87.86C158.008 87.86 157.481 88 157.121 88.28C156.761 88.56 156.581 88.8667 156.581 89.2C156.581 89.52 156.721 89.7933 157.001 90.02C157.281 90.2467 157.828 90.4933 158.641 90.76C159.961 91.2 160.881 91.6867 161.401 92.22C161.921 92.7533 162.181 93.42 162.181 94.22C162.181 95.1533 161.801 95.8933 161.041 96.44C160.294 96.9733 159.288 97.24 158.021 97.24ZM168.217 97.24C167.217 97.24 166.423 96.9133 165.837 96.26C165.263 95.5933 164.977 94.6467 164.977 93.42V88.54H163.177V86.98H165.017L165.397 83.7H166.777V86.98H169.657V88.54H166.777V93.56C166.777 94.3333 166.937 94.8733 167.257 95.18C167.59 95.4867 167.983 95.64 168.437 95.64C168.77 95.64 169.083 95.5867 169.377 95.48C169.683 95.3733 169.963 95.2467 170.217 95.1L170.717 96.54C170.45 96.7 170.09 96.8533 169.637 97C169.183 97.16 168.71 97.24 168.217 97.24ZM176.515 97.24C175.528 97.24 174.642 97.0133 173.855 96.56C173.068 96.0933 172.448 95.4533 171.995 94.64C171.555 93.8133 171.335 92.8667 171.335 91.8C171.335 90.68 171.562 89.7133 172.015 88.9C172.468 88.0867 173.088 87.46 173.875 87.02C174.662 86.58 175.542 86.36 176.515 86.36C177.488 86.36 178.362 86.58 179.135 87.02C179.922 87.46 180.542 88.0867 180.995 88.9C181.462 89.7 181.695 90.6533 181.695 91.76C181.695 92.8667 181.468 93.8333 181.015 94.66C180.562 95.4733 179.942 96.1067 179.155 96.56C178.382 97.0133 177.502 97.24 176.515 97.24ZM176.515 95.64C177.568 95.64 178.388 95.2867 178.975 94.58C179.562 93.86 179.855 92.9333 179.855 91.8C179.855 91.1067 179.708 90.4733 179.415 89.9C179.122 89.3133 178.722 88.8467 178.215 88.5C177.722 88.14 177.155 87.96 176.515 87.96C175.462 87.96 174.642 88.3067 174.055 89C173.468 89.6933 173.175 90.6133 173.175 91.76C173.175 92.4533 173.322 93.1 173.615 93.7C173.908 94.2867 174.302 94.76 174.795 95.12C175.302 95.4667 175.875 95.64 176.515 95.64ZM184.088 97V86.6H185.828V88.86C186.002 88.42 186.235 88.0133 186.528 87.64C186.822 87.2533 187.188 86.9467 187.628 86.72C188.068 86.48 188.582 86.36 189.168 86.36C189.368 86.36 189.568 86.3733 189.768 86.4C189.968 86.4133 190.135 86.44 190.268 86.48L189.728 88.34C189.475 88.2333 189.175 88.18 188.828 88.18C188.335 88.18 187.862 88.32 187.408 88.6C186.968 88.88 186.602 89.3133 186.308 89.9C186.028 90.4867 185.888 91.2333 185.888 92.14V97H184.088ZM195.451 97.24C194.584 97.24 193.798 97.02 193.091 96.58C192.384 96.14 191.818 95.52 191.391 94.72C190.978 93.9067 190.771 92.9533 190.771 91.86C190.771 90.82 190.978 89.8867 191.391 89.06C191.818 88.2333 192.398 87.58 193.131 87.1C193.878 86.6067 194.731 86.36 195.691 86.36C196.291 86.36 196.831 86.4667 197.311 86.68C197.804 86.88 198.231 87.1333 198.591 87.44V86.6H200.231V94.48C200.231 94.9867 200.351 95.32 200.591 95.48C200.844 95.6267 201.118 95.7 201.411 95.7L201.031 97.1C199.751 97.1 198.978 96.58 198.711 95.54C198.404 95.9667 197.984 96.36 197.451 96.72C196.931 97.0667 196.264 97.24 195.451 97.24ZM195.851 95.64C196.358 95.64 196.838 95.52 197.291 95.28C197.744 95.0267 198.124 94.7133 198.431 94.34V88.76C198.071 88.5067 197.671 88.3067 197.231 88.16C196.804 88 196.351 87.92 195.871 87.92C195.231 87.92 194.664 88.0867 194.171 88.42C193.691 88.74 193.311 89.1933 193.031 89.78C192.751 90.3533 192.611 91.0267 192.611 91.8C192.611 92.5467 192.751 93.2133 193.031 93.8C193.311 94.3733 193.698 94.8267 194.191 95.16C194.684 95.48 195.238 95.64 195.851 95.64ZM207.44 101.64C206.826 101.64 206.226 101.567 205.64 101.42C205.066 101.273 204.553 101.053 204.1 100.76L204.76 99.2C205.08 99.4533 205.453 99.66 205.88 99.82C206.306 99.9933 206.826 100.08 207.44 100.08C208.386 100.08 209.126 99.8267 209.66 99.32C210.206 98.8267 210.48 98.0333 210.48 96.94V95.66C210.213 95.98 209.826 96.2867 209.32 96.58C208.826 96.86 208.233 97 207.54 97C206.753 97 206.006 96.8 205.3 96.4C204.593 95.9867 204.02 95.3867 203.58 94.6C203.14 93.8133 202.92 92.8667 202.92 91.76C202.92 90.72 203.133 89.7933 203.56 88.98C204 88.1667 204.586 87.5267 205.32 87.06C206.053 86.5933 206.86 86.36 207.74 86.36C208.326 86.36 208.86 86.46 209.34 86.66C209.82 86.86 210.233 87.1067 210.58 87.4V86.6H212.22V96.76C212.22 97.9067 212.02 98.84 211.62 99.56C211.22 100.28 210.66 100.807 209.94 101.14C209.233 101.473 208.4 101.64 207.44 101.64ZM207.94 95.4C208.473 95.4 208.953 95.28 209.38 95.04C209.806 94.8 210.153 94.52 210.42 94.2V88.76C210.126 88.5467 209.773 88.3533 209.36 88.18C208.946 88.0067 208.466 87.92 207.92 87.92C207.373 87.92 206.86 88.0667 206.38 88.36C205.9 88.6533 205.506 89.08 205.2 89.64C204.906 90.1867 204.76 90.86 204.76 91.66C204.76 92.42 204.906 93.08 205.2 93.64C205.506 94.2 205.9 94.6333 206.38 94.94C206.86 95.2467 207.38 95.4 207.94 95.4ZM219.479 97.24C217.985 97.24 216.799 96.7667 215.919 95.82C215.052 94.86 214.619 93.52 214.619 91.8C214.619 90.76 214.812 89.8333 215.199 89.02C215.599 88.1933 216.152 87.5467 216.859 87.08C217.565 86.6 218.385 86.36 219.319 86.36C220.319 86.36 221.145 86.58 221.799 87.02C222.465 87.4467 222.965 88.0267 223.299 88.76C223.632 89.4933 223.799 90.3 223.799 91.18C223.799 91.6467 223.779 92.1 223.739 92.54H216.459C216.579 93.5133 216.919 94.2733 217.479 94.82C218.039 95.3667 218.779 95.64 219.699 95.64C220.299 95.64 220.839 95.58 221.319 95.46C221.799 95.3267 222.259 95.16 222.699 94.96L223.119 96.5C222.639 96.7133 222.099 96.8867 221.499 97.02C220.899 97.1667 220.225 97.24 219.479 97.24ZM216.439 91.08H222.139C222.139 90.0667 221.885 89.2867 221.379 88.74C220.872 88.1933 220.172 87.92 219.279 87.92C218.505 87.92 217.865 88.1933 217.359 88.74C216.852 89.2733 216.545 90.0533 216.439 91.08ZM232.194 97V82.2H233.994V88.26C234.367 87.7133 234.84 87.26 235.414 86.9C235.987 86.54 236.66 86.36 237.434 86.36C238.607 86.36 239.48 86.7133 240.054 87.42C240.64 88.1267 240.934 89.06 240.934 90.22V97H239.134V90.42C239.134 89.6733 238.96 89.0733 238.614 88.62C238.267 88.1667 237.78 87.94 237.154 87.94C236.54 87.94 235.954 88.16 235.394 88.6C234.847 89.0267 234.38 89.5333 233.994 90.12V97H232.194ZM248.01 97.24C247.143 97.24 246.356 97.02 245.65 96.58C244.943 96.14 244.376 95.52 243.95 94.72C243.536 93.9067 243.33 92.9533 243.33 91.86C243.33 90.82 243.536 89.8867 243.95 89.06C244.376 88.2333 244.956 87.58 245.69 87.1C246.436 86.6067 247.29 86.36 248.25 86.36C248.85 86.36 249.39 86.4667 249.87 86.68C250.363 86.88 250.79 87.1333 251.15 87.44V86.6H252.79V94.48C252.79 94.9867 252.91 95.32 253.15 95.48C253.403 95.6267 253.676 95.7 253.97 95.7L253.59 97.1C252.31 97.1 251.536 96.58 251.27 95.54C250.963 95.9667 250.543 96.36 250.01 96.72C249.49 97.0667 248.823 97.24 248.01 97.24ZM248.41 95.64C248.916 95.64 249.396 95.52 249.85 95.28C250.303 95.0267 250.683 94.7133 250.99 94.34V88.76C250.63 88.5067 250.23 88.3067 249.79 88.16C249.363 88 248.91 87.92 248.43 87.92C247.79 87.92 247.223 88.0867 246.73 88.42C246.25 88.74 245.87 89.1933 245.59 89.78C245.31 90.3533 245.17 91.0267 245.17 91.8C245.17 92.5467 245.31 93.2133 245.59 93.8C245.87 94.3733 246.256 94.8267 246.75 95.16C247.243 95.48 247.796 95.64 248.41 95.64ZM259.173 97.24C258.387 97.24 257.673 97.14 257.033 96.94C256.407 96.74 255.887 96.48 255.473 96.16L256.233 94.66C256.58 94.9533 257.013 95.2 257.533 95.4C258.067 95.5867 258.633 95.68 259.233 95.68C259.98 95.68 260.54 95.56 260.913 95.32C261.3 95.0667 261.493 94.7467 261.493 94.36C261.493 94.08 261.42 93.8333 261.273 93.62C261.14 93.4067 260.887 93.2 260.513 93C260.14 92.7867 259.6 92.56 258.893 92.32C257.92 91.9867 257.187 91.5933 256.693 91.14C256.213 90.6733 255.973 90.0333 255.973 89.22C255.973 88.42 256.32 87.7467 257.013 87.2C257.72 86.64 258.693 86.36 259.933 86.36C260.6 86.36 261.193 86.4333 261.713 86.58C262.233 86.7133 262.7 86.8867 263.113 87.1L262.613 88.58C262.253 88.3667 261.84 88.1933 261.373 88.06C260.92 87.9267 260.413 87.86 259.853 87.86C259.16 87.86 258.633 88 258.273 88.28C257.913 88.56 257.733 88.8667 257.733 89.2C257.733 89.52 257.873 89.7933 258.153 90.02C258.433 90.2467 258.98 90.4933 259.793 90.76C261.113 91.2 262.033 91.6867 262.553 92.22C263.073 92.7533 263.333 93.42 263.333 94.22C263.333 95.1533 262.953 95.8933 262.193 96.44C261.447 96.9733 260.44 97.24 259.173 97.24ZM271.725 97V86.6H273.465V88.86C273.638 88.42 273.872 88.0133 274.165 87.64C274.458 87.2533 274.825 86.9467 275.265 86.72C275.705 86.48 276.218 86.36 276.805 86.36C277.005 86.36 277.205 86.3733 277.405 86.4C277.605 86.4133 277.772 86.44 277.905 86.48L277.365 88.34C277.112 88.2333 276.812 88.18 276.465 88.18C275.972 88.18 275.498 88.32 275.045 88.6C274.605 88.88 274.238 89.3133 273.945 89.9C273.665 90.4867 273.525 91.2333 273.525 92.14V97H271.725ZM283.268 97.24C281.774 97.24 280.588 96.7667 279.708 95.82C278.841 94.86 278.408 93.52 278.408 91.8C278.408 90.76 278.601 89.8333 278.988 89.02C279.388 88.1933 279.941 87.5467 280.648 87.08C281.354 86.6 282.174 86.36 283.108 86.36C284.108 86.36 284.934 86.58 285.588 87.02C286.254 87.4467 286.754 88.0267 287.088 88.76C287.421 89.4933 287.588 90.3 287.588 91.18C287.588 91.6467 287.568 92.1 287.528 92.54H280.248C280.368 93.5133 280.708 94.2733 281.268 94.82C281.828 95.3667 282.568 95.64 283.488 95.64C284.088 95.64 284.628 95.58 285.108 95.46C285.588 95.3267 286.048 95.16 286.488 94.96L286.908 96.5C286.428 96.7133 285.888 96.8867 285.288 97.02C284.688 97.1667 284.014 97.24 283.268 97.24ZM280.228 91.08H285.928C285.928 90.0667 285.674 89.2867 285.168 88.74C284.661 88.1933 283.961 87.92 283.068 87.92C282.294 87.92 281.654 88.1933 281.148 88.74C280.641 89.2733 280.334 90.0533 280.228 91.08ZM293.967 97.24C293.1 97.24 292.313 97.02 291.607 96.58C290.9 96.14 290.333 95.52 289.907 94.72C289.493 93.9067 289.287 92.9533 289.287 91.86C289.287 90.82 289.493 89.8867 289.907 89.06C290.333 88.2333 290.913 87.58 291.647 87.1C292.393 86.6067 293.247 86.36 294.207 86.36C294.807 86.36 295.347 86.4667 295.827 86.68C296.32 86.88 296.747 87.1333 297.107 87.44V86.6H298.747V94.48C298.747 94.9867 298.867 95.32 299.107 95.48C299.36 95.6267 299.633 95.7 299.927 95.7L299.547 97.1C298.267 97.1 297.493 96.58 297.227 95.54C296.92 95.9667 296.5 96.36 295.967 96.72C295.447 97.0667 294.78 97.24 293.967 97.24ZM294.367 95.64C294.873 95.64 295.353 95.52 295.807 95.28C296.26 95.0267 296.64 94.7133 296.947 94.34V88.76C296.587 88.5067 296.187 88.3067 295.747 88.16C295.32 88 294.867 87.92 294.387 87.92C293.747 87.92 293.18 88.0867 292.687 88.42C292.207 88.74 291.827 89.1933 291.547 89.78C291.267 90.3533 291.127 91.0267 291.127 91.8C291.127 92.5467 291.267 93.2133 291.547 93.8C291.827 94.3733 292.213 94.8267 292.707 95.16C293.2 95.48 293.753 95.64 294.367 95.64ZM306.335 97.24C305.348 97.24 304.482 97.0133 303.735 96.56C303.002 96.0933 302.435 95.4533 302.035 94.64C301.635 93.8133 301.435 92.8667 301.435 91.8C301.435 90.8 301.635 89.8867 302.035 89.06C302.448 88.2333 303.035 87.58 303.795 87.1C304.555 86.6067 305.448 86.36 306.475 86.36C307.062 86.36 307.575 86.4133 308.015 86.52C308.468 86.6267 308.902 86.78 309.315 86.98L308.775 88.5C308.402 88.3133 308.042 88.18 307.695 88.1C307.362 88.0067 306.988 87.96 306.575 87.96C305.642 87.96 304.855 88.3 304.215 88.98C303.588 89.6467 303.275 90.5733 303.275 91.76C303.275 92.48 303.408 93.1333 303.675 93.72C303.942 94.3067 304.308 94.7733 304.775 95.12C305.255 95.4667 305.815 95.64 306.455 95.64C306.962 95.64 307.395 95.5867 307.755 95.48C308.115 95.36 308.502 95.1933 308.915 94.98L309.475 96.5C309.062 96.7267 308.595 96.9067 308.075 97.04C307.568 97.1733 306.988 97.24 306.335 97.24ZM311.569 97V82.2H313.369V88.26C313.742 87.7133 314.215 87.26 314.789 86.9C315.362 86.54 316.035 86.36 316.809 86.36C317.982 86.36 318.855 86.7133 319.429 87.42C320.015 88.1267 320.309 89.06 320.309 90.22V97H318.509V90.42C318.509 89.6733 318.335 89.0733 317.989 88.62C317.642 88.1667 317.155 87.94 316.529 87.94C315.915 87.94 315.329 88.16 314.769 88.6C314.222 89.0267 313.755 89.5333 313.369 90.12V97H311.569ZM327.565 97.24C326.071 97.24 324.885 96.7667 324.005 95.82C323.138 94.86 322.705 93.52 322.705 91.8C322.705 90.76 322.898 89.8333 323.285 89.02C323.685 88.1933 324.238 87.5467 324.945 87.08C325.651 86.6 326.471 86.36 327.405 86.36C328.405 86.36 329.231 86.58 329.885 87.02C330.551 87.4467 331.051 88.0267 331.385 88.76C331.718 89.4933 331.885 90.3 331.885 91.18C331.885 91.6467 331.865 92.1 331.825 92.54H324.545C324.665 93.5133 325.005 94.2733 325.565 94.82C326.125 95.3667 326.865 95.64 327.785 95.64C328.385 95.64 328.925 95.58 329.405 95.46C329.885 95.3267 330.345 95.16 330.785 94.96L331.205 96.5C330.725 96.7133 330.185 96.8867 329.585 97.02C328.985 97.1667 328.311 97.24 327.565 97.24ZM324.525 91.08H330.225C330.225 90.0667 329.971 89.2867 329.465 88.74C328.958 88.1933 328.258 87.92 327.365 87.92C326.591 87.92 325.951 88.1933 325.445 88.74C324.938 89.2733 324.631 90.0533 324.525 91.08ZM338.224 97.24C337.37 97.24 336.59 97.02 335.884 96.58C335.177 96.14 334.617 95.52 334.204 94.72C333.79 93.9067 333.584 92.9533 333.584 91.86C333.584 90.8067 333.79 89.8667 334.204 89.04C334.63 88.2133 335.19 87.56 335.884 87.08C336.59 86.6 337.364 86.36 338.204 86.36C338.897 86.36 339.49 86.5 339.984 86.78C340.49 87.06 340.884 87.3467 341.164 87.64V82.2H342.964V94.48C342.964 94.9867 343.084 95.32 343.324 95.48C343.577 95.6267 343.85 95.7 344.144 95.7L343.764 97.1C342.497 97.1 341.724 96.5933 341.444 95.58C341.15 95.9933 340.737 96.3733 340.204 96.72C339.684 97.0667 339.024 97.24 338.224 97.24ZM338.624 95.64C339.117 95.64 339.584 95.5267 340.024 95.3C340.477 95.06 340.857 94.7533 341.164 94.38V89.22C340.91 88.9 340.557 88.6067 340.104 88.34C339.65 88.06 339.15 87.92 338.604 87.92C337.964 87.92 337.404 88.0933 336.924 88.44C336.444 88.7867 336.07 89.2533 335.804 89.84C335.55 90.4133 335.424 91.0667 335.424 91.8C335.424 92.5333 335.564 93.1933 335.844 93.78C336.124 94.3533 336.504 94.8067 336.984 95.14C337.477 95.4733 338.024 95.64 338.624 95.64ZM352.745 97V88.54H351.145V86.98H352.745V85.76C352.745 84.5867 353.072 83.66 353.725 82.98C354.379 82.3 355.232 81.96 356.285 81.96C356.832 81.96 357.312 82.0267 357.725 82.16C358.139 82.28 358.532 82.4333 358.905 82.62L358.365 84.14C358.085 83.9933 357.785 83.86 357.465 83.74C357.145 83.62 356.792 83.56 356.405 83.56C355.845 83.56 355.392 83.74 355.045 84.1C354.712 84.4467 354.545 84.96 354.545 85.64V86.98H357.625V88.54H354.545V97H352.745ZM362.898 97.24C362.298 97.24 361.732 97.1133 361.198 96.86C360.665 96.6067 360.232 96.2 359.898 95.64C359.565 95.0667 359.398 94.3067 359.398 93.36V86.6H361.198V93.12C361.198 93.9333 361.372 94.56 361.718 95C362.065 95.4267 362.572 95.64 363.238 95.64C363.785 95.64 364.312 95.5333 364.818 95.32C365.338 95.0933 365.798 94.7933 366.198 94.42V86.6H367.998V94.3C367.998 94.8733 368.118 95.2533 368.358 95.44C368.612 95.6133 368.885 95.7 369.178 95.7L368.798 97.1C367.558 97.1 366.792 96.6067 366.498 95.62C366.032 96.1 365.492 96.4933 364.878 96.8C364.265 97.0933 363.605 97.24 362.898 97.24ZM374.729 97.24C374.115 97.24 373.562 97.1267 373.069 96.9C372.575 96.66 372.182 96.28 371.889 95.76C371.609 95.24 371.469 94.5667 371.469 93.74V82.2H373.269V93.56C373.269 94.28 373.415 94.8133 373.709 95.16C374.015 95.5067 374.435 95.68 374.969 95.68C375.222 95.68 375.469 95.6533 375.709 95.6C375.962 95.5333 376.175 95.46 376.349 95.38L376.789 96.84C376.549 96.9467 376.249 97.04 375.889 97.12C375.542 97.2 375.155 97.24 374.729 97.24ZM381.448 97.24C380.834 97.24 380.281 97.1267 379.788 96.9C379.294 96.66 378.901 96.28 378.608 95.76C378.328 95.24 378.188 94.5667 378.188 93.74V82.2H379.988V93.56C379.988 94.28 380.134 94.8133 380.428 95.16C380.734 95.5067 381.154 95.68 381.688 95.68C381.941 95.68 382.188 95.6533 382.428 95.6C382.681 95.5333 382.894 95.46 383.068 95.38L383.508 96.84C383.268 96.9467 382.968 97.04 382.608 97.12C382.261 97.2 381.874 97.24 381.448 97.24ZM395.398 97.24C394.411 97.24 393.544 97.0133 392.798 96.56C392.064 96.0933 391.498 95.4533 391.098 94.64C390.698 93.8133 390.498 92.8667 390.498 91.8C390.498 90.8 390.698 89.8867 391.098 89.06C391.511 88.2333 392.098 87.58 392.858 87.1C393.618 86.6067 394.511 86.36 395.538 86.36C396.124 86.36 396.638 86.4133 397.078 86.52C397.531 86.6267 397.964 86.78 398.378 86.98L397.838 88.5C397.464 88.3133 397.104 88.18 396.758 88.1C396.424 88.0067 396.051 87.96 395.638 87.96C394.704 87.96 393.918 88.3 393.278 88.98C392.651 89.6467 392.338 90.5733 392.338 91.76C392.338 92.48 392.471 93.1333 392.738 93.72C393.004 94.3067 393.371 94.7733 393.838 95.12C394.318 95.4667 394.878 95.64 395.518 95.64C396.024 95.64 396.458 95.5867 396.818 95.48C397.178 95.36 397.564 95.1933 397.978 94.98L398.538 96.5C398.124 96.7267 397.658 96.9067 397.138 97.04C396.631 97.1733 396.051 97.24 395.398 97.24ZM404.416 97.24C403.549 97.24 402.763 97.02 402.056 96.58C401.349 96.14 400.783 95.52 400.356 94.72C399.943 93.9067 399.736 92.9533 399.736 91.86C399.736 90.82 399.943 89.8867 400.356 89.06C400.783 88.2333 401.363 87.58 402.096 87.1C402.843 86.6067 403.696 86.36 404.656 86.36C405.256 86.36 405.796 86.4667 406.276 86.68C406.769 86.88 407.196 87.1333 407.556 87.44V86.6H409.196V94.48C409.196 94.9867 409.316 95.32 409.556 95.48C409.809 95.6267 410.083 95.7 410.376 95.7L409.996 97.1C408.716 97.1 407.943 96.58 407.676 95.54C407.369 95.9667 406.949 96.36 406.416 96.72C405.896 97.0667 405.229 97.24 404.416 97.24ZM404.816 95.64C405.323 95.64 405.803 95.52 406.256 95.28C406.709 95.0267 407.089 94.7133 407.396 94.34V88.76C407.036 88.5067 406.636 88.3067 406.196 88.16C405.769 88 405.316 87.92 404.836 87.92C404.196 87.92 403.629 88.0867 403.136 88.42C402.656 88.74 402.276 89.1933 401.996 89.78C401.716 90.3533 401.576 91.0267 401.576 91.8C401.576 92.5467 401.716 93.2133 401.996 93.8C402.276 94.3733 402.663 94.8267 403.156 95.16C403.649 95.48 404.203 95.64 404.816 95.64ZM412.867 101.4V89.26C412.867 88.8067 412.753 88.4867 412.527 88.3C412.313 88.1 412.033 88 411.687 88L412.067 86.6C413.293 86.6 414.06 87.0867 414.367 88.06C414.5 87.86 414.713 87.6267 415.007 87.36C415.313 87.0933 415.687 86.86 416.127 86.66C416.58 86.46 417.093 86.36 417.667 86.36C418.467 86.36 419.213 86.5733 419.907 87C420.613 87.4133 421.18 88.02 421.607 88.82C422.033 89.6067 422.247 90.5667 422.247 91.7C422.247 92.8067 422.033 93.78 421.607 94.62C421.18 95.4467 420.62 96.0933 419.927 96.56C419.247 97.0133 418.507 97.24 417.707 97.24C417.093 97.24 416.52 97.12 415.987 96.88C415.453 96.6267 415.013 96.34 414.667 96.02V101.4H412.867ZM417.347 95.64C418.253 95.64 418.987 95.2867 419.547 94.58C420.12 93.86 420.407 92.92 420.407 91.76C420.407 90.96 420.26 90.2733 419.967 89.7C419.687 89.1267 419.307 88.6867 418.827 88.38C418.36 88.0733 417.84 87.92 417.267 87.92C416.693 87.92 416.173 88.0667 415.707 88.36C415.253 88.64 414.907 88.9467 414.667 89.28V94.4C415.013 94.76 415.413 95.06 415.867 95.3C416.32 95.5267 416.813 95.64 417.347 95.64ZM428.732 97.24C427.866 97.24 427.079 97.02 426.372 96.58C425.666 96.14 425.099 95.52 424.672 94.72C424.259 93.9067 424.052 92.9533 424.052 91.86C424.052 90.82 424.259 89.8867 424.672 89.06C425.099 88.2333 425.679 87.58 426.412 87.1C427.159 86.6067 428.012 86.36 428.972 86.36C429.572 86.36 430.112 86.4667 430.592 86.68C431.086 86.88 431.512 87.1333 431.872 87.44V86.6H433.512V94.48C433.512 94.9867 433.632 95.32 433.872 95.48C434.126 95.6267 434.399 95.7 434.692 95.7L434.312 97.1C433.032 97.1 432.259 96.58 431.992 95.54C431.686 95.9667 431.266 96.36 430.732 96.72C430.212 97.0667 429.546 97.24 428.732 97.24ZM429.132 95.64C429.639 95.64 430.119 95.52 430.572 95.28C431.026 95.0267 431.406 94.7133 431.712 94.34V88.76C431.352 88.5067 430.952 88.3067 430.512 88.16C430.086 88 429.632 87.92 429.152 87.92C428.512 87.92 427.946 88.0867 427.452 88.42C426.972 88.74 426.592 89.1933 426.312 89.78C426.032 90.3533 425.892 91.0267 425.892 91.8C425.892 92.5467 426.032 93.2133 426.312 93.8C426.592 94.3733 426.979 94.8267 427.472 95.16C427.966 95.48 428.519 95.64 429.132 95.64ZM441.101 97.24C440.114 97.24 439.247 97.0133 438.501 96.56C437.767 96.0933 437.201 95.4533 436.801 94.64C436.401 93.8133 436.201 92.8667 436.201 91.8C436.201 90.8 436.401 89.8867 436.801 89.06C437.214 88.2333 437.801 87.58 438.561 87.1C439.321 86.6067 440.214 86.36 441.241 86.36C441.827 86.36 442.341 86.4133 442.781 86.52C443.234 86.6267 443.667 86.78 444.081 86.98L443.541 88.5C443.167 88.3133 442.807 88.18 442.461 88.1C442.127 88.0067 441.754 87.96 441.341 87.96C440.407 87.96 439.621 88.3 438.981 88.98C438.354 89.6467 438.041 90.5733 438.041 91.76C438.041 92.48 438.174 93.1333 438.441 93.72C438.707 94.3067 439.074 94.7733 439.541 95.12C440.021 95.4667 440.581 95.64 441.221 95.64C441.727 95.64 442.161 95.5867 442.521 95.48C442.881 95.36 443.267 95.1933 443.681 94.98L444.241 96.5C443.827 96.7267 443.361 96.9067 442.841 97.04C442.334 97.1733 441.754 97.24 441.101 97.24ZM446.334 97V86.6H448.134V97H446.334ZM447.234 84.82C446.888 84.82 446.588 84.6933 446.334 84.44C446.094 84.1867 445.974 83.8933 445.974 83.56C445.974 83.1733 446.088 82.8667 446.314 82.64C446.541 82.4133 446.848 82.3 447.234 82.3C447.581 82.3 447.874 82.4267 448.114 82.68C448.368 82.92 448.494 83.2133 448.494 83.56C448.494 83.9333 448.381 84.24 448.154 84.48C447.928 84.7067 447.621 84.82 447.234 84.82ZM454.974 97.24C453.974 97.24 453.181 96.9133 452.594 96.26C452.021 95.5933 451.734 94.6467 451.734 93.42V88.54H449.934V86.98H451.774L452.154 83.7H453.534V86.98H456.414V88.54H453.534V93.56C453.534 94.3333 453.694 94.8733 454.014 95.18C454.348 95.4867 454.741 95.64 455.194 95.64C455.528 95.64 455.841 95.5867 456.134 95.48C456.441 95.3733 456.721 95.2467 456.974 95.1L457.474 96.54C457.208 96.7 456.848 96.8533 456.394 97C455.941 97.16 455.468 97.24 454.974 97.24ZM459.348 101.64C458.948 101.64 458.595 101.6 458.288 101.52C457.995 101.44 457.762 101.347 457.588 101.24L457.988 99.74C458.148 99.8333 458.348 99.9133 458.588 99.98C458.828 100.047 459.095 100.08 459.388 100.08C459.948 100.08 460.448 99.9 460.888 99.54C461.328 99.18 461.748 98.4733 462.148 97.42L462.608 96.22H461.648L457.588 87.08L459.188 86.36L463.068 95.02L466.088 86.44L467.748 87.08L463.928 97.52C463.542 98.5867 463.122 99.42 462.668 100.02C462.215 100.62 461.715 101.04 461.168 101.28C460.622 101.52 460.015 101.64 459.348 101.64ZM469.355 97.24C468.995 97.24 468.682 97.1067 468.415 96.84C468.149 96.5733 468.015 96.26 468.015 95.9C468.015 95.4867 468.135 95.16 468.375 94.92C468.615 94.68 468.942 94.56 469.355 94.56C469.702 94.56 470.009 94.6933 470.275 94.96C470.555 95.2267 470.695 95.54 470.695 95.9C470.695 96.3 470.569 96.6267 470.315 96.88C470.062 97.12 469.742 97.24 469.355 97.24ZM48.8 122V108.04C49.3467 107.973 49.9467 107.927 50.6 107.9C51.2667 107.86 51.9533 107.84 52.66 107.84C53.82 107.84 54.8067 108.027 55.62 108.4C56.4333 108.76 57.0533 109.26 57.48 109.9C57.9067 110.54 58.12 111.273 58.12 112.1C58.12 113.1 57.8733 113.947 57.38 114.64C56.8867 115.333 56.2 115.867 55.32 116.24C54.44 116.6 53.42 116.78 52.26 116.78C51.7 116.78 51.18 116.76 50.7 116.72V122H48.8ZM52.5 115.2C53.6867 115.2 54.6067 114.933 55.26 114.4C55.9133 113.867 56.24 113.153 56.24 112.26C56.24 111.393 55.9267 110.707 55.3 110.2C54.6733 109.693 53.78 109.44 52.62 109.44C52.26 109.44 51.92 109.447 51.6 109.46C51.28 109.473 50.98 109.493 50.7 109.52V115.1C50.9133 115.127 51.1733 115.153 51.48 115.18C51.7867 115.193 52.1267 115.2 52.5 115.2ZM63.3811 122.24C62.7678 122.24 62.2144 122.127 61.7211 121.9C61.2278 121.66 60.8344 121.28 60.5411 120.76C60.2611 120.24 60.1211 119.567 60.1211 118.74V107.2H61.9211V118.56C61.9211 119.28 62.0678 119.813 62.3611 120.16C62.6678 120.507 63.0878 120.68 63.6211 120.68C63.8744 120.68 64.1211 120.653 64.3611 120.6C64.6144 120.533 64.8278 120.46 65.0011 120.38L65.4411 121.84C65.2011 121.947 64.9011 122.04 64.5411 122.12C64.1944 122.2 63.8078 122.24 63.3811 122.24ZM71.0022 122.24C69.5089 122.24 68.3222 121.767 67.4422 120.82C66.5755 119.86 66.1422 118.52 66.1422 116.8C66.1422 115.76 66.3355 114.833 66.7222 114.02C67.1222 113.193 67.6755 112.547 68.3822 112.08C69.0889 111.6 69.9089 111.36 70.8422 111.36C71.8422 111.36 72.6689 111.58 73.3222 112.02C73.9889 112.447 74.4889 113.027 74.8222 113.76C75.1555 114.493 75.3222 115.3 75.3222 116.18C75.3222 116.647 75.3022 117.1 75.2622 117.54H67.9822C68.1022 118.513 68.4422 119.273 69.0022 119.82C69.5622 120.367 70.3022 120.64 71.2222 120.64C71.8222 120.64 72.3622 120.58 72.8422 120.46C73.3222 120.327 73.7822 120.16 74.2222 119.96L74.6422 121.5C74.1622 121.713 73.6222 121.887 73.0222 122.02C72.4222 122.167 71.7489 122.24 71.0022 122.24ZM67.9622 116.08H73.6622C73.6622 115.067 73.4089 114.287 72.9022 113.74C72.3955 113.193 71.6955 112.92 70.8022 112.92C70.0289 112.92 69.3889 113.193 68.8822 113.74C68.3755 114.273 68.0689 115.053 67.9622 116.08ZM81.7011 122.24C80.8344 122.24 80.0478 122.02 79.3411 121.58C78.6344 121.14 78.0678 120.52 77.6411 119.72C77.2278 118.907 77.0211 117.953 77.0211 116.86C77.0211 115.82 77.2278 114.887 77.6411 114.06C78.0678 113.233 78.6478 112.58 79.3811 112.1C80.1278 111.607 80.9811 111.36 81.9411 111.36C82.5411 111.36 83.0811 111.467 83.5611 111.68C84.0544 111.88 84.4811 112.133 84.8411 112.44V111.6H86.4811V119.48C86.4811 119.987 86.6011 120.32 86.8411 120.48C87.0944 120.627 87.3678 120.7 87.6611 120.7L87.2811 122.1C86.0011 122.1 85.2278 121.58 84.9611 120.54C84.6544 120.967 84.2344 121.36 83.7011 121.72C83.1811 122.067 82.5144 122.24 81.7011 122.24ZM82.1011 120.64C82.6078 120.64 83.0878 120.52 83.5411 120.28C83.9944 120.027 84.3744 119.713 84.6811 119.34V113.76C84.3211 113.507 83.9211 113.307 83.4811 113.16C83.0544 113 82.6011 112.92 82.1211 112.92C81.4811 112.92 80.9144 113.087 80.4211 113.42C79.9411 113.74 79.5611 114.193 79.2811 114.78C79.0011 115.353 78.8611 116.027 78.8611 116.8C78.8611 117.547 79.0011 118.213 79.2811 118.8C79.5611 119.373 79.9478 119.827 80.4411 120.16C80.9344 120.48 81.4878 120.64 82.1011 120.64ZM92.8648 122.24C92.0782 122.24 91.3648 122.14 90.7248 121.94C90.0982 121.74 89.5782 121.48 89.1648 121.16L89.9248 119.66C90.2715 119.953 90.7048 120.2 91.2248 120.4C91.7582 120.587 92.3248 120.68 92.9248 120.68C93.6715 120.68 94.2315 120.56 94.6048 120.32C94.9915 120.067 95.1848 119.747 95.1848 119.36C95.1848 119.08 95.1115 118.833 94.9648 118.62C94.8315 118.407 94.5782 118.2 94.2048 118C93.8315 117.787 93.2915 117.56 92.5848 117.32C91.6115 116.987 90.8782 116.593 90.3848 116.14C89.9048 115.673 89.6648 115.033 89.6648 114.22C89.6648 113.42 90.0115 112.747 90.7048 112.2C91.4115 111.64 92.3848 111.36 93.6248 111.36C94.2915 111.36 94.8848 111.433 95.4048 111.58C95.9248 111.713 96.3915 111.887 96.8048 112.1L96.3048 113.58C95.9448 113.367 95.5315 113.193 95.0648 113.06C94.6115 112.927 94.1048 112.86 93.5448 112.86C92.8515 112.86 92.3248 113 91.9648 113.28C91.6048 113.56 91.4248 113.867 91.4248 114.2C91.4248 114.52 91.5648 114.793 91.8448 115.02C92.1248 115.247 92.6715 115.493 93.4848 115.76C94.8048 116.2 95.7248 116.687 96.2448 117.22C96.7648 117.753 97.0248 118.42 97.0248 119.22C97.0248 120.153 96.6448 120.893 95.8848 121.44C95.1382 121.973 94.1315 122.24 92.8648 122.24ZM103.58 122.24C102.087 122.24 100.9 121.767 100.02 120.82C99.1536 119.86 98.7203 118.52 98.7203 116.8C98.7203 115.76 98.9136 114.833 99.3003 114.02C99.7003 113.193 100.254 112.547 100.96 112.08C101.667 111.6 102.487 111.36 103.42 111.36C104.42 111.36 105.247 111.58 105.9 112.02C106.567 112.447 107.067 113.027 107.4 113.76C107.734 114.493 107.9 115.3 107.9 116.18C107.9 116.647 107.88 117.1 107.84 117.54H100.56C100.68 118.513 101.02 119.273 101.58 119.82C102.14 120.367 102.88 120.64 103.8 120.64C104.4 120.64 104.94 120.58 105.42 120.46C105.9 120.327 106.36 120.16 106.8 119.96L107.22 121.5C106.74 121.713 106.2 121.887 105.6 122.02C105 122.167 104.327 122.24 103.58 122.24ZM100.54 116.08H106.24C106.24 115.067 105.987 114.287 105.48 113.74C104.974 113.193 104.274 112.92 103.38 112.92C102.607 112.92 101.967 113.193 101.46 113.74C100.954 114.273 100.647 115.053 100.54 116.08ZM120.455 122.24C118.962 122.24 117.775 121.767 116.895 120.82C116.029 119.86 115.595 118.52 115.595 116.8C115.595 115.76 115.789 114.833 116.175 114.02C116.575 113.193 117.129 112.547 117.835 112.08C118.542 111.6 119.362 111.36 120.295 111.36C121.295 111.36 122.122 111.58 122.775 112.02C123.442 112.447 123.942 113.027 124.275 113.76C124.609 114.493 124.775 115.3 124.775 116.18C124.775 116.647 124.755 117.1 124.715 117.54H117.435C117.555 118.513 117.895 119.273 118.455 119.82C119.015 120.367 119.755 120.64 120.675 120.64C121.275 120.64 121.815 120.58 122.295 120.46C122.775 120.327 123.235 120.16 123.675 119.96L124.095 121.5C123.615 121.713 123.075 121.887 122.475 122.02C121.875 122.167 121.202 122.24 120.455 122.24ZM117.415 116.08H123.115C123.115 115.067 122.862 114.287 122.355 113.74C121.849 113.193 121.149 112.92 120.255 112.92C119.482 112.92 118.842 113.193 118.335 113.74C117.829 114.273 117.522 115.053 117.415 116.08ZM127.174 122V111.6H128.914V113.86C129.088 113.42 129.321 113.013 129.614 112.64C129.908 112.253 130.274 111.947 130.714 111.72C131.154 111.48 131.668 111.36 132.254 111.36C132.454 111.36 132.654 111.373 132.854 111.4C133.054 111.413 133.221 111.44 133.354 111.48L132.814 113.34C132.561 113.233 132.261 113.18 131.914 113.18C131.421 113.18 130.948 113.32 130.494 113.6C130.054 113.88 129.688 114.313 129.394 114.9C129.114 115.487 128.974 116.233 128.974 117.14V122H127.174ZM138.537 122.24C137.67 122.24 136.884 122.02 136.177 121.58C135.47 121.14 134.904 120.52 134.477 119.72C134.064 118.907 133.857 117.953 133.857 116.86C133.857 115.82 134.064 114.887 134.477 114.06C134.904 113.233 135.484 112.58 136.217 112.1C136.964 111.607 137.817 111.36 138.777 111.36C139.377 111.36 139.917 111.467 140.397 111.68C140.89 111.88 141.317 112.133 141.677 112.44V111.6H143.317V119.48C143.317 119.987 143.437 120.32 143.677 120.48C143.93 120.627 144.204 120.7 144.497 120.7L144.117 122.1C142.837 122.1 142.064 121.58 141.797 120.54C141.49 120.967 141.07 121.36 140.537 121.72C140.017 122.067 139.35 122.24 138.537 122.24ZM138.937 120.64C139.444 120.64 139.924 120.52 140.377 120.28C140.83 120.027 141.21 119.713 141.517 119.34V113.76C141.157 113.507 140.757 113.307 140.317 113.16C139.89 113 139.437 112.92 138.957 112.92C138.317 112.92 137.75 113.087 137.257 113.42C136.777 113.74 136.397 114.193 136.117 114.78C135.837 115.353 135.697 116.027 135.697 116.8C135.697 117.547 135.837 118.213 136.117 118.8C136.397 119.373 136.784 119.827 137.277 120.16C137.77 120.48 138.324 120.64 138.937 120.64ZM149.701 122.24C148.914 122.24 148.201 122.14 147.561 121.94C146.934 121.74 146.414 121.48 146.001 121.16L146.761 119.66C147.107 119.953 147.541 120.2 148.061 120.4C148.594 120.587 149.161 120.68 149.761 120.68C150.507 120.68 151.067 120.56 151.441 120.32C151.827 120.067 152.021 119.747 152.021 119.36C152.021 119.08 151.947 118.833 151.801 118.62C151.667 118.407 151.414 118.2 151.041 118C150.667 117.787 150.127 117.56 149.421 117.32C148.447 116.987 147.714 116.593 147.221 116.14C146.741 115.673 146.501 115.033 146.501 114.22C146.501 113.42 146.847 112.747 147.541 112.2C148.247 111.64 149.221 111.36 150.461 111.36C151.127 111.36 151.721 111.433 152.241 111.58C152.761 111.713 153.227 111.887 153.641 112.1L153.141 113.58C152.781 113.367 152.367 113.193 151.901 113.06C151.447 112.927 150.941 112.86 150.381 112.86C149.687 112.86 149.161 113 148.801 113.28C148.441 113.56 148.261 113.867 148.261 114.2C148.261 114.52 148.401 114.793 148.681 115.02C148.961 115.247 149.507 115.493 150.321 115.76C151.641 116.2 152.561 116.687 153.081 117.22C153.601 117.753 153.861 118.42 153.861 119.22C153.861 120.153 153.481 120.893 152.721 121.44C151.974 121.973 150.967 122.24 149.701 122.24ZM160.416 122.24C158.923 122.24 157.736 121.767 156.856 120.82C155.99 119.86 155.556 118.52 155.556 116.8C155.556 115.76 155.75 114.833 156.136 114.02C156.536 113.193 157.09 112.547 157.796 112.08C158.503 111.6 159.323 111.36 160.256 111.36C161.256 111.36 162.083 111.58 162.736 112.02C163.403 112.447 163.903 113.027 164.236 113.76C164.57 114.493 164.736 115.3 164.736 116.18C164.736 116.647 164.716 117.1 164.676 117.54H157.396C157.516 118.513 157.856 119.273 158.416 119.82C158.976 120.367 159.716 120.64 160.636 120.64C161.236 120.64 161.776 120.58 162.256 120.46C162.736 120.327 163.196 120.16 163.636 119.96L164.056 121.5C163.576 121.713 163.036 121.887 162.436 122.02C161.836 122.167 161.163 122.24 160.416 122.24ZM157.376 116.08H163.076C163.076 115.067 162.823 114.287 162.316 113.74C161.81 113.193 161.11 112.92 160.216 112.92C159.443 112.92 158.803 113.193 158.296 113.74C157.79 114.273 157.483 115.053 157.376 116.08ZM175.931 122.24C175.145 122.24 174.431 122.14 173.791 121.94C173.165 121.74 172.645 121.48 172.231 121.16L172.991 119.66C173.338 119.953 173.771 120.2 174.291 120.4C174.825 120.587 175.391 120.68 175.991 120.68C176.738 120.68 177.298 120.56 177.671 120.32C178.058 120.067 178.251 119.747 178.251 119.36C178.251 119.08 178.178 118.833 178.031 118.62C177.898 118.407 177.645 118.2 177.271 118C176.898 117.787 176.358 117.56 175.651 117.32C174.678 116.987 173.945 116.593 173.451 116.14C172.971 115.673 172.731 115.033 172.731 114.22C172.731 113.42 173.078 112.747 173.771 112.2C174.478 111.64 175.451 111.36 176.691 111.36C177.358 111.36 177.951 111.433 178.471 111.58C178.991 111.713 179.458 111.887 179.871 112.1L179.371 113.58C179.011 113.367 178.598 113.193 178.131 113.06C177.678 112.927 177.171 112.86 176.611 112.86C175.918 112.86 175.391 113 175.031 113.28C174.671 113.56 174.491 113.867 174.491 114.2C174.491 114.52 174.631 114.793 174.911 115.02C175.191 115.247 175.738 115.493 176.551 115.76C177.871 116.2 178.791 116.687 179.311 117.22C179.831 117.753 180.091 118.42 180.091 119.22C180.091 120.153 179.711 120.893 178.951 121.44C178.205 121.973 177.198 122.24 175.931 122.24ZM186.867 122.24C185.88 122.24 184.993 122.013 184.207 121.56C183.42 121.093 182.8 120.453 182.347 119.64C181.907 118.813 181.687 117.867 181.687 116.8C181.687 115.68 181.913 114.713 182.367 113.9C182.82 113.087 183.44 112.46 184.227 112.02C185.013 111.58 185.893 111.36 186.867 111.36C187.84 111.36 188.713 111.58 189.487 112.02C190.273 112.46 190.893 113.087 191.347 113.9C191.813 114.7 192.047 115.653 192.047 116.76C192.047 117.867 191.82 118.833 191.367 119.66C190.913 120.473 190.293 121.107 189.507 121.56C188.733 122.013 187.853 122.24 186.867 122.24ZM186.867 120.64C187.92 120.64 188.74 120.287 189.327 119.58C189.913 118.86 190.207 117.933 190.207 116.8C190.207 116.107 190.06 115.473 189.767 114.9C189.473 114.313 189.073 113.847 188.567 113.5C188.073 113.14 187.507 112.96 186.867 112.96C185.813 112.96 184.993 113.307 184.407 114C183.82 114.693 183.527 115.613 183.527 116.76C183.527 117.453 183.673 118.1 183.967 118.7C184.26 119.287 184.653 119.76 185.147 120.12C185.653 120.467 186.227 120.64 186.867 120.64ZM194.44 122V111.6H196.18V113.34C196.553 112.78 197.027 112.313 197.6 111.94C198.173 111.553 198.827 111.36 199.56 111.36C200.387 111.36 201.06 111.56 201.58 111.96C202.113 112.36 202.487 112.893 202.7 113.56C203.113 112.947 203.6 112.427 204.16 112C204.733 111.573 205.44 111.36 206.28 111.36C207.413 111.36 208.253 111.72 208.8 112.44C209.36 113.147 209.64 114.073 209.64 115.22V122H207.84V115.36C207.84 114.64 207.673 114.06 207.34 113.62C207.007 113.167 206.547 112.94 205.96 112.94C205.36 112.94 204.8 113.167 204.28 113.62C203.773 114.06 203.327 114.58 202.94 115.18V122H201.14V115.36C201.14 114.64 200.973 114.06 200.64 113.62C200.307 113.167 199.847 112.94 199.26 112.94C198.673 112.94 198.12 113.16 197.6 113.6C197.08 114.027 196.627 114.533 196.24 115.12V122H194.44ZM216.901 122.24C215.407 122.24 214.221 121.767 213.341 120.82C212.474 119.86 212.041 118.52 212.041 116.8C212.041 115.76 212.234 114.833 212.621 114.02C213.021 113.193 213.574 112.547 214.281 112.08C214.987 111.6 215.807 111.36 216.741 111.36C217.741 111.36 218.567 111.58 219.221 112.02C219.887 112.447 220.387 113.027 220.721 113.76C221.054 114.493 221.221 115.3 221.221 116.18C221.221 116.647 221.201 117.1 221.161 117.54H213.881C214.001 118.513 214.341 119.273 214.901 119.82C215.461 120.367 216.201 120.64 217.121 120.64C217.721 120.64 218.261 120.58 218.741 120.46C219.221 120.327 219.681 120.16 220.121 119.96L220.541 121.5C220.061 121.713 219.521 121.887 218.921 122.02C218.321 122.167 217.647 122.24 216.901 122.24ZM213.861 116.08H219.561C219.561 115.067 219.307 114.287 218.801 113.74C218.294 113.193 217.594 112.92 216.701 112.92C215.927 112.92 215.287 113.193 214.781 113.74C214.274 114.273 213.967 115.053 213.861 116.08ZM229.816 122V113.54H228.216V111.98H229.816V110.76C229.816 109.587 230.142 108.66 230.796 107.98C231.449 107.3 232.302 106.96 233.356 106.96C233.902 106.96 234.382 107.027 234.796 107.16C235.209 107.28 235.602 107.433 235.976 107.62L235.436 109.14C235.156 108.993 234.856 108.86 234.536 108.74C234.216 108.62 233.862 108.56 233.476 108.56C232.916 108.56 232.462 108.74 232.116 109.1C231.782 109.447 231.616 109.96 231.616 110.64V111.98H234.696V113.54H231.616V122H229.816ZM236.569 122V111.6H238.369V122H236.569ZM237.469 109.82C237.122 109.82 236.822 109.693 236.569 109.44C236.329 109.187 236.209 108.893 236.209 108.56C236.209 108.173 236.322 107.867 236.549 107.64C236.775 107.413 237.082 107.3 237.469 107.3C237.815 107.3 238.109 107.427 238.349 107.68C238.602 107.92 238.729 108.213 238.729 108.56C238.729 108.933 238.615 109.24 238.389 109.48C238.162 109.707 237.855 109.82 237.469 109.82ZM244.729 122.24C244.115 122.24 243.562 122.127 243.069 121.9C242.575 121.66 242.182 121.28 241.889 120.76C241.609 120.24 241.469 119.567 241.469 118.74V107.2H243.269V118.56C243.269 119.28 243.415 119.813 243.709 120.16C244.015 120.507 244.435 120.68 244.969 120.68C245.222 120.68 245.469 120.653 245.709 120.6C245.962 120.533 246.175 120.46 246.349 120.38L246.789 121.84C246.549 121.947 246.249 122.04 245.889 122.12C245.542 122.2 245.155 122.24 244.729 122.24ZM252.35 122.24C250.857 122.24 249.67 121.767 248.79 120.82C247.923 119.86 247.49 118.52 247.49 116.8C247.49 115.76 247.683 114.833 248.07 114.02C248.47 113.193 249.023 112.547 249.73 112.08C250.437 111.6 251.257 111.36 252.19 111.36C253.19 111.36 254.017 111.58 254.67 112.02C255.337 112.447 255.837 113.027 256.17 113.76C256.503 114.493 256.67 115.3 256.67 116.18C256.67 116.647 256.65 117.1 256.61 117.54H249.33C249.45 118.513 249.79 119.273 250.35 119.82C250.91 120.367 251.65 120.64 252.57 120.64C253.17 120.64 253.71 120.58 254.19 120.46C254.67 120.327 255.13 120.16 255.57 119.96L255.99 121.5C255.51 121.713 254.97 121.887 254.37 122.02C253.77 122.167 253.097 122.24 252.35 122.24ZM249.31 116.08H255.01C255.01 115.067 254.757 114.287 254.25 113.74C253.743 113.193 253.043 112.92 252.15 112.92C251.377 112.92 250.737 113.193 250.23 113.74C249.723 114.273 249.417 115.053 249.31 116.08ZM261.869 122.24C261.082 122.24 260.369 122.14 259.729 121.94C259.102 121.74 258.582 121.48 258.169 121.16L258.929 119.66C259.275 119.953 259.709 120.2 260.229 120.4C260.762 120.587 261.329 120.68 261.929 120.68C262.675 120.68 263.235 120.56 263.609 120.32C263.995 120.067 264.189 119.747 264.189 119.36C264.189 119.08 264.115 118.833 263.969 118.62C263.835 118.407 263.582 118.2 263.209 118C262.835 117.787 262.295 117.56 261.589 117.32C260.615 116.987 259.882 116.593 259.389 116.14C258.909 115.673 258.669 115.033 258.669 114.22C258.669 113.42 259.015 112.747 259.709 112.2C260.415 111.64 261.389 111.36 262.629 111.36C263.295 111.36 263.889 111.433 264.409 111.58C264.929 111.713 265.395 111.887 265.809 112.1L265.309 113.58C264.949 113.367 264.535 113.193 264.069 113.06C263.615 112.927 263.109 112.86 262.549 112.86C261.855 112.86 261.329 113 260.969 113.28C260.609 113.56 260.429 113.867 260.429 114.2C260.429 114.52 260.569 114.793 260.849 115.02C261.129 115.247 261.675 115.493 262.489 115.76C263.809 116.2 264.729 116.687 265.249 117.22C265.769 117.753 266.029 118.42 266.029 119.22C266.029 120.153 265.649 120.893 264.889 121.44C264.142 121.973 263.135 122.24 261.869 122.24ZM269.824 122.24C269.464 122.24 269.151 122.107 268.884 121.84C268.618 121.573 268.484 121.26 268.484 120.9C268.484 120.487 268.604 120.16 268.844 119.92C269.084 119.68 269.411 119.56 269.824 119.56C270.171 119.56 270.478 119.693 270.744 119.96C271.024 120.227 271.164 120.54 271.164 120.9C271.164 121.3 271.038 121.627 270.784 121.88C270.531 122.12 270.211 122.24 269.824 122.24Z" fill="black"/>
<rect x="230.25" y="164.25" width="104.5" height="55.5" rx="3.75" stroke="#100C0D" stroke-width="2.5"/>
<path d="M275.62 200.288C274.372 200.288 273.26 200.064 272.284 199.616C271.308 199.152 270.476 198.528 269.788 197.744C269.116 196.944 268.596 196.016 268.228 194.96C267.876 193.904 267.7 192.776 267.7 191.576C267.7 189.928 268.012 188.456 268.636 187.16C269.276 185.848 270.188 184.816 271.372 184.064C272.556 183.296 273.972 182.912 275.62 182.912C276.852 182.912 277.956 183.136 278.932 183.584C279.924 184.032 280.764 184.656 281.452 185.456C282.14 186.256 282.66 187.176 283.012 188.216C283.38 189.256 283.564 190.376 283.564 191.576C283.564 192.776 283.38 193.904 283.012 194.96C282.66 196.016 282.14 196.944 281.452 197.744C280.764 198.528 279.932 199.152 278.956 199.616C277.98 200.064 276.868 200.288 275.62 200.288ZM275.62 198.32C276.852 198.32 277.884 198.024 278.716 197.432C279.548 196.84 280.172 196.04 280.588 195.032C281.02 194.008 281.236 192.856 281.236 191.576C281.236 190.712 281.108 189.88 280.852 189.08C280.596 188.28 280.228 187.568 279.748 186.944C279.268 186.304 278.676 185.8 277.972 185.432C277.284 185.064 276.5 184.88 275.62 184.88C274.452 184.88 273.444 185.176 272.596 185.768C271.764 186.36 271.124 187.16 270.676 188.168C270.244 189.176 270.028 190.312 270.028 191.576C270.028 192.44 270.148 193.28 270.388 194.096C270.644 194.896 271.012 195.616 271.492 196.256C271.972 196.896 272.556 197.4 273.244 197.768C273.948 198.136 274.74 198.32 275.62 198.32ZM296.358 200.288L288.198 192.272V200H285.918V183.2H288.198V190.856L295.35 183.128L296.886 184.544L290.334 191.36L297.942 198.656L296.358 200.288Z" fill="#100C0D"/>
<path d="M167.268 7C168.038 5.66667 169.962 5.66667 170.732 7L187.187 35.5C187.956 36.8333 186.994 38.5 185.454 38.5H152.546C151.006 38.5 150.044 36.8333 150.813 35.5L167.268 7Z" fill="#FDC334"/>
<path d="M168.995 19C169.897 19 170.623 19.7425 170.602 20.6445L170.412 28.9091C170.394 29.6789 169.765 30.2937 168.995 30.2937V30.2937C168.225 30.2937 167.596 29.6789 167.578 28.9091L167.388 20.6445C167.367 19.7425 168.093 19 168.995 19V19ZM169 35C168.447 35 167.973 34.8503 167.58 34.551C167.187 34.2466 166.994 33.8802 167 33.4519C166.994 33.0287 167.187 32.6675 167.58 32.3682C167.973 32.0637 168.447 31.9115 169 31.9115C169.54 31.9115 170.007 32.0637 170.4 32.3682C170.793 32.6675 170.993 33.0287 171 33.4519C170.993 33.7357 170.897 33.9963 170.71 34.2337C170.53 34.4659 170.29 34.6517 169.99 34.791C169.69 34.9303 169.36 35 169 35Z" fill="black"/>
</svg>
