<svg width="133" height="162" viewBox="0 0 153 182" fill="none" xmlns="http://www.w3.org/2000/svg">
<path d="M138.484 22.9839C138.484 35.6775 128.194 45.9677 115.5 45.9677C102.806 45.9677 92.5161 35.6775 92.5161 22.9839C92.5161 10.2902 102.806 0 115.5 0C128.194 0 138.484 10.2902 138.484 22.9839Z" fill="white"/>
<path fill-rule="evenodd" clip-rule="evenodd" d="M115.5 39.9194C124.853 39.9194 132.435 32.3371 132.435 22.9839C132.435 13.6307 124.853 6.04839 115.5 6.04839C106.147 6.04839 98.5645 13.6307 98.5645 22.9839C98.5645 32.3371 106.147 39.9194 115.5 39.9194ZM115.5 45.9677C128.194 45.9677 138.484 35.6775 138.484 22.9839C138.484 10.2902 128.194 0 115.5 0C102.806 0 92.5161 10.2902 92.5161 22.9839C92.5161 35.6775 102.806 45.9677 115.5 45.9677Z" fill="black"/>
<path d="M128.806 22.9839C128.806 30.3328 122.849 36.2903 115.5 36.2903C108.151 36.2903 102.194 30.3328 102.194 22.9839C102.194 15.6349 108.151 9.67741 115.5 9.67741C122.849 9.67741 128.806 15.6349 128.806 22.9839Z" fill="black"/>
<path fill-rule="evenodd" clip-rule="evenodd" d="M64.3354 147.086C65.9449 136.638 66.0947 126.908 65.7529 121.26L75.4127 120.675C75.7944 126.982 75.6186 137.404 73.9 148.559C72.191 159.653 68.8882 171.935 62.7291 181.627L54.5613 176.437C59.6886 168.368 62.7164 157.596 64.3354 147.086Z" fill="black"/>
<path fill-rule="evenodd" clip-rule="evenodd" d="M123.211 151.985C120.181 143.816 113.419 135.458 101.838 127.351L107.388 119.423C120 128.252 128.36 138.039 132.285 148.619C136.251 159.313 135.492 170.294 130.82 180.972L121.954 177.093C125.75 168.416 126.2 160.042 123.211 151.985Z" fill="black"/>
<path d="M46.5484 177.823C46.5484 175.818 48.1732 174.194 50.1774 174.194H84.0484C86.0527 174.194 87.6774 175.818 87.6774 177.823C87.6774 179.827 86.0527 181.452 84.0484 181.452H50.1774C48.1732 181.452 46.5484 179.827 46.5484 177.823Z" fill="black"/>
<path d="M114.29 177.823C114.29 175.818 115.915 174.194 117.919 174.194H149.371C151.375 174.194 153 175.818 153 177.823C153 179.827 151.375 181.452 149.371 181.452H117.919C115.915 181.452 114.29 179.827 114.29 177.823Z" fill="black"/>
<path fill-rule="evenodd" clip-rule="evenodd" d="M143.248 13.9043C145.184 13.1921 147.066 15.0741 146.354 17.0102L100.512 141.623C99.292 144.938 95.0465 145.871 92.5488 143.374L64.9839 115.808L25.5776 155.533C24.6339 156.485 23.0968 156.488 22.1492 155.54L4.71765 138.109C3.77013 137.161 3.77323 135.624 4.72457 134.68L44.4508 95.2739L16.8856 67.7078C14.388 65.2101 15.3216 60.9647 18.6366 59.7452L143.248 13.9043Z" fill="white"/>
<path fill-rule="evenodd" clip-rule="evenodd" d="M142.204 11.066C146.56 9.46356 150.794 13.6982 149.192 18.0543L103.35 142.667C101.368 148.054 94.4691 149.571 90.4104 145.512L64.9925 120.093L27.7247 157.663C25.6014 159.804 22.1428 159.811 20.0108 157.679L2.57924 140.247C0.447327 138.115 0.454316 134.657 2.59482 132.533L40.1653 95.2652L14.7472 69.8462C10.6885 65.7874 12.2056 58.8886 17.5925 56.9069L142.204 11.066ZM143.064 17.1944L19.6807 62.5834C18.4376 63.0407 18.0875 64.6327 19.0241 65.5694L48.7363 95.2826L7.28551 136.4L23.8583 152.973L64.9753 111.522L94.6873 141.235C95.6239 142.172 97.216 141.822 97.6734 140.579L143.064 17.1944Z" fill="black"/>
<path d="M97.3548 37.5C97.3548 50.1936 87.0646 60.4839 74.371 60.4839C61.6773 60.4839 51.3871 50.1936 51.3871 37.5C51.3871 24.8064 61.6773 14.5161 74.371 14.5161C87.0646 14.5161 97.3548 24.8064 97.3548 37.5Z" fill="white"/>
<path fill-rule="evenodd" clip-rule="evenodd" d="M74.371 54.4355C83.7242 54.4355 91.3064 46.8532 91.3064 37.5C91.3064 28.1468 83.7242 20.5645 74.371 20.5645C65.0177 20.5645 57.4355 28.1468 57.4355 37.5C57.4355 46.8532 65.0177 54.4355 74.371 54.4355ZM74.371 60.4839C87.0646 60.4839 97.3548 50.1936 97.3548 37.5C97.3548 24.8064 87.0646 14.5161 74.371 14.5161C61.6773 14.5161 51.3871 24.8064 51.3871 37.5C51.3871 50.1936 61.6773 60.4839 74.371 60.4839Z" fill="black"/>
<path d="M87.6774 37.5C87.6774 44.8489 81.7199 50.8064 74.371 50.8064C67.022 50.8064 61.0645 44.8489 61.0645 37.5C61.0645 30.151 67.022 24.1935 74.371 24.1935C81.7199 24.1935 87.6774 30.151 87.6774 37.5Z" fill="black"/>
<path fill-rule="evenodd" clip-rule="evenodd" d="M107.204 39.106C108.321 37.8645 110.233 37.7639 111.475 38.8812C115.019 42.071 124.657 47.0808 134.712 42.0531C136.206 41.3062 138.022 41.9117 138.769 43.4056C139.516 44.8995 138.911 46.716 137.417 47.463C124.246 54.0483 111.949 47.4451 107.429 43.3769C106.187 42.2596 106.086 40.3474 107.204 39.106Z" fill="black"/>
</svg>
