<svg width="61" height="104" viewBox="0 0 61 104" fill="none" xmlns="http://www.w3.org/2000/svg">
<path d="M42.4192 60.0469L39.7724 65.3128L37.6595 63.9116C36.0077 62.8162 33.8629 64.2913 34.2951 66.2257C34.3988 66.6899 34.65 67.108 35.0112 67.4174L35.0112 67.4174L39.0018 70.8358C40.1495 71.8189 41.9207 71.4136 42.5267 70.0293L45.5392 63.1479L48.5755 63.6377L48.5538 63.7097C48.085 65.264 49.3665 66.7881 50.9782 66.5931L57.3927 65.817C59.5141 65.5604 60.1166 62.7686 58.2899 61.6599L53.2345 58.5913L52.5885 59.6557L53.2345 58.5913C51.9886 57.8351 50.3635 58.4448 49.9225 59.834L49.7971 60.2291L45.0385 58.8913C44.0014 58.5997 42.9031 59.0842 42.4192 60.0469ZM39.646 65.5643L39.6458 65.5647L39.646 65.5643Z" fill="#EF3246" stroke="#100C0D" stroke-width="2.5"/>
<circle cx="6.06975" cy="6.06975" r="6.06975" transform="matrix(-0.958659 0.284557 0.284557 0.958659 14.3484 0)" fill="white" stroke="#100C0D" stroke-width="2.5"/>
<path d="M15.4822 26.7271C17.5888 24.2838 19.8694 23.6123 21.6447 22.9721C21.9172 22.8738 22.129 22.6575 22.228 22.3852L25.2868 13.9763C25.6259 13.044 26.9693 13.1213 27.1993 14.0863L29.1466 22.2573C29.2288 22.6021 29.4897 22.8724 29.8189 23.0038C31.0775 23.5063 31.9799 24.2981 32.5767 25.0268C32.8668 25.3811 33.3378 25.5567 33.7729 25.4139L43.3955 22.2537C44.3086 21.9539 45.0778 22.9891 44.5271 23.7767L37.1173 34.3766C36.9999 34.5446 36.9372 34.7415 36.9359 34.9465C36.9094 38.9486 36.4007 48.137 36.0955 53.1262C36.0627 53.6626 36.4589 54.1295 36.9935 54.1837L41.7018 54.6609C42.6779 54.7598 42.9427 56.0588 42.0831 56.5319L35.5311 60.1376C35.1235 60.362 34.9244 60.8378 35.0509 61.2856L39.0242 75.3489C39.1256 75.7077 39.4182 75.9803 39.7833 76.0561L47.1736 77.5904C48.103 77.7834 48.2659 79.0413 47.4163 79.4646L42.3689 81.9796C41.6529 82.3364 41.1918 83.7516 41.2617 84.5485C41.3672 85.7512 41.292 87.32 41.19 88.456C41.1619 88.7684 41.2755 89.077 41.5041 89.2919L46.8248 94.294C47.5336 94.9604 46.9698 96.144 46.0057 96.0135L37.4268 94.8525C37.118 94.8108 36.8115 94.9221 36.5494 95.0905C35.083 96.0327 31.673 96.5512 29.6415 96.4569C29.4065 96.446 29.1733 96.5057 28.9799 96.6397L21.0383 102.145C20.2879 102.665 19.2902 101.991 19.4937 101.101L21.5147 92.2614C21.5823 91.9657 21.512 91.6553 21.3237 91.4175L17.4751 86.5596C17.2535 86.2799 16.8997 86.1394 16.5467 86.191L8.06272 87.4311C7.2084 87.5559 6.60801 86.6122 7.0831 85.8913L12.1987 78.1286C12.3654 77.8756 12.4084 77.5605 12.3156 77.272L10.0876 70.35C9.97771 70.0086 9.69341 69.7521 9.34251 69.678L3.04321 68.3464C2.09234 68.1454 1.95808 66.8432 2.84794 66.4524L8.21827 64.094C8.60293 63.9251 8.84099 63.5337 8.81414 63.1145L8.40841 56.78C7.47592 50.6237 9.57847 40.0244 10.8472 35.0722C10.9186 34.7933 10.8688 34.4977 10.708 34.2589L4.74447 25.4006C4.20129 24.5938 5.01297 23.565 5.92406 23.9055L14.3207 27.0433C14.7331 27.1974 15.1947 27.0605 15.4822 26.7271Z" fill="#EF3246" stroke="#100C0D" stroke-width="2.5"/>
<path d="M34.3247 11.5335C34.0288 14.6646 34.0495 21.1389 30.5 23.5" stroke="#100C0D" stroke-width="2.5"/>
<path d="M11.9312 12.9864C12.2272 16.1175 14.4505 22.6389 18 25" stroke="#100C0D" stroke-width="2.5"/>
<circle cx="35.8593" cy="7.54601" r="6.06975" transform="rotate(16.5324 35.8593 7.54601)" fill="white" stroke="#100C0D" stroke-width="2.5"/>
<rect x="9" y="5" width="2" height="6" rx="1" fill="#100C0D"/>
<rect x="35" y="5" width="2" height="6" rx="1" fill="#100C0D"/>
</svg>
