<svg width="63" height="104" viewBox="0 0 63 104" fill="none" xmlns="http://www.w3.org/2000/svg">
<path d="M44.4193 71.0469L41.7724 76.3128L39.6596 74.9116C38.0077 73.8162 35.863 75.2913 36.2951 77.2257C36.3988 77.6899 36.6501 78.108 37.0113 78.4174L37.0113 78.4174L41.0019 81.8358C42.1495 82.8189 43.9207 82.4136 44.5268 81.0293L47.5393 74.1479L50.5756 74.6377L50.5538 74.7097C50.0851 76.264 51.3665 77.7881 52.9782 77.5931L59.3928 76.817C61.5141 76.5604 62.1166 73.7686 60.29 72.6599L55.2346 69.5913L54.5885 70.6557L55.2346 69.5913C53.9887 68.8351 52.3635 69.4448 51.9226 70.834L51.7971 71.2291L47.0385 69.8913C46.0014 69.5997 44.9031 70.0842 44.4193 71.0469ZM41.646 76.5643L41.6458 76.5647L41.646 76.5643Z" fill="#EF3246" stroke="#100C0D" stroke-width="2.5"/>
<circle cx="39.8563" cy="7.54601" r="6.06975" transform="rotate(16.5324 39.8563 7.54601)" fill="white" stroke="#100C0D" stroke-width="2.5"/>
<path d="M34.6309 26.7271C32.5243 24.2838 30.2437 23.6123 28.4684 22.9721C28.1959 22.8738 27.9841 22.6575 27.8851 22.3852L24.8263 13.9763C24.4872 13.044 23.1438 13.1213 22.9138 14.0863L20.9664 22.2573C20.8843 22.6021 20.6234 22.8724 20.2942 23.0038C19.0356 23.5063 18.1332 24.2981 17.5364 25.0268C17.2463 25.3811 16.7753 25.5567 16.3402 25.4139L6.71756 22.2537C5.80448 21.9539 5.03532 22.9891 5.58595 23.7767L12.9958 34.3766C13.1132 34.5446 13.1759 34.7415 13.1772 34.9465C13.2037 38.9486 13.7124 48.137 14.0176 53.1262C14.0504 53.6626 13.6542 54.1295 13.1196 54.1837L8.41129 54.6609C7.43518 54.7598 7.17043 56.0588 8.02998 56.5319L14.582 60.1376C14.9896 60.362 15.1887 60.8378 15.0622 61.2856L11.0889 75.3489C10.9875 75.7077 10.6949 75.9803 10.3298 76.0561L2.93948 77.5904C2.01012 77.7834 1.84723 79.0413 2.69678 79.4646L7.74421 81.9796C8.46024 82.3364 8.92132 83.7516 8.85141 84.5485C8.7459 85.7512 8.82114 87.32 8.92311 88.456C8.95116 88.7684 8.83759 89.077 8.60903 89.2919L3.28834 94.294C2.57947 94.9604 3.14325 96.144 4.10741 96.0135L12.6863 94.8525C12.995 94.8108 13.3016 94.9221 13.5637 95.0905C15.0301 96.0327 18.4401 96.5512 20.4716 96.4569C20.7066 96.446 20.9398 96.5057 21.1332 96.6397L29.0748 102.145C29.8252 102.665 30.8229 101.991 30.6194 101.101L28.5984 92.2614C28.5308 91.9657 28.6011 91.6553 28.7894 91.4175L32.638 86.5596C32.8596 86.2799 33.2134 86.1394 33.5664 86.191L42.0504 87.4311C42.9047 87.5559 43.5051 86.6122 43.03 85.8913L37.9144 78.1286C37.7477 77.8756 37.7047 77.5605 37.7975 77.272L40.0255 70.35C40.1354 70.0086 40.4197 69.7521 40.7706 69.678L47.0699 68.3464C48.0208 68.1454 48.155 66.8432 47.2652 66.4524L41.8948 64.094C41.5102 63.9251 41.2721 63.5337 41.299 63.1145L41.7047 56.78C42.6372 50.6237 40.5346 40.0244 39.2659 35.0722C39.1945 34.7933 39.2443 34.4977 39.4051 34.2589L45.3686 25.4006C45.9118 24.5938 45.1001 23.565 44.189 23.9055L35.7924 27.0433C35.38 27.1974 34.9184 27.0605 34.6309 26.7271Z" fill="#EF3246" stroke="#100C0D" stroke-width="2.5"/>
<path d="M15.7884 11.5335C16.0844 14.6646 16.0636 21.1389 19.6131 23.5" stroke="#100C0D" stroke-width="2.5"/>
<path d="M38.1819 12.9864C37.8859 16.1175 35.6626 22.6389 32.1131 25" stroke="#100C0D" stroke-width="2.5"/>
<circle cx="6.06975" cy="6.06975" r="6.06975" transform="matrix(-0.958659 0.284557 0.284557 0.958659 18.3454 0)" fill="white" stroke="#100C0D" stroke-width="2.5"/>
<rect width="2" height="6" rx="1" transform="matrix(-1 0 0 1 41.1131 5)" fill="#100C0D"/>
<rect width="2" height="6" rx="1" transform="matrix(-1 0 0 1 15.1131 5)" fill="#100C0D"/>
</svg>
