<svg width="942" height="1479" viewBox="0 0 942 1479" fill="none" xmlns="http://www.w3.org/2000/svg">
<path d="M565.5 232.527C654 165.453 729 214.527 788 246.027V1281.53C692.96 1273.92 561.5 1203.53 537.5 1154.53C513.5 1105.53 523.7 1079.13 516.5 1031.53C492.5 1038.53 444.5 1053.53 408.5 1024.53C379.7 1001.33 389.167 948.194 397.5 924.527C384.5 932.36 348.3 943.327 307.5 924.527C256.5 901.027 290.5 835.527 337 853.027C383.5 870.527 581.5 853.027 537.5 754.527C495.587 660.699 357.167 710.527 313 754.527L154 519.527L273 551.027C228 417.027 386 363.027 444.5 417.027C433 366.527 489.333 342.194 516.5 354.027C513.167 333.361 506 277.622 565.5 232.527Z" fill="white" stroke="black" stroke-width="12" stroke-linecap="round" stroke-linejoin="round"/>
<path d="M324 746.527L352.5 819.527L380.5 810.689M537 761.527L495.5 774.389M399.5 708.527L432 794.433M432 794.433L495.5 774.389M432 794.433L380.5 810.689M471 703.527L495.5 774.389M380.5 810.689L394.5 858.527" stroke="black" stroke-width="12" stroke-linecap="round"/>
<path d="M425 799.027L441.5 850.027" stroke="black" stroke-width="12" stroke-linecap="round"/>
<path d="M475 786.527L491.5 837.527" stroke="black" stroke-width="12" stroke-linecap="round"/>
<path d="M278.535 631.952C276.989 629.986 277.352 626.572 280.407 624.754L421.463 540.804C424.507 538.993 427.673 540.286 428.673 542.57C446.172 582.51 431.56 630.155 393.023 653.09C354.494 676.02 305.501 666.245 278.535 631.952Z" fill="white" stroke="black" stroke-width="12"/>
<path fill-rule="evenodd" clip-rule="evenodd" d="M301.694 657.8C327.012 671.804 358.551 673.825 386.299 661.423C399.253 626.805 392.579 591.519 379.266 562.263L296.638 609.892C295.053 625.507 296.305 641.7 301.694 657.8Z" fill="black"/>
<path d="M301.694 657.8L300.497 658.201L300.653 658.667L301.083 658.905L301.694 657.8ZM386.299 661.423L386.814 662.575L387.297 662.36L387.482 661.865L386.299 661.423ZM379.266 562.263L380.415 561.74L379.84 560.475L378.635 561.169L379.266 562.263ZM296.638 609.892L296.008 608.798L295.447 609.121L295.382 609.764L296.638 609.892ZM301.083 658.905C326.737 673.095 358.694 675.144 386.814 662.575L385.784 660.27C358.409 672.506 327.286 670.513 302.305 656.695L301.083 658.905ZM387.482 661.865C400.592 626.829 393.812 591.181 380.415 561.74L378.117 562.786C391.346 591.858 397.914 626.781 385.117 660.98L387.482 661.865ZM378.635 561.169L296.008 608.798L297.269 610.985L379.897 563.357L378.635 561.169ZM295.382 609.764C293.781 625.535 295.044 641.911 300.497 658.201L302.891 657.399C297.566 641.49 296.325 625.479 297.894 610.019L295.382 609.764Z" fill="black"/>
<path d="M257 600.667C305.448 598.22 356.5 592.996 433.999 471.496" stroke="black" stroke-width="26" stroke-linecap="round"/>
</svg>
