<svg width="942" height="1479" viewBox="0 0 942 1479" fill="none" xmlns="http://www.w3.org/2000/svg">
<path d="M565.5 232.527C654 165.453 729 214.527 788 246.027V1281.53C692.96 1273.92 561.5 1203.53 537.5 1154.53C513.5 1105.53 529 1066.5 552.5 1033.5C528.5 1040.5 480.5 1055.5 444.5 1026.5C415.7 1003.3 425.167 950.167 433.5 926.5C420.5 934.333 384.3 945.3 343.5 926.5C292.5 903 326.5 837.5 373 855C419.5 872.5 581.5 853.027 537.5 754.527C495.587 660.699 357.167 710.527 313 754.527L154 519.527L273 551.027C228 417.027 386 363.027 444.5 417.027C433 366.527 489.333 342.194 516.5 354.027C513.167 333.361 506 277.622 565.5 232.527Z" fill="white" stroke="black" stroke-width="12" stroke-linecap="round" stroke-linejoin="round"/>
<path d="M324 746.527L352.5 819.527L380.5 810.689L432 794.433M537 761.527L495.5 774.389M399.5 708.527L432 794.433M432 794.433L495.5 774.389M471 703.527L495.5 774.389" stroke="black" stroke-width="12" stroke-linecap="round"/>
<path d="M399 805.162L416 859.5" stroke="black" stroke-width="12" stroke-linecap="round"/>
<path d="M443.5 793.5L463.5 852.973" stroke="black" stroke-width="12" stroke-linecap="round"/>
<path d="M493.5 781L513 834.5" stroke="black" stroke-width="12" stroke-linecap="round"/>
<path d="M285.947 640.238C285.084 639.388 284.83 638.655 284.765 638.135C284.695 637.574 284.804 636.904 285.205 636.189C286.026 634.726 287.962 633.333 290.694 633.42C320.257 634.361 344.295 630.244 365.723 617.298C387.045 604.415 405.082 583.206 423.536 551.374C424.803 549.19 426.861 548.272 428.526 548.299C429.995 548.322 431.221 549.016 431.814 550.857C444.065 588.909 428.923 631.724 393.023 653.09C357.807 674.048 313.841 667.688 285.947 640.238Z" fill="white" stroke="black" stroke-width="12"/>
<path fill-rule="evenodd" clip-rule="evenodd" d="M302.421 656.662C327.739 670.666 359.279 672.687 387.026 660.285C395.417 637.864 395.573 615.162 391.024 594C365.878 623.881 338.05 633.111 297 629.197C297.626 638.3 299.353 647.496 302.421 656.662Z" fill="black"/>
<path d="M302.421 656.662L301.224 657.063L301.38 657.529L301.81 657.767L302.421 656.662ZM387.026 660.285L387.542 661.437L388.024 661.222L388.209 660.727L387.026 660.285ZM391.024 594L392.259 593.735L391.717 591.216L390.058 593.187L391.024 594ZM297 629.197L297.12 627.94L295.638 627.799L295.74 629.284L297 629.197ZM301.81 657.767C327.465 671.957 359.421 674.006 387.542 661.437L386.511 659.132C359.136 671.368 328.013 669.374 303.032 655.557L301.81 657.767ZM388.209 660.727C396.699 638.038 396.848 615.085 392.259 593.735L389.79 594.265C394.298 615.239 394.134 637.689 385.844 659.842L388.209 660.727ZM390.058 593.187C377.598 607.994 364.528 617.622 349.543 623.086C334.545 628.554 317.529 629.886 297.12 627.94L296.88 630.454C317.521 632.422 334.943 631.097 350.408 625.458C365.886 619.815 379.304 609.887 391.99 594.813L390.058 593.187ZM295.74 629.284C296.373 638.488 298.12 647.79 301.224 657.063L303.618 656.261C300.586 647.202 298.879 638.112 298.26 629.111L295.74 629.284Z" fill="black"/>
<path d="M257 600.667C305.448 598.22 356.5 592.996 433.999 471.496" stroke="black" stroke-width="26" stroke-linecap="round"/>
</svg>
