<svg width="942" height="1479" viewBox="0 0 942 1479" fill="none" xmlns="http://www.w3.org/2000/svg">
<path d="M565.5 232.527C654 165.453 729 214.527 788 246.027V1281.53C692.96 1273.92 561.5 1203.53 537.5 1154.53C513.5 1105.53 507.5 1069 531 1036C507 1043 459 1058 423 1029C394.2 1005.8 403.667 952.667 412 929C399 936.833 362.8 947.8 322 929C271 905.5 326.5 837.5 373 855C419.5 872.5 581.5 853.027 537.5 754.527C495.587 660.699 357.167 710.527 313 754.527L154 519.527L273 551.027C228 417.027 386 363.027 444.5 417.027C433 366.527 489.333 342.194 516.5 354.027C513.167 333.361 506 277.622 565.5 232.527Z" fill="white" stroke="black" stroke-width="12" stroke-linecap="round" stroke-linejoin="round"/>
<path d="M324 746.527L352.5 819.527L380.5 810.689L432 794.433M537 761.527L495.5 774.389M399.5 708.527L432 794.433M432 794.433L495.5 774.389M471 703.527L495.5 774.389" stroke="black" stroke-width="12" stroke-linecap="round"/>
<path d="M385 811.162L400.5 860" stroke="black" stroke-width="12" stroke-linecap="round"/>
<path d="M429.5 799.5L447.5 855.5" stroke="black" stroke-width="12" stroke-linecap="round"/>
<path d="M479.5 787L499 840.5" stroke="black" stroke-width="12" stroke-linecap="round"/>
<path d="M292.314 645.918C291.082 644.922 290.869 644.172 290.827 643.913C290.783 643.636 290.824 643.281 291.13 642.844C291.749 641.959 293.677 640.677 296.869 641.585C335.303 652.519 365.419 655.251 387.815 643.832C410.603 632.213 423.355 607.104 430.128 568.115C430.76 564.476 432.891 563.386 433.7 563.268C434.076 563.213 434.213 563.307 434.292 563.372C434.387 563.451 434.957 563.976 435.197 565.732C439.823 599.585 424.299 634.476 393.023 653.09C360.386 672.514 320.23 668.476 292.314 645.918Z" fill="white" stroke="black" stroke-width="12"/>
<path fill-rule="evenodd" clip-rule="evenodd" d="M302.272 656.65C327.59 670.654 359.13 672.676 386.877 660.273C389.508 653.245 391.329 646.189 392.449 639.161C373.082 655.489 345.045 654.082 305.269 639.876C302.592 638.92 300.101 638.799 298 639.259C298.928 645.047 300.332 650.855 302.272 656.65Z" fill="black"/>
<path d="M302.272 656.65L301.075 657.051L301.231 657.517L301.661 657.755L302.272 656.65ZM386.877 660.273L387.393 661.426L387.875 661.21L388.06 660.716L386.877 660.273ZM392.449 639.161L393.696 639.36L394.23 636.007L391.635 638.196L392.449 639.161ZM305.269 639.876L304.844 641.065L304.844 641.065L305.269 639.876ZM298 639.259L297.73 638.025L296.564 638.28L296.753 639.459L298 639.259ZM301.661 657.755C327.316 671.946 359.272 673.995 387.393 661.426L386.362 659.12C358.987 671.356 327.864 669.363 302.883 655.545L301.661 657.755ZM388.06 660.716C390.72 653.606 392.563 646.468 393.696 639.36L391.202 638.962C390.095 645.909 388.295 652.883 385.695 659.831L388.06 660.716ZM391.635 638.196C372.841 654.041 345.437 652.881 305.694 638.687L304.844 641.065C344.654 655.283 373.324 656.937 393.263 640.126L391.635 638.196ZM305.694 638.687C302.813 637.658 300.082 637.511 297.73 638.025L298.27 640.492C300.121 640.088 302.37 640.182 304.844 641.065L305.694 638.687ZM296.753 639.459C297.692 645.314 299.112 651.188 301.075 657.051L303.469 656.25C301.552 650.521 300.164 644.781 299.247 639.059L296.753 639.459Z" fill="black"/>
<path d="M257 600.667C305.448 598.22 356.5 592.996 434 471.496" stroke="black" stroke-width="26" stroke-linecap="round"/>
</svg>
