<svg width="250" height="68" viewBox="0 0 250 68" fill="none" xmlns="http://www.w3.org/2000/svg">
<path d="M65.0818 2.93401C65.2132 23.7203 83.8564 27.8598 90.1872 28.1334C90.9545 28.1665 92.2414 29.2823 92.2414 30.0503V53.3055C92.2414 54.3356 88.1513 55.9694 87.1893 55.6008C81.7807 53.5284 73.4403 54.9676 68.1605 56.5599C67.6673 56.7086 67.1504 56.3958 67.0264 55.8958C63.1897 40.4298 45.9387 40.9094 36.9547 43.2794C36.5271 43.3922 36.08 43.1679 35.9012 42.7634C29.7126 28.7635 12.9405 26.7153 2.96836 27.5939C2.10652 27.6698 1.60166 26.5639 2.26292 26.006C26.5847 5.48496 53.048 1.45822 64.2861 2.05491C64.7412 2.07907 65.0789 2.47826 65.0818 2.93401Z" fill="#BE3795" stroke="#100C0D" stroke-width="2.5"/>
<path d="M184.918 2.93401C184.787 23.7203 166.144 27.8598 159.813 28.1334C159.046 28.1665 157.759 29.2823 157.759 30.0503V53.3055C157.759 54.3356 161.849 55.9694 162.811 55.6008C168.219 53.5284 176.56 54.9676 181.839 56.5599C182.333 56.7086 182.85 56.3958 182.974 55.8958C186.81 40.4298 204.061 40.9094 213.045 43.2794C213.473 43.3922 213.92 43.1679 214.099 42.7634C220.287 28.7635 237.06 26.7153 247.032 27.5939C247.893 27.6698 248.398 26.5639 247.737 26.006C223.415 5.48496 196.952 1.45822 185.714 2.05491C185.259 2.07907 184.921 2.47826 184.918 2.93401Z" fill="#BE3795" stroke="#100C0D" stroke-width="2.5"/>
<path d="M83.6207 67.5172V8.89655H166.379V67.5172H83.6207Z" fill="#EFEEE2"/>
<mask id="path-4-inside-1_42_157" fill="white">
<rect x="82.7586" y="8.89655" width="83.6207" height="58.6207" rx="1.72414"/>
</mask>
<rect x="82.7586" y="8.89655" width="83.6207" height="58.6207" rx="1.72414" fill="white" stroke="#100C0D" stroke-width="5" mask="url(#path-4-inside-1_42_157)"/>
<path d="M84 10L98.8895 27.6813C99.313 28.1842 100.132 27.9417 100.214 27.2894V27.2894C100.304 26.5661 101.266 26.3797 101.62 27.0168L104.776 32.697C105.121 33.3186 105.987 33.3913 106.431 32.8361L106.821 32.3486C107.187 31.8918 107.864 31.8448 108.289 32.2469L114.898 38.5M165.5 10L152.164 27.4743C151.695 28.0895 150.722 27.8889 150.535 27.138V27.138C150.336 26.3435 149.278 26.1816 148.851 26.8805L145.243 32.7834C144.882 33.3751 144.043 33.4281 143.609 32.8867L143.215 32.394C142.837 31.921 142.128 31.8904 141.71 32.3289L135.831 38.5M114.898 38.5L124.824 47.3943C125.207 47.7379 125.789 47.7341 126.168 47.3856L135.831 38.5M114.898 38.5L84 66M135.831 38.5L164.5 66" stroke="#100C0D" stroke-width="2.5" stroke-linecap="round"/>
<ellipse cx="10.11" cy="10.11" rx="10.11" ry="10.11" transform="matrix(-0.958659 0.284557 0.284557 0.958659 132.246 16.5862)" fill="white" stroke="#100C0D" stroke-width="2.5"/>
<rect x="124" y="24" width="3" height="11" rx="1.5" fill="#100C0D"/>
</svg>
