<svg width="251" height="60" viewBox="0 0 251 60" fill="none" xmlns="http://www.w3.org/2000/svg">
<path d="M64.9221 5.91927C65.4583 17.9113 84.9097 20.0055 90.5206 20.028C91.1839 20.0307 92 20.7535 92 21.4168V34.3688C92 35.324 89.3849 36.5306 88.4804 36.2237C83.1968 34.4311 73.5629 35.3708 67.7917 36.3903C67.3732 36.4642 66.9642 36.2231 66.7894 35.8357C62.8114 27.0184 45.4931 27.3745 36.6424 28.7575C36.3144 28.8087 35.9933 28.6692 35.7906 28.4062C29.9138 20.7804 14.5401 19.3394 4.4978 19.6471C3.54762 19.6762 3.19301 18.3426 4.05492 17.9416C27.7772 6.90443 53.1209 4.70267 64.0761 5.03029C64.5468 5.04437 64.901 5.44883 64.9221 5.91927Z" fill="#BE3795" stroke="#100C0D" stroke-width="2.5"/>
<path d="M186.078 5.91927C185.542 17.9113 166.09 20.0055 160.479 20.028C159.816 20.0307 159 20.7535 159 21.4168V34.3688C159 35.324 161.615 36.5306 162.52 36.2237C167.803 34.4311 177.437 35.3708 183.208 36.3903C183.627 36.4642 184.036 36.2231 184.211 35.8357C188.189 27.0184 205.507 27.3745 214.358 28.7575C214.686 28.8087 215.007 28.6692 215.209 28.4062C221.086 20.7804 236.46 19.3394 246.502 19.6471C247.452 19.6762 247.807 18.3426 246.945 17.9416C223.223 6.90443 197.879 4.70267 186.924 5.03029C186.453 5.04437 186.099 5.44883 186.078 5.91927Z" fill="#BE3795" stroke="#100C0D" stroke-width="2.5"/>
<path d="M83.6207 59.5172V0.896545H166.379V59.5172H83.6207Z" fill="#EFEEE2"/>
<mask id="path-4-inside-1_42_165" fill="white">
<rect x="82.7586" y="0.896545" width="83.6207" height="58.6207" rx="1.72414"/>
</mask>
<rect x="82.7586" y="0.896545" width="83.6207" height="58.6207" rx="1.72414" fill="white" stroke="#100C0D" stroke-width="5" mask="url(#path-4-inside-1_42_165)"/>
<path d="M84 2L98.8895 19.6813C99.313 20.1842 100.132 19.9417 100.214 19.2894V19.2894C100.304 18.5661 101.266 18.3797 101.62 19.0168L104.776 24.697C105.121 25.3186 105.987 25.3913 106.431 24.8361L106.821 24.3486C107.187 23.8918 107.864 23.8448 108.289 24.2469L114.898 30.5M165.5 2L152.164 19.4743C151.695 20.0895 150.722 19.8889 150.535 19.138V19.138C150.336 18.3435 149.278 18.1816 148.851 18.8805L145.243 24.7834C144.882 25.3751 144.043 25.4281 143.609 24.8867L143.215 24.394C142.837 23.921 142.128 23.8904 141.71 24.3289L135.831 30.5M114.898 30.5L124.824 39.3943C125.207 39.7379 125.789 39.7341 126.168 39.3856L135.831 30.5M114.898 30.5L84 58M135.831 30.5L164.5 58" stroke="#100C0D" stroke-width="2.5" stroke-linecap="round"/>
<ellipse cx="10.11" cy="10.11" rx="10.11" ry="10.11" transform="matrix(-0.958659 0.284557 0.284557 0.958659 132.246 8.58618)" fill="white" stroke="#100C0D" stroke-width="2.5"/>
<rect x="124" y="16" width="3" height="11" rx="1.5" fill="#100C0D"/>
</svg>
