<svg width="129" height="133" viewBox="0 0 129 133" fill="none" xmlns="http://www.w3.org/2000/svg">
<path d="M97.71 45.8017L110.275 34.093" stroke="#100C0D" stroke-width="2.5"/>
<path d="M25.2139 90.8498L37.3105 78.6579" stroke="#100C0D" stroke-width="2.5"/>
<path d="M73.9998 33V22" stroke="#100C0D" stroke-width="2.5"/>
<path d="M46.4886 41.9539L34.5837 24.4283" stroke="#100C0D" stroke-width="2.5"/>
<path d="M97.5519 71.0511L114.679 69.7789" stroke="#100C0D" stroke-width="2.5"/>
<path d="M91.8473 92L103.811 104.322" stroke="#100C0D" stroke-width="2.5"/>
<circle cx="69.4998" cy="66.5" r="34.25" fill="#46B64A" stroke="#100C0D" stroke-width="2.5"/>
<circle cx="47.5" cy="64.5" r="6.5" fill="white" stroke="#100C0D" stroke-width="2"/>
<circle cx="62.5" cy="46.5" r="5.5" fill="white" stroke="#100C0D" stroke-width="2"/>
<circle cx="62" cy="86" r="6" fill="white" stroke="#100C0D" stroke-width="2"/>
<circle cx="79.5" cy="55.5" r="6.5" fill="white" stroke="#100C0D" stroke-width="2"/>
<circle cx="89" cy="78" r="6" fill="white" stroke="#100C0D" stroke-width="2"/>
<path d="M19.014 55.7646L34.7784 62.5805" stroke="#100C0D" stroke-width="2.5"/>
<path d="M45.5464 112.352L54.2847 97.566" stroke="#100C0D" stroke-width="2.5"/>
<path d="M77 116.127L78.2766 99" stroke="#100C0D" stroke-width="2.5"/>
<circle cx="74.0095" cy="11.6029" r="9.81222" transform="rotate(2.87345 74.0095 11.6029)" fill="#46B64A" stroke="#100C0D" stroke-width="2.5"/>
<circle cx="112.603" cy="109.603" r="9.81222" transform="rotate(2.87345 112.603 109.603)" fill="#46B64A" stroke="#100C0D" stroke-width="2.5"/>
<rect x="45.5" y="61.5" width="1" height="7" rx="0.5" fill="#100C0D" stroke="#100C0D"/>
<rect x="61.5" y="43.5" width="1" height="6" rx="0.5" fill="#100C0D" stroke="#100C0D"/>
<rect x="79.5" y="52.5" width="1" height="7" rx="0.5" fill="#100C0D" stroke="#100C0D"/>
<rect x="88.5" y="74.5" width="1" height="7" rx="0.5" fill="#100C0D" stroke="#100C0D"/>
<rect x="60.5" y="82.5" width="1" height="7" rx="0.5" fill="#100C0D" stroke="#100C0D"/>
<circle cx="117.401" cy="28.1328" r="9.81222" transform="rotate(2.87345 117.401 28.1328)" fill="#46B64A" stroke="#100C0D" stroke-width="2.5"/>
<circle cx="119.93" cy="69.2321" r="6.31386" transform="rotate(2.87345 119.93 69.2321)" fill="#46B64A" stroke="#100C0D" stroke-width="2.5"/>
<circle cx="76.9335" cy="119.934" r="6.31386" transform="rotate(2.87345 76.9335 119.934)" fill="#46B64A" stroke="#100C0D" stroke-width="2.5"/>
<circle cx="30.7202" cy="18.5923" r="5.9695" transform="rotate(2.87345 30.7202 18.5923)" fill="#46B64A" stroke="#100C0D" stroke-width="2.5"/>
<circle cx="11.417" cy="54.7842" r="9.63507" transform="rotate(2.87345 11.417 54.7842)" fill="#46B64A" stroke="#100C0D" stroke-width="2.5"/>
<circle cx="43.6214" cy="119.766" r="9.63507" transform="rotate(-79.9252 43.6214 119.766)" fill="#46B64A" stroke="#100C0D" stroke-width="2.5"/>
<circle cx="20.4285" cy="95.0826" r="7.32022" transform="rotate(2.87345 20.4285 95.0826)" fill="#46B64A" stroke="#100C0D" stroke-width="2.5"/>
</svg>
