<svg width="132" height="131" viewBox="0 0 132 131" fill="none" xmlns="http://www.w3.org/2000/svg">
<path d="M40.5805 109.37L54.2369 98.9548" stroke="#100C0D" stroke-width="2.5"/>
<circle cx="36.0089" cy="115.516" r="9.63507" transform="rotate(-57.8387 36.0089 115.516)" fill="#46B64A" stroke="#100C0D" stroke-width="2.5"/>
<path d="M73.2579 116.004L76.577 99.1529" stroke="#100C0D" stroke-width="2.5"/>
<circle cx="72.7359" cy="119.775" r="6.31386" transform="rotate(9.75351 72.7359 119.775)" fill="#46B64A" stroke="#100C0D" stroke-width="2.5"/>
<path d="M92 47.525L108.089 41.5152" stroke="#100C0D" stroke-width="2.5"/>
<path d="M19.2963 87.0545L36.0953 83.482" stroke="#100C0D" stroke-width="2.5"/>
<path d="M68.6196 34.2491L73.4553 24.369" stroke="#100C0D" stroke-width="2.5"/>
<path d="M48.7421 43.4264L41.3484 23.5718" stroke="#100C0D" stroke-width="2.5"/>
<path d="M97.2103 72.5789L113.893 76.6601" stroke="#100C0D" stroke-width="2.5"/>
<path d="M92.4783 85L99.256 100.781" stroke="#100C0D" stroke-width="2.5"/>
<circle cx="67.4998" cy="69.5" r="34.25" fill="#46B64A" stroke="#100C0D" stroke-width="2.5"/>
<circle cx="45.5" cy="67.5" r="6.5" fill="white" stroke="#100C0D" stroke-width="2"/>
<circle cx="60.5" cy="49.5" r="5.5" fill="white" stroke="#100C0D" stroke-width="2"/>
<circle cx="60" cy="89" r="6" fill="white" stroke="#100C0D" stroke-width="2"/>
<circle cx="77.5" cy="58.5" r="6.5" fill="white" stroke="#100C0D" stroke-width="2"/>
<circle cx="87" cy="81" r="6" fill="white" stroke="#100C0D" stroke-width="2"/>
<path d="M21.2674 50.7922L33.253 63.0933" stroke="#100C0D" stroke-width="2.5"/>
<circle cx="78.0348" cy="15.0347" r="9.81222" transform="rotate(28.9528 78.0348 15.0347)" fill="#46B64A" stroke="#100C0D" stroke-width="2.5"/>
<circle cx="105.584" cy="108.852" r="9.81222" transform="rotate(23.7844 105.584 108.852)" fill="#46B64A" stroke="#100C0D" stroke-width="2.5"/>
<rect x="43.5" y="64.5" width="1" height="7" rx="0.5" fill="#100C0D" stroke="#100C0D"/>
<rect x="59.5" y="46.5" width="1" height="6" rx="0.5" fill="#100C0D" stroke="#100C0D"/>
<rect x="77.5" y="55.5" width="1" height="7" rx="0.5" fill="#100C0D" stroke="#100C0D"/>
<rect x="86.5" y="77.5" width="1" height="7" rx="0.5" fill="#100C0D" stroke="#100C0D"/>
<rect x="58.5" y="85.5" width="1" height="7" rx="0.5" fill="#100C0D" stroke="#100C0D"/>
<circle cx="116.953" cy="38.7351" r="9.81222" transform="rotate(25.3703 116.953 38.7351)" fill="#46B64A" stroke="#100C0D" stroke-width="2.5"/>
<circle cx="119.056" cy="77.7621" r="6.31386" transform="rotate(20.8681 119.056 77.7621)" fill="#46B64A" stroke="#100C0D" stroke-width="2.5"/>
<circle cx="38.9842" cy="16.9842" r="5.9695" transform="rotate(16.6364 38.9842 16.9842)" fill="#46B64A" stroke="#100C0D" stroke-width="2.5"/>
<circle cx="14.6147" cy="46.9951" r="9.63507" transform="rotate(25.2361 14.6147 46.9951)" fill="#46B64A" stroke="#100C0D" stroke-width="2.5"/>
<circle cx="12.974" cy="87.9739" r="7.32022" transform="rotate(36.0925 12.974 87.9739)" fill="#46B64A" stroke="#100C0D" stroke-width="2.5"/>
</svg>
