<svg width="1440" height="312" viewBox="0 0 1440 312" fill="none" xmlns="http://www.w3.org/2000/svg">
<g clip-path="url(#clip0_326_239)">
<rect width="1440" height="312" fill="white"/>
<rect width="1440" height="312" fill="#FDC334"/>
<path d="M410.875 170V72.5H433.5L444.875 125.375V72.5H464.875V170H443.375L431.125 117.188V170H410.875ZM473.625 170V72.5H517.625V93.75H496V109.875H516.75V130.562H496V148.562H519.062V170H473.625ZM534 170L522.188 72.5H543.688L549.25 141.938L555.938 72.5H576.438L582.812 142.188L588.188 72.5H609.938L597.938 170H571.562L566.062 117L560.812 170H534ZM644.5 170V72.5H678L687.25 130.625L696.438 72.5H730.25V170H710.125V102.812L697.5 170H677.75L664.375 102.688V170H644.5ZM765.25 171C756.25 171 749.479 168.292 744.938 162.875C740.396 157.417 738.125 149.792 738.125 140V100.25C738.125 90.7917 740.438 83.6458 745.062 78.8125C749.729 73.9375 756.458 71.5 765.25 71.5C774.083 71.5 780.812 73.9375 785.438 78.8125C790.062 83.6458 792.375 90.7917 792.375 100.25V140C792.375 149.792 790.104 157.417 785.562 162.875C781.021 168.292 774.25 171 765.25 171ZM765.438 151.375C767.521 151.375 768.875 150.438 769.5 148.562C770.125 146.646 770.438 144.354 770.438 141.688V99.25C770.438 97.2917 770.167 95.4583 769.625 93.75C769.083 92 767.729 91.125 765.562 91.125C763.438 91.125 761.979 91.9375 761.188 93.5625C760.438 95.1458 760.062 97.1042 760.062 99.4375V141.812C760.062 144.688 760.396 147 761.062 148.75C761.729 150.5 763.188 151.375 765.438 151.375ZM800.25 170V72.5H830.062C838.062 72.5 843.875 74.4583 847.5 78.375C851.167 82.25 853 88.6667 853 97.625V99.75C853 104.917 852.062 109.104 850.188 112.312C848.354 115.521 845.542 117.625 841.75 118.625C845.042 119.458 847.583 121.042 849.375 123.375C851.208 125.667 852.479 128.479 853.188 131.812C853.896 135.146 854.25 138.771 854.25 142.688C854.25 145.979 853.875 149.25 853.125 152.5C852.417 155.708 851.167 158.646 849.375 161.312C847.625 163.938 845.167 166.042 842 167.625C838.875 169.208 834.896 170 830.062 170H800.25ZM821.75 110.812H826.25C828.292 110.812 829.604 110.021 830.188 108.438C830.771 106.854 831.062 104.958 831.062 102.75V96.0625C831.062 92.5208 829.5 90.75 826.375 90.75H821.75V110.812ZM823.938 151.875C829.646 151.875 832.5 149.167 832.5 143.75V138.125C832.5 135 832.021 132.542 831.062 130.75C830.146 128.917 828.396 128 825.812 128H821.75V151.75C822.083 151.792 822.438 151.833 822.812 151.875C823.229 151.875 823.604 151.875 823.938 151.875Z" fill="white"/>
<path d="M876.976 110.519C900.975 114.434 923.604 98.1524 927.519 74.1532C931.434 50.1541 915.152 27.5251 891.153 23.6101C867.154 19.6951 844.525 35.9766 840.61 59.9758C836.695 83.9749 852.977 106.604 876.976 110.519Z" fill="#EF3246" stroke="#100C0D" stroke-width="9.05752"/>
<path d="M876.526 89.061L876.526 89.0611L876.53 89.0663C877.429 90.2523 878.642 90.9733 880.127 91.2155C881.098 91.3739 882.041 91.2849 882.941 90.9417C883.824 90.6048 884.579 90.0813 885.195 89.3751C885.838 88.6463 886.249 87.7931 886.425 86.8305L886.427 86.8186L886.429 86.8067C886.646 85.3568 886.294 84.0173 885.396 82.8323C884.504 81.6357 883.31 80.9039 881.848 80.6654C880.36 80.4227 878.979 80.7306 877.748 81.5847C876.518 82.4249 875.772 83.5898 875.551 85.0421C875.297 86.5022 875.63 87.8577 876.526 89.061ZM891.777 48.2732C892.238 45.7427 890.533 43.3264 887.995 42.9123C885.456 42.4982 883.072 44.2473 882.704 46.7931L878.951 72.8061C878.631 75.0252 880.147 77.092 882.36 77.453C884.573 77.814 886.667 76.3362 887.069 74.1303L891.777 48.2732Z" fill="white" stroke="white" stroke-width="1.53978"/>
<path d="M415.688 229.312C412.549 229.312 410.284 228.531 408.891 226.969C407.51 225.406 406.82 222.919 406.82 219.508V218.395H413.617V220.445C413.617 221.24 413.734 221.865 413.969 222.32C414.216 222.763 414.639 222.984 415.238 222.984C415.863 222.984 416.293 222.822 416.527 222.496C416.775 222.158 416.898 221.669 416.898 221.031C416.898 220.185 416.612 219.469 416.039 218.883C415.479 218.297 414.548 217.503 413.246 216.5L410.277 214.195C409.014 213.219 408.122 212.138 407.602 210.953C407.081 209.768 406.82 208.329 406.82 206.637C406.82 203.993 407.497 201.93 408.852 200.445C410.219 198.961 412.191 198.219 414.77 198.219C417.921 198.219 420.154 199.039 421.469 200.68C422.797 202.32 423.461 204.729 423.461 207.906H416.488V206.227C416.488 205.107 415.967 204.547 414.926 204.547C414.405 204.547 414.021 204.703 413.773 205.016C413.526 205.315 413.402 205.706 413.402 206.188C413.402 206.669 413.513 207.125 413.734 207.555C413.969 207.971 414.503 208.518 415.336 209.195L419.301 212.418C420.746 213.59 421.84 214.82 422.582 216.109C423.324 217.398 423.695 219.072 423.695 221.129C423.695 222.561 423.435 223.902 422.914 225.152C422.406 226.402 421.566 227.411 420.395 228.18C419.223 228.935 417.654 229.312 415.688 229.312ZM425 229V198.531H433.691C435.592 198.531 437.129 198.948 438.301 199.781C439.486 200.615 440.352 201.78 440.898 203.277C441.445 204.762 441.719 206.507 441.719 208.512C441.719 210.439 441.484 212.138 441.016 213.609C440.547 215.081 439.759 216.233 438.652 217.066C437.559 217.9 436.061 218.316 434.16 218.316H431.758V229H425ZM431.758 212.145H432.148C433.424 212.145 434.206 211.806 434.492 211.129C434.779 210.452 434.922 209.54 434.922 208.395C434.922 207.34 434.779 206.48 434.492 205.816C434.219 205.139 433.561 204.801 432.52 204.801H431.758V212.145ZM441.539 229L444.859 198.531H456.52L459.781 229H453.277L452.828 223.453H448.609L448.219 229H441.539ZM450.445 204L449.176 217.965H452.184L450.758 204H450.445ZM460.891 229V198.531H471.359L474.25 216.695L477.121 198.531H487.688V229H481.398V208.004L477.453 229H471.281L467.102 207.965V229H460.891ZM497.898 229.312C494.76 229.312 492.495 228.531 491.102 226.969C489.721 225.406 489.031 222.919 489.031 219.508V218.395H495.828V220.445C495.828 221.24 495.945 221.865 496.18 222.32C496.427 222.763 496.85 222.984 497.449 222.984C498.074 222.984 498.504 222.822 498.738 222.496C498.986 222.158 499.109 221.669 499.109 221.031C499.109 220.185 498.823 219.469 498.25 218.883C497.69 218.297 496.759 217.503 495.457 216.5L492.488 214.195C491.225 213.219 490.333 212.138 489.812 210.953C489.292 209.768 489.031 208.329 489.031 206.637C489.031 203.993 489.708 201.93 491.062 200.445C492.43 198.961 494.402 198.219 496.98 198.219C500.132 198.219 502.365 199.039 503.68 200.68C505.008 202.32 505.672 204.729 505.672 207.906H498.699V206.227C498.699 205.107 498.178 204.547 497.137 204.547C496.616 204.547 496.232 204.703 495.984 205.016C495.737 205.315 495.613 205.706 495.613 206.188C495.613 206.669 495.724 207.125 495.945 207.555C496.18 207.971 496.714 208.518 497.547 209.195L501.512 212.418C502.957 213.59 504.051 214.82 504.793 216.109C505.535 217.398 505.906 219.072 505.906 221.129C505.906 222.561 505.646 223.902 505.125 225.152C504.617 226.402 503.777 227.411 502.605 228.18C501.434 228.935 499.865 229.312 497.898 229.312ZM510.16 229V205.133H506.078V198.531H521.117V205.133H517.035V229H510.16ZM522.031 229V198.531H535.781V205.172H529.023V210.211H535.508V216.676H529.023V222.301H536.23V229H522.031ZM537.516 229V198.531H547.867C549.625 198.531 550.966 198.902 551.891 199.645C552.828 200.387 553.466 201.409 553.805 202.711C554.143 204 554.312 205.478 554.312 207.145C554.312 209.241 554.026 210.901 553.453 212.125C552.88 213.349 551.956 214.189 550.68 214.645C551.839 214.827 552.659 215.348 553.141 216.207C553.635 217.066 553.883 218.199 553.883 219.605V229H547.066V219.156C547.066 218.154 546.858 217.535 546.441 217.301C546.038 217.053 545.38 216.93 544.469 216.93V229H537.516ZM544.508 210.973H546.168C547.118 210.973 547.594 209.957 547.594 207.926C547.594 206.702 547.49 205.895 547.281 205.504C547.073 205.1 546.682 204.898 546.109 204.898H544.508V210.973ZM563.742 229.312C560.604 229.312 558.339 228.531 556.945 226.969C555.565 225.406 554.875 222.919 554.875 219.508V218.395H561.672V220.445C561.672 221.24 561.789 221.865 562.023 222.32C562.271 222.763 562.694 222.984 563.293 222.984C563.918 222.984 564.348 222.822 564.582 222.496C564.829 222.158 564.953 221.669 564.953 221.031C564.953 220.185 564.667 219.469 564.094 218.883C563.534 218.297 562.603 217.503 561.301 216.5L558.332 214.195C557.069 213.219 556.177 212.138 555.656 210.953C555.135 209.768 554.875 208.329 554.875 206.637C554.875 203.993 555.552 201.93 556.906 200.445C558.273 198.961 560.246 198.219 562.824 198.219C565.975 198.219 568.208 199.039 569.523 200.68C570.852 202.32 571.516 204.729 571.516 207.906H564.543V206.227C564.543 205.107 564.022 204.547 562.98 204.547C562.46 204.547 562.076 204.703 561.828 205.016C561.581 205.315 561.457 205.706 561.457 206.188C561.457 206.669 561.568 207.125 561.789 207.555C562.023 207.971 562.557 208.518 563.391 209.195L567.355 212.418C568.801 213.59 569.895 214.82 570.637 216.109C571.379 217.398 571.75 219.072 571.75 221.129C571.75 222.561 571.49 223.902 570.969 225.152C570.461 226.402 569.621 227.411 568.449 228.18C567.277 228.935 565.708 229.312 563.742 229.312ZM580.492 229L583.812 198.531H595.473L598.734 229H592.23L591.781 223.453H587.562L587.172 229H580.492ZM589.398 204L588.129 217.965H591.137L589.711 204H589.398ZM599.844 229V198.531H610.195C611.953 198.531 613.294 198.902 614.219 199.645C615.156 200.387 615.794 201.409 616.133 202.711C616.471 204 616.641 205.478 616.641 207.145C616.641 209.241 616.354 210.901 615.781 212.125C615.208 213.349 614.284 214.189 613.008 214.645C614.167 214.827 614.987 215.348 615.469 216.207C615.964 217.066 616.211 218.199 616.211 219.605V229H609.395V219.156C609.395 218.154 609.186 217.535 608.77 217.301C608.366 217.053 607.708 216.93 606.797 216.93V229H599.844ZM606.836 210.973H608.496C609.447 210.973 609.922 209.957 609.922 207.926C609.922 206.702 609.818 205.895 609.609 205.504C609.401 205.1 609.01 204.898 608.438 204.898H606.836V210.973ZM617.906 229V198.531H628.258C630.016 198.531 631.357 198.902 632.281 199.645C633.219 200.387 633.857 201.409 634.195 202.711C634.534 204 634.703 205.478 634.703 207.145C634.703 209.241 634.417 210.901 633.844 212.125C633.271 213.349 632.346 214.189 631.07 214.645C632.229 214.827 633.049 215.348 633.531 216.207C634.026 217.066 634.273 218.199 634.273 219.605V229H627.457V219.156C627.457 218.154 627.249 217.535 626.832 217.301C626.428 217.053 625.771 216.93 624.859 216.93V229H617.906ZM624.898 210.973H626.559C627.509 210.973 627.984 209.957 627.984 207.926C627.984 206.702 627.88 205.895 627.672 205.504C627.464 205.1 627.073 204.898 626.5 204.898H624.898V210.973ZM635.656 229V198.531H642.297V229H635.656ZM647 229L642.957 198.531H649.5L652.02 221.93L654.266 198.531H660.809L656.766 229H647ZM661.508 229V198.531H668.148V229H661.508ZM669.883 229V198.531H676.953L680.508 215.055V198.531H686.758V229H680.039L676.211 212.496V229H669.883ZM695.895 229.312C690.986 229.312 688.531 225.797 688.531 218.766V207.965C688.531 201.546 691.344 198.336 696.969 198.336C699.286 198.336 701.064 198.759 702.301 199.605C703.538 200.439 704.391 201.637 704.859 203.199C705.328 204.762 705.562 206.643 705.562 208.844H698.844V207.281C698.844 206.539 698.74 205.921 698.531 205.426C698.336 204.918 697.919 204.664 697.281 204.664C696.487 204.664 695.96 204.931 695.699 205.465C695.452 205.999 695.328 206.585 695.328 207.223V219.859C695.328 220.784 695.445 221.539 695.68 222.125C695.927 222.698 696.402 222.984 697.105 222.984C697.835 222.984 698.316 222.698 698.551 222.125C698.798 221.539 698.922 220.771 698.922 219.82V217.359H697.086V211.422H705.484V229H702.73L701.559 226.109C700.361 228.245 698.473 229.312 695.895 229.312ZM715.359 229V198.531H722V229H715.359ZM723.734 229V198.531H730.805L734.359 215.055V198.531H740.609V229H733.891L730.062 212.496V229H723.734ZM754 229L749.957 198.531H756.5L759.02 221.93L761.266 198.531H767.809L763.766 229H754ZM768.82 229V198.531H782.57V205.172H775.812V210.211H782.297V216.676H775.812V222.301H783.02V229H768.82ZM784.305 229V198.531H794.656C796.414 198.531 797.755 198.902 798.68 199.645C799.617 200.387 800.255 201.409 800.594 202.711C800.932 204 801.102 205.478 801.102 207.145C801.102 209.241 800.815 210.901 800.242 212.125C799.669 213.349 798.745 214.189 797.469 214.645C798.628 214.827 799.448 215.348 799.93 216.207C800.424 217.066 800.672 218.199 800.672 219.605V229H793.855V219.156C793.855 218.154 793.647 217.535 793.23 217.301C792.827 217.053 792.169 216.93 791.258 216.93V229H784.305ZM791.297 210.973H792.957C793.908 210.973 794.383 209.957 794.383 207.926C794.383 206.702 794.279 205.895 794.07 205.504C793.862 205.1 793.471 204.898 792.898 204.898H791.297V210.973ZM810.531 229.312C807.393 229.312 805.128 228.531 803.734 226.969C802.354 225.406 801.664 222.919 801.664 219.508V218.395H808.461V220.445C808.461 221.24 808.578 221.865 808.812 222.32C809.06 222.763 809.483 222.984 810.082 222.984C810.707 222.984 811.137 222.822 811.371 222.496C811.618 222.158 811.742 221.669 811.742 221.031C811.742 220.185 811.456 219.469 810.883 218.883C810.323 218.297 809.392 217.503 808.09 216.5L805.121 214.195C803.858 213.219 802.966 212.138 802.445 210.953C801.924 209.768 801.664 208.329 801.664 206.637C801.664 203.993 802.341 201.93 803.695 200.445C805.062 198.961 807.035 198.219 809.613 198.219C812.764 198.219 814.997 199.039 816.312 200.68C817.641 202.32 818.305 204.729 818.305 207.906H811.332V206.227C811.332 205.107 810.811 204.547 809.77 204.547C809.249 204.547 808.865 204.703 808.617 205.016C808.37 205.315 808.246 205.706 808.246 206.188C808.246 206.669 808.357 207.125 808.578 207.555C808.812 207.971 809.346 208.518 810.18 209.195L814.145 212.418C815.59 213.59 816.684 214.82 817.426 216.109C818.168 217.398 818.539 219.072 818.539 221.129C818.539 222.561 818.279 223.902 817.758 225.152C817.25 226.402 816.41 227.411 815.238 228.18C814.066 228.935 812.497 229.312 810.531 229.312ZM819.531 229V198.531H826.172V229H819.531ZM836.109 229.312C833.297 229.312 831.181 228.466 829.762 226.773C828.342 225.068 827.633 222.685 827.633 219.625V207.203C827.633 204.247 828.355 202.014 829.801 200.504C831.259 198.98 833.362 198.219 836.109 198.219C838.87 198.219 840.973 198.98 842.418 200.504C843.863 202.014 844.586 204.247 844.586 207.203V219.625C844.586 222.685 843.876 225.068 842.457 226.773C841.038 228.466 838.922 229.312 836.109 229.312ZM836.168 223.18C836.819 223.18 837.242 222.887 837.438 222.301C837.633 221.702 837.73 220.986 837.73 220.152V206.891C837.73 206.279 837.646 205.706 837.477 205.172C837.307 204.625 836.884 204.352 836.207 204.352C835.543 204.352 835.087 204.605 834.84 205.113C834.605 205.608 834.488 206.22 834.488 206.949V220.191C834.488 221.09 834.592 221.812 834.801 222.359C835.009 222.906 835.465 223.18 836.168 223.18ZM846.359 229V198.531H853.43L856.984 215.055V198.531H863.234V229H856.516L852.688 212.496V229H846.359ZM876.879 229V202.516C876.41 203.076 875.766 203.531 874.945 203.883C874.125 204.221 873.35 204.391 872.621 204.391V198.902C873.311 198.798 874.053 198.577 874.848 198.238C875.642 197.887 876.378 197.411 877.055 196.812C877.745 196.201 878.272 195.465 878.637 194.605H884.164V229H876.879ZM885.449 228.98V223.16H892.441V228.98H885.449ZM901.969 229.391C898.935 229.391 896.728 228.59 895.348 226.988C893.967 225.387 893.277 222.971 893.277 219.742V216.148H900.328V219.762C900.328 220.673 900.439 221.448 900.66 222.086C900.895 222.711 901.409 223.023 902.203 223.023C903.01 223.023 903.525 222.685 903.746 222.008C903.967 221.318 904.078 220.198 904.078 218.648V217.789C904.078 216.604 903.876 215.569 903.473 214.684C903.082 213.798 902.307 213.355 901.148 213.355C901.005 213.355 900.875 213.362 900.758 213.375C900.654 213.375 900.562 213.382 900.484 213.395V207.223C901.669 207.223 902.574 206.962 903.199 206.441C903.824 205.908 904.137 205.022 904.137 203.785C904.137 201.845 903.577 200.875 902.457 200.875C901.728 200.875 901.233 201.161 900.973 201.734C900.725 202.294 900.602 203.01 900.602 203.883V204.918H893.492C893.479 204.762 893.466 204.573 893.453 204.352C893.453 204.13 893.453 203.915 893.453 203.707C893.453 200.556 894.189 198.245 895.66 196.773C897.132 195.302 899.384 194.566 902.418 194.566C908.277 194.566 911.207 197.613 911.207 203.707C911.207 205.4 910.979 206.799 910.523 207.906C910.068 209 909.221 209.768 907.984 210.211C908.961 210.68 909.684 211.279 910.152 212.008C910.621 212.737 910.927 213.642 911.07 214.723C911.214 215.803 911.285 217.112 911.285 218.648C911.285 222.086 910.562 224.736 909.117 226.598C907.685 228.46 905.302 229.391 901.969 229.391Z" fill="#100C0D"/>
<circle cx="103" cy="180" r="225" fill="white"/>
<path d="M355.002 66.5998C335.002 52.1553 307.779 84.6555 296.668 102.711C261.113 84.9332 210.904 95.3037 190.07 102.711C178.959 84.6555 151.737 52.1553 131.737 66.5998C106.737 84.6555 120.626 131.878 155.348 123.545C127.57 149.934 87.2922 205.489 127.57 226.323H359.169C399.447 205.489 359.169 149.934 331.391 123.545C366.113 131.878 380.002 84.6555 355.002 66.5998Z" fill="#FDC334"/>
<path d="M296.668 102.711L295.17 105.707C296.723 106.484 298.611 105.945 299.521 104.467L296.668 102.711ZM355.002 66.5998L353.04 69.3156V69.3156L355.002 66.5998ZM331.391 123.545L332.172 120.287C330.698 119.933 329.171 120.613 328.447 121.945C327.723 123.277 327.984 124.929 329.083 125.973L331.391 123.545ZM359.169 226.323V229.673C359.704 229.673 360.232 229.544 360.708 229.298L359.169 226.323ZM190.07 102.711L187.217 104.467C188.046 105.813 189.703 106.397 191.193 105.868L190.07 102.711ZM131.737 66.5998L129.775 63.884V63.884L131.737 66.5998ZM155.348 123.545L157.655 125.973C158.754 124.929 159.015 123.277 158.292 121.945C157.568 120.613 156.04 119.933 154.566 120.287L155.348 123.545ZM127.57 226.323L126.031 229.298C126.507 229.544 127.035 229.673 127.57 229.673V226.323ZM299.521 104.467C304.961 95.6271 314.308 83.3329 324.598 75.0813C329.746 70.9528 334.917 68.0097 339.776 66.871C344.509 65.762 348.936 66.3512 353.04 69.3156L356.963 63.884C351.068 59.6261 344.592 58.8612 338.248 60.3477C332.031 61.8045 325.952 65.4066 320.406 69.8545C309.306 78.7557 299.486 91.7395 293.815 100.955L299.521 104.467ZM353.04 69.3156C364.068 77.28 366.74 91.889 362.44 103.833C360.312 109.746 356.54 114.765 351.498 117.842C346.512 120.887 340.051 122.178 332.172 120.287L330.609 126.802C340.092 129.078 348.388 127.591 354.99 123.561C361.537 119.564 366.185 113.211 368.744 106.103C373.819 92.0053 370.936 73.9753 356.963 63.884L353.04 69.3156ZM329.083 125.973C342.801 139.005 359.465 159.127 367.723 178.34C371.854 187.952 373.725 196.977 372.424 204.624C371.161 212.054 366.842 218.582 357.629 223.347L360.708 229.298C371.634 223.647 377.385 215.417 379.029 205.747C380.637 196.294 378.254 185.873 373.878 175.694C365.122 155.323 347.758 134.473 333.698 121.116L329.083 125.973ZM192.924 100.955C187.252 91.7395 177.432 78.7557 166.333 69.8545C160.787 65.4066 154.708 61.8045 148.491 60.3477C142.147 58.8612 135.671 59.6261 129.775 63.884L133.698 69.3156C137.803 66.3512 142.23 65.762 146.962 66.871C151.822 68.0097 156.993 70.9528 162.141 75.0813C172.431 83.3329 181.778 95.6271 187.217 104.467L192.924 100.955ZM129.775 63.884C115.803 73.9753 112.919 92.0053 117.995 106.103C120.554 113.211 125.202 119.564 131.749 123.561C138.351 127.591 146.647 129.078 156.13 126.802L154.566 120.287C146.688 122.178 140.227 120.887 135.24 117.842C130.199 114.765 126.427 109.746 124.299 103.833C119.999 91.889 122.671 77.28 133.698 69.3156L129.775 63.884ZM153.041 121.116C138.981 134.473 121.616 155.323 112.86 175.694C108.485 185.873 106.102 196.294 107.709 205.747C109.354 215.417 115.105 223.647 126.031 229.298L129.109 223.347C119.897 218.582 115.578 212.054 114.315 204.624C113.014 196.977 114.884 187.952 119.016 178.34C127.274 159.127 143.938 139.005 157.655 125.973L153.041 121.116ZM191.193 105.868C201.341 102.259 218.798 97.8838 238.07 96.6093C257.378 95.3323 278.142 97.1933 295.17 105.707L298.166 99.7148C279.639 90.451 257.52 88.6083 237.627 89.9239C217.697 91.242 199.634 95.7554 188.948 99.5547L191.193 105.868ZM359.169 222.973H127.57V229.673H359.169V222.973Z" fill="#100C0D"/>
<path d="M132.775 176.89H357.776V304.81C357.776 307.8 355.352 310.224 352.362 310.224H138.19C135.199 310.224 132.775 307.8 132.775 304.81V176.89Z" fill="white"/>
<path d="M132.775 176.89H357.776M132.775 176.89V304.81C132.775 307.8 135.199 310.224 138.19 310.224H352.362C355.352 310.224 357.776 307.8 357.776 304.81V176.89M132.775 176.89L245.232 243.28C246.967 244.304 249.126 244.28 250.838 243.219L357.776 176.89" stroke="#100C0D" stroke-width="6.70002"/>
<path d="M1119 241.889L1384.33 88.7018L1471.42 239.549C1473.46 243.075 1472.25 247.584 1468.72 249.62L1216.16 395.435C1212.64 397.471 1208.13 396.263 1206.09 392.737L1119 241.889Z" fill="white"/>
<path d="M1119 241.889L1384.33 88.7018M1119 241.889L1206.09 392.737C1208.13 396.263 1212.64 397.471 1216.16 395.435L1468.72 249.62C1472.25 247.584 1473.46 243.075 1471.42 239.549L1384.33 88.7018M1119 241.889L1296.81 243.615C1299.56 243.641 1302.09 242.143 1303.38 239.726L1384.33 88.7018" stroke="#100C0D" stroke-width="9.12315"/>
<path d="M1041 31L1119.13 31V75.4219C1119.13 76.4603 1118.29 77.3021 1117.25 77.3021H1042.88C1041.84 77.3021 1041 76.4603 1041 75.4219V31Z" fill="#FFD671"/>
<path d="M1041 31L1119.13 31M1041 31V75.4219C1041 76.4603 1041.84 77.3021 1042.88 77.3021H1117.25C1118.29 77.3021 1119.13 76.4603 1119.13 75.4219V31M1041 31L1080.05 54.0549C1080.65 54.4105 1081.4 54.4023 1082 54.0336L1119.13 31" stroke="#FDC334" stroke-width="3"/>
<path d="M1191 82H1269.13V126.422C1269.13 127.46 1268.29 128.302 1267.25 128.302H1192.88C1191.84 128.302 1191 127.46 1191 126.422V82Z" fill="#FFD671"/>
<path d="M1191 82H1269.13M1191 82V126.422C1191 127.46 1191.84 128.302 1192.88 128.302H1267.25C1268.29 128.302 1269.13 127.46 1269.13 126.422V82M1191 82L1230.05 105.055C1230.65 105.41 1231.4 105.402 1232 105.034L1269.13 82" stroke="#FDC334" stroke-width="3"/>
<path d="M1041 131.302H1119.13V175.724C1119.13 176.762 1118.29 177.604 1117.25 177.604H1042.88C1041.84 177.604 1041 176.762 1041 175.724V131.302Z" fill="#FFD671"/>
<path d="M1041 131.302H1119.13M1041 131.302V175.724C1041 176.762 1041.84 177.604 1042.88 177.604H1117.25C1118.29 177.604 1119.13 176.762 1119.13 175.724V131.302M1041 131.302L1080.05 154.357C1080.65 154.713 1081.4 154.704 1082 154.336L1119.13 131.302" stroke="#FDC334" stroke-width="3"/>
<path d="M1041 231.604H1119.13V276.026C1119.13 277.064 1118.29 277.906 1117.25 277.906H1042.88C1041.84 277.906 1041 277.064 1041 276.026V231.604Z" fill="#FFD671"/>
<path d="M1041 231.604H1119.13M1041 231.604V276.026C1041 277.064 1041.84 277.906 1042.88 277.906H1117.25C1118.29 277.906 1119.13 277.064 1119.13 276.026V231.604M1041 231.604L1080.05 254.659C1080.65 255.015 1081.4 255.006 1082 254.638L1119.13 231.604" stroke="#FDC334" stroke-width="3"/>
<rect width="47.2225" height="38.8891" rx="19.4445" transform="matrix(-1 0 0 1 152.223 226.89)" fill="#FDC334" stroke="#100C0D" stroke-width="6.70002"/>
<rect x="332.777" y="226.89" width="47.2225" height="38.8891" rx="19.4445" fill="#FDC334" stroke="#100C0D" stroke-width="6.70002"/>
<path d="M147.332 240.798H130.398" stroke="#100C0D" stroke-width="6.7677" stroke-linecap="round"/>
<path d="M338.675 240.798L354.999 240.779" stroke="#100C0D" stroke-width="6.7677" stroke-linecap="round"/>
<path d="M145.64 254.344L130 254.668" stroke="#100C0D" stroke-width="6.7677" stroke-linecap="round"/>
<path d="M340.37 254.344L355.001 254.668" stroke="#100C0D" stroke-width="6.7677" stroke-linecap="round"/>
<path fill-rule="evenodd" clip-rule="evenodd" d="M323.838 132.851C325.328 132.618 326.733 133.65 326.828 135.155C328.01 153.858 313.698 170.918 293.504 174.074C273.31 177.23 254.476 165.35 249.895 147.179C249.526 145.717 250.549 144.305 252.039 144.072L323.838 132.851Z" fill="white"/>
<path d="M249.895 147.179L246.614 148.007L249.895 147.179ZM292.982 170.73C311.624 167.817 324.512 152.154 323.451 135.369L330.205 134.942C331.508 155.562 315.772 174.018 294.027 177.417L292.982 170.73ZM253.176 146.352C257.287 162.66 274.339 173.644 292.982 170.73L294.027 177.417C272.281 180.816 251.664 168.041 246.614 148.007L253.176 146.352ZM251.517 140.729L323.316 129.508L324.361 136.194L252.562 147.416L251.517 140.729ZM246.614 148.007C245.715 144.441 248.238 141.241 251.517 140.729L252.562 147.416C252.739 147.388 252.917 147.284 253.041 147.107C253.174 146.917 253.247 146.633 253.176 146.352L246.614 148.007ZM323.451 135.369C323.469 135.658 323.626 135.906 323.81 136.046C323.982 136.177 324.183 136.222 324.361 136.194L323.316 129.508C326.594 128.995 329.973 131.272 330.205 134.942L323.451 135.369Z" fill="#100C0D"/>
<path fill-rule="evenodd" clip-rule="evenodd" d="M268.488 139.45C266.38 149.495 266.84 160.419 272.179 170.988C279.091 172.905 286.717 173.499 294.516 172.458C296.204 172.233 297.856 171.937 299.47 171.575C305.932 159.219 305.65 146.345 302.331 134.933L268.488 139.45Z" fill="#100C0D"/>
<path fill-rule="evenodd" clip-rule="evenodd" d="M160.359 132.847C158.869 132.614 157.464 133.646 157.369 135.152C156.187 153.854 170.498 170.914 190.692 174.07C210.886 177.226 229.721 165.347 234.302 147.175C234.67 145.713 233.648 144.301 232.158 144.068L160.359 132.847Z" fill="white"/>
<path d="M234.302 147.175L231.021 146.348L234.302 147.175ZM232.158 144.068L232.68 140.725L232.158 144.068ZM160.359 132.847L160.881 129.504L160.359 132.847ZM191.215 170.727C172.572 167.813 159.685 152.15 160.746 135.365L153.992 134.938C152.688 155.558 168.424 174.015 190.17 177.413L191.215 170.727ZM231.021 146.348C226.909 162.657 209.857 173.64 191.215 170.727L190.17 177.413C211.915 180.812 232.533 168.037 237.583 148.003L231.021 146.348ZM232.68 140.725L160.881 129.504L159.836 136.19L231.635 147.412L232.68 140.725ZM237.583 148.003C238.482 144.437 235.958 141.238 232.68 140.725L231.635 147.412C231.457 147.384 231.279 147.28 231.156 147.103C231.023 146.914 230.95 146.629 231.021 146.348L237.583 148.003ZM160.746 135.365C160.728 135.654 160.571 135.903 160.387 136.042C160.215 136.173 160.014 136.218 159.836 136.19L160.881 129.504C157.603 128.991 154.224 131.268 153.992 134.938L160.746 135.365Z" fill="#100C0D"/>
<path d="M215.709 139.446C217.817 149.491 217.357 160.416 212.018 170.985C205.107 172.901 197.482 173.495 189.683 172.454C187.995 172.229 186.341 171.933 184.727 171.57C178.265 159.215 178.547 146.341 181.866 134.929L215.709 139.446Z" fill="#100C0D"/>
<path d="M351.126 214.181C365.516 214.181 377.181 202.516 377.181 188.126C377.181 173.736 365.516 162.071 351.126 162.071C336.736 162.071 325.071 173.736 325.071 188.126C325.071 202.516 336.736 214.181 351.126 214.181Z" fill="#EF3246" stroke="#100C0D" stroke-width="5.36002"/>
<path d="M348.819 201.692L348.822 201.694C349.46 202.301 350.237 202.607 351.127 202.607C351.709 202.607 352.252 202.465 352.745 202.179C353.228 201.898 353.62 201.52 353.912 201.049C354.218 200.562 354.377 200.025 354.388 199.446L354.388 199.439L354.388 199.431C354.377 198.564 354.043 197.815 353.406 197.209C352.771 196.595 352.004 196.281 351.127 196.281C350.235 196.281 349.458 196.592 348.821 197.208C348.182 197.816 347.857 198.568 347.867 199.437C347.857 200.314 348.181 201.074 348.819 201.692ZM353.84 176.416C353.868 174.894 352.642 173.645 351.12 173.645C349.598 173.645 348.372 174.894 348.4 176.416L348.687 191.967C348.711 193.293 349.794 194.356 351.12 194.356C352.447 194.356 353.53 193.293 353.554 191.967L353.84 176.416Z" fill="white" stroke="white" stroke-width="0.911203"/>
<path d="M1401.87 137.205C1418.84 127.408 1424.66 105.709 1414.86 88.7404C1405.06 71.7715 1383.37 65.9575 1366.4 75.7545C1349.43 85.5516 1343.61 107.25 1353.41 124.219C1363.21 141.188 1384.91 147.002 1401.87 137.205Z" fill="#EF3246" stroke="#100C0D" stroke-width="7.29852"/>
<path d="M1390.65 124.047L1390.65 124.047L1390.66 124.048C1391.82 124.329 1392.95 124.161 1394 123.554C1394.68 123.158 1395.22 122.622 1395.61 121.949C1395.99 121.288 1396.19 120.576 1396.22 119.822C1396.25 119.039 1396.07 118.297 1395.69 117.607L1395.68 117.598L1395.68 117.59C1395.08 116.574 1394.17 115.919 1393.01 115.637C1391.84 115.346 1390.72 115.498 1389.69 116.095C1388.64 116.702 1387.93 117.599 1387.6 118.759C1387.26 119.911 1387.39 121.018 1387.99 122.037C1388.58 123.077 1389.48 123.753 1390.65 124.047ZM1379.36 90.8224C1378.36 89.0087 1376.06 88.3708 1374.27 89.4071C1372.47 90.4434 1371.88 92.7506 1372.95 94.5262L1383.87 112.669C1384.81 114.217 1386.81 114.733 1388.37 113.83C1389.93 112.926 1390.49 110.936 1389.61 109.355L1379.36 90.8224Z" fill="white" stroke="white" stroke-width="1.24075"/>
</g>
<defs>
<clipPath id="clip0_326_239">
<rect width="1440" height="312" fill="white"/>
</clipPath>
</defs>
</svg>
