<svg width="82" height="96" viewBox="0 0 82 96" fill="none" xmlns="http://www.w3.org/2000/svg">
<path d="M79.875 39.5V31.2969C79.875 28.4997 78.7638 25.817 76.7859 23.8391C74.808 21.8612 72.1253 20.75 69.3281 20.75H64.6406C63.7082 20.75 62.814 20.3796 62.1547 19.7203C61.4954 19.061 61.125 18.1668 61.125 17.2344V12.5469C61.125 9.74967 60.0138 7.06703 58.0359 5.08911C56.058 3.11119 53.3753 2 50.5781 2H44.7188M51.75 2H36.5156C34.575 2 33 3.575 33 5.51562V59.4219C33 61.3625 34.575 62.9375 36.5156 62.9375H76.3594C78.3 62.9375 79.875 61.3625 79.875 59.4219V30.125C79.875 22.6658 76.9118 15.5121 71.6374 10.2376C66.3629 4.96316 59.2092 2 51.75 2Z" fill="white"/>
<path d="M79.875 39.5V31.2969C79.875 28.4997 78.7638 25.817 76.7859 23.8391C74.808 21.8612 72.1253 20.75 69.3281 20.75H64.6406C63.7082 20.75 62.814 20.3796 62.1547 19.7203C61.4954 19.061 61.125 18.1668 61.125 17.2344V12.5469C61.125 9.74967 60.0138 7.06703 58.0359 5.08911C56.058 3.11119 53.3753 2 50.5781 2H44.7188M51.75 2H36.5156C34.575 2 33 3.575 33 5.51562V59.4219C33 61.3625 34.575 62.9375 36.5156 62.9375H76.3594C78.3 62.9375 79.875 61.3625 79.875 59.4219V30.125C79.875 22.6658 76.9118 15.5121 71.6374 10.2376C66.3629 4.96316 59.2092 2 51.75 2Z" stroke="black" stroke-width="4" stroke-linecap="round" stroke-linejoin="round"/>
<path d="M59.182 42.182C58.7641 42.5999 58.2681 42.9313 57.7221 43.1575C57.1761 43.3836 56.591 43.5 56 43.5C55.409 43.5 54.8239 43.3836 54.2779 43.1575C53.7319 42.9313 53.2359 42.5999 52.818 42.182M65 39C65 40.1819 64.7672 41.3522 64.3149 42.4442C63.8626 43.5361 63.1997 44.5282 62.364 45.364C61.5282 46.1997 60.5361 46.8626 59.4442 47.3149C58.3522 47.7672 57.1819 48 56 48C54.8181 48 53.6478 47.7672 52.5558 47.3149C51.4639 46.8626 50.4718 46.1997 49.636 45.364C48.8003 44.5282 48.1374 43.5361 47.6851 42.4442C47.2328 41.3522 47 40.1819 47 39C47 36.6131 47.9482 34.3239 49.636 32.636C51.3239 30.9482 53.6131 30 56 30C58.3869 30 60.6761 30.9482 62.364 32.636C64.0518 34.3239 65 36.6131 65 39ZM53.75 36.75C53.75 37.164 53.582 37.5 53.375 37.5C53.168 37.5 53 37.164 53 36.75C53 36.336 53.168 36 53.375 36C53.582 36 53.75 36.336 53.75 36.75ZM53.375 36.75H53.383V36.765H53.375V36.75ZM59 36.75C59 37.164 58.832 37.5 58.625 37.5C58.418 37.5 58.25 37.164 58.25 36.75C58.25 36.336 58.418 36 58.625 36C58.832 36 59 36.336 59 36.75ZM58.625 36.75H58.633V36.765H58.625V36.75Z" fill="white"/>
<path d="M59.182 42.182C58.7641 42.5999 58.2681 42.9313 57.7221 43.1575C57.1761 43.3836 56.591 43.5 56 43.5C55.409 43.5 54.8239 43.3836 54.2779 43.1575C53.7319 42.9313 53.2359 42.5999 52.818 42.182M65 39C65 40.1819 64.7672 41.3522 64.3149 42.4442C63.8626 43.5361 63.1997 44.5282 62.364 45.364C61.5282 46.1997 60.5361 46.8626 59.4442 47.3149C58.3522 47.7672 57.1819 48 56 48C54.8181 48 53.6478 47.7672 52.5558 47.3149C51.4639 46.8626 50.4718 46.1997 49.636 45.364C48.8003 44.5282 48.1374 43.5361 47.6851 42.4442C47.2328 41.3522 47 40.1819 47 39C47 36.6131 47.9482 34.3239 49.636 32.636C51.3239 30.9482 53.6131 30 56 30C58.3869 30 60.6761 30.9482 62.364 32.636C64.0518 34.3239 65 36.6131 65 39ZM53.75 36.75C53.75 37.164 53.582 37.5 53.375 37.5C53.168 37.5 53 37.164 53 36.75C53 36.336 53.168 36 53.375 36C53.582 36 53.75 36.336 53.75 36.75ZM53.375 36.75H53.383V36.765H53.375V36.75ZM59 36.75C59 37.164 58.832 37.5 58.625 37.5C58.418 37.5 58.25 37.164 58.25 36.75C58.25 36.336 58.418 36 58.625 36C58.832 36 59 36.336 59 36.75ZM58.625 36.75H58.633V36.765H58.625V36.75Z" stroke="black" stroke-width="2.5" stroke-linecap="round" stroke-linejoin="round"/>
<path d="M48.875 46.5V38.2969C48.875 35.4997 47.7638 32.817 45.7859 30.8391C43.808 28.8612 41.1253 27.75 38.3281 27.75H33.6406C32.7082 27.75 31.814 27.3796 31.1547 26.7203C30.4954 26.061 30.125 25.1668 30.125 24.2344V19.5469C30.125 16.7497 29.0138 14.067 27.0359 12.0891C25.058 10.1112 22.3753 9 19.5781 9H13.7188M20.75 9H5.51562C3.575 9 2 10.575 2 12.5156V66.4219C2 68.3625 3.575 69.9375 5.51562 69.9375H45.3594C47.3 69.9375 48.875 68.3625 48.875 66.4219V37.125C48.875 29.6658 45.9118 22.5121 40.6374 17.2376C35.3629 11.9632 28.2092 9 20.75 9Z" fill="white"/>
<path d="M48.875 46.5V38.2969C48.875 35.4997 47.7638 32.817 45.7859 30.8391C43.808 28.8612 41.1253 27.75 38.3281 27.75H33.6406C32.7082 27.75 31.814 27.3796 31.1547 26.7203C30.4954 26.061 30.125 25.1668 30.125 24.2344V19.5469C30.125 16.7497 29.0138 14.067 27.0359 12.0891C25.058 10.1112 22.3753 9 19.5781 9H13.7188M20.75 9H5.51562C3.575 9 2 10.575 2 12.5156V66.4219C2 68.3625 3.575 69.9375 5.51562 69.9375H45.3594C47.3 69.9375 48.875 68.3625 48.875 66.4219V37.125C48.875 29.6658 45.9118 22.5121 40.6374 17.2376C35.3629 11.9632 28.2092 9 20.75 9Z" stroke="black" stroke-width="4" stroke-linecap="round" stroke-linejoin="round"/>
<path d="M28.182 49.182C27.7641 49.5999 27.2681 49.9313 26.7221 50.1575C26.1761 50.3836 25.591 50.5 25 50.5C24.409 50.5 23.8239 50.3836 23.2779 50.1575C22.7319 49.9313 22.2359 49.5999 21.818 49.182M34 46C34 47.1819 33.7672 48.3522 33.3149 49.4442C32.8626 50.5361 32.1997 51.5282 31.364 52.364C30.5282 53.1997 29.5361 53.8626 28.4442 54.3149C27.3522 54.7672 26.1819 55 25 55C23.8181 55 22.6478 54.7672 21.5558 54.3149C20.4639 53.8626 19.4718 53.1997 18.636 52.364C17.8003 51.5282 17.1374 50.5361 16.6851 49.4442C16.2328 48.3522 16 47.1819 16 46C16 43.6131 16.9482 41.3239 18.636 39.636C20.3239 37.9482 22.6131 37 25 37C27.3869 37 29.6761 37.9482 31.364 39.636C33.0518 41.3239 34 43.6131 34 46ZM22.75 43.75C22.75 44.164 22.582 44.5 22.375 44.5C22.168 44.5 22 44.164 22 43.75C22 43.336 22.168 43 22.375 43C22.582 43 22.75 43.336 22.75 43.75ZM22.375 43.75H22.383V43.765H22.375V43.75ZM28 43.75C28 44.164 27.832 44.5 27.625 44.5C27.418 44.5 27.25 44.164 27.25 43.75C27.25 43.336 27.418 43 27.625 43C27.832 43 28 43.336 28 43.75ZM27.625 43.75H27.633V43.765H27.625V43.75Z" fill="white"/>
<path d="M28.182 49.182C27.7641 49.5999 27.2681 49.9313 26.7221 50.1575C26.1761 50.3836 25.591 50.5 25 50.5C24.409 50.5 23.8239 50.3836 23.2779 50.1575C22.7319 49.9313 22.2359 49.5999 21.818 49.182M34 46C34 47.1819 33.7672 48.3522 33.3149 49.4442C32.8626 50.5361 32.1997 51.5282 31.364 52.364C30.5282 53.1997 29.5361 53.8626 28.4442 54.3149C27.3522 54.7672 26.1819 55 25 55C23.8181 55 22.6478 54.7672 21.5558 54.3149C20.4639 53.8626 19.4718 53.1997 18.636 52.364C17.8003 51.5282 17.1374 50.5361 16.6851 49.4442C16.2328 48.3522 16 47.1819 16 46C16 43.6131 16.9482 41.3239 18.636 39.636C20.3239 37.9482 22.6131 37 25 37C27.3869 37 29.6761 37.9482 31.364 39.636C33.0518 41.3239 34 43.6131 34 46ZM22.75 43.75C22.75 44.164 22.582 44.5 22.375 44.5C22.168 44.5 22 44.164 22 43.75C22 43.336 22.168 43 22.375 43C22.582 43 22.75 43.336 22.75 43.75ZM22.375 43.75H22.383V43.765H22.375V43.75ZM28 43.75C28 44.164 27.832 44.5 27.625 44.5C27.418 44.5 27.25 44.164 27.25 43.75C27.25 43.336 27.418 43 27.625 43C27.832 43 28 43.336 28 43.75ZM27.625 43.75H27.633V43.765H27.625V43.75Z" stroke="black" stroke-width="2.5" stroke-linecap="round" stroke-linejoin="round"/>
<path d="M18.266 92.07C17.762 92.07 17.3747 91.9487 17.104 91.706C16.8427 91.454 16.712 91.062 16.712 90.53C16.4413 90.978 16.1007 91.3653 15.69 91.692C15.2793 92.0093 14.8033 92.168 14.262 92.168C13.7953 92.168 13.3567 92.0467 12.946 91.804C12.5353 91.552 12.204 91.202 11.952 90.754C11.7093 90.2967 11.588 89.7553 11.588 89.13C11.588 88.4113 11.6953 87.772 11.91 87.212C12.1247 86.6427 12.4093 86.162 12.764 85.77C13.128 85.378 13.5247 85.0793 13.954 84.874C14.3927 84.6593 14.836 84.552 15.284 84.552C15.7787 84.552 16.2033 84.6733 16.558 84.916C16.922 85.1587 17.202 85.4573 17.398 85.812L18.14 81.64H19.4L17.916 90.026C17.9067 90.0727 17.8973 90.1287 17.888 90.194C17.888 90.25 17.888 90.3107 17.888 90.376C17.888 90.6373 17.9627 90.824 18.112 90.936C18.2613 91.0387 18.4573 91.09 18.7 91.09L18.266 92.07ZM14.598 91.048C14.9527 91.048 15.2887 90.936 15.606 90.712C15.9327 90.488 16.2127 90.1753 16.446 89.774C16.6887 89.3633 16.8567 88.8827 16.95 88.332L17.202 86.89C17.0153 86.498 16.7633 86.1947 16.446 85.98C16.1287 85.756 15.7787 85.644 15.396 85.644C14.9667 85.644 14.556 85.7793 14.164 86.05C13.7813 86.3113 13.4687 86.6893 13.226 87.184C12.9927 87.6693 12.876 88.2573 12.876 88.948C12.876 89.4053 12.9553 89.7927 13.114 90.11C13.282 90.418 13.4967 90.6513 13.758 90.81C14.0287 90.9687 14.3087 91.048 14.598 91.048ZM21.2199 92.168C20.8466 92.168 20.5012 92.084 20.1839 91.916C19.8759 91.748 19.6286 91.5147 19.4419 91.216C19.2552 90.908 19.1619 90.544 19.1619 90.124C19.1619 90.0027 19.1666 89.8813 19.1759 89.76C19.1852 89.6293 19.1992 89.494 19.2179 89.354L20.0159 84.72H21.2759L20.4639 89.326C20.4546 89.4193 20.4452 89.5033 20.4359 89.578C20.4266 89.6433 20.4219 89.718 20.4219 89.802C20.4219 90.222 20.5432 90.5347 20.7859 90.74C21.0286 90.9453 21.3132 91.048 21.6399 91.048C21.9946 91.048 22.3399 90.9407 22.6759 90.726C23.0212 90.502 23.3246 90.1847 23.5859 89.774C23.8472 89.3633 24.0292 88.8687 24.1319 88.29L24.7619 84.72H26.0219L25.0979 90.026C25.0886 90.0727 25.0792 90.1287 25.0699 90.194C25.0699 90.25 25.0699 90.3107 25.0699 90.376C25.0699 90.6373 25.1446 90.824 25.2939 90.936C25.4432 91.0387 25.6392 91.09 25.8819 91.09L25.4479 92.07C24.9439 92.07 24.5566 91.9487 24.2859 91.706C24.0246 91.454 23.8939 91.0667 23.8939 90.544V90.418C23.2126 91.5847 22.3212 92.168 21.2199 92.168ZM26.061 89.13C26.061 88.2247 26.257 87.4313 26.649 86.75C27.0503 86.0593 27.601 85.5227 28.301 85.14C29.001 84.748 29.799 84.552 30.695 84.552C31.2456 84.552 31.7263 84.608 32.137 84.72C32.557 84.832 32.9023 84.944 33.173 85.056L32.291 90.026C32.2816 90.0727 32.2723 90.1287 32.263 90.194C32.263 90.25 32.263 90.3107 32.263 90.376C32.263 90.6373 32.3376 90.824 32.487 90.936C32.6363 91.0387 32.8323 91.09 33.075 91.09L32.641 92.07C32.137 92.07 31.7496 91.9487 31.479 91.706C31.2176 91.454 31.087 91.0667 31.087 90.544C30.8256 90.992 30.4943 91.3747 30.093 91.692C29.701 92.0093 29.239 92.168 28.707 92.168C28.2496 92.168 27.8203 92.0467 27.419 91.804C27.0176 91.552 26.691 91.202 26.439 90.754C26.187 90.2967 26.061 89.7553 26.061 89.13ZM31.787 85.798C31.6096 85.742 31.423 85.7 31.227 85.672C31.0403 85.6347 30.8116 85.616 30.541 85.616C29.897 85.616 29.337 85.7607 28.861 86.05C28.385 86.3393 28.0116 86.7407 27.741 87.254C27.4796 87.758 27.349 88.332 27.349 88.976C27.349 89.424 27.4283 89.802 27.587 90.11C27.755 90.418 27.9696 90.6513 28.231 90.81C28.4923 90.9687 28.763 91.048 29.043 91.048C29.4256 91.048 29.7756 90.9173 30.093 90.656C30.4103 90.3947 30.681 90.0307 30.905 89.564C31.1383 89.0973 31.3063 88.5653 31.409 87.968L31.787 85.798ZM34.8721 89.48C34.8535 89.6013 34.8395 89.7133 34.8301 89.816C34.8208 89.9093 34.8161 89.9933 34.8161 90.068C34.8161 90.3853 34.9095 90.6327 35.0961 90.81C35.2921 90.9873 35.5488 91.076 35.8661 91.076C36.0248 91.076 36.1835 91.0573 36.3421 91.02C36.5008 90.9827 36.6455 90.9313 36.7761 90.866L36.9021 91.888C36.7341 91.972 36.5381 92.0373 36.3141 92.084C36.0901 92.14 35.8475 92.168 35.5861 92.168C35.0261 92.168 34.5455 92.0093 34.1441 91.692C33.7521 91.3653 33.5561 90.8753 33.5561 90.222C33.5561 89.9793 33.5748 89.7413 33.6121 89.508L34.9841 81.64H36.2441L34.8721 89.48ZM40.9771 84.72C41.9478 84.72 42.4331 85.14 42.4331 85.98V86.274C42.7038 85.77 43.0538 85.3593 43.4831 85.042C43.9125 84.7153 44.4118 84.552 44.9811 84.552C45.4851 84.552 45.9238 84.6827 46.2971 84.944C46.6705 85.196 46.9551 85.5507 47.1511 86.008C47.3565 86.456 47.4591 86.9787 47.4591 87.576C47.4591 88.2667 47.3565 88.8967 47.1511 89.466C46.9551 90.026 46.6845 90.5113 46.3391 90.922C45.9938 91.3233 45.6065 91.6313 45.1771 91.846C44.7478 92.0607 44.3045 92.168 43.8471 92.168C43.3991 92.168 42.9791 92.056 42.5871 91.832C42.2045 91.608 41.9058 91.3327 41.6911 91.006L40.9771 95.08H39.7171L41.1731 86.75C41.2011 86.5913 41.2151 86.4607 41.2151 86.358C41.2151 85.9193 40.9865 85.7 40.5291 85.7L40.9771 84.72ZM43.7351 91.048C44.1738 91.048 44.5751 90.908 44.9391 90.628C45.3125 90.3387 45.6111 89.942 45.8351 89.438C46.0591 88.934 46.1711 88.3553 46.1711 87.702C46.1711 87.0673 46.0265 86.568 45.7371 86.204C45.4478 85.8307 45.0698 85.644 44.6031 85.644C44.2298 85.644 43.8705 85.7607 43.5251 85.994C43.1891 86.2273 42.8998 86.554 42.6571 86.974C42.4145 87.394 42.2418 87.8887 42.1391 88.458L41.8871 89.872C42.0925 90.2453 42.3585 90.5347 42.6851 90.74C43.0118 90.9453 43.3618 91.048 43.7351 91.048ZM53.285 86.848C53.285 86.4933 53.1777 86.2087 52.963 85.994C52.7577 85.77 52.487 85.658 52.151 85.658C51.8243 85.658 51.465 85.7747 51.073 86.008C50.6903 86.2413 50.3403 86.6053 50.023 87.1C49.7057 87.5947 49.477 88.234 49.337 89.018L48.819 92H47.559L49.379 81.64H50.639L49.827 86.246C50.1163 85.7327 50.4943 85.322 50.961 85.014C51.437 84.706 51.9363 84.552 52.459 84.552C53.103 84.552 53.6117 84.748 53.985 85.14C54.3677 85.5227 54.559 85.994 54.559 86.554C54.559 86.7873 54.531 87.0813 54.475 87.436L53.677 92H52.417L53.187 87.646C53.2337 87.422 53.2617 87.2587 53.271 87.156C53.2803 87.044 53.285 86.9413 53.285 86.848ZM58.1772 92.168C57.4865 92.168 56.8892 92.028 56.3852 91.748C55.8812 91.468 55.4892 91.0807 55.2092 90.586C54.9385 90.082 54.8032 89.5127 54.8032 88.878C54.8032 88.066 54.9665 87.3333 55.2932 86.68C55.6292 86.0267 56.0958 85.5087 56.6932 85.126C57.2905 84.7433 57.9952 84.552 58.8072 84.552C59.4978 84.552 60.0952 84.692 60.5992 84.972C61.1032 85.252 61.4905 85.6393 61.7612 86.134C62.0412 86.6287 62.1812 87.198 62.1812 87.842C62.1812 88.6447 62.0178 89.3773 61.6912 90.04C61.3645 90.6933 60.8978 91.2113 60.2912 91.594C59.6938 91.9767 58.9892 92.168 58.1772 92.168ZM58.2192 91.048C58.7792 91.048 59.2552 90.9127 59.6472 90.642C60.0485 90.362 60.3565 89.9887 60.5712 89.522C60.7858 89.0553 60.8932 88.5327 60.8932 87.954C60.8932 87.5247 60.8092 87.142 60.6412 86.806C60.4732 86.4607 60.2305 86.1853 59.9132 85.98C59.5958 85.7747 59.2132 85.672 58.7652 85.672C58.2145 85.672 57.7385 85.812 57.3372 86.092C56.9358 86.3627 56.6278 86.7313 56.4132 87.198C56.1985 87.6647 56.0912 88.1873 56.0912 88.766C56.0912 89.186 56.1752 89.5687 56.3432 89.914C56.5112 90.2593 56.7538 90.5347 57.0712 90.74C57.3885 90.9453 57.7712 91.048 58.2192 91.048ZM62.4634 84.986H63.7514L64.4234 82.69H65.3894L64.9834 84.986H66.9994L66.8174 86.078H64.7874L64.1994 89.48C64.1807 89.5827 64.1667 89.6807 64.1574 89.774C64.148 89.858 64.1434 89.9373 64.1434 90.012C64.1434 90.3387 64.2414 90.5953 64.4374 90.782C64.6334 90.9593 64.89 91.048 65.2074 91.048C65.478 91.048 65.7067 91.0107 65.8934 90.936C66.08 90.852 66.248 90.768 66.3974 90.684L66.5514 91.776C66.374 91.8787 66.15 91.9673 65.8794 92.042C65.618 92.126 65.324 92.168 64.9974 92.168C64.652 92.168 64.316 92.098 63.9894 91.958C63.672 91.818 63.4107 91.5987 63.2054 91.3C63 90.992 62.8974 90.5953 62.8974 90.11C62.8974 89.9047 62.916 89.676 62.9534 89.424L63.5274 86.078H62.2814L62.4634 84.986ZM69.9174 92.168C69.2267 92.168 68.6294 92.028 68.1254 91.748C67.6214 91.468 67.2294 91.0807 66.9494 90.586C66.6787 90.082 66.5434 89.5127 66.5434 88.878C66.5434 88.066 66.7067 87.3333 67.0334 86.68C67.3694 86.0267 67.8361 85.5087 68.4334 85.126C69.0307 84.7433 69.7354 84.552 70.5474 84.552C71.2381 84.552 71.8354 84.692 72.3394 84.972C72.8434 85.252 73.2307 85.6393 73.5014 86.134C73.7814 86.6287 73.9214 87.198 73.9214 87.842C73.9214 88.6447 73.7581 89.3773 73.4314 90.04C73.1047 90.6933 72.6381 91.2113 72.0314 91.594C71.4341 91.9767 70.7294 92.168 69.9174 92.168ZM69.9594 91.048C70.5194 91.048 70.9954 90.9127 71.3874 90.642C71.7887 90.362 72.0967 89.9887 72.3114 89.522C72.5261 89.0553 72.6334 88.5327 72.6334 87.954C72.6334 87.5247 72.5494 87.142 72.3814 86.806C72.2134 86.4607 71.9707 86.1853 71.6534 85.98C71.3361 85.7747 70.9534 85.672 70.5054 85.672C69.9547 85.672 69.4787 85.812 69.0774 86.092C68.6761 86.3627 68.3681 86.7313 68.1534 87.198C67.9387 87.6647 67.8314 88.1873 67.8314 88.766C67.8314 89.186 67.9154 89.5687 68.0834 89.914C68.2514 90.2593 68.4941 90.5347 68.8114 90.74C69.1287 90.9453 69.5114 91.048 69.9594 91.048ZM79.0476 86.302C78.7769 86.1153 78.4736 85.952 78.1376 85.812C77.8109 85.672 77.4376 85.602 77.0176 85.602C76.5789 85.602 76.2383 85.6767 75.9956 85.826C75.7529 85.9753 75.6316 86.1713 75.6316 86.414C75.6316 86.554 75.6689 86.6893 75.7436 86.82C75.8276 86.9413 75.9723 87.072 76.1776 87.212C76.3923 87.352 76.6909 87.52 77.0736 87.716C77.7083 88.0333 78.1796 88.3647 78.4876 88.71C78.7956 89.046 78.9496 89.4613 78.9496 89.956C78.9496 90.4507 78.8189 90.8613 78.5576 91.188C78.2963 91.5147 77.9463 91.762 77.5076 91.93C77.0689 92.0887 76.5743 92.168 76.0236 92.168C75.4543 92.168 74.9503 92.098 74.5116 91.958C74.0823 91.8087 73.7089 91.6173 73.3916 91.384L74.1056 90.348C74.3576 90.5533 74.6563 90.726 75.0016 90.866C75.3469 91.006 75.7249 91.076 76.1356 91.076C76.6023 91.076 76.9709 90.9873 77.2416 90.81C77.5123 90.6327 77.6476 90.4133 77.6476 90.152C77.6476 89.9093 77.5449 89.6853 77.3396 89.48C77.1436 89.2747 76.7563 89.0273 76.1776 88.738C75.7109 88.5047 75.3469 88.2807 75.0856 88.066C74.8243 87.842 74.6423 87.604 74.5396 87.352C74.4369 87.1 74.3856 86.8107 74.3856 86.484C74.3856 86.1107 74.4976 85.7793 74.7216 85.49C74.9456 85.2007 75.2583 84.972 75.6596 84.804C76.0609 84.636 76.5229 84.552 77.0456 84.552C77.5683 84.552 78.0349 84.622 78.4456 84.762C78.8656 84.8927 79.2343 85.0513 79.5516 85.238L79.0476 86.302Z" fill="black"/>
</svg>
