<svg width="98" height="76" viewBox="0 0 98 76" fill="none" xmlns="http://www.w3.org/2000/svg">
<path d="M5.892 72.168C5.20133 72.168 4.604 72.028 4.1 71.748C3.596 71.468 3.204 71.0807 2.924 70.586C2.65333 70.082 2.518 69.5127 2.518 68.878C2.518 68.066 2.68133 67.3333 3.008 66.68C3.344 66.0267 3.81067 65.5087 4.408 65.126C5.00533 64.7433 5.71 64.552 6.522 64.552C7.21267 64.552 7.81 64.692 8.314 64.972C8.818 65.252 9.20533 65.6393 9.476 66.134C9.756 66.6287 9.896 67.198 9.896 67.842C9.896 68.6447 9.73267 69.3773 9.406 70.04C9.07933 70.6933 8.61267 71.2113 8.006 71.594C7.40867 71.9767 6.704 72.168 5.892 72.168ZM5.934 71.048C6.494 71.048 6.97 70.9127 7.362 70.642C7.76333 70.362 8.07133 69.9887 8.286 69.522C8.50067 69.0553 8.608 68.5327 8.608 67.954C8.608 67.5247 8.524 67.142 8.356 66.806C8.188 66.4607 7.94533 66.1853 7.628 65.98C7.31067 65.7747 6.928 65.672 6.48 65.672C5.92933 65.672 5.45333 65.812 5.052 66.092C4.65067 66.3627 4.34267 66.7313 4.128 67.198C3.91333 67.6647 3.806 68.1873 3.806 68.766C3.806 69.186 3.89 69.5687 4.058 69.914C4.226 70.2593 4.46867 70.5347 4.786 70.74C5.10333 70.9453 5.486 71.048 5.934 71.048ZM16.9822 67.24C16.9822 67.94 16.8609 68.5887 16.6182 69.186C16.3755 69.7833 16.0302 70.306 15.5822 70.754C15.1435 71.202 14.6209 71.552 14.0142 71.804C13.4075 72.0467 12.7449 72.168 12.0262 72.168C11.5969 72.168 11.2002 72.126 10.8362 72.042C10.4722 71.9673 10.1689 71.8693 9.9262 71.748L11.7042 61.64H12.9642L12.1662 66.19C12.4369 65.6953 12.7822 65.2987 13.2022 65C13.6315 64.7013 14.1122 64.552 14.6442 64.552C15.0922 64.552 15.4889 64.664 15.8342 64.888C16.1889 65.112 16.4689 65.4293 16.6742 65.84C16.8795 66.2413 16.9822 66.708 16.9822 67.24ZM14.3222 65.644C13.9862 65.644 13.6409 65.7607 13.2862 65.994C12.9315 66.2273 12.6049 66.6193 12.3062 67.17C12.0075 67.7113 11.7742 68.4487 11.6062 69.382L11.3262 70.936C11.4755 70.9733 11.6295 71.0013 11.7882 71.02C11.9562 71.0387 12.1335 71.048 12.3202 71.048C12.9642 71.048 13.5382 70.8893 14.0422 70.572C14.5555 70.2453 14.9569 69.8067 15.2462 69.256C15.5449 68.7053 15.6942 68.0893 15.6942 67.408C15.6942 66.8667 15.5682 66.4373 15.3162 66.12C15.0642 65.8027 14.7329 65.644 14.3222 65.644ZM22.0476 66.302C21.7769 66.1153 21.4736 65.952 21.1376 65.812C20.8109 65.672 20.4376 65.602 20.0176 65.602C19.5789 65.602 19.2383 65.6767 18.9956 65.826C18.7529 65.9753 18.6316 66.1713 18.6316 66.414C18.6316 66.554 18.6689 66.6893 18.7436 66.82C18.8276 66.9413 18.9723 67.072 19.1776 67.212C19.3923 67.352 19.6909 67.52 20.0736 67.716C20.7083 68.0333 21.1796 68.3647 21.4876 68.71C21.7956 69.046 21.9496 69.4613 21.9496 69.956C21.9496 70.4507 21.8189 70.8613 21.5576 71.188C21.2963 71.5147 20.9463 71.762 20.5076 71.93C20.0689 72.0887 19.5743 72.168 19.0236 72.168C18.4543 72.168 17.9503 72.098 17.5116 71.958C17.0823 71.8087 16.7089 71.6173 16.3916 71.384L17.1056 70.348C17.3576 70.5533 17.6563 70.726 18.0016 70.866C18.3469 71.006 18.7249 71.076 19.1356 71.076C19.6023 71.076 19.9709 70.9873 20.2416 70.81C20.5123 70.6327 20.6476 70.4133 20.6476 70.152C20.6476 69.9093 20.5449 69.6853 20.3396 69.48C20.1436 69.2747 19.7563 69.0273 19.1776 68.738C18.7109 68.5047 18.3469 68.2807 18.0856 68.066C17.8243 67.842 17.6423 67.604 17.5396 67.352C17.4369 67.1 17.3856 66.8107 17.3856 66.484C17.3856 66.1107 17.4976 65.7793 17.7216 65.49C17.9456 65.2007 18.2583 64.972 18.6596 64.804C19.0609 64.636 19.5229 64.552 20.0456 64.552C20.5683 64.552 21.0349 64.622 21.4456 64.762C21.8656 64.8927 22.2343 65.0513 22.5516 65.238L22.0476 66.302ZM25.5463 72.168C24.8556 72.168 24.2583 72.028 23.7543 71.748C23.2503 71.468 22.8583 71.0807 22.5783 70.586C22.3076 70.082 22.1723 69.5127 22.1723 68.878C22.1723 68.066 22.3356 67.3333 22.6623 66.68C22.9983 66.0267 23.465 65.5087 24.0623 65.126C24.6596 64.7433 25.3643 64.552 26.1763 64.552C26.867 64.552 27.4643 64.692 27.9683 64.972C28.4723 65.252 28.8596 65.6393 29.1303 66.134C29.4103 66.6287 29.5503 67.198 29.5503 67.842C29.5503 68.6447 29.387 69.3773 29.0603 70.04C28.7336 70.6933 28.267 71.2113 27.6603 71.594C27.063 71.9767 26.3583 72.168 25.5463 72.168ZM25.5883 71.048C26.1483 71.048 26.6243 70.9127 27.0163 70.642C27.4176 70.362 27.7256 69.9887 27.9403 69.522C28.155 69.0553 28.2623 68.5327 28.2623 67.954C28.2623 67.5247 28.1783 67.142 28.0103 66.806C27.8423 66.4607 27.5996 66.1853 27.2823 65.98C26.965 65.7747 26.5823 65.672 26.1343 65.672C25.5836 65.672 25.1076 65.812 24.7063 66.092C24.305 66.3627 23.997 66.7313 23.7823 67.198C23.5676 67.6647 23.4603 68.1873 23.4603 68.766C23.4603 69.186 23.5443 69.5687 23.7123 69.914C23.8803 70.2593 24.123 70.5347 24.4403 70.74C24.7576 70.9453 25.1403 71.048 25.5883 71.048ZM31.1065 69.48C31.0878 69.6013 31.0738 69.7133 31.0645 69.816C31.0552 69.9093 31.0505 69.9933 31.0505 70.068C31.0505 70.3853 31.1438 70.6327 31.3305 70.81C31.5265 70.9873 31.7832 71.076 32.1005 71.076C32.2592 71.076 32.4178 71.0573 32.5765 71.02C32.7352 70.9827 32.8798 70.9313 33.0105 70.866L33.1365 71.888C32.9685 71.972 32.7725 72.0373 32.5485 72.084C32.3245 72.14 32.0818 72.168 31.8205 72.168C31.2605 72.168 30.7798 72.0093 30.3785 71.692C29.9865 71.3653 29.7905 70.8753 29.7905 70.222C29.7905 69.9793 29.8092 69.7413 29.8465 69.508L31.2185 61.64H32.4785L31.1065 69.48ZM35.8864 72.168C35.2704 72.168 34.7244 72.0373 34.2484 71.776C33.7818 71.5053 33.4131 71.1227 33.1424 70.628C32.8811 70.124 32.7504 69.5313 32.7504 68.85C32.7504 68.0753 32.9091 67.3613 33.2264 66.708C33.5531 66.0547 34.0104 65.532 34.5984 65.14C35.1958 64.748 35.8911 64.552 36.6844 64.552C37.2258 64.552 37.6831 64.6547 38.0564 64.86C38.4391 65.0653 38.7331 65.3313 38.9384 65.658C39.1438 65.9847 39.2464 66.3347 39.2464 66.708C39.2464 67.2213 39.1251 67.646 38.8824 67.982C38.6398 68.318 38.3271 68.5793 37.9444 68.766C37.5618 68.9433 37.1464 69.0693 36.6984 69.144C36.2598 69.2187 35.8398 69.256 35.4384 69.256C35.1864 69.256 34.9344 69.2467 34.6824 69.228C34.4398 69.2 34.2251 69.172 34.0384 69.144C34.1131 69.76 34.3324 70.2313 34.6964 70.558C35.0604 70.8847 35.5271 71.048 36.0964 71.048C36.5631 71.048 36.9784 70.9873 37.3424 70.866C37.7064 70.7447 38.0144 70.6233 38.2664 70.502L38.3784 71.622C38.0984 71.7527 37.7438 71.8787 37.3144 72C36.8851 72.112 36.4091 72.168 35.8864 72.168ZM36.5864 65.616C36.1478 65.616 35.7511 65.728 35.3964 65.952C35.0418 66.1667 34.7478 66.4653 34.5144 66.848C34.2904 67.2213 34.1411 67.6507 34.0664 68.136C34.2811 68.1733 34.4958 68.206 34.7104 68.234C34.9344 68.2527 35.1771 68.262 35.4384 68.262C36.2224 68.262 36.8431 68.1547 37.3004 67.94C37.7578 67.716 37.9864 67.338 37.9864 66.806C37.9864 66.4793 37.8558 66.1993 37.5944 65.966C37.3424 65.7327 37.0064 65.616 36.5864 65.616ZM39.2485 64.986H40.5365L41.2085 62.69H42.1745L41.7685 64.986H43.7845L43.6025 66.078H41.5725L40.9845 69.48C40.9658 69.5827 40.9518 69.6807 40.9425 69.774C40.9332 69.858 40.9285 69.9373 40.9285 70.012C40.9285 70.3387 41.0265 70.5953 41.2225 70.782C41.4185 70.9593 41.6752 71.048 41.9925 71.048C42.2632 71.048 42.4918 71.0107 42.6785 70.936C42.8652 70.852 43.0332 70.768 43.1825 70.684L43.3365 71.776C43.1592 71.8787 42.9352 71.9673 42.6645 72.042C42.4032 72.126 42.1092 72.168 41.7825 72.168C41.4372 72.168 41.1012 72.098 40.7745 71.958C40.4572 71.818 40.1958 71.5987 39.9905 71.3C39.7852 70.992 39.6825 70.5953 39.6825 70.11C39.6825 69.9047 39.7012 69.676 39.7385 69.424L40.3125 66.078H39.0665L39.2485 64.986ZM46.4645 72.168C45.8485 72.168 45.3025 72.0373 44.8265 71.776C44.3599 71.5053 43.9912 71.1227 43.7205 70.628C43.4592 70.124 43.3285 69.5313 43.3285 68.85C43.3285 68.0753 43.4872 67.3613 43.8045 66.708C44.1312 66.0547 44.5885 65.532 45.1765 65.14C45.7739 64.748 46.4692 64.552 47.2625 64.552C47.8039 64.552 48.2612 64.6547 48.6345 64.86C49.0172 65.0653 49.3112 65.3313 49.5165 65.658C49.7219 65.9847 49.8245 66.3347 49.8245 66.708C49.8245 67.2213 49.7032 67.646 49.4605 67.982C49.2179 68.318 48.9052 68.5793 48.5225 68.766C48.1399 68.9433 47.7245 69.0693 47.2765 69.144C46.8379 69.2187 46.4179 69.256 46.0165 69.256C45.7645 69.256 45.5125 69.2467 45.2605 69.228C45.0179 69.2 44.8032 69.172 44.6165 69.144C44.6912 69.76 44.9105 70.2313 45.2745 70.558C45.6385 70.8847 46.1052 71.048 46.6745 71.048C47.1412 71.048 47.5565 70.9873 47.9205 70.866C48.2845 70.7447 48.5925 70.6233 48.8445 70.502L48.9565 71.622C48.6765 71.7527 48.3219 71.8787 47.8925 72C47.4632 72.112 46.9872 72.168 46.4645 72.168ZM47.1645 65.616C46.7259 65.616 46.3292 65.728 45.9745 65.952C45.6199 66.1667 45.3259 66.4653 45.0925 66.848C44.8685 67.2213 44.7192 67.6507 44.6445 68.136C44.8592 68.1733 45.0739 68.206 45.2885 68.234C45.5125 68.2527 45.7552 68.262 46.0165 68.262C46.8005 68.262 47.4212 68.1547 47.8785 67.94C48.3359 67.716 48.5645 67.338 48.5645 66.806C48.5645 66.4793 48.4339 66.1993 48.1725 65.966C47.9205 65.7327 47.5845 65.616 47.1645 65.616ZM55.9079 72.168C55.2919 72.168 54.7459 72.0373 54.2699 71.776C53.8032 71.5053 53.4346 71.1227 53.1639 70.628C52.9026 70.124 52.7719 69.5313 52.7719 68.85C52.7719 68.0753 52.9306 67.3613 53.2479 66.708C53.5746 66.0547 54.0319 65.532 54.6199 65.14C55.2172 64.748 55.9126 64.552 56.7059 64.552C57.2472 64.552 57.7046 64.6547 58.0779 64.86C58.4606 65.0653 58.7546 65.3313 58.9599 65.658C59.1652 65.9847 59.2679 66.3347 59.2679 66.708C59.2679 67.2213 59.1466 67.646 58.9039 67.982C58.6612 68.318 58.3486 68.5793 57.9659 68.766C57.5832 68.9433 57.1679 69.0693 56.7199 69.144C56.2812 69.2187 55.8612 69.256 55.4599 69.256C55.2079 69.256 54.9559 69.2467 54.7039 69.228C54.4612 69.2 54.2466 69.172 54.0599 69.144C54.1346 69.76 54.3539 70.2313 54.7179 70.558C55.0819 70.8847 55.5486 71.048 56.1179 71.048C56.5846 71.048 56.9999 70.9873 57.3639 70.866C57.7279 70.7447 58.0359 70.6233 58.2879 70.502L58.3999 71.622C58.1199 71.7527 57.7652 71.8787 57.3359 72C56.9066 72.112 56.4306 72.168 55.9079 72.168ZM56.6079 65.616C56.1692 65.616 55.7726 65.728 55.4179 65.952C55.0632 66.1667 54.7692 66.4653 54.5359 66.848C54.3119 67.2213 54.1626 67.6507 54.0879 68.136C54.3026 68.1733 54.5172 68.206 54.7319 68.234C54.9559 68.2527 55.1986 68.262 55.4599 68.262C56.2439 68.262 56.8646 68.1547 57.3219 67.94C57.7792 67.716 58.0079 67.338 58.0079 66.806C58.0079 66.4793 57.8772 66.1993 57.6159 65.966C57.3639 65.7327 57.0279 65.616 56.6079 65.616ZM60.278 67.772L60.488 66.624H65.248L65.038 67.772H60.278ZM75.5545 65.658C75.2465 65.658 74.9105 65.7747 74.5465 66.008C74.1825 66.2413 73.8512 66.6053 73.5525 67.1C73.2539 67.5853 73.0345 68.2153 72.8945 68.99L72.3625 72H71.1025L71.9005 67.646C71.9472 67.422 71.9752 67.2587 71.9845 67.156C71.9939 67.044 71.9985 66.9413 71.9985 66.848C71.9985 66.484 71.8912 66.1947 71.6765 65.98C71.4712 65.7653 71.2005 65.658 70.8645 65.658C70.5379 65.658 70.1925 65.7793 69.8285 66.022C69.4645 66.2647 69.1332 66.6427 68.8345 67.156C68.5359 67.66 68.3165 68.3087 68.1765 69.102L67.6725 72H66.4125L67.6865 64.72H68.9045L68.5965 66.4C68.8765 65.84 69.2545 65.392 69.7305 65.056C70.2159 64.72 70.7152 64.552 71.2285 64.552C71.8072 64.552 72.2739 64.7293 72.6285 65.084C72.9832 65.4293 73.1839 65.868 73.2305 66.4C73.5479 65.8213 73.9352 65.3687 74.3925 65.042C74.8592 64.7153 75.3632 64.552 75.9045 64.552C76.5299 64.552 77.0245 64.748 77.3885 65.14C77.7619 65.5227 77.9485 65.994 77.9485 66.554C77.9485 66.7873 77.9205 67.0813 77.8645 67.436L77.0525 72H75.7925L76.5905 67.646C76.6372 67.422 76.6652 67.2587 76.6745 67.156C76.6839 67.044 76.6885 66.9413 76.6885 66.848C76.6885 66.484 76.5812 66.1947 76.3665 65.98C76.1612 65.7653 75.8905 65.658 75.5545 65.658ZM78.1957 69.13C78.1957 68.2247 78.3917 67.4313 78.7837 66.75C79.1851 66.0593 79.7357 65.5227 80.4357 65.14C81.1357 64.748 81.9337 64.552 82.8297 64.552C83.3804 64.552 83.8611 64.608 84.2717 64.72C84.6917 64.832 85.0371 64.944 85.3077 65.056L84.4257 70.026C84.4164 70.0727 84.4071 70.1287 84.3977 70.194C84.3977 70.25 84.3977 70.3107 84.3977 70.376C84.3977 70.6373 84.4724 70.824 84.6217 70.936C84.7711 71.0387 84.9671 71.09 85.2097 71.09L84.7757 72.07C84.2717 72.07 83.8844 71.9487 83.6137 71.706C83.3524 71.454 83.2217 71.0667 83.2217 70.544C82.9604 70.992 82.6291 71.3747 82.2277 71.692C81.8357 72.0093 81.3737 72.168 80.8417 72.168C80.3844 72.168 79.9551 72.0467 79.5537 71.804C79.1524 71.552 78.8257 71.202 78.5737 70.754C78.3217 70.2967 78.1957 69.7553 78.1957 69.13ZM83.9217 65.798C83.7444 65.742 83.5577 65.7 83.3617 65.672C83.1751 65.6347 82.9464 65.616 82.6757 65.616C82.0317 65.616 81.4717 65.7607 80.9957 66.05C80.5197 66.3393 80.1464 66.7407 79.8757 67.254C79.6144 67.758 79.4837 68.332 79.4837 68.976C79.4837 69.424 79.5631 69.802 79.7217 70.11C79.8897 70.418 80.1044 70.6513 80.3657 70.81C80.6271 70.9687 80.8977 71.048 81.1777 71.048C81.5604 71.048 81.9104 70.9173 82.2277 70.656C82.5451 70.3947 82.8157 70.0307 83.0397 69.564C83.2731 69.0973 83.4411 68.5653 83.5437 67.968L83.9217 65.798ZM87.6789 63.474C87.4176 63.474 87.2169 63.3993 87.0769 63.25C86.9462 63.0913 86.8809 62.9093 86.8809 62.704C86.8809 62.4053 86.9742 62.1673 87.1609 61.99C87.3476 61.8033 87.5809 61.71 87.8609 61.71C88.1222 61.71 88.3182 61.7893 88.4489 61.948C88.5889 62.0973 88.6589 62.2747 88.6589 62.48C88.6589 62.7693 88.5656 63.0073 88.3789 63.194C88.1922 63.3807 87.9589 63.474 87.6789 63.474ZM86.7409 72H85.4809L86.7549 64.72H88.0149L86.7409 72ZM89.5889 69.48C89.5703 69.6013 89.5563 69.7133 89.5469 69.816C89.5376 69.9093 89.5329 69.9933 89.5329 70.068C89.5329 70.3853 89.6263 70.6327 89.8129 70.81C90.0089 70.9873 90.2656 71.076 90.5829 71.076C90.7416 71.076 90.9003 71.0573 91.0589 71.02C91.2176 70.9827 91.3623 70.9313 91.4929 70.866L91.6189 71.888C91.4509 71.972 91.2549 72.0373 91.0309 72.084C90.8069 72.14 90.5643 72.168 90.3029 72.168C89.7429 72.168 89.2623 72.0093 88.8609 71.692C88.4689 71.3653 88.2729 70.8753 88.2729 70.222C88.2729 69.9793 88.2916 69.7413 88.3289 69.508L89.7009 61.64H90.9609L89.5889 69.48ZM96.7527 66.302C96.482 66.1153 96.1787 65.952 95.8427 65.812C95.516 65.672 95.1427 65.602 94.7227 65.602C94.284 65.602 93.9433 65.6767 93.7007 65.826C93.458 65.9753 93.3367 66.1713 93.3367 66.414C93.3367 66.554 93.374 66.6893 93.4487 66.82C93.5327 66.9413 93.6773 67.072 93.8827 67.212C94.0973 67.352 94.396 67.52 94.7787 67.716C95.4133 68.0333 95.8847 68.3647 96.1927 68.71C96.5007 69.046 96.6547 69.4613 96.6547 69.956C96.6547 70.4507 96.524 70.8613 96.2627 71.188C96.0013 71.5147 95.6513 71.762 95.2127 71.93C94.774 72.0887 94.2793 72.168 93.7287 72.168C93.1593 72.168 92.6553 72.098 92.2167 71.958C91.7873 71.8087 91.414 71.6173 91.0967 71.384L91.8107 70.348C92.0627 70.5533 92.3613 70.726 92.7067 70.866C93.052 71.006 93.43 71.076 93.8407 71.076C94.3073 71.076 94.676 70.9873 94.9467 70.81C95.2173 70.6327 95.3527 70.4133 95.3527 70.152C95.3527 69.9093 95.25 69.6853 95.0447 69.48C94.8487 69.2747 94.4613 69.0273 93.8827 68.738C93.416 68.5047 93.052 68.2807 92.7907 68.066C92.5293 67.842 92.3473 67.604 92.2447 67.352C92.142 67.1 92.0907 66.8107 92.0907 66.484C92.0907 66.1107 92.2027 65.7793 92.4267 65.49C92.6507 65.2007 92.9633 64.972 93.3647 64.804C93.766 64.636 94.228 64.552 94.7507 64.552C95.2733 64.552 95.74 64.622 96.1507 64.762C96.5707 64.8927 96.9393 65.0513 97.2567 65.238L96.7527 66.302Z" fill="black"/>
<path d="M80 8.92308V41.2308C80 43.0669 79.2706 44.8278 77.9723 46.1261C76.8342 47.2642 75.3846 48.1538 72.3077 48.1538M80 8.92308C80 7.08696 79.2706 5.32605 77.9723 4.02772M80 8.92308V9.67077M20 8.92308V41.2308C20 43.0669 20.7294 44.8278 22.0277 46.1261C23.1648 47.2632 24.6154 48.1538 27.6923 48.1538M20 8.92308C20 7.08696 20.7294 5.32605 22.0277 4.02772M20 8.92308V9.67385M77.9723 4.02772C76.6739 2.72939 74.913 2 73.0769 2H32.3077H26.9231C25.087 2 23.3261 2.72939 22.0277 4.02772M77.9723 4.02772L50 20.4615L22.0277 4.02772M27.6923 48.1538C27.9173 48.176 26.695 48.1538 26.9231 48.1538H73.0769C73.3035 48.1538 72.0841 48.1758 72.3077 48.1538M27.6923 48.1538V17.3846L46.3692 29.7662C47.4609 30.4386 48.7179 30.7946 50 30.7946C51.2821 30.7946 52.5391 30.4386 53.6308 29.7662L72.3077 17.3846V48.1538" stroke="black" stroke-width="4" stroke-linecap="round" stroke-linejoin="round"/>
<path d="M76 32.125C75.5 36.125 70.375 36.2917 67.875 35.875C68.875 40.375 65.7917 43.1667 64.125 44C68.625 45.5 68.5 50.0417 67.875 52.125C72.875 51.125 75.375 54.2083 76 55.875C77.5 51.375 82.0417 51.5 84.125 52.125C81.625 47.625 85.5833 44.8333 87.875 44C83.875 43 83.7083 38.1667 84.125 35.875C78.125 37.875 76.2083 34.2083 76 32.125Z" fill="white" stroke="black" stroke-width="2.5" stroke-linecap="round" stroke-linejoin="round"/>
<path d="M76 31.5V44V56.5" stroke="black" stroke-width="2.5" stroke-linecap="round"/>
<path d="M84.8389 35.1612L76 44L67.1612 52.8389" stroke="black" stroke-width="2.5" stroke-linecap="round"/>
<path d="M84.8389 52.8388L76 44L67.1612 35.1611" stroke="black" stroke-width="2.5" stroke-linecap="round"/>
<path d="M88.5 44L76 44L63.5 44" stroke="black" stroke-width="2.5" stroke-linecap="round"/>
<path d="M19 49L9.21212 39.5M19 49H4M19 49V34M19 49H24.5M2 49H4M7.66667 38L9.21212 39.5M19 32V34M9.21212 39.5C9.47475 41.3333 8.8 45.8 4 49M9.21212 39.5C12.4747 39.1667 19 37.6 19 34" stroke="black" stroke-width="2.5" stroke-linecap="round" stroke-linejoin="round"/>
</svg>
