<svg width="75" height="77" viewBox="0 0 75 77" fill="none" xmlns="http://www.w3.org/2000/svg">
<path d="M18.1937 26.6281L10.8886 19.821" stroke="#100C0D" stroke-width="1.45345"/>
<path d="M60.3415 52.8181L53.3088 45.73" stroke="#100C0D" stroke-width="1.45345"/>
<path d="M31.9785 19.1855V12.7903" stroke="#100C0D" stroke-width="1.45345"/>
<path d="M47.9723 24.3911L54.8936 14.2021" stroke="#100C0D" stroke-width="1.45345"/>
<path d="M18.2852 41.3077L8.32766 40.568" stroke="#100C0D" stroke-width="1.45345"/>
<path d="M21.6024 53.4868L14.6469 60.6508" stroke="#100C0D" stroke-width="1.45345"/>
<circle cx="20.639" cy="20.639" r="19.9122" transform="matrix(-1 0 0 1 55.2334 18.0228)" fill="#46B64A" stroke="#100C0D" stroke-width="1.45345"/>
<circle cx="4.36034" cy="4.36034" r="3.77896" transform="matrix(-1 0 0 1 51.7451 33.1386)" fill="white" stroke="#100C0D" stroke-width="1.16276"/>
<circle cx="3.77896" cy="3.77896" r="3.19758" transform="matrix(-1 0 0 1 42.4434 23.2552)" fill="white" stroke="#100C0D" stroke-width="1.16276"/>
<circle cx="4.06965" cy="4.06965" r="3.48827" transform="matrix(-1 0 0 1 43.0244 45.929)" fill="white" stroke="#100C0D" stroke-width="1.16276"/>
<circle cx="4.36034" cy="4.36034" r="3.77896" transform="matrix(-1 0 0 1 33.1406 27.9062)" fill="white" stroke="#100C0D" stroke-width="1.16276"/>
<circle cx="4.06965" cy="4.06965" r="3.48827" transform="matrix(-1 0 0 1 27.3271 41.2779)" fill="white" stroke="#100C0D" stroke-width="1.16276"/>
<path d="M63.9462 32.4204L54.7812 36.383" stroke="#100C0D" stroke-width="1.45345"/>
<path d="M48.5205 65.3189L43.4402 56.7228" stroke="#100C0D" stroke-width="1.45345"/>
<path d="M30.2344 67.5139L29.4922 57.5565" stroke="#100C0D" stroke-width="1.45345"/>
<circle cx="6.43134" cy="6.43134" r="5.70462" transform="matrix(-0.998743 0.0501301 0.0501301 0.998743 38.0732 0)" fill="#46B64A" stroke="#100C0D" stroke-width="1.45345"/>
<circle cx="6.43134" cy="6.43134" r="5.70462" transform="matrix(-0.998743 0.0501301 0.0501301 0.998743 15.6357 56.9752)" fill="#46B64A" stroke="#100C0D" stroke-width="1.45345"/>
<rect x="-0.290689" y="0.290689" width="0.581379" height="4.06965" rx="0.290689" transform="matrix(-1 0 0 1 48.2565 35.4641)" fill="#100C0D" stroke="#100C0D" stroke-width="0.581379"/>
<rect x="-0.290689" y="0.290689" width="0.581379" height="3.48827" rx="0.290689" transform="matrix(-1 0 0 1 38.9548 24.9993)" fill="#100C0D" stroke="#100C0D" stroke-width="0.581379"/>
<rect x="-0.290689" y="0.290689" width="0.581379" height="4.06965" rx="0.290689" transform="matrix(-1 0 0 1 28.4899 30.2317)" fill="#100C0D" stroke="#100C0D" stroke-width="0.581379"/>
<rect x="-0.290689" y="0.290689" width="0.581379" height="4.06965" rx="0.290689" transform="matrix(-1 0 0 1 23.2575 43.022)" fill="#100C0D" stroke="#100C0D" stroke-width="0.581379"/>
<rect x="-0.290689" y="0.290689" width="0.581379" height="4.06965" rx="0.290689" transform="matrix(-1 0 0 1 39.5358 47.6731)" fill="#100C0D" stroke="#100C0D" stroke-width="0.581379"/>
<circle cx="6.43134" cy="6.43134" r="5.70462" transform="matrix(-0.998743 0.0501301 0.0501301 0.998743 12.8467 9.61017)" fill="#46B64A" stroke="#100C0D" stroke-width="1.45345"/>
<circle cx="4.39747" cy="4.39747" r="3.67074" transform="matrix(-0.998743 0.0501301 0.0501301 0.998743 9.44727 35.6378)" fill="#46B64A" stroke="#100C0D" stroke-width="1.45345"/>
<circle cx="4.39747" cy="4.39747" r="3.67074" transform="matrix(-0.998743 0.0501301 0.0501301 0.998743 34.4443 65.1144)" fill="#46B64A" stroke="#100C0D" stroke-width="1.45345"/>
<circle cx="4.19727" cy="4.19727" r="3.47054" transform="matrix(-0.998743 0.0501301 0.0501301 0.998743 61.1221 6.4068)" fill="#46B64A" stroke="#100C0D" stroke-width="1.45345"/>
<circle cx="6.32835" cy="6.32835" r="5.60162" transform="matrix(-0.998743 0.0501301 0.0501301 0.998743 74.3652 25.2128)" fill="#46B64A" stroke="#100C0D" stroke-width="1.45345"/>
<circle cx="6.32835" cy="6.32835" r="5.60162" transform="matrix(-0.174934 -0.98458 -0.98458 0.174934 56.9775 74.7531)" fill="#46B64A" stroke="#100C0D" stroke-width="1.45345"/>
<circle cx="4.98254" cy="4.98254" r="4.25582" transform="matrix(-0.998743 0.0501301 0.0501301 0.998743 67.8496 50.053)" fill="#46B64A" stroke="#100C0D" stroke-width="1.45345"/>
</svg>
